<?xml version="1.0" encoding="utf-8"?>
<!-- Generator: Adobe Illustrator 27.2.0, SVG Export Plug-In . SVG Version: 6.00 Build 0)  -->
<svg version="1.1" id="图层_1" xmlns="http://www.w3.org/2000/svg" xmlns:xlink="http://www.w3.org/1999/xlink" x="0px" y="0px"
	 viewBox="0 0 35 35" style="enable-background:new 0 0 35 35;" xml:space="preserve">
<style type="text/css">
	.st0{fill:url(#形状_00000090977133422341406320000007776124522103076746_);}
	.st1{fill:url(#路径_00000093861736434942200960000008125310263007346575_);}
</style>
<g id="logo_x2F_通义大模型-标准">
	<g id="编组">
		
			<radialGradient id="形状_00000170987553185600006540000012327896563734956209_" cx="40.8484" cy="66.4114" r="1.122" gradientTransform="matrix(32 0 0 -32 -1301.9546 2160.5)" gradientUnits="userSpaceOnUse">
			<stop  offset="0" style="stop-color:#2E2977"/>
			<stop  offset="0.13" style="stop-color:#423C9F"/>
			<stop  offset="0.3" style="stop-color:#5A52CD"/>
			<stop  offset="0.42" style="stop-color:#685FEA"/>
			<stop  offset="0.5" style="stop-color:#6E65F5"/>
			<stop  offset="0.51" style="stop-color:#6E66F5"/>
			<stop  offset="0.68" style="stop-color:#797BF7"/>
			<stop  offset="0.84" style="stop-color:#7F88F8"/>
			<stop  offset="1" style="stop-color:#828DF9"/>
		</radialGradient>
		<path id="形状" style="fill:url(#形状_00000170987553185600006540000012327896563734956209_);" d="M33.6,20.9
			c0-0.1-0.1-0.1-0.1-0.1l-4-7l1.8-3.1c0.1-0.1,0.1-0.1,0.2-0.2c0.2-0.3,0.2-0.6,0-0.9l-2.3-4c-0.2-0.3-0.5-0.5-0.8-0.5l0,0l-8.1,0
			L18.4,2c-0.2-0.3-0.5-0.5-0.8-0.5h-4.2c-0.3,0-0.6,0.2-0.8,0.5c0,0.1-0.1,0.1-0.1,0.2l-4,7H4.7c-0.1,0-0.1,0-0.2,0l0,0
			c-0.3,0-0.6,0.2-0.8,0.5l-2.3,4c-0.2,0.3-0.2,0.6,0,0.9l4.1,7l-1.8,3.2c-0.2,0.3-0.2,0.6,0,0.9l2.1,3.7c0.2,0.3,0.5,0.5,0.8,0.5
			l0,0c0.1,0,0.1,0,0.2,0h8l2,3.4c0.2,0.3,0.4,0.4,0.7,0.5c0,0,0,0,0.1,0l0,0l4.6,0c0.3,0,0.6-0.2,0.8-0.5L27,26l3.7,0
			c0.3,0,0.6-0.2,0.8-0.5l2.1-3.7C33.7,21.6,33.7,21.2,33.6,20.9L33.6,20.9z M28.5,21.4l-2.2-3.8l-8.7,15.1l-2.2-3.9H6.6L8.8,25h4.4
			L4.5,10H9l4.4-7.6l2.1,3.7L13.3,10l17.3,0l-2.2,3.8l4.4,7.6L28.5,21.4L28.5,21.4z"/>
		
			<radialGradient id="路径_00000046314490420585498220000007552924957020192941_" cx="36.2606" cy="63.4732" r="3.9922" gradientTransform="matrix(8.9943 0 0 -8.9943 -326.4061 597.6665)" gradientUnits="userSpaceOnUse">
			<stop  offset="0" style="stop-color:#1329FF"/>
			<stop  offset="0.17" style="stop-color:#353FFB"/>
			<stop  offset="0.35" style="stop-color:#5454F7"/>
			<stop  offset="0.51" style="stop-color:#6760F5"/>
			<stop  offset="0.62" style="stop-color:#6E65F5"/>
			<stop  offset="0.66" style="stop-color:#716CF5"/>
			<stop  offset="0.76" style="stop-color:#7A7EF7"/>
			<stop  offset="0.87" style="stop-color:#8089F8"/>
			<stop  offset="1" style="stop-color:#828DF9"/>
		</radialGradient>
		<polygon id="路径" style="fill:url(#路径_00000046314490420585498220000007552924957020192941_);" points="17.5,23.6 
			22.7,14.6 12.3,14.6 		"/>
	</g>
</g>
</svg>
