<?xml version="1.0" encoding="utf-8"?>
<!-- Generator: Adobe Illustrator 27.2.0, SVG Export Plug-In . SVG Version: 6.00 Build 0)  -->
<svg version="1.1" id="图层_1" xmlns="http://www.w3.org/2000/svg" xmlns:xlink="http://www.w3.org/1999/xlink" x="0px" y="0px"
	 viewBox="0 0 13.6 13.6" style="enable-background:new 0 0 13.6 13.6;" xml:space="preserve">
<style type="text/css">
	.st0{fill:#ADAA89;}
	.st1{fill:#FEFEFE;}
	.st2{fill:#3B3837;}
	.st3{fill:#E9614C;}
	.st4{fill:#28688C;}
	.st5{fill:#1B3A80;}
</style>
<path class="st0" d="M9.5,13.6h4.7H9.5C9.5,13.6,9.5,13.6,9.5,13.6z"/>
<path class="st1" d="M13.5,13.6H0.1c0,0,0,0,0,0l0,0c0.3-0.6,0.5-1.2,0.8-1.8c1.3-2.7,2.5-5.3,3.8-8c0.6-1.2,1.1-2.4,1.7-3.6v0h0.9
	v0C7.5,0.7,7.8,1.3,8,1.9c0.7,1.5,1.4,3,2.1,4.5C11.3,8.7,12.4,11.1,13.5,13.6L13.5,13.6C13.5,13.5,13.5,13.6,13.5,13.6z"/>
<path class="st2" d="M13.5,0.1v13.4c-1.1-2.4-2.2-4.7-3.3-7.1c-0.7-1.5-1.4-3-2.1-4.5C7.8,1.3,7.5,0.7,7.3,0.1v0
	C9.3,0.1,11.4,0.1,13.5,0.1z M6.4,0.1C5.8,1.3,5.3,2.5,4.7,3.7c-1.3,2.7-2.5,5.3-3.8,8c-0.3,0.6-0.5,1.2-0.8,1.8c0,0,0,0,0,0V0.2
	c0,0,0,0,0,0C2.2,0.1,4.2,0.1,6.4,0.1z"/>
<path class="st3" d="M4.6,5.6l3.7-1.1L6.7,1L4.6,5.6z"/>
<path class="st4" d="M4.5,6.5L3.4,8.8l5.1,1.6l1.3-3l-1-2.2L4.5,6.5z"/>
<path class="st5" d="M8.7,11.3L2.8,9.6l-1.9,4h11.6l-2.5-5.2L8.7,11.3z"/>
</svg>
