<?xml version="1.0" encoding="utf-8"?>
<!-- Generator: Adobe Illustrator 27.2.0, SVG Export Plug-In . SVG Version: 6.00 Build 0)  -->
<svg version="1.1"
	 id="svg116" xmlns:rdf="http://www.w3.org/1999/02/22-rdf-syntax-ns#" xmlns:cc="http://creativecommons.org/ns#" xmlns:svg="http://www.w3.org/2000/svg" xmlns:dc="http://purl.org/dc/elements/1.1/" xmlns:sodipodi="http://sodipodi.sourceforge.net/DTD/sodipodi-0.dtd" xmlns:inkscape="http://www.inkscape.org/namespaces/inkscape"
	 xmlns="http://www.w3.org/2000/svg" xmlns:xlink="http://www.w3.org/1999/xlink" x="0px" y="0px" viewBox="0 0 560 560"
	 style="enable-background:new 0 0 560 560;" xml:space="preserve">
<style type="text/css">
	.st0{fill:#FF0000;}
	.st1{fill:#FF0000;stroke:#FF0000;stroke-width:0.3095;stroke-opacity:0;}
</style>
<sodipodi:namedview  bordercolor="#666666" borderopacity="1" gridtolerance="10" guidetolerance="10" id="namedview118" inkscape:current-layer="svg116" inkscape:cx="308.15451" inkscape:cy="103.32424" inkscape:pageopacity="0" inkscape:pageshadow="2" inkscape:window-height="480" inkscape:window-maximized="0" inkscape:window-width="731" inkscape:window-x="0" inkscape:window-y="23" inkscape:zoom="1.055224" objecttolerance="10" pagecolor="#ffffff" showgrid="false">
	</sodipodi:namedview>
<g>
	<g id="layer101">
		<path id="path84" d="M30.7,373.5v-7.4l-14.2-0.3l-14.3-0.3V345v-20.5l14.3-0.3l14.2-0.3v-3.4c0-3.5,0-3.5,4.5-3.5s4.5,0,4.5,3.5
			v3.5h14h14v17.5c0,10.6-0.4,18.4-1.1,19.8c-1.7,3.8-5,4.7-16.4,4.7H39.7v7.5v7.5h-4.5h-4.5V373.5z M30.5,344.8l-0.3-12.3h-9h-9
			l-0.3,12.3L11.6,357h9.6h9.6L30.5,344.8z M57.7,344.5V332h-9h-9v12.5V357h9h9V344.5z"/>
		<path id="path86" d="M78.9,349.3l0.3-31.8h33.5h33.5l0.3,28.8l0.2,28.8l-2.9,3l-2.9,2.9h-31.1H78.7L78.9,349.3z M136.5,348.8
			l0.2-23.8h-24h-24v24v24l23.8-0.2l23.7-0.3L136.5,348.8z"/>
		<path id="path88" d="M92.1,365.6c-0.3-0.8-0.4-2.5-0.2-3.8c0.3-2.1,0.8-2.3,7.6-2.6l7.2-0.3V355v-4h-7.5h-7.5v-3.5V344h7.5
			c7.3,0,7.5-0.1,7.5-2.5c0-2.3-0.3-2.4-7.2-2.7l-7.3-0.3l-0.3-3.7l-0.3-3.8h20.6h20.6l-0.3,3.8l-0.3,3.7l-7.7,0.3
			c-7.5,0.3-7.8,0.4-7.8,2.7c0,2.4,0.2,2.5,8,2.5h8v3.5v3.5h-8h-8v4c0,3.6,0.3,4,2.5,4c1.8,0,2.5-0.5,2.5-2c0-1.8,0.7-2,5.5-2h5.6
			l-0.3,5.8l-0.3,5.7l-19.8,0.3C95.9,367,92.6,366.8,92.1,365.6z"/>
		<path id="path90" d="M186.4,380.4c-0.4-0.4-0.7-3.8-0.7-7.5v-6.8l-13.7-0.3l-13.8-0.3l-0.3-20.7l-0.2-20.8h14h14v-3.6v-3.5
			l4.8,0.3c4.5,0.3,4.7,0.4,5,3.5l0.3,3.2l13.7,0.3l13.7,0.3l0.3,17.7c0.2,17.4,0.2,17.7-2.2,20.5c-2.4,2.7-2.7,2.8-14,3.1
			l-11.5,0.4l-0.3,7.1l-0.3,7.2l-4,0.3C188.9,381,186.8,380.8,186.4,380.4z M185.7,344.5V332h-9h-9v12.5V357h9h9V344.5z
			 M213.5,344.8l-0.3-12.3l-8.7-0.3l-8.8-0.3v12.6V357h9h9.1L213.5,344.8z"/>
		<path id="path92" d="M234.7,376.6c0-3.4,0.4-4.6,1.5-4.6c5.9,0,25-10,26.3-13.7c0.3-1-2.9-1.3-13.7-1.3h-14.1v-4c0-3.3,0.3-4,2-4
			c1.9,0,2-0.7,2-12.5V324h14h14v-3.6v-3.5l4.8,0.3c4.5,0.3,4.7,0.4,5,3.6l0.3,3.2h13.5h13.4v12.5V349h2.5c2.3,0,2.5,0.4,2.5,4v4
			h-14.6h-14.6l3.3,3.4c3.8,4.1,13.4,9.1,20.7,10.8l5.2,1.3v4.4v4.3l-4.6-0.7c-8.3-1.2-20-6.1-26.4-10.9c-6.2-4.7-7.3-4.9-9.8-1.4
			c-2.6,3.6-19.4,10.7-28.9,12.3l-4.3,0.7V376.6z M266.7,340.5V332h-9h-9v8.5v8.5h9h9V340.5z M294.7,340.5V332h-9h-9v8.5v8.5h9h9
			V340.5z"/>
		<path id="path94" d="M410.7,371c0-5.5-0.2-10-0.4-10c-0.2,0-2.4,2-4.9,4.5c-2.6,2.5-5.1,4.5-5.7,4.5c-0.6,0-1-2.4-1-5.6
			c0-5.4,0.2-5.7,5.4-10.9c3-3,6.5-7.4,7.9-9.9l2.5-4.5l-7.6-0.3l-7.7-0.3v-4v-4l5.9-0.3l5.9-0.3l-3.4-3.5l-3.4-3.6l3.5-2.9l3.4-2.9
			l4.3,4.2c4.1,4,4.2,4.3,2.8,6.5c-1.5,2.3-1.5,2.3,3.5,2.3c2.7,0,5,0.2,5,0.4c0,0.1-1.1,3.3-2.4,7l-2.4,6.6l2.4,2.9
			c1.8,2.2,2.4,4.1,2.4,7.7v4.8l-3.5-3.4l-3.5-3.4v14.2V381h-4.5h-4.5V371z"/>
		<path id="path96" d="M429.7,380.7c0-0.2,3.4-7,7.5-15l7.5-14.7v-8.5V334h4.5h4.5v9.9c0,9.6,0.1,10,2.3,10.3
			c2.1,0.3,2.2,0.8,2.5,9.1l0.3,8.7h8.4h8.5v4.5v4.5h-11.4c-13.7,0-13.9-0.2-14.6-10.9l-0.5-7.6l-5,9.2l-5,9.3h-4.7
			C431.8,381,429.7,380.8,429.7,380.7z"/>
		<path id="path98" d="M487.4,380.3c-0.4-0.3-0.7-7.1-0.7-15V351l33.3,0.2l33.2,0.3l0.3,10.3c0.3,11.5-1.1,16.1-5.4,18.1
			C545.4,381.1,488.6,381.5,487.4,380.3z M542.7,366v-7h-23h-23v7v7h23h23V366z"/>
		<path id="path100" d="M353.1,379.2c-2.4-1.7-4.4-5.9-4.4-9.4V366h-13.5h-13.5v-20.5V325h13.5h13.5v-3.5V318h5h5v3.5v3.5h14h14
			v17.6v17.6l-2.9,2.9c-2.9,2.9-3.1,2.9-14,2.9h-11.1v3v3h17h17v4v4h-19.2C362.9,380,353.7,379.6,353.1,379.2z M348.7,354v-4h-9h-9
			v4v4h9h9V354z M376.7,354v-4h-9h-9v4v4h9h9V354z M348.7,337v-4h-9h-9v4v4h9h9V337z M376.7,337v-4h-9h-9v4v4h9h9V337z"/>
		<path id="path102" d="M429.7,337v-18h20h20v18v18h-4.5h-4.5v-14.5V326h-11h-11v14.5V355h-4.5h-4.5V337z"/>
		<path id="path104" d="M548,347.5c-1.7-1.2-7.6-1.5-33.4-1.7l-31.4-0.3V342c0-3,0.3-3.5,2.6-3.8c1.9-0.2,5.1-3.1,11.3-10.3l8.7-9.9
			h6c3.2,0,5.9,0.4,5.9,0.9s-0.4,1.1-0.9,1.3c-0.7,0.3-10.2,11.1-14,16.1c-1.3,1.6-0.3,1.7,17,1.7h18.3l-3.2-3.3
			c-3.1-3.2-4.1-5.7-2.3-5.7c0.5,0,1.9-1.1,3.2-2.4l2.3-2.4l9.8,9c8.7,8.1,11.6,11.8,9,11.8c-0.5,0-1.9,0.9-3.2,2
			C550.9,349.4,550.7,349.4,548,347.5z"/>
		<path id="path106" d="M101.7,282.6c-12.1-4.1-16.8-6.6-24.7-12.9c-8.6-6.9-13.9-14.2-16.8-23.3c-4.1-12.3-2.9-23.6,3.9-36.3
			c3.3-6.1,14.5-15.8,24-20.7c14.4-7.5,20.4-8.6,46.9-9.1l22.7-0.5v13.6V207h-21.5c-24.1,0-27.1,0.6-36.2,7.3
			c-8.9,6.5-12.7,19-8.4,27.4c3.2,6.3,8,10.9,14.5,13.9c5.5,2.5,6.5,2.6,16,2.1c8.5-0.5,20.7-2.9,26.8-5.2c1-0.4,2,0.7,3.2,3.7
			c1,2.4,2.4,5.7,3.2,7.3c0.7,1.7,2.3,5.2,3.4,8l2.1,4.9l-2.3,1.8c-1.3,0.9-4.1,2.1-6.3,2.7c-2.2,0.5-7.1,1.9-11,3
			c-5.4,1.6-9.6,2.1-18.5,2C112.4,285.9,110.2,285.5,101.7,282.6z"/>
		<path id="path108" d="M200.7,282.7c-11.7-4.1-15.8-6.2-23.8-12.2c-12.5-9.4-19.2-21.2-20-35.2c-0.4-7.2-0.1-9.2,2.4-16.4
			c2.5-7.1,3.9-9.2,10.6-16.4c6.4-6.8,9.4-9.1,16.5-12.8c4.9-2.5,12.6-5.6,17.3-6.8c7.7-2.2,10.5-2.4,30.5-2.4h22l0.3,13.3l0.3,13.2
			h-21.6c-21.1,0-21.6,0-28.1,2.7c-15.4,6.4-22.3,20.6-15.9,32.7c3.4,6.4,8,10.7,14.5,13.5c5,2.2,6.4,2.3,15.5,1.8
			c8.5-0.6,15.6-2,26-5.2c1.8-0.5,2.6,0.6,6.4,9.2c6.2,14.4,6.4,15.1,3.8,16.7c-1.2,0.8-7.1,2.8-13.1,4.5
			c-9.4,2.7-12.5,3.1-22.5,3.1C211.3,285.9,209.3,285.6,200.7,282.7z"/>
		<path id="path110" d="M301.7,246v-39h-18.5h-18.6l0.3-13.2l0.3-13.3l59.2-0.3l59.2-0.2l1.5,2.2c0.8,1.3,2.1,4.5,3,7.1
			c0.9,2.7,2.4,6.3,3.3,8c0.9,1.8,2,4.6,2.4,6.2c0.4,1.7,2.8,8,5.3,14c2.5,6.1,4.6,11.4,4.6,11.8c0,0.4,1,2.9,2.1,5.5
			c1.2,2.6,3,7,3.9,9.7c0.9,2.8,2.1,5,2.6,5s1.9-2.5,3.1-5.5s2.9-7.2,3.8-9.2c0.9-2.1,2-5,2.5-6.5c0.9-2.9,6.3-16.3,8-19.8
			c0.5-1.1,1.6-3.8,2.4-6c3.6-10.1,7.5-19.7,8.6-21c1-1.2,4.3-1.5,16.2-1.5h15l-0.5,2.3c-0.5,2.3-2,6.1-8.6,22.3
			c-2.2,5.6-4.1,10.4-4.1,10.8c0,0.4-0.9,2.6-1.9,4.9c-2.2,4.9-5.7,13.5-7.7,19.2c-0.8,2.2-1.9,4.9-2.4,6c-1.9,4-7.2,17.1-8.1,20.2
			c-0.5,1.8-1.6,4.5-2.4,6c-0.8,1.5-2.2,5.2-3.1,8l-1.7,5.3h-19.2h-19.3l-0.7-2.7c-0.7-3.3-9.7-26.4-13.1-34.1
			c-1.3-2.9-2.4-5.7-2.4-6.3c0-0.6-1.1-3.5-2.5-6.5c-1.4-3-2.5-5.9-2.5-6.4c0-0.6-1.1-3.3-2.5-6.2c-1.4-2.8-2.5-5.8-2.5-6.5
			c0-0.8-0.9-3.2-2-5.3l-2-4h-16h-16v39v39h-14.5h-14.5V246z"/>
	</g>
	<g id="layer102">
		<path id="path113" class="st0" d="M466.7,267.5V250h18h18v17.5V285h-18h-18V267.5z"/>
	</g>
	<path id="path124" class="st1" d="M466.9,267.5v-17.3h17.8h17.8v17.3v17.3h-17.8h-17.8V267.5z"/>
	<path id="path126" class="st1" d="M466.9,267.5v-17.3h17.8h17.8v17.3v17.3h-17.8h-17.8V267.5z"/>
	<path id="path128" class="st1" d="M466.9,267.5v-17.3h17.8h17.8v17.3v17.3h-17.8h-17.8V267.5z"/>
</g>
</svg>
