<svg class="icon aminer-logo-kst" viewBox="0 0 1458 1024" version="1.1" xmlns="http://www.w3.org/2000/svg" p-id="19254" width="38" height="38"><path d="M962.421643 0.279197l-10.175165 2.016419-13.587567 1.985398-6.793783 2.047442-8.468963 2.01642-8.499985 1.985398-5.087582 2.016419-8.499985 1.985398-5.118604 2.01642-6.793784 2.047442-5.087582 1.985398-6.824805 1.985397-5.056561 2.01642-5.118604 2.01642-5.118604 2.01642-3.38138 2.01642-5.087583 2.016419-5.118604 1.985398-5.087582 2.01642-3.412403 2.01642-5.087582 2.016419-3.412402 1.985398-5.118604 2.01642-3.412403 2.01642-5.087582 1.985398-3.412403 2.047441-3.381381 2.01642-5.087582 1.985398-3.412403 2.01642-5.087582 2.01642-3.412402 1.985398-3.412403 2.047441-3.412403 1.985398-5.087582 1.985398-1.706201 2.047442-3.412403 1.985398-5.118604 2.016419-3.412403 2.01642-3.381381 1.985398h-3.412402v4.03284h3.412402l3.350359 2.016419 3.350359 2.01642 5.056561 1.985398 3.412402 2.01642 3.350359 2.01642 3.412403 1.985397 5.05656 2.047442 3.381381 1.985398 3.381381 1.985398 3.350359 2.047442 3.381381 2.016419 5.087582 1.985398 3.350359 2.01642 5.05656 2.01642 3.412403 1.985398 5.05656 2.047441 3.350359 1.985398 5.087583 2.01642 3.38138 1.985398 5.056561 2.01642 3.381381 2.016419 5.05656 2.047442 5.087582 1.985398 3.381381 1.985398 6.762762 2.047441 3.350359 1.985398 6.762761 2.01642 5.087583 2.01642 6.762761 1.985398 5.056561 2.01642 6.762761 2.016419 6.762762 2.01642 5.087582 2.01642 10.144143 1.985398 6.762761 2.01642 10.144143 2.016419 10.175164 1.985398 16.906904 2.047442h59.313763l18.644128-2.047442 8.531006-1.985398 11.850344-2.016419 6.793784-2.01642 8.499984-1.985398 6.824806-2.01642 5.087582-2.01642 6.793783-2.016419 5.087583-2.01642 6.793783-1.985398 5.118604-2.01642 6.762762-2.01642 3.412403-1.985398 6.824805-2.047441 3.381381-1.985398 6.824805-1.985398 3.381381-2.047442 3.412403-2.016419 6.793783-2.01642 3.412403-1.985398 5.087582-2.01642 3.412403-1.985398 5.087582-2.047441 3.412402-1.985398 5.087583-2.01642 3.412402-2.01642 3.412403-1.985398 3.412403-2.016419 3.381381-2.047442 5.087582-1.985398 3.412402-1.985398 3.412403-2.047442 3.412403-1.985397 5.087582-2.01642 3.412403-2.01642 3.412402-1.985398 3.412403-2.01642 3.412403-1.985398 3.38138-2.047441-1.675179-2.01642-5.087582-1.985398-3.381381-2.01642-3.381381-2.016419-3.381381-1.985398-3.319337-2.047442-5.087582-1.985398-1.67518-1.985398-5.087582-2.047441-3.412402-1.985398-5.025539-2.01642-1.675179-2.01642-5.087583-1.985398-3.38138-2.01642-5.056561-2.047441-3.381381-1.985398-3.350359-2.01642-5.087582-2.01642-3.350359-1.985398-5.087582-2.016419-5.087582-2.01642-5.05656-2.01642-3.350359-1.985398-5.087583-2.016419-5.05656-2.01642-5.087582-2.01642-5.05656-2.01642-3.381381-2.01642-6.762762-1.985397-5.087582-1.985398-6.73174-2.047442-6.762762-2.01642-6.762761-1.985398L1082.662304 10.330274 1074.224363 8.344876 1067.461601 6.328456l-8.468963-2.047442-11.850343-1.985398L1035.322973 0.279197zM814.416432 195.623739l-2.791966 1.17883-1.17883 0.744524-2.01642 0.868612-4.870429 2.01642-3.226272 2.047441-4.808385 2.01642-3.226272 2.047442-4.808385 2.016419-3.257294 2.047442-4.808385 2.047442-3.226272 2.047441-3.226272 2.01642-4.839407 2.047442-3.226272 2.016419-3.19525 2.047442-3.257293 2.047441-4.808386 2.01642-3.226271 2.047442-3.257294 2.01642-3.195249 2.047441-4.839408 2.047442-3.226272 2.01642-3.226271 2.047441-3.226272 2.01642-3.226271 2.047442-3.226272 2.047441-3.226272 2.01642-3.226271 2.047442-3.226272 2.016419-4.839407 2.047442-1.582114 2.047442-4.87043 2.016419-1.582114 2.047442-4.839407 2.047442h-1.613136l-3.19525-2.047442-3.195249-2.047442-4.808386-2.016419-3.19525-2.047442-3.19525-2.047442-3.195249-2.016419-3.19525-2.047442-3.19525-2.01642-2.047441-0.868611-1.147809-0.744525-2.512769-1.582114-0.68248-0.899633-3.19525-2.01642-3.19525-2.047441-3.19525-2.01642-4.808385-2.047442-3.164228-2.047441-3.226272-2.01642-3.19525-2.047442-4.808385-2.01642-3.19525-2.047441-3.19525-2.047442-3.19525-2.016419-3.195249-2.047442-4.808386-2.01642-3.19525-2.047441-2.01642-0.868612-1.17883-0.744524-2.791965-1.17883-2.01642-1.302918-3.164228-2.016419-2.047442-0.868612-1.17883-0.744524-2.326638-0.713503-4.063861-1.737223-3.19525-2.047441-3.19525-2.01642-4.808385-2.047442-3.19525-2.047441-4.808386-2.01642-4.777364-2.047442-4.808385-2.047441-3.19525-2.01642-6.421521-2.047442v-2.01642l4.870429-2.047441 4.808386-2.047442 3.226271-2.016419 6.421522-2.047442 3.257293-2.01642 4.808386-2.047441 3.226271-2.047442 4.839408-2.01642 3.226271-2.078463 3.226272-1.985398 6.421521-2.047442 3.226272-2.047441 3.226272-2.01642 3.226271-2.047442 4.839408-2.01642 3.226271-2.047441 4.839408-2.047442 3.195249-2.047441 3.226272-2.047442 3.226272-2.01642 3.226271-2.047441 4.839408-2.01642 3.226271-2.047442 3.226272-2.047441 3.226272-2.01642 3.195249-2.047442 3.226272-2.016419 4.839407-2.047442 3.226272-2.047442 1.613136-2.016419 4.839407-2.047442 1.644158-2.01642 4.808386-2.047441 3.226271-2.047442 3.226272-2.01642 3.226271-2.047441 3.226272-2.01642 3.226272-2.047442h4.808385l3.19525 2.047442 3.19525 2.01642 3.19525 2.047441 3.195249 2.01642 3.19525 2.047442 3.19525 2.047441 3.226272 2.01642 4.777363 2.047442 1.582114 2.016419 3.19525 2.047442 4.808386 2.047442 3.195249 2.016419 3.19525 2.047442 3.19525 2.01642 4.808386 2.047441 1.582114 2.047442 4.808385 2.01642 3.226272 2.047441 3.164228 2.01642 4.808385 2.047442 3.19525 2.047441 3.19525 2.047442 3.19525 2.047441 4.808385 2.01642 3.19525 2.047442 4.808386 2.01642 3.195249 2.047441 4.808386 2.047442 3.19525 1.985398 4.777364 2.078463 3.226271 2.01642 4.777364 2.047442 4.808386 2.047441 3.195249 2.01642 4.808386 2.047442 4.808385 2.016419 4.777364 2.047442 4.808386 2.047441v2.01642l-6.452543 2.047442-3.226272 2.01642-6.421521 2.047441-3.226272 2.047442-4.839408 2.01642zM1299.473962 104.760762l-3.19525 2.078464-4.777364 1.985398-1.613136 2.047441-4.777363 2.047442-1.613136 2.01642-4.777364 2.078463-3.19525 1.985398-3.164228 2.047442-3.226271 2.047441-3.19525 2.01642-3.19525 2.078463-3.164228 2.01642-4.808385 2.01642-3.164228 2.047441-3.226272 2.047442-3.164228 2.047442-4.808386 2.016419-1.613135 2.047442-4.777364 2.01642-3.164228 2.047441-3.226272 2.01642-4.746342 2.047442-3.226271 2.047441-4.777364 2.01642-3.164228 2.047442-4.777364 2.047441-3.226271 2.01642-4.777364 2.047442-3.19525 2.01642-3.19525 2.047441-4.777363 2.047442-3.19525 2.01642-4.777364 2.047441-4.777364 2.047442-4.777363 2.01642-3.226272 2.047441-6.359478 2.047442-4.746342 2.016419v2.01642l6.328456 2.047442 4.746342 2.047441 4.746342 2.047442 3.133206 2.01642 6.359478 2.01642 3.19525 2.047441 4.746342 2.047442 3.164228 2.01642 3.133206 2.047441 4.777363 2.047442 3.164228 2.01642 4.746342 2.047441 3.164228 2.01642 4.746342 2.047442 3.164228 2.078463 4.777364 1.985398 3.133206 2.047442 3.19525 2.047441 4.746342 2.01642 3.164227 2.078463 3.164228 1.985398 3.164228 2.047442 3.164228 2.047441 3.164228 2.01642 4.746342 2.078464 3.164228 2.016419 3.164228 2.01642 3.164228 2.047442 3.164228 2.047441 4.746342 2.01642 1.582114 2.047442 4.746342 2.047441 3.164228 2.01642 3.195249 2.047442 3.164228 2.01642 3.133206 2.047441 3.164228 2.047442 3.164228 2.01642h3.164228l3.226272-2.01642 3.19525-2.047442 3.164228-2.047441 3.195249-2.01642 3.226272-2.047442 3.19525-2.01642 4.777364-2.047441 1.613135-2.047442 4.777364-2.01642 3.19525-2.047441 3.164228-2.047442 3.19525-2.01642 3.195249-2.016419 3.19525-2.078464 3.19525-2.01642 4.777364-2.047441 1.613135-2.047442 4.777364-1.985398 3.19525-2.078463 3.19525-2.01642 2.885031-1.240874 0.310219-0.372262 2.791965-1.17883 1.985398-1.302917 3.19525-1.985398 3.19525-2.078463 4.777364-2.047442 3.195249-2.01642 4.777364-2.047441 3.19525-2.01642 4.777364-2.047442 3.195249-2.047441 3.19525-2.01642 4.777364-2.047442 4.777364-2.047441 4.808385-2.01642 3.164228-2.01642 4.808386-2.047442 4.777364-2.047441 4.777363-2.047442h1.023721l1.861311-0.806568-2.885032-1.209852-3.133206-2.016419-6.359477-2.047442-3.164228-2.047441-4.746342-2.01642-4.746342-2.047442-4.777364-2.047441-3.164228-2.01642-4.746342-2.047442-3.164228-2.047441-3.164228-2.01642-4.746342-2.047442-3.164228-2.01642-4.777363-2.047441-3.164228-2.047442-4.746342-2.01642-3.164228-2.047441-3.133206-2.047442-3.19525-2.01642-4.746342-2.047441-3.164228-2.01642-3.164228-2.047442-3.164228-2.016419-3.164228-2.047442-4.777363-2.047442-1.551092-2.047441-4.746342-2.01642-3.19525-2.01642-3.133206-2.078463-3.19525-2.01642-3.164228-2.047441-3.133206-2.047442-3.164228-1.985398-4.777364-2.078463-3.164228-2.01642-3.164228-2.047442-3.164228-2.047441-3.164227-1.985398-3.164228-2.078464zM1212.364628 300.105305l-2.6989 1.613135-1.240874 0.744525-2.171529 0.837589-3.412403 2.01642-5.087582 1.985398-3.412403 2.01642-3.412402 1.985398-3.412403 2.01642-5.087582 2.016419-3.412403 2.01642-3.412403 2.01642-5.118604 1.985398-3.412402 2.047441-5.087582 1.985398-3.412403 2.01642-6.793784 1.985398-3.412402 2.047442-5.087582 1.985397-3.164228 1.861311-1.954376 0.589415-1.240874 0.713502-2.171529 0.868612-6.793784 1.985398-3.412402 2.047442-6.824806 1.985397-2.140507 1.271896-2.791966 1.116786-6.948892 1.644158-5.118604 2.01642-6.824806 1.985398-5.087582 2.016419-8.499985 2.01642-6.824805 2.01642-6.793784 2.01642-11.850344 1.985398-8.531006 2.016419-16.968948 2.01642-5.739041 0.403284h-49.634948l-5.708019-0.403284-16.968948-2.01642-10.175164-2.016419-11.229907-1.892333-5.676997-1.706201-0.775546-0.124087-0.930656-0.279197-6.762761-2.01642-6.793784-2.01642-6.762762-2.016419-6.762761-1.985398-5.087582-2.01642-6.762762-1.985398-5.087582-2.047442L871.713775 341.519464l-3.381381-2.047441-5.05656-1.985398-5.087582-2.01642-5.087582-2.01642-5.087583-1.985398-3.350359-2.047441-5.087582-1.985398-3.381381-2.01642-5.087582-1.985398-2.140507-0.868611-1.240874-0.744525-2.916053-1.147808-2.109485-1.271895-3.412403-2.01642-5.05656-2.01642-3.412403-2.01642-3.350359-2.016419-5.087582-1.985398-3.381381-2.01642-3.381381-1.985398-3.381381-2.01642-5.05656-2.01642-3.381381-2.016419-2.171529-0.83759-1.209852-0.744524-2.667878-1.582114-0.682481-0.83759-3.412402-2.047442-5.087582-1.985398-3.350359-2.016419h-3.412403v-3.598534h3.412403l3.443424-1.985398 3.412403-2.01642 5.087582-2.016419 3.412403-2.01642 1.706201-2.01642 5.118604-1.985398 3.412403-2.01642 2.171529-1.271895 2.947075-1.147808 0.961677-1.17883 0.713502-0.434306 5.118604-1.985398 3.412403-2.01642 5.087582-2.01642 3.412403-2.016419 3.412402-2.01642 5.087583-2.01642 3.412402-2.01642 5.118604-1.985398 3.412403-2.016419 5.087582-1.985398 3.412403-2.01642 5.118604-2.01642 5.087582-2.01642 5.118604-2.016419 3.412403-1.985398 5.118604-2.01642 5.087582-2.01642 5.118604-2.01642 6.793783-1.985398 5.118604-2.016419 6.793784-2.01642 5.118604-2.01642 8.499985-2.01642 5.087582-1.985397 8.499985-2.01642 8.499985-2.01642 6.793783-2.01642 13.587567-2.01642 10.237208-1.985397h72.932352l11.881366 1.985397 11.850344 2.01642 8.468963 2.01642 6.762761 2.01642 8.468963 2.01642 6.824806 1.985397 6.73174 2.01642 4.281014 1.271896 0.806568 0.310218 1.271895 0.310219 0.403284 0.124087 6.793784 2.01642 5.05656 2.016419 4.312036 1.240874 0.775546 0.310219 2.916053 1.17883 2.140508 1.240873 5.087582 2.047442 5.05656 2.01642 5.087582 1.985398 5.087582 2.016419 3.381381 2.01642 5.056561 2.01642 5.05656 2.01642 2.171529 0.837589 1.240874 0.713503 2.916053 1.17883 2.140507 1.240874 5.087582 2.016419 3.381381 2.01642 3.381381 2.01642 5.087582 2.01642 3.381381 2.016419 2.109485 0.868612 1.240874 0.713502 2.667878 1.582114 0.713503 0.868612 5.087582 1.985398 3.381381 2.01642 5.05656 2.016419 1.675179 2.01642 5.087583 1.985398 3.38138 2.01642 3.350359 2.01642 3.412403 2.016419 3.381381 2.01642 5.05656 1.985398 0.372262 0.434306 0.775546 1.892332-2.171529 1.271896h-0.713502l-3.412403 2.016419-3.412402 1.985398-3.381381 2.047442-3.412403 1.985398-5.118604 2.01642zM551.661426 391.123391l4.839407-2.047442 4.839408-2.01642 2.047441-1.302917 2.791966-1.17883 0.744524-0.310219 4.063862-1.271895 3.226271-2.078464 4.839408-2.016419 3.226271-2.01642 4.808386-2.047442 2.047441-1.302917 2.791966-1.17883 3.226272-2.01642 0.744524-0.310218 4.094883-1.302918 3.226272-2.047441 3.226272-2.047442 2.016419-1.271895 2.791966-1.17883 1.17883-0.744525 2.078464-0.868611 3.195249-2.01642 4.87043-2.047442 3.195249-2.047441 3.226272-2.01642 3.226272-2.047442 3.226271-2.016419 4.839408-2.047442 3.226271-2.047442 3.19525-2.016419 3.257294-2.047442 3.226271-2.01642 3.19525-2.047441 4.839407-2.047442 3.226272-2.01642 1.644158-2.047441 4.808385-2.01642 0.682481-0.868612 2.543791-1.613136 1.17883-0.744524 2.047442-0.868611 3.226271-2.047442 3.226272-2.01642 3.226271-2.047441 3.226272-2.01642 3.226272-2.047442h4.808385l3.19525 2.047442 3.19525 2.01642 3.226271 2.047441 3.164228 2.01642 3.19525 2.047442 3.226272 2.047441 3.164228 2.047442 4.808385 2.01642 1.582114 2.047441 3.19525 2.01642 4.808386 2.047442 3.195249 2.047441 3.19525 2.01642 3.19525 2.047442 2.047442 0.837589 1.17883 0.744525 2.481747 1.613135 0.713502 0.868612 4.777364 2.047442 3.19525 2.016419 3.19525 2.047442 2.916053 1.240874 0.310218 0.372262 2.760944 1.17883 2.01642 1.271895 3.19525 2.047442 3.19525 2.01642 4.808385 2.047441 3.19525 2.01642 4.808386 2.047442 3.195249 2.047441 4.808386 2.01642 3.19525 2.047442 4.777364 2.047441 3.226271 2.047442 4.808386 2.01642 4.777364 2.016419 3.226271 2.078464 4.777364 2.01642 4.808385 2.047441 4.777364 2.01642 4.808386 2.047442v2.047441l-6.421522 2.01642-3.226271 2.047442-6.452543 2.016419-3.226272 2.047442-4.839408 2.047442-3.226271 2.016419-4.839408 2.047442-4.808385 2.01642-3.226272 2.047441-4.839407 2.047442-3.226272 2.01642-4.808385 2.047441-3.257294 2.01642-4.839407 2.047442-3.19525 2.047441-3.226272 2.01642-4.839407 2.047442-3.226272 2.047441-3.226271 2.01642-3.19525 2.047442-4.839408 2.016419-3.257293 2.047442-3.19525 2.047442-3.226271 2.016419-4.839408 2.047442-3.226272 2.01642-3.226271 2.047441-3.226272 2.047442-3.226271 2.01642-3.226272 2.047441-3.226272 2.01642-3.226271 2.047442-3.226272 2.047441-4.839407 2.01642-1.613136 2.047442-4.808386 2.016419-1.644157 2.047442-4.808386 2.047442h-1.613136l-3.19525-2.047442-3.195249-2.047442-4.808386-2.016419-3.19525-2.047442-3.19525-2.01642-3.195249-2.047441-3.19525-2.047442-3.19525-2.01642-4.808385-2.047441-1.582114-2.01642-3.19525-2.047442-3.226272-2.047441-3.164228-2.01642-4.808385-2.047442-3.226272-2.016419-3.164228-2.047442-3.19525-2.047442-4.808385-2.016419-3.19525-2.047442-3.19525-2.01642-3.19525-2.047441-3.195249-2.047442-4.808386-2.01642-3.19525-2.047441-4.777364-2.047442-3.226271-2.01642-3.19525-2.047441-4.777364-2.01642-4.839407-2.047442-3.164228-2.047441-3.19525-2.01642-4.839407-2.047442-3.164228-2.016419-4.808386-2.047442-4.808385-2.047442-4.808386-2.016419-3.19525-2.047442-6.390499-2.01642zM1299.163743 313.754915l-3.19525 2.078464-4.746341 2.01642-1.613136 2.047441-4.777364 2.047442-1.582114 2.047441-4.777364 2.01642-3.19525 2.047442-3.195249 2.047441-3.19525 2.047442-3.164228 2.047442-3.19525 2.016419-3.164228 2.078464-4.808385 2.01642-3.164228 2.047441-3.226272 2.047442-3.164228 2.01642-2.01642 0.868611-1.17883 0.744524-2.481747 1.613136-0.682481 0.868612-4.777363 2.047441-3.19525 2.047442-3.19525 2.01642-4.746342 2.047441-3.19525 2.047442-4.777363 2.047442-3.19525 2.016419-1.985398 0.868612-1.17883 0.775546-2.729922 1.17883-2.047442 1.240874-4.777364 2.078463-3.195249 2.047442-3.164228 2.016419-4.808386 2.078464-3.164228 2.01642-4.746342 2.047441-4.808385 2.047442-4.746342 2.01642-3.19525 2.078463-6.359478 2.01642-2.016419 0.868611-1.147809 0.744525-1.613135 0.68248v1.768245l6.328455 2.078464 4.746342 2.016419 4.746342 2.047442 3.164228 2.047442 6.297434 2.016419 3.19525 2.078464 4.71532 2.01642 3.164228 2.047441 3.164228 2.047442 4.746342 2.01642 3.133206 2.078463 4.746342 2.047442 3.19525 2.016419 4.71532 2.047442 3.164228 2.047442 4.746342 2.016419 3.133206 2.047442 3.164228 2.047442 4.777363 2.016419 3.133206 2.078464 3.164228 2.01642 3.164228 2.047441 3.164228 2.047442 3.133206 2.047441 4.746342 2.01642 3.164228 2.047442 3.164228 2.047441 3.164228 2.047442 3.133206 2.047442 4.746342 2.047441 1.582114 2.01642 4.746342 2.047442 3.164228 2.047441 3.133206 2.047442 3.164228 2.01642 3.164228 2.047441 3.133206 2.047442 2.481747 1.613136h4.560211l2.481748-1.613136 3.226271-2.047442 3.164228-2.047441 3.164228-2.01642 3.19525-2.047442 3.19525-2.047441 4.777363-2.047442 1.613136-2.01642 4.746342-2.047441 3.226272-2.047442 3.164228-2.047442 3.164228-2.047441 3.226271-2.047442 3.164228-2.01642 3.19525-2.047441 4.746342-2.047442 1.613136-2.047441 4.777363-2.01642 3.19525-2.078464 3.164228-2.016419 4.777364-2.047442 3.164228-2.047442 3.226271-2.016419 3.164228-2.047442 4.777364-2.047442 3.19525-2.016419 4.777364-2.047442 3.164228-2.078463 4.777363-2.01642 3.19525-2.047442 3.164228-2.047441 4.777364-2.01642 4.777364-2.078464 4.777363-2.016419 3.19525-2.047442 4.777364-2.047442 4.746342-2.016419 4.777364-2.078464h2.171529l1.02372-0.434306 0.310219-0.093065-3.505468-1.52007-3.133207-2.01642-6.328455-2.01642-3.164228-2.078463-4.746342-2.01642-4.746342-2.047442-4.746342-2.047441-3.133206-2.01642-4.777364-2.078464-3.102184-2.016419-3.19525-2.047442-4.746342-2.047442-3.164228-2.016419-4.746342-2.078464-3.133206-2.016419-4.746342-2.047442-3.19525-2.047442-3.102184-2.047441-3.19525-2.01642-4.746341-2.047442-3.133207-2.047441-3.164227-2.047442-3.164228-2.047441-3.133207-2.01642-4.777363-2.047442-0.620437-0.868611-2.543791-1.613136-1.116787-0.744524-2.016419-0.83759-3.164228-2.078464-3.164228-2.016419-3.164228-2.047442-3.164228-2.047442-3.102184-2.047441-3.19525-2.047442-4.746342-2.01642-3.164228-2.047441-3.164228-2.047442-3.133206-2.047441-3.164228-2.01642-3.164228-2.078464zM974.923445 444.387894h46.346633l13.401436 1.551092 15.293768 2.01642 8.468963 1.985398 11.881366 1.985398 6.824805 1.985398 8.499985 1.985398 5.087582 1.985398 6.762762 1.985398 6.824805 1.985398 5.056561 1.985397 6.824805 2.01642 5.05656 1.985398 5.118604 1.985398 5.056561 1.985398 5.118604 1.985398 3.381381 1.985398 6.793783 1.985398 3.381381 1.985398 5.087582 1.985398 3.412403 1.985398 5.05656 2.016419 5.087582 1.985398 3.412403 2.01642 5.087582 1.954376 3.381381 1.985398 5.087582 1.985398 3.381381 2.01642 3.412403 1.985398 3.350359 1.985398 3.412402 1.985397 5.056561 1.985398 3.38138 1.985398 3.412403 2.01642 3.412403 1.985398 5.05656 1.985398 3.412403 1.985398 3.350359 1.985398 3.412402 1.985398 3.412403 1.985398 1.302918 1.582114 0.217152 0.496349-0.589415 0.34124h-2.667878l-3.443425 1.985398-3.412402 1.985398-3.412403 2.01642-3.412403 1.985398-5.118604 1.985398-1.737223 1.985398-5.118604 1.985398-3.412402 1.985398-5.118604 1.985397-3.412403 1.985398-3.412403 1.985398-3.412403 1.985398-5.149625 1.985398-3.412403 2.01642-3.412403 1.985398-5.118604 1.985398-3.412402 1.985398-5.118604 1.985398-3.412403 1.985397-6.824805 1.985398-3.412403 1.985398-5.118604 2.01642-3.412403 1.985398-5.118604 1.985398-6.824805 1.985398-3.412403 1.985398-6.824805 1.985398-3.412403 1.985398-8.531007 1.985398-5.118604 2.016419-6.824805 1.985398-5.118604 1.985398-8.531007 1.985398-6.824805 1.985398-6.824805 2.01642-11.912388 1.985398-8.531007 1.985398-17.030991 1.985398-21.467115 1.551092h-18.333909l-21.467115-1.551092-16.968948-1.985398-10.237208-1.985398-11.850344-1.985398-6.824805-2.01642-6.762762-1.985398-6.824805-1.985398-6.762762-1.985398-6.824805-1.985398-5.056561-2.016419-6.793783-1.985398-5.087582-1.985398-6.824806-1.985398-3.350359-1.985398-5.087582-1.985398-5.087582-1.985398-5.087582-1.985398-5.087582-2.01642-3.412403-1.985398-5.087582-1.985398-3.412403-1.985397-5.05656-1.985398-5.087582-1.985398-3.412403-1.985398-3.381381-1.985398-5.05656-2.01642-3.412403-1.985398-3.381381-1.985398-5.087582-1.985398-3.381381-1.985398-3.412403-1.985397-3.38138-1.985398-5.056561-1.985398-3.412402-1.985398-5.087583-1.985398-1.675179-1.985398-3.381381-2.01642-5.118604-1.985398-3.381381-1.985398h-0.961677l-0.713502-0.434306v-1.985397l3.412402-1.985398 3.412403-1.985398 5.118604-1.985398 3.412403-1.985398 3.443424-1.985398 3.412403-1.985398 5.118604-2.01642 3.412403-1.985398 3.412402-1.985398 3.412403-1.985397 3.443425-1.985398 5.118604-1.985398 3.412402-2.01642 5.118604-1.985398 3.412403-1.985398 5.118604-1.954376 3.412403-2.01642 5.118604-1.985398 3.412402-2.016419 5.149626-1.985398 3.412403-1.985398 5.149626-1.985398 5.087582-1.985398 3.412403-1.985398 6.824805-1.985398 3.412403-1.985398 6.824805-1.985398 5.118604-1.985398 6.824805-2.01642 5.118604-1.985397 6.824806-1.985398 5.118604-1.985398 5.118604-1.985398 10.237208-1.985398 6.824805-1.985398 10.237208-1.985398 8.499985-1.985398 15.32479-1.985398zM409.550365 0.279197l-11.850344 2.016419-11.850344 1.985398-8.468963 2.047442-6.731739 2.01642-8.468963 1.985398-6.793784 2.016419-6.762762 1.985398-6.762761 2.01642-6.762762 2.047442-5.05656 1.985398-6.762762 1.985397-3.350359 2.01642-5.05656 2.01642-5.087583 2.01642-5.118604 2.01642-5.05656 2.016419-3.350359 1.985398-5.05656 2.01642-5.087582 2.01642-5.087583 2.016419-3.350359 1.985398-5.05656 2.01642-3.381381 2.01642-3.412402 1.985398-5.025539 2.047441-3.412403 2.01642-5.05656 1.985398-1.675179 2.01642-5.087583 2.01642-3.350359 1.985398-5.05656 2.047441-1.706201 1.985398-5.056561 1.985398-3.38138 2.047442-3.381381 1.985398-3.350359 2.016419-3.381381 2.01642-5.087582 1.985398-1.644158 2.01642 3.412403 2.047441 3.381381 1.985398 3.412402 2.01642 3.412403 1.985398 3.381381 2.01642 5.118604 2.01642 3.381381 1.985397 3.412402 2.047442 3.412403 1.985398 5.087582 1.985398 3.412403 2.047442 3.412403 2.016419 3.412402 1.985398 3.412403 2.01642 5.05656 2.01642 3.412403 1.985398 5.118604 2.047441 3.412403 1.985398 5.087582 2.01642 3.412402 1.985398 6.762762 2.01642 3.412403 2.016419 3.412403 2.047442 6.824805 1.985398 3.381381 1.985398 6.793783 2.047441 3.412403 1.985398 6.824805 2.01642 5.056561 2.01642 6.824805 1.985398 5.087582 2.01642 6.793784 2.016419 5.087582 2.01642 6.793783 2.01642 8.499985 1.985398 6.824806 2.01642 11.819322 2.016419 8.531006 1.985398 18.613106 2.047442h59.344784l16.937927-2.047442 10.144142-1.985398 10.175164-2.016419 6.73174-2.01642 10.144143-1.985398 5.087582-2.01642 6.762762-2.01642 6.762761-2.016419 5.056561-2.01642 6.762761-1.985398 5.087582-2.01642 6.793784-2.01642 3.350359-1.985398 6.762762-2.047441 3.412402-1.985398 5.025539-1.985398 5.087582-2.047442 3.350359-2.016419 5.087582-2.01642 3.381381-1.985398 5.05656-2.01642 3.381381-1.985398 5.05656-2.047441 3.381381-1.985398 5.056561-2.01642 3.412402-2.01642 5.056561-1.985398 3.350359-2.016419 3.412402-2.047442 3.350359-1.985398 3.381381-1.985398 5.087582-2.047442 3.381381-1.985397 3.319337-2.01642 3.412403-2.01642 5.087582-1.985398 3.319337-2.01642 3.412403-1.985398h3.350359v-4.032839h-3.412403l-3.412402-2.01642-3.412403-2.01642-5.05656-2.016419-3.412403-1.985398-1.706201-2.047442-5.118604-1.985398-3.412403-1.985398-3.412403-2.047441-3.381381-1.985398-5.087582-2.01642-3.412403-2.01642-5.087582-1.985398-3.412402-2.01642-3.412403-2.047441-5.087582-1.985398-3.412403-2.01642-5.118604-2.01642-3.412403-1.985398-5.087582-2.016419-3.412402-2.01642-5.087583-2.01642-5.118604-1.985398-5.087582-2.016419-3.412402-2.01642-5.087583-2.01642-5.118604-2.01642-5.05656-2.01642-6.793784-1.985397-5.118604-1.985398-6.824805-2.047442-5.087582-2.01642-8.468963-1.985398-5.118604-2.016419L521.477173 8.344876l-8.468963-2.01642-6.824805-2.047442-13.556546-1.985398L482.389651 0.279197zM142.204126 104.760762l-3.164228 2.078464-3.164228 1.985398-3.164228 2.047441-3.164228 2.047442-3.164228 2.01642-4.746341 2.078463-3.164228 1.985398-3.19525 2.047442-3.133206 2.047441-3.164228 2.01642-3.164228 2.078463-3.164228 2.01642-4.746342 2.01642-1.613136 2.047441-4.71532 2.047442-3.164228 2.047442-3.19525 2.016419-3.133206 2.047442-3.195249 2.01642-4.746342 2.047441-3.164228 2.01642-3.164228 2.047442-3.164228 2.047441-4.746342 2.01642-3.164228 2.047442-4.777364 2.047441-3.133206 2.01642-4.777364 2.047442-3.164228 2.01642-3.133206 2.047441-4.777363 2.047442-3.164228 2.01642-4.746342 2.047441-4.746342 2.047442-4.746342 2.01642-3.19525 2.047441-6.328456 2.047442-3.164228 2.016419-2.885031 1.240874 1.861311 0.775546h1.02372l4.808386 2.047442 4.777364 2.047441 4.746342 2.047442 3.226271 2.01642 4.746342 2.01642 4.808386 2.047441 4.777363 2.047442 3.19525 2.01642 3.226272 2.047441 4.746342 2.047442 3.19525 2.01642 4.777363 2.047441 3.19525 2.01642 4.808386 2.047442 3.195249 2.078463 3.164228 1.985398 2.047442 1.302917 2.729922 1.17883 0.310219 0.372262 2.885031 1.240874 3.226272 2.01642 3.164227 2.078463 4.777364 1.985398 1.613136 2.047442 4.777364 2.047441 3.226271 2.01642 3.164228 2.078464 3.19525 2.016419 3.19525 2.01642 3.19525 2.047442 3.195249 2.047441 4.777364 2.01642 1.582114 2.047442 4.808386 2.047441 3.19525 2.01642 3.195249 2.047442 3.19525 2.01642 3.164228 2.047441 3.19525 2.047442 3.19525 2.01642h3.195249l3.164228-2.01642 3.164228-2.047442 3.164228-2.047441 3.164228-2.01642 3.164228-2.047442 3.164228-2.01642 4.746342-2.047441 1.582114-2.047442 4.746342-2.01642 3.164228-2.047441 3.164228-2.047442 3.164228-2.01642 3.164228-2.016419 4.777363-2.078464 3.102185-2.01642 3.226271-2.047441 3.133206-2.047442 3.19525-1.985398 3.164228-2.078463 4.746342-2.01642 3.164228-2.047441 3.164228-2.047442 4.746342-1.985398 3.164228-2.078463 4.746342-2.047442 3.164227-2.01642 4.777364-2.047441 3.133206-2.01642 4.777364-2.047442 3.164228-2.047441 3.164228-2.01642 4.746342-2.047442 3.164228-2.047441 6.328456-2.01642 3.195249-2.01642 4.746342-2.047442 4.746342-2.047441 6.328456-2.047442v-2.01642l-4.777364-2.016419-6.390499-2.047442-3.19525-2.047441-4.777364-2.01642-4.777363-2.047442-4.777364-2.047441-3.19525-2.01642-4.746342-2.047442-3.226272-2.047441-3.195249-2.01642-4.777364-2.047442-3.19525-2.01642-4.777364-2.047441-3.195249-2.047442-4.777364-2.01642-3.19525-2.047441-4.777364-2.047442-3.195249-2.01642-3.226272-2.047441-4.746342-2.01642-1.644158-2.047442-4.746341-2.016419-3.226272-2.047442-3.164228-2.047442-3.19525-2.047441-4.777364-2.01642-3.195249-2.01642-3.19525-2.078463-3.19525-2.01642-3.19525-2.047441-3.164228-2.047442-3.226271-1.985398-4.777364-2.078463-1.582114-2.01642-4.808386-2.047442-1.613135-2.047441-4.777364-1.985398-3.19525-2.078464zM232.477688 300.105305l2.6989 1.613135 1.240874 0.744525 2.171529 0.837589 3.412403 2.01642 5.087582 1.985398 3.412402 2.01642 3.412403 1.985398 3.412403 2.01642 5.087582 2.016419 3.412403 2.01642 3.412402 2.01642 5.118604 1.985398 3.412403 2.047441 5.087582 1.985398 3.412403 2.01642 6.824805 1.985398 3.412403 2.047442 5.087582 1.985397 3.102184 1.861311 1.985398 0.589415 1.240874 0.713502 2.171529 0.868612 6.824805 1.985398 3.412403 2.047442 6.762762 1.985397 2.171529 1.271896 2.791965 1.116786 6.948893 1.644158 5.118604 2.01642 6.824806 1.985398 5.087582 2.016419 8.499985 2.01642 6.824805 2.01642 6.762762 2.01642 11.912387 1.985398 8.468963 2.016419 16.99997 2.01642 5.770063 0.403284h49.572904l5.739041-0.403284 16.968948-2.01642 10.144142-2.016419 11.260929-1.892333 5.676997-1.706201 0.806568-0.124087 0.899633-0.279197 6.762762-2.01642 6.762762-2.01642 6.793783-2.016419 6.762762-1.985398 5.05656-2.01642 6.824806-1.985398 5.025538-2.047442 6.793784-1.985397 3.381381-2.047442 5.087582-1.985398 5.05656-2.01642 5.05656-2.01642 5.087583-1.985397 3.38138-2.047442 5.056561-1.985398 3.412402-2.01642 5.056561-1.985398 2.171529-0.868611 1.209852-0.744524 2.947075-1.147809 2.109485-1.271895 3.412403-2.01642 5.05656-2.01642 3.381381-2.016419 3.381381-2.01642 5.05656-1.985398 3.412403-2.01642 3.350359-1.985398 3.38138-2.01642 5.087583-2.016419 3.350359-2.01642 2.171529-0.83759 1.240873-0.744524 2.667879-1.582114 0.68248-0.83759 3.412403-2.047441 5.05656-1.985398 3.412403-2.01642h3.350359v-3.598534h-3.412403l-3.412402-1.985398-3.412403-2.01642-5.118604-2.016419-3.381381-2.01642-1.706201-2.01642-5.118604-1.985398-3.412403-2.01642-2.171529-1.271895-2.947075-1.147808-0.992699-1.17883-0.713502-0.434306-5.087583-1.985398-3.412402-2.01642-5.118604-2.016419-3.412403-2.01642-3.412403-2.01642-5.087582-2.01642-3.412402-2.01642-5.087583-1.985397-3.412402-2.01642-5.087582-1.985398-3.412403-2.01642-5.118604-2.01642-5.118604-2.016419-5.118604-2.01642-3.412403-1.985398-5.087582-2.01642-5.118604-2.01642-5.087582-2.016419-6.824806-1.985398-5.087582-2.01642-6.824805-2.01642-5.087582-2.01642-8.468963-2.016419-5.118604-1.985398-8.499985-2.01642-8.499985-2.01642-6.824805-2.01642-13.556546-2.016419-10.206186-1.985398h-72.963373l-11.881366 1.985398-11.850344 2.016419-8.468963 2.01642-6.762762 2.01642-8.468963 2.01642-6.762761 1.985398-6.824806 2.016419-4.249992 1.271896-0.806568 0.310218-1.271896 0.310219-0.403283 0.124087-6.762762 2.01642-5.05656 2.01642-4.343058 1.240873-0.744525 0.310219-2.947075 1.17883-2.171529 1.240873-5.05656 2.047442-5.05656 2.01642-5.087582 1.985398-5.056561 2.01642-3.381381 2.016419-5.087582 2.01642-5.05656 2.01642-2.171529 0.83759-1.240874 0.713502-2.916053 1.17883-2.140507 1.240874-5.087582 2.016419-3.381381 2.01642-3.350359 2.01642-5.087582 2.01642-3.381381 2.01642-2.140507 0.868611-1.240874 0.713502-2.667878 1.582114-0.682481 0.868612-5.087582 1.985398-3.381381 2.01642-5.087582 2.016419-1.67518 2.01642-5.05656 1.985398-3.412403 2.01642-3.350359 2.01642-3.412402 2.016419-3.350359 2.01642-5.087583 1.985398-0.34124 0.434306-0.775546 1.892332 2.140507 1.271896h0.713503l3.412402 2.01642 3.412403 1.985398 3.412403 2.047441 3.381381 1.985398 5.087582 2.01642zM142.483323 313.754915l-3.133206 2.078464-3.164228 2.01642-3.164228 2.047441-3.164228 2.047442-3.164228 2.047441-4.71532 2.01642-3.164228 2.047442-3.164228 2.047441-3.164228 2.047442-3.133206 2.047442-3.19525 2.016419-3.102184 2.078464-2.01642 0.83759-1.17883 0.744524-2.481747 1.613136-0.682481 0.868611-4.746342 2.047442-3.133206 2.01642-3.164228 2.047441-3.164228 2.047442-3.164228 2.047441-4.746342 2.047442-3.133206 2.01642-3.164228 2.047441-3.164228 2.047442-4.746341 2.047442-3.164228 2.016419-4.746342 2.078464-3.133206 2.016419-4.746342 2.047442-3.164228 2.047442-3.164228 2.016419-4.746342 2.078464-3.133206 2.01642-4.777364 2.047441-4.746342 2.047442-4.71532 2.01642-3.19525 2.078463-6.297434 2.01642-3.164228 2.01642-3.474446 1.551092 0.310218 0.062043 1.023721 0.434306h2.171529l4.746342 2.078464 4.777364 2.016419 4.777364 2.047442 3.195249 2.047442L25.748129 403.563149l4.777364 2.078464 4.777364 2.01642 3.164228 2.047441 3.19525 2.047442 4.777363 2.01642 3.19525 2.078463 4.777364 2.047442 3.19525 2.016419 4.746341 2.047442 3.19525 2.047442 3.164228 2.016419 3.226272 2.047442 4.746342 2.047442 3.19525 2.016419 3.195249 2.078464 4.777364 2.01642 1.582114 2.047441 4.777364 2.047442 3.19525 2.047441 3.164227 2.01642 3.19525 2.047442 3.19525 2.047441 3.19525 2.047442 3.164228 2.047442 4.808385 2.047441 1.551092 2.01642 4.808386 2.047442 3.164228 2.047441 3.19525 2.047442 3.19525 2.01642 3.164228 2.047441 3.195249 2.047442 2.481748 1.613136h4.560211l2.481747-1.613136 3.164228-2.047442 3.133206-2.047441 3.164228-2.01642 3.19525-2.047442 3.102184-2.047441 4.777364-2.047442 1.551092-2.01642 4.746342-2.047441 3.164228-2.047442 3.164228-2.047442 3.164228-2.047441 3.164227-2.047442 4.715321-2.01642 3.164227-2.047441 3.164228-2.047442 3.164228-2.047441 3.164228-2.01642 3.133206-2.078464 4.746342-2.016419 3.164228-2.047442 3.164228-2.047442 4.71532-2.016419 3.19525-2.047442 4.746342-2.047442 3.133206-2.016419 4.746342-2.047442 3.164228-2.078463 4.746342-2.01642 3.133206-2.047442 3.164228-2.047441 4.746342-2.01642L263.685661 403.563149l6.328456-2.016419 3.164228-2.047442 4.746342-2.047442 4.746342-2.016419 6.328456-2.078464v-1.768245l-1.613136-0.68248-1.147808-0.744525-2.01642-0.868611-6.390499-2.01642-3.164228-2.078463-4.777364-2.01642-4.777364-2.047442-4.746342-2.047441-3.226271-2.01642-4.746342-2.078464-3.19525-2.016419-3.164228-2.047442-4.808386-2.047442-1.985397-1.271895-2.791966-1.17883-1.147808-0.775546-2.01642-0.868612-3.19525-2.016419-4.777364-2.047442-3.164228-2.047442-4.777363-2.047441-3.19525-2.01642-3.164228-2.047442-4.808386-2.047441-0.620437-0.868612-2.543791-1.613136-1.17883-0.744524-1.985398-0.868611-3.195249-2.01642-3.19525-2.047442-3.19525-2.047441-4.746342-2.01642-3.226271-2.078464-3.164228-2.016419-3.19525-2.047442-3.164228-2.047442-3.19525-2.047441-3.19525-2.047442-4.777363-2.01642-1.613136-2.047441-4.746342-2.047442-1.582114-2.047441-4.808386-2.01642-3.164228-2.078464zM469.918871 444.387894h-46.315611l-13.401436 1.551092-15.293769 2.01642-8.499984 1.985398-11.912388 1.985398-6.793784 1.985398-8.468963 1.985398-5.087582 1.985398-6.824805 1.985398-6.762762 1.985398-5.087582 1.985397-6.793783 2.01642-5.087583 1.985398-5.087582 1.985398-5.087582 1.985398-5.087582 1.985398-3.412403 1.985398-6.762761 1.985398-3.412403 1.985398-5.087582 1.985398-3.381381 1.985398-5.087582 2.016419-5.087583 1.985398-3.38138 2.01642-5.087583 1.954376-3.412402 1.985398-5.056561 1.985398-3.412402 2.01642-3.381381 1.985398-3.412403 1.985398-3.350359 1.985397-5.118604 1.985398-3.350359 1.985398-3.412402 2.01642-3.412403 1.985398-5.05656 1.985398-3.412403 1.985398-3.350359 1.985398-3.412403 1.985398-3.350359 1.985398-1.364961 1.582114-0.186131 0.496349 0.558393 0.34124h2.698901l3.412402 1.985398 3.412403 1.985398 3.412403 2.01642 3.412402 1.985398 5.118604 1.985398 1.737224 1.985398 5.118604 1.985398 3.412402 1.985398 5.118604 1.985397 3.412403 1.985398 3.412403 1.985398 3.443424 1.985398 5.118604 1.985398 3.412403 2.01642 3.412402 1.985398 5.118604 1.985398 3.412403 1.985398 5.118604 1.985398 3.412403 1.985397 6.824805 1.985398 3.412403 1.985398 5.149626 2.01642 3.412402 1.985398 5.118604 1.985398 6.824806 1.985398 3.412402 1.985398 6.824806 1.985398 3.412403 1.985398 8.531006 1.985398 5.118604 2.016419 6.824806 1.985398 5.118604 1.985398 8.499984 1.985398 6.824806 1.985398 6.824805 2.01642 11.94341 1.985398 8.499984 1.985398 17.062014 1.985398 21.436093 1.551092h18.333909l21.467115-1.551092 16.99997-1.985398 10.175164-1.985398 11.912388-1.985398 6.793783-2.01642 6.793784-1.985398 6.762761-1.985398 6.824806-1.985398 6.762761-1.985398 5.087582-2.016419 6.824806-1.985398 5.05656-1.985398 6.824805-1.985398 3.350359-1.985398 5.118604-1.985398 5.056561-1.985398 5.087582-1.985398 5.087582-2.01642 3.412403-1.985398 5.087582-1.985398 3.412403-1.985397 5.05656-1.985398 5.087582-1.985398 3.412403-1.985398 3.381381-1.985398 5.087582-2.01642 3.412403-1.985398 3.350359-1.985398 5.087582-1.985398 3.412402-1.985398 3.381381-1.985397 3.350359-1.985398 5.118604-1.985398 3.412403-1.985398 5.05656-1.985398 1.67518-1.985398 3.412402-2.01642 5.087583-1.985398 3.350359-1.985398h1.02372l0.682481-0.434306v-1.985397l-3.412403-1.985398-3.412402-1.985398-5.118604-1.985398-3.412403-1.985398-3.412403-1.985398-3.443424-1.985398-5.118604-2.01642-3.412403-1.985398-3.412403-1.985398-3.412402-1.985397-3.412403-1.985398-5.149626-1.985398-3.412403-2.01642-5.118604-1.985398-3.412402-1.985398-5.118604-1.954376-3.412403-2.01642-5.118604-1.985398-3.443425-2.016419-5.118604-1.985398-3.412402-1.985398-5.118604-1.985398-5.118604-1.985398-3.412403-1.985398-6.824805-1.985398-3.412403-1.985398-6.824805-1.985398-5.118604-1.985398-6.824806-2.01642-5.118604-1.985397-6.824805-1.985398-5.118604-1.985398-5.118604-1.985398-10.237208-1.985398-6.824805-1.985398-10.206187-1.985398-8.531006-1.985398-15.324791-1.985398z" fill="#00AEEF"></path><path d="M683.007907 899.788543v14.82844l-105.070981-141.955951v-14.797419z" fill="#231F20"></path><path d="M683.007907 899.819564v14.797419l-105.070981-141.924929v-14.828441zM683.007907 925.939956v14.797419L577.936926 798.781423v-14.82844zM683.007907 952.029325v14.828441l-105.070981-141.955951v-14.797419z" fill="#231F20"></path><path d="M683.007907 952.029325v14.828441l-105.070981-141.955951v-14.797419zM577.936926 851.053228L683.007907 992.978157v-14.766397l-105.070981-141.986973z" fill="#231F20"></path><path d="M577.936926 844.724772l102.992517 96.012603 2.078464-1.923355v-4.653276l-105.070981-97.935957zM630.487928 731.743222h9.833924l16.441576 26.120391h-9.864946zM656.732406 731.743222h9.864946l16.441577 26.120391H673.173983z" fill="#231F20"></path><path d="M656.732406 731.743222h9.864946l16.441577 26.120391h-9.895968zM683.007907 731.743222h10.237208l16.038293 26.120391h-10.237208zM709.283408 731.743222h12.12954l14.14596 18.240843v7.879548h-6.049259z" fill="#231F20"></path><path d="M709.283408 731.743222l11.664212 11.602169v-11.602169zM213.058014 749.922021l75.910449 75.476143v10.857645l-105.07098-104.543609h10.95071l18.302887 18.209821zM288.968463 899.788543v14.82844l-105.07098-141.955951v-14.797419z" fill="#231F20"></path><path d="M288.968463 899.819564v14.797419l-105.07098-141.924929v-14.828441zM288.968463 925.939956v14.797419L183.897483 798.781423v-14.82844zM288.968463 952.029325v14.828441l-105.07098-141.955951v-14.797419z" fill="#231F20"></path><path d="M288.968463 952.029325v14.828441l-105.07098-141.955951v-14.797419zM183.897483 851.053228L288.968463 992.978157v-14.766397l-105.07098-141.986973z" fill="#231F20"></path><path d="M183.897483 844.724772l102.992517 96.012603 2.078463-1.923355v-4.653276l-105.07098-97.935957zM183.897483 731.743222h9.833924l16.441576 26.120391h-9.864946zM210.172983 731.743222h9.833924l16.441577 26.120391h-9.864946zM236.417462 731.743222h9.864946l16.441576 26.120391H252.828017z" fill="#231F20"></path><path d="M236.417462 731.743222h10.237208l16.038293 26.120391h-10.237209zM262.692963 731.743222h12.12954l14.14596 18.240843v7.879548H282.919204zM288.968463 731.743222l11.695235 11.602169v-11.602169zM1103.353873 731.743222v23.5766h48.611227v211.537944h60.616681v-211.568966h48.394074v-23.5766z" fill="#231F20"></path><path d="M1031.600351 811.996728l-26.585719 5.987216a95.547275 95.547275 0 0 0 1.737224-16.16238c0-27.826593-13.866764-41.693356-41.662335-41.693357-21.963465 0-32.914175 9.554727-32.914175 28.695205 0 14.425157 12.253628 26.77185 36.791905 37.04008 47.339332 19.760914 71.008998 48.952468 71.008998 87.605683 0 22.645945-6.638674 40.855767-19.916023 54.598443-13.30837 13.711654-30.928777 20.598503-53.016329 20.598503-48.766336 0-73.149505-22.956163-73.149505-68.86849 0-3.753643 0.248175-8.375897 0.744525-13.866764l27.547396-7.352176a132.742464 132.742464 0 0 0-3.164228 26.492653c0 29.656881 13.959829 44.516344 41.972553 44.516344 22.39777 0 33.658699-10.702536 33.658699-32.076585 0-15.914205-13.432458-29.843013-40.266352-41.879487-38.777303-17.279166-58.165955-44.919628-58.165954-82.921385 0-21.467115 6.421521-38.839347 19.388651-51.930565 12.936108-13.184283 29.9671-19.729892 51.061953-19.729892 43.27547 0 64.928716 23.607622 64.928716 70.946954M855.272198 745.051592v23.979884h-70.636735v72.404981h59.344785v23.979884h-59.344785v94.895816h82.580145v23.979885h-139.722379v-239.24045zM344.745736 831.571511l89.9013-88.039989h127.344663l2.419704 2.388682-121.822776 119.341028 121.822776 119.341028-2.419704 2.419704H434.616014l-89.9013-88.102033v89.932321H302.773183v-247.182041h42.003575zM611.440516 767.759581l88.102033 86.333787v12.408737l-121.977885-119.527159h12.718956l21.21894 20.784635z" fill="#231F20"></path></svg>