<?xml version="1.0" encoding="utf-8"?>
<!-- Generator: Adobe Illustrator 27.2.0, SVG Export Plug-In . SVG Version: 6.00 Build 0)  -->
<svg version="1.1" id="图层_1" xmlns="http://www.w3.org/2000/svg" xmlns:xlink="http://www.w3.org/1999/xlink" x="0px" y="0px"
	 viewBox="0 0 24.5 24.5" style="enable-background:new 0 0 24.5 24.5;" xml:space="preserve">
<style type="text/css">
	.st0{fill-rule:evenodd;clip-rule:evenodd;fill:url(#SVGID_1_);}
	.st1{fill-rule:evenodd;clip-rule:evenodd;fill:url(#SVGID_00000176760514384851703990000015183009267347237516_);}
	.st2{fill:url(#SVGID_00000073706213776191427600000004919823042923505281_);}
	.st3{fill:url(#SVGID_00000140012585735553222980000008673998816400382347_);}
	.st4{fill:url(#SVGID_00000074428909319353692120000014892198080387464836_);}
</style>
<linearGradient id="SVGID_1_" gradientUnits="userSpaceOnUse" x1="9.2557" y1="14.6654" x2="33.9098" y2="62.6341" gradientTransform="matrix(1 0 0 -1 0 41.5)">
	<stop  offset="0" style="stop-color:#239092"/>
	<stop  offset="0.625" style="stop-color:#97C8C9"/>
</linearGradient>
<path class="st0" d="M18.4,14.3l-2.2-7l0.6-0.2l2.2,7L18.4,14.3z"/>
<linearGradient id="SVGID_00000089560175709739984660000017752090523609321902_" gradientUnits="userSpaceOnUse" x1="4.5127" y1="17.1031" x2="29.1668" y2="65.0718" gradientTransform="matrix(1 0 0 -1 0 41.5)">
	<stop  offset="0" style="stop-color:#239092"/>
	<stop  offset="0.625" style="stop-color:#97C8C9"/>
</linearGradient>
<path style="fill-rule:evenodd;clip-rule:evenodd;fill:url(#SVGID_00000089560175709739984660000017752090523609321902_);" d="
	M8.6,15.4l5-8.8l0.5,0.3l-5,8.8L8.6,15.4z"/>
<linearGradient id="SVGID_00000024001252225699287850000003192805615710728365_" gradientUnits="userSpaceOnUse" x1="11.5023" y1="13.5107" x2="36.1564" y2="61.4794" gradientTransform="matrix(1 0 0 -1 0 41.5)">
	<stop  offset="0" style="stop-color:#239092"/>
	<stop  offset="0.625" style="stop-color:#97C8C9"/>
</linearGradient>
<path style="fill:url(#SVGID_00000024001252225699287850000003192805615710728365_);" d="M21.2,14.1c0,1.4-1.1,2.5-2.5,2.5
	c-1.4,0-2.5-1.1-2.5-2.5c0-1.4,1.1-2.5,2.5-2.5C20,11.6,21.2,12.7,21.2,14.1z"/>
<linearGradient id="SVGID_00000096059746347623182070000004248981840848794030_" gradientUnits="userSpaceOnUse" x1="4.5777" y1="17.0697" x2="29.2318" y2="65.0384" gradientTransform="matrix(1 0 0 -1 0 41.5)">
	<stop  offset="0" style="stop-color:#239092"/>
	<stop  offset="0.625" style="stop-color:#97C8C9"/>
</linearGradient>
<path style="fill:url(#SVGID_00000096059746347623182070000004248981840848794030_);" d="M12.3,19.2c0,2.8-2.3,5.1-5,5.1
	s-5-2.3-5-5.1s2.3-5.1,5-5.1S12.3,16.4,12.3,19.2z"/>
<linearGradient id="SVGID_00000021083102899320321710000015260901252591177093_" gradientUnits="userSpaceOnUse" x1="4.7997" y1="16.9555" x2="29.4538" y2="64.9242" gradientTransform="matrix(1 0 0 -1 0 41.5)">
	<stop  offset="0" style="stop-color:#239092"/>
	<stop  offset="0.625" style="stop-color:#97C8C9"/>
</linearGradient>
<path style="fill:url(#SVGID_00000021083102899320321710000015260901252591177093_);" d="M19.1,4c0,2.1-1.7,3.8-3.8,3.8
	S11.6,6.1,11.6,4c0-2.1,1.7-3.8,3.8-3.8S19.1,1.9,19.1,4z"/>
</svg>
