<?xml version="1.0" encoding="utf-8"?>
<!-- Generator: Adobe Illustrator 27.2.0, SVG Export Plug-In . SVG Version: 6.00 Build 0)  -->
<svg version="1.1" id="图层_1" xmlns="http://www.w3.org/2000/svg" xmlns:xlink="http://www.w3.org/1999/xlink" x="0px" y="0px"
	 viewBox="0 0 90 90" style="enable-background:new 0 0 90 90;" xml:space="preserve">
<style type="text/css">
	.st0{fill-rule:evenodd;clip-rule:evenodd;fill:#C71D23;}
	.st1{fill-rule:evenodd;clip-rule:evenodd;fill:#FFFFFF;}
</style>
<g id="LOGO">
	<g id="Artboard" transform="translate(-532.000000, -431.000000)">
		<g id="logo" transform="translate(532.000000, 431.000000)">
			<g id="Group">
				<circle id="Combined-Shape" class="st0" cx="44.9" cy="44.9" r="44.9"/>
				<path id="G" class="st1" d="M67.6,39.9H42.1c-1.2,0-2.2,1-2.2,2.2l0,5.5c0,1.2,1,2.2,2.2,2.2c0,0,0,0,0,0l15.5,0
					c1.2,0,2.2,1,2.2,2.2c0,0,0,0,0,0v0.6l0,0v0.6c0,3.7-3,6.6-6.6,6.6h-21c-1.2,0-2.2-1-2.2-2.2l0-21c0-3.7,3-6.6,6.6-6.6
					c0,0,0,0,0,0h31c1.2,0,2.2-1,2.2-2.2l0-5.5c0-1.2-1-2.2-2.2-2.2c0,0,0,0,0,0h-31c-9.2,0-16.6,7.4-16.6,16.6v31
					c0,1.2,1,2.2,2.2,2.2h32.7c8.3,0,15-6.7,15-15V42.1C69.8,40.9,68.8,39.9,67.6,39.9z"/>
			</g>
		</g>
	</g>
</g>
</svg>
