<svg width="30.000000000000004" height="30.000000000000004" xmlns="http://www.w3.org/2000/svg" fill="none">
 <title>Grammarly Home</title>

 <g>
  <title>Layer 1</title>
  <path id="svg_2" fill="#15C39A" d="m29.2795,15.02993c0,7.85 -6.386,14.214 -14.263,14.214s-14.263,-6.364 -14.263,-14.214c0,-7.85 6.386,-14.214 14.263,-14.214s14.263,6.364 14.263,14.214z" clip-rule="evenodd" fill-rule="evenodd"/>
  <path id="svg_3" fill="#fff" d="m16.8805,18.20657c0.084,0.465 0.523,0.784 0.998,0.784l1.494,0l0.866,-0.12c-1.386,2.026 -3.792,2.958 -6.423,2.547c-2.142,-0.335 -3.982,-1.78 -4.759,-3.797c-1.762,-4.579 1.593,-8.95 5.966,-8.95c2.279,0 4.277,1.329 5.423,2.934c0.304,0.437 0.908,0.597 1.347,0.294a0.95,0.95 0 0 0 0.288,-1.265a8.377,8.377 0 0 0 -7.637,-3.83c-4.17,0.279 -7.545,3.68 -7.785,7.838c-0.278,4.84 3.573,8.79 8.364,8.79a8.304,8.304 0 0 0 6.304,-2.859l-0.182,1.014l0,0.916c0,0.472 0.32,0.91 0.787,0.994a0.967,0.967 0 0 0 1.146,-0.947l0,-5.486l-5.247,0a0.965,0.965 0 0 0 -0.95,1.143z" clip-rule="evenodd" fill-rule="evenodd"/>
 </g>
</svg>