<?xml version="1.0" encoding="utf-8"?>
<!-- Generator: Adobe Illustrator 27.2.0, SVG Export Plug-In . SVG Version: 6.00 Build 0)  -->
<svg version="1.1" id="图层_1" xmlns="http://www.w3.org/2000/svg" xmlns:xlink="http://www.w3.org/1999/xlink" x="0px" y="0px"
	 viewBox="0 0 232.8 233" style="enable-background:new 0 0 232.8 233;" xml:space="preserve">
<style type="text/css">
	.st0{fill:#0A70A3;}
</style>
<g>
	<path class="st0" d="M16,147.8l-2.5,0l-0.2-0.2c-0.1-1-0.1-1.8-0.2-2.8l-0.2-2H7.3l-0.9,1.7L5,147.4l-0.1,0.2l-0.2,0.1l-2.4,0
		l-0.1-0.2c0.4-0.8,6.6-11.7,8.8-15.9l0.2-0.1l3.2-0.1l0.1,0.1c0.1,1.9,0.9,10.6,1.6,16L16,147.8z M12.3,133.1l-4.1,7.8l1.5,0h3.1
		L12.3,133.1z"/>
	<path class="st0" d="M27.2,147.7c-0.8,0-1.3,0-2.1,0.1l-0.1-0.2l0.2-0.9c-0.8,0.5-1.7,1.2-3.3,1.2c-2.8,0-4.3-2-4.3-4.6
		c0-1.2,0.5-2.9,1.2-4.2c1.9-3.1,5-3.4,7.3-3.4l1.6,0l1.1-5.7l0.2-0.2l2.5-0.4l0.1,0.2c-1.5,5.9-2.9,11.9-4,17.9L27.2,147.7z
		 M27.2,137.5c-0.3-0.1-0.7-0.1-1.1-0.1c-3.1,0-4.6,1.4-5.5,3.1c-0.2,0.4-0.6,1.4-0.6,2.5c0,1.7,0.9,3,2.8,3c0.6,0,2-0.4,2.6-1.1
		L27.2,137.5z"/>
	<path class="st0" d="M35.6,147.7l-2.6,0.1l-0.2-0.2c-0.2-2.1-1.1-9.1-1.3-11.6l0.1-0.2c0.9,0,1.5,0,2.3-0.1l0.2,0.2l0.3,3.5
		l0.6,6.4l5-9.9l0.2-0.1h2.1l0.1,0.2l-2.3,3.9l-1.9,3.5l-2.3,4.2L35.6,147.7z"/>
	<path class="st0" d="M51.3,147.8h-0.6l-1.5,0l-0.1-0.2l0.2-0.9c-1.1,0.9-2.2,1.1-3.3,1.1c-2.7,0-4.3-2-4.3-4.5
		c0-1.7,0.8-3.3,1.1-3.9c1.9-3.4,5.3-3.7,7.7-3.7l3.4,0l0.1,0.2c-1.9,8.1-2.2,9.4-2.5,11.6L51.3,147.8z M46.9,146.1
		c0.7,0,1.9-0.3,2.6-1.1c0.6-2.3,1-4.8,1.7-7.4l-1-0.1c-2.2,0-4.4,0.7-5.6,3.4c-0.3,0.7-0.5,1.5-0.5,2.3
		C44.1,144.9,45.1,146.1,46.9,146.1"/>
	<path class="st0" d="M64.6,147.8c-0.9,0-1.4,0-2.3,0.1l-0.1-0.2l1-4l0.5-2.6c0.1-0.3,0.3-1.1,0.3-1.7c0-1.7-1.5-1.8-2-1.8
		c-1.4,0-2.5,0.8-3,1.2c-0.6,2.9-1.3,5.9-1.9,8.9l-0.2,0.2c-0.9,0-1.5,0-2.3,0.1l-0.1-0.2c0.8-3,2.2-9.4,2.4-11.5L57,136l2.4-0.4
		l0.1,0.1l-0.3,1.2c1.7-1.3,3.3-1.4,3.9-1.4c0.7,0,3.3,0.1,3.3,3.1c0,0.8-0.3,2.3-0.8,4.4l-0.3,1.6c-0.2,1.1-0.4,1.9-0.6,2.9
		L64.6,147.8z"/>
	<path class="st0" d="M76.2,147.4c-0.8,0.5-2.2,0.6-2.9,0.6c-2.9,0-5-2.2-5-5.1c0-1.9,0.8-4.8,3.3-6.4c1.3-0.8,2.7-0.9,3.4-0.9
		c1.6,0,2.8,0.4,3.6,0.9l0,0.2l-0.6,1.8l-0.2,0.1c-0.4-0.6-1.4-1.1-2.6-1.1c-2.9,0-4.4,3-4.4,5.3c0,2.7,2.1,3.5,3.2,3.5
		c0.4,0,1.6,0,2.8-1.1l0.2,0.1c-0.3,0.8-0.4,1.3-0.6,2.1L76.2,147.4z"/>
	<path class="st0" d="M80.6,147.7l-2.5,0.1l-0.1-0.2c0.8-2.6,2.4-10.2,2.5-11.5l0.2-0.2c0.9-0.1,1.6-0.2,2.5-0.4l0.1,0.2
		c-0.1,0-2,8.7-2.5,11.8L80.6,147.7z M83.8,132.6l-2.4,0.4l-0.2-0.2l0.5-2.1l0.2-0.2l2.4-0.3l0.2,0.2l-0.5,2.1L83.8,132.6z"/>
	<path class="st0" d="M93.8,147.8c-0.9,0-1.5,0-2.3,0.1l-0.1-0.2c0.3-1.5,0.6-2.5,0.9-4l0.6-2.6c0.1-0.3,0.3-1.1,0.3-1.7
		c0-1.7-1.5-1.8-2-1.8c-1.4,0-2.5,0.8-3,1.2c-0.6,2.9-1.3,5.9-1.9,8.9l-0.1,0.2c-0.9,0-1.5,0-2.3,0.1l-0.1-0.2
		c0.8-3,2.2-9.4,2.4-11.5l0.2-0.2l2.4-0.4l0.1,0.1l-0.3,1.2c1.7-1.3,3.3-1.4,3.9-1.4c0.7,0,3.3,0.1,3.3,3.1c0,0.8-0.3,2.3-0.8,4.4
		l-0.3,1.6c-0.2,1.1-0.4,1.9-0.6,2.9L93.8,147.8z"/>
	<path class="st0" d="M109.8,136c-0.6,2.6-1.2,4.9-1.7,7.5l-0.6,3c-0.8,3.8-1.5,7-6.5,7c-1.4,0-3.4-0.3-4.7-1.7v-0.2
		c0.4-0.5,0.6-0.9,0.9-1.5h0.2c0.6,0.8,1.8,1.6,3.5,1.6c3.4,0,3.7-3.1,3.9-3.9l0.2-0.9c-1.5,1.1-2.9,1.1-3.4,1.1
		c-2.7,0-4.1-2.1-4.1-4.5c0-0.6,0.1-2.5,1.3-4.4c2.1-3.3,5.6-3.3,8.2-3.3l2.8-0.1L109.8,136z M107,137.6h-0.9c-2,0-4.3,0.3-5.6,3
		c-0.5,1.2-0.6,2.1-0.6,2.6c0,2.4,1.5,2.9,2.6,2.9c1.3,0,2.2-0.6,2.7-1.1L107,137.6z"/>
	<path class="st0" d="M122.4,147.8l-2.4,0l-0.1-0.2c0.6-2.2,3.1-12.8,3.3-14.2c-2.5,0-3.6,0.1-4.7,0.1l-0.1-0.2
		c0.2-0.7,0.4-1.1,0.5-1.8l0.2-0.1c3.8,0.1,7.7,0.1,11.5,0l0.1,0.2l-0.5,1.8l-0.2,0.1c-0.9-0.1-2.3-0.1-4.3-0.1
		c-0.5,1.5-0.6,2.7-1,4.3l-1.1,5.2c-0.4,1.5-0.7,3-1,4.6L122.4,147.8z"/>
	<path class="st0" d="M136.4,147.1c-0.8,0.5-2,0.9-3.7,0.9c-3.9,0-5.3-2.3-5.3-5c0-4,2.4-7.5,6.4-7.5c2.6,0,4.6,1.2,4.6,4.3
		c0,0.9-0.2,1.7-0.3,2.1l-0.2,0.1h-5.4l-2.8,0l-0.1,1c0,3,2.6,3.1,3.4,3.1c1.9,0,2.9-0.8,3.8-1.4l0.2,0.1c-0.3,0.8-0.4,1.3-0.6,2.1
		L136.4,147.1z M136.1,140.4l0.1-1c0-2.1-1.8-2.3-2.3-2.3c-2.6,0-3.6,2.5-3.8,3.3L136.1,140.4"/>
	<path class="st0" d="M147.5,147.4c-0.8,0.5-2.2,0.6-2.9,0.6c-2.9,0-5-2.2-5-5.1c0-1.9,0.8-4.8,3.3-6.4c1.4-0.8,2.7-0.9,3.4-0.9
		c1.6,0,2.9,0.4,3.6,0.9l0.1,0.2c-0.3,0.7-0.4,1.1-0.6,1.8l-0.2,0.1c-0.4-0.6-1.4-1.1-2.6-1.1c-2.9,0-4.4,3-4.4,5.3
		c0,2.7,2.1,3.5,3.2,3.5c0.4,0,1.6,0,2.8-1.1l0.2,0.1c-0.3,0.8-0.4,1.3-0.6,2.1L147.5,147.4z"/>
	<path class="st0" d="M159.5,147.8l-2.3,0l-0.1-0.2l0.6-2.6l0.6-2.9c0.2-0.6,0.5-2.4,0.5-3c0-1.6-1.4-1.6-1.8-1.6
		c-1.4,0-2.8,0.9-3.2,1.3l-0.9,4.1c-0.4,1.6-0.6,3.1-1,4.8l-0.2,0.1l-2.3,0.1l-0.2-0.2c0.3-1.5,3.5-14.1,3.8-17.6l0.2-0.1l2.5-0.4
		l0.1,0.2c-0.6,2.4-1.1,4.8-1.7,7.3c0.7-0.5,2.1-1.4,4-1.4c0.6,0,3.1,0.2,3.1,2.9c0,1-0.2,2.1-0.4,2.9l-0.6,2.8l-0.7,3.5
		L159.5,147.8z"/>
	<path class="st0" d="M172.7,147.8c-0.9,0-1.5,0-2.3,0.1l-0.1-0.2c0.3-1.5,0.6-2.5,0.9-4l0.6-2.6c0.1-0.3,0.3-1.1,0.3-1.7
		c0-1.7-1.5-1.8-2-1.8c-1.4,0-2.5,0.8-3,1.2c-0.6,2.9-1.3,5.9-1.9,8.9l-0.2,0.2c-0.9,0-1.5,0-2.3,0.1l-0.1-0.2
		c0.8-3,2.2-9.4,2.4-11.5l0.2-0.2l2.4-0.4l0.1,0.1l-0.3,1.2c1.7-1.3,3.3-1.4,3.8-1.4c0.7,0,3.3,0.1,3.3,3.1c0,0.8-0.3,2.3-0.8,4.4
		l-0.3,1.6c-0.2,1.1-0.4,1.9-0.6,2.9L172.7,147.8z"/>
	<path class="st0" d="M182.8,135.6c2.8,0,4.9,1.4,4.9,4.5c0,2.4-1.1,7.9-6.5,7.9c-1.4,0-4.8-0.3-4.8-4.6
		C176.4,139.7,178.5,135.6,182.8,135.6 M181.3,146.3c3.4,0,4-5.6,4-6.3c0-2.2-1.3-2.7-2.4-2.7c-3.1,0-4,4.7-4,6.3
		C178.9,145.1,179.6,146.3,181.3,146.3"/>
	<path class="st0" d="M191.2,147.8c-0.8,0-1.5,0-2.3,0.1l-0.1-0.2c0.3-1.9,2.8-11.9,3.6-17.6l0.2-0.2c0.9-0.1,1.6-0.2,2.5-0.4
		l0.1,0.1c-1.1,5-3.5,15.9-3.8,18L191.2,147.8z"/>
	<path class="st0" d="M201.2,135.6c2.8,0,4.9,1.4,4.9,4.5c0,2.4-1.1,7.9-6.5,7.9c-1.4,0-4.8-0.3-4.8-4.6
		C194.8,139.7,196.8,135.6,201.2,135.6 M199.6,146.3c3.5,0,4-5.6,4-6.3c0-2.2-1.4-2.7-2.4-2.7c-3.2,0-4,4.7-4,6.3
		C197.2,145.1,197.9,146.3,199.6,146.3"/>
	<path class="st0" d="M219.9,136c-0.6,2.6-1.2,4.9-1.8,7.5l-0.6,3c-0.8,3.8-1.5,7-6.5,7c-1.4,0-3.4-0.3-4.7-1.7v-0.2l0.9-1.5h0.2
		c0.6,0.8,1.7,1.6,3.4,1.6c3.4,0,3.7-3.1,4-3.9l0.2-0.9c-1.5,1.1-2.8,1.1-3.4,1.1c-2.7,0-4.1-2.1-4.1-4.5c0-0.6,0.1-2.5,1.3-4.4
		c2.2-3.3,5.6-3.3,8.2-3.3l2.8-0.1L219.9,136z M217.1,137.6h-0.9c-2,0-4.3,0.3-5.5,3c-0.6,1.2-0.6,2.1-0.6,2.6
		c0,2.4,1.5,2.9,2.7,2.9c1.3,0,2.2-0.6,2.7-1.1L217.1,137.6z"/>
	<path class="st0" d="M232.3,136c-3.5,5.6-6.9,11.4-10.1,17.2l-0.2,0.1h-1l-1.4,0l-0.1-0.2c0.7-1,2.9-4.5,3.5-5.6
		c-0.9-5.7-1.7-11.3-1.9-11.6l0.2-0.2c0.9,0,1.5,0,2.4-0.1l0.2,0.1c0.1,1.3,0.2,2.2,0.4,3.4l0.6,5.4l2.2-3.9
		c0.9-1.5,1.7-3.1,2.6-4.8l0.2-0.1h0.8l1.5,0L232.3,136z"/>
	<path class="st0" d="M87.5,175.9c-0.9,0-1.5,0-2.3,0.1l-0.1-0.2c0.8-3.7,0.4-1.5,2.2-10.1h-1.7l-0.2-0.1l0.4-1.5L86,164
		c0.5,0,1.1,0.1,1.6,0.1l0.3-1.7c0.5-2.5,0.9-4.5,4.2-4.5c0.8,0,1.3,0.2,1.7,0.2l0.1,0.2l-0.4,1.5l-0.2,0.2c-0.2,0-0.5-0.2-0.9-0.2
		c-1.5,0-1.7,0.9-2.1,2.8L90,164h2.2l0.1,0.2c-0.2,0.5-0.3,0.9-0.5,1.5l-0.2,0.2l-2,0c-0.8,3.6-1.5,6.4-2,10L87.5,175.9z"/>
	<path class="st0" d="M98.2,163.8c2.8,0,4.9,1.4,4.9,4.5c0,2.4-1.1,7.9-6.5,7.9c-1.4,0-4.8-0.4-4.8-4.6
		C91.8,167.9,93.8,163.8,98.2,163.8 M96.6,174.5c3.4,0,4-5.6,4-6.4c0-2.2-1.3-2.7-2.4-2.7c-3.1,0-4,4.7-4,6.3
		C94.2,173.3,94.9,174.5,96.6,174.5"/>
	<path class="st0" d="M106.5,175.9h-2.4l-0.1-0.1c0.9-3.6,2.3-9.5,2.5-11.5l0.2-0.2l2.5-0.4l0.1,0.2l-0.5,2c0.4-0.6,1.4-2.3,3-2.3
		c0.5,0,0.8,0.1,1,0.3l0.1,0.2c-0.4,0.8-0.6,1.4-0.9,2.3l-0.2,0c-0.3-0.2-0.6-0.3-0.9-0.3c-0.6,0-2,0.3-2.8,3.3
		c-0.2,0.9-1.1,4.8-1.3,6.3L106.5,175.9z"/>
	<path class="st0" d="M131.4,175.9l-2.5,0l-0.1-0.1l1.8-7.7h-4.8c-1,0-1.7,0-2.7,0.1c-0.6,2.5-1.1,5.1-1.6,7.6l-0.2,0.2h-2.5
		l-0.1-0.1c0.3-1.1,3.1-13.1,3.6-15.9l0.2-0.2l2.5,0l0.1,0.1c-0.6,2.8-0.6,2.3-1.5,6.4h1.6c2,0,4.3,0,5.9-0.1l1.4-6.3l0.2-0.2l2.5,0
		l0.1,0.1c-1.4,6.2-3,13.1-3.6,15.9L131.4,175.9z"/>
	<path class="st0" d="M144.7,175.9l-2.3,0.1l-0.1-0.2l0.3-1.1c-1.2,1-2.5,1.4-3.7,1.4c-2.8,0-3.4-1.9-3.4-3.1c0-0.8,0.2-1.7,0.6-3.5
		l0.5-2.2l0.6-3.1l0.2-0.2c0.9,0,1.4-0.1,2.3-0.1l0.1,0.2c-0.8,3.5-1.8,7.1-1.8,8.2c0,0.6,0.2,2,2,2c1,0,2.1-0.5,3-1.3
		c1.2-5.4,1.7-7.9,1.9-8.7l0.2-0.2c0.8,0,1.4-0.1,2.3-0.1l0.1,0.2c-0.8,2.7-2.3,10.1-2.6,11.6L144.7,175.9z"/>
	<path class="st0" d="M164.8,175.9h-2.3l-0.2-0.1c0.4-1.4,0.7-2.8,1-4.1l0.4-1.8c0.3-1.4,0.5-2.3,0.5-2.7c0-1.5-1.3-1.6-1.7-1.6
		c-1.4,0-2.6,0.8-3.1,1.2c0,0.5-0.2,1.6-0.5,3l-0.5,2.4c-0.3,1.1-0.5,2.2-0.7,3.4l-0.2,0.2h-2.3l-0.1-0.2c0.4-1.4,1.8-7,1.8-8.5
		c0-1.5-1.3-1.6-1.7-1.6c-1.2,0-2.3,0.9-2.8,1.2l-0.8,3.4c-0.5,2-0.8,3.4-1.1,5.5l-0.2,0.1c-0.9,0-1.4,0-2.3,0.1l-0.2-0.2
		c0.9-3.4,2.2-9.6,2.4-11.5l0.2-0.1l2.4-0.4l0.2,0.2l-0.3,1.1c1.1-0.9,2.5-1.4,3.9-1.4c0.5,0,1.9,0.2,2.5,1.7
		c1.9-1.5,3.7-1.7,4.3-1.7c1.7,0,3.1,0.9,3.1,2.8c0,0.8-0.2,1.6-0.4,2.5l-0.4,1.7c-0.5,1.8-0.6,3.1-1,5L164.8,175.9z"/>
	<path class="st0" d="M178,175.9h-2.1l-0.1-0.1l0.2-0.9c-1.1,0.9-2.2,1.1-3.4,1.1c-2.7,0-4.2-2-4.2-4.5c0-1.7,0.8-3.3,1.1-3.9
		c1.9-3.4,5.3-3.8,7.7-3.8l3.4,0.1l0.2,0.2c-1.9,8.1-2.2,9.4-2.5,11.6L178,175.9z M173.6,174.3c0.8,0,1.9-0.3,2.6-1.1
		c0.6-2.3,1.1-4.8,1.7-7.4h-1c-2.2,0-4.4,0.6-5.6,3.4c-0.1,0.3-0.5,1.2-0.5,2.3C170.9,173.1,171.8,174.3,173.6,174.3"/>
	<path class="st0" d="M191.3,175.9l-2.3,0l-0.1-0.2c0.3-1.5,0.6-2.6,0.9-4.1l0.6-2.6c0.1-0.3,0.2-1.1,0.2-1.7c0-1.7-1.5-1.7-1.9-1.7
		c-1.4,0-2.5,0.8-3,1.2c-0.6,2.9-1.3,5.9-1.9,8.9l-0.2,0.2l-2.3,0l-0.1-0.2c0.8-3,2.2-9.4,2.4-11.5l0.2-0.2l2.4-0.4l0.1,0.2
		l-0.3,1.2c1.7-1.3,3.3-1.4,3.9-1.4c0.7,0,3.3,0.1,3.3,3c0,0.8-0.3,2.3-0.8,4.5l-0.3,1.6c-0.2,1.1-0.4,1.9-0.6,2.9L191.3,175.9z"/>
	<path class="st0" d="M196.9,175.9c-0.9,0-1.5,0-2.5,0.1l-0.1-0.2c0.8-2.6,2.4-10.2,2.5-11.5l0.2-0.2l2.5-0.4l0.1,0.2
		c-0.1,0-2,8.7-2.5,11.8L196.9,175.9z M200.1,160.8l-2.4,0.3l-0.2-0.2l0.5-2.1l0.2-0.2l2.4-0.3l0.2,0.2l-0.5,2.1L200.1,160.8z"/>
	<path class="st0" d="M205,175.9c-0.8,0.2-1.4,0.2-1.7,0.2c-2.2,0-2.7-1.1-2.7-2.3c0-0.9,0.5-2.9,1.1-5.7l0.6-2.4h-1.7l-0.1-0.2
		l0.4-1.5l0.2-0.1h1.6c0.3-1,0.4-1.8,0.6-2.8l0.2-0.2l2.4-0.6l0.1,0.1l-0.5,1.7l-0.4,1.8l2.5,0l0.1,0.2l-0.5,1.5l-0.2,0.2l-2.3,0
		l-1.2,5.2c-0.1,0.5-0.5,1.9-0.5,2.3c0,0.8,0.5,1,1.1,1s1.1-0.2,1.4-0.3l0.1,0.1l-0.5,1.6L205,175.9z"/>
	<path class="st0" d="M219,164.2c-3.5,5.6-6.9,11.3-10.1,17.2l-0.2,0.2h-2.4l-0.1-0.2c0.7-1,2.9-4.5,3.5-5.5
		c-0.9-5.7-1.7-11.3-1.8-11.6l0.2-0.2c0.9,0,1.5,0,2.4-0.1l0.2,0.1l0.3,3.4l0.7,5.4l2.2-4c0.9-1.5,1.8-3.1,2.6-4.7l0.2-0.2h2.2
		L219,164.2z"/>
	<path class="st0" d="M77.8,60.4H92v51.2H77.8V60.4z"/>
	<path class="st0" d="M99.4,111.6V60.4h39v9.9h-24.8v10.6h22.8v9.9h-22.8v10.8h24.8v9.9H99.4z"/>
	<path class="st0" d="M146.4,111.6V60.4h39v9.9h-24.8v10.6h22.8v9.9h-22.8v10.8h24.8v9.9H146.4z"/>
	<path class="st0" d="M193.3,111.6V60.4h39v9.9h-24.8v10.6h22.8v9.9h-22.8v10.8h24.8v9.9H193.3z"/>
	<path class="st0" d="M32.3,61c2.3-1.8,5.1-0.3,7,1.3c2,1.5,4.1,3.3,5.9,5l0.3,0.2c5.1,4.6,9.6,9.8,13.6,15.3c0.6,1,1.1,2.1,0.8,3.3
		c-1.3,3.2-3.9,5.8-6.2,8.6c-4.8,5.4-10.2,10.3-16,14.5c-1.2,0.8-2.8,1.6-4.2,0.9c-4.3-2.3-7.9-5.9-11.6-9.3
		c-4.5-4.1-8.5-8.7-12-13.6c-0.5-0.7-0.6-1.5-0.6-2.5c0.5-1.7,1.6-3.1,2.7-4.5c4.1-5,8.6-9.7,13.5-14l0.5-0.4
		C28,64.1,30.1,62.5,32.3,61 M38.9,55.8l-2.5-3.6c-0.3-0.2-0.7-0.5-1.1-0.6c-0.8-0.3-1.6,0.1-2.2,0.6l-4.6,6
		c-7.4,9.3-16.1,17.5-25.9,24.3c-0.8,0.6-1.9,1.2-2.1,2.2c-0.3,0.9,0.2,1.6,0.8,2.2c7.9,5.4,15.1,11.7,21.5,18.7
		c1.2,1.2,2.1,2.4,3.3,3.6c1.9,2.5,4.2,5.1,5.9,7.8c0.6,0.6,0.6,1.5,1.5,1.8c0.7,0.2,1.5,0.4,2.2,0l0.6-0.6
		c8.1-11.4,18-21.4,29.3-29.6c1.1-1,3.3-1.4,3.3-3.3c-0.1-0.9-0.6-1.7-1.3-2.2h-0.2c-5.8-4-11.3-8.5-16.3-13.5l-5.6-5.8
		C43.3,61.3,41,58.5,38.9,55.8 M33.1,62.4c2.3-1.6,4.4,0.6,6.2,1.9c7,5.5,13.2,11.9,18.4,19.2c0.6,0.9,0.9,2.3,0.4,3.4
		c-1.3,2.2-3,4.2-4.7,6.1v0.1c-4.1,4.5-8.5,8.7-13.2,12.6c-2.3,1.4-4.4,4.5-7.3,2.6c-6.9-5.1-13.2-11-18.6-17.6
		c-0.9-1.5-2.3-2.6-3-4.3c-0.9-2.2,1.1-3.8,2.3-5.5C19.1,74.1,26,67.3,33.1,62.4 M34.6,66.9l-0.6,2l-3.1,9c0.8,0.1,1.8,0,2.5,0.1
		v0.1l-0.5,10.2l0.1,0.1c1,0.1,2.3,0.2,3.3,0v-0.2l-0.4-9.9l0.1-0.3l2.8,0C37.3,74.2,36,70.6,34.6,66.9L34.6,66.9z M23.9,80.9
		c-1.8,0.9-4.3,2.3-4.1,4.6c0.4,1.3,1.8,2.2,2.9,2.7c6.2,2.8,14.5,2.8,21.2,0.8c1.6-0.6,3.8-1.5,4.1-3.6c0-1.6-1.7-2.6-3-3.3v-0.1
		c0.5-0.2,0.9-0.4,1.4-0.4v-0.1c-2.2-0.4-4.3-0.9-6.5-1.5c0.4,0.9,0.7,1.9,1,2.9c0.7-0.2,1.3-0.4,2-0.5c1.1,0.4,2.8,1.1,2.9,2.5
		c0.2,1.3-1.3,2-2.2,2.5c-4.9,1.7-10.3,2-15.3,0.6c-1.4-0.5-3.4-1-3.6-2.8c1-2.3,3.6-2.8,5.7-3.4c-1.1-0.7-2.2-1.3-3.3-2.1
		C26,80,24.9,80.5,23.9,80.9 M32.8,91.1c-0.2,3.6-0.2,7-0.5,10.6c1.4,0.1,3,0.3,4.5,0l-0.4-10.1l-0.1-0.5
		C35.2,91.2,34.1,91.2,32.8,91.1"/>
	<path class="st0" d="M46.2,111.8c-1.2,0-2.4,0.9-2.4,2.4s1.1,2.4,2.4,2.4c1.3,0.1,2.3-0.9,2.4-2.1c0-0.1,0-0.2,0-0.2
		c0.1-1.3-0.9-2.3-2.1-2.4C46.3,111.8,46.3,111.8,46.2,111.8 M46.2,116c-0.9,0-1.7-0.7-1.7-1.8s0.8-1.8,1.7-1.8
		c0.9,0,1.7,0.8,1.7,1.8C47.9,115.3,47.1,116,46.2,116 M47.2,113.7c0-0.6-0.4-0.8-1-0.8h-1v2.5h0.6v-1.1h0.3l0.6,1.1h0.6l-0.6-1.1
		C47,114.3,47.2,114.2,47.2,113.7 M46.3,114h-0.5v-0.6h0.4c0.2,0,0.5,0,0.5,0.3C46.7,113.9,46.5,114,46.3,114"/>
</g>
</svg>
