<?xml version="1.0" encoding="utf-8"?>
<!-- Generator: Adobe Illustrator 27.2.0, SVG Export Plug-In . SVG Version: 6.00 Build 0)  -->
<svg version="1.1" id="图层_1" xmlns="http://www.w3.org/2000/svg" xmlns:xlink="http://www.w3.org/1999/xlink" x="0px" y="0px"
	 viewBox="0 0 180 180" style="enable-background:new 0 0 180 180;" xml:space="preserve">
<style type="text/css">
	.st0{fill:#07C160;}
</style>
<path class="st0" d="M90,2.5C41.7,2.5,2.5,41.7,2.5,90s39.2,87.5,87.5,87.5s87.5-39.2,87.5-87.5S138.3,2.5,90,2.5z M90,162.7
	c-40.1,0-72.7-32.6-72.6-72.7c0-40.1,32.5-72.6,72.6-72.6c40.1,0,72.7,32.5,72.7,72.7S130.1,162.7,90,162.7L90,162.7z"/>
<path class="st0" d="M64.7,132.8V52.5H52.5v80.3L64.7,132.8L64.7,132.8z M92.9,132.8v-31.3h20.8c19.2,0,28.9-8.2,28.9-24.6
	c0-16.3-9.6-24.4-28.7-24.4H80.6v80.3L92.9,132.8L92.9,132.8z M112.9,91.1h-20V63h20c6,0,10.3,1.1,13.2,3.4c2.8,2,4.3,5.6,4.3,10.6
	s-1.5,8.6-4.2,10.8C123.4,90,119,91.1,112.9,91.1L112.9,91.1z"/>
</svg>
