<?xml version="1.0" encoding="utf-8"?>
<!-- Generator: Adobe Illustrator 27.2.0, SVG Export Plug-In . SVG Version: 6.00 Build 0)  -->
<svg version="1.1"
	 id="svg832" xmlns:inkscape="http://www.inkscape.org/namespaces/inkscape" xmlns:svg="http://www.w3.org/2000/svg" xmlns:sodipodi="http://sodipodi.sourceforge.net/DTD/sodipodi-0.dtd" sodipodi:docname="drawing.svg"
	 xmlns="http://www.w3.org/2000/svg" xmlns:xlink="http://www.w3.org/1999/xlink" x="0px" y="0px" viewBox="0 0 115 115"
	 style="enable-background:new 0 0 115 115;" xml:space="preserve">
<style type="text/css">
	.st0{fill:#00DC5A;}
</style>
<sodipodi:namedview  bordercolor="#666666" borderopacity="1.0" fit-margin-bottom="0" fit-margin-left="0" fit-margin-right="0" fit-margin-top="0" id="namedview834" inkscape:current-layer="layer1" inkscape:cx="370.74901" inkscape:cy="187.7092" inkscape:document-units="mm" inkscape:pagecheckerboard="0" inkscape:pageopacity="0.0" inkscape:pageshadow="2" inkscape:window-height="830" inkscape:window-maximized="1" inkscape:window-width="1440" inkscape:window-x="-6" inkscape:window-y="-6" inkscape:zoom="0.53540264" pagecolor="#ffffff" showgrid="false">
	</sodipodi:namedview>
<g id="layer1" transform="translate(-7.0156838,-99.009765)" inkscape:groupmode="layer" inkscape:label="Layer 1">
	<g id="g865" transform="matrix(0.35277777,0,0,-0.35277777,-210.56758,338.08648)">
		<g id="g665" transform="translate(107.75247,181.8323)">
			<g id="g75" transform="translate(565.7243,460.7513)">
				<path id="path77" class="st0" d="M105.2-177c0-0.5,0.4-0.8,0.9-0.8h21.6c0.5,0,0.9,0.4,0.9,0.8v96.5c0,0.5-0.4,0.8-0.9,0.8
					h-21.6c-0.5,0-0.9-0.4-0.9-0.8V-177z"/>
			</g>
			<g id="g79" transform="translate(509.7278,460.7513)">
				<path id="path81" class="st0" d="M2.5-177c0-0.5,0.4-0.8,0.9-0.8H25c0.5,0,0.9,0.4,0.9,0.8v60.7c0,0.5-0.4,0.8-0.9,0.8H3.4
					c-0.5,0-0.9-0.4-0.9-0.8V-177z"/>
			</g>
			<g id="g83" transform="translate(542.9816,467.9172)">
				<path id="path85" class="st0" d="M63.5-163.9c-15.6-2.8-30.7,7.8-33.6,23.7c-2.9,15.9,7.5,31.2,23.1,34
					c15.6,2.8,30.7-7.8,33.6-23.7C89.5-145.8,79.1-161.1,63.5-163.9 M113.7-168.5l-10.7,8.6c-0.2,0.2-0.4,0.4-0.4,0.7
					c-0.1,0.3,0,0.5,0.1,0.8c5.1,9.6,7.1,20.9,5.1,32.3c-4.9,27.2-31.1,45.3-58.5,40.3C22-90.7,3.8-116.8,8.7-144
					c4.9-27.2,31.1-45.3,58.5-40.3c7.6,1.4,14.5,4.4,20.4,8.6c0.4,0.3,1,0.3,1.4,0l11.5-9.2c0.4-0.3,1-0.2,1.3,0.2l12.1,15
					C114.2-169.4,114.1-168.8,113.7-168.5"/>
			</g>
			<g id="g87" transform="translate(622.8592,495.0793)">
				<path id="path89" class="st0" d="M210-114.1h-21.6c-0.5,0-0.9-0.4-0.9-0.8v-96.5c0-0.5,0.4-0.8,0.9-0.8H210
					c0.5,0,0.9,0.4,0.9,0.8v96.5C211-114.4,210.5-114.1,210-114.1"/>
			</g>
			<g id="g91" transform="translate(513.856,495.7579)">
				<path id="path93" class="st0" d="M10.1-112.8c-7.6,0-13.7-6.1-13.7-13.7c0-7.6,6.1-13.7,13.7-13.7s13.7,6.1,13.7,13.7
					C23.8-118.9,17.6-112.8,10.1-112.8"/>
			</g>
			<g id="g95" transform="translate(610.8904,495.0793)">
				<path id="path97" class="st0" d="M188.1-114.1h-23c-0.4,0-0.8-0.2-0.9-0.5l-21.4-37.9c0,0-0.2-0.3-0.4-0.3
					c-0.2,0-0.4,0.3-0.4,0.3l-21.4,37.9c-0.2,0.3-0.5,0.5-0.9,0.5h-23c-0.6,0-1.3-0.6-0.8-1.6l34.2-57.4c0.3-0.6,0.5-1.2,0.5-1.8
					v-36.4c0-0.6,0.4-1,1-1h10.8h10.8c0.6,0,1,0.4,1,1v36.4c0,0.6,0.2,1.3,0.5,1.8l34.2,57.4C189.4-114.7,188.7-114.1,188.1-114.1"
					/>
			</g>
		</g>
	</g>
</g>
</svg>
