<svg width="412" height="412" viewBox="0 0 412 412" fill="none" xmlns="http://www.w3.org/2000/svg">
<mask id="mask0_478_3996" style="mask-type:alpha" maskUnits="userSpaceOnUse" x="0" y="0" width="412" height="412">
<path fill-rule="evenodd" clip-rule="evenodd" d="M412 128.314C412 123.423 412 118.531 411.972 113.64C411.947 109.519 411.9 105.4 411.788 101.281C411.546 92.3047 411.016 83.2512 409.42 74.3747C407.801 65.3703 405.157 56.9898 400.991 48.8083C396.895 40.7669 391.544 33.4084 385.16 27.0289C378.778 20.6494 371.417 15.3024 363.373 11.209C355.183 7.04147 346.793 4.39848 337.779 2.77999C328.902 1.186 319.846 0.657498 310.869 0.414999C306.748 0.303499 302.626 0.256499 298.504 0.230999C293.61 0.200999 288.716 0.203499 283.822 0.203499L226.998 0H184.499L128.681 0.203499C123.777 0.203499 118.874 0.200999 113.97 0.230999C109.839 0.256499 105.71 0.303499 101.581 0.414999C92.5833 0.657498 83.5069 1.1865 74.6084 2.78249C65.582 4.40048 57.1801 7.04247 48.9791 11.207C40.9177 15.3009 33.5413 20.6484 27.1453 27.0289C20.7503 33.4079 15.3899 40.7649 11.2864 48.8048C7.10845 56.9903 4.45947 65.3758 2.83648 74.3852C1.23849 83.2582 0.708995 92.3087 0.465497 101.281C0.354497 105.4 0.306498 109.52 0.281498 113.64C0.251498 118.532 0 124.608 0 129.5V184.544V227.499L0.253998 283.713C0.253998 288.611 0.251998 293.509 0.281498 298.407C0.306498 302.533 0.354497 306.658 0.465997 310.783C0.708995 319.771 1.23949 328.837 2.83898 337.726C4.46147 346.742 7.10995 355.135 11.2844 363.327C15.3884 371.38 20.7498 378.748 27.1453 385.136C33.5408 391.525 40.9152 396.879 48.9751 400.978C57.1811 405.151 65.587 407.798 74.6189 409.418C83.5134 411.014 92.5868 411.544 101.581 411.786C105.71 411.898 109.84 411.945 113.971 411.97C118.874 412 123.777 412 128.681 412H185.003H227.608H283.822C288.716 412 293.61 412 298.504 411.97C302.626 411.945 306.748 411.898 310.869 411.786C319.849 411.543 328.908 411.014 337.789 409.416C346.798 407.796 355.184 405.15 363.369 400.98C371.415 396.881 378.777 391.526 385.16 385.136C391.543 378.749 396.893 371.382 400.989 363.33C405.158 355.134 407.802 346.738 409.422 337.715C411.017 328.83 411.546 319.767 411.788 310.783C411.9 306.658 411.947 302.533 411.972 298.407C412 293.509 412 288.611 412 283.713C412 283.713 412 228.492 412 227.499V184.499C412 183.766 412 128.314 412 128.314Z" fill="white"></path>
</mask>
<g mask="url(#mask0_478_3996)">
<rect width="412" height="412" fill="#0093FF"></rect>
<path d="M618 391.403V618H391.569L92.7853 319.215C77.9012 304.344 68.667 283.778 68.6667 260.933C68.6665 232.636 68.6667 151.067 68.6667 151.067C68.663 105.289 105.286 68.6665 151.064 68.6665C170.695 68.6665 188.412 77.806 202.567 89.2665C204.379 90.7343 207.303 90.7343 209.116 89.2665C223.206 77.8583 241.134 68.7294 260.662 68.6671C260.751 68.6668 260.841 68.6665 260.93 68.6665C283.82 68.6665 304.421 77.8222 319.299 92.7004L618 391.403Z" fill="url(#paint0_radial_478_3996)"></path>
<path d="M260.93 68.6665C260.84 68.6665 260.751 68.6666 260.661 68.6669C239.662 68.7339 220.513 76.6557 205.996 89.6481C191.418 76.6003 172.167 68.6665 151.063 68.6665C105.285 68.6665 68.663 105.289 68.6667 151.066C68.6667 151.066 68.6665 232.636 68.6667 260.933C68.6672 306.711 105.743 343.333 151.063 343.333H226.6C230.392 343.333 233.467 340.259 233.467 336.466V295.274C233.467 291.478 230.388 288.403 226.593 288.407L151.067 288.485C135.897 288.485 123.6 276.125 123.6 261.018V151.066C123.6 136.418 135.502 123.6 151.067 123.6C166.631 123.6 178.533 136.418 178.533 151.066V226.6C178.533 230.392 181.608 233.466 185.4 233.466L226.603 233.466C230.396 233.466 233.47 230.392 233.47 226.6L233.467 151.066C233.467 136.189 245.369 123.6 260.933 123.6C276.956 123.6 288.4 136.875 288.4 151.066C288.4 152.998 288.398 244.827 288.397 299.299L288.397 336.466C288.397 340.259 291.471 343.333 295.263 343.333H336.429C340.236 343.333 343.333 340.343 343.332 336.536C343.331 302.372 343.333 151.066 343.333 151.066C343.333 105.289 306.707 68.6665 260.93 68.6665Z" fill="white"></path>
</g>
<defs>
<radialGradient id="paint0_radial_478_3996" cx="0" cy="0" r="1" gradientUnits="userSpaceOnUse" gradientTransform="translate(204.97 208.746) rotate(45) scale(338.911 338.94)">
<stop stop-color="#2A42E0"></stop>
<stop offset="1" stop-color="#2A42E0" stop-opacity="0"></stop>
</radialGradient>
</defs>
</svg>