<?xml version="1.0" encoding="utf-8"?>
<!-- Generator: Adobe Illustrator 27.2.0, SVG Export Plug-In . SVG Version: 6.00 Build 0)  -->
<svg version="1.1" id="Layer_1" xmlns="http://www.w3.org/2000/svg" xmlns:xlink="http://www.w3.org/1999/xlink" x="0px" y="0px"
	 viewBox="0 0 45 45" style="enable-background:new 0 0 45 45;" xml:space="preserve">
<style type="text/css">
	.st0{fill:#4CAF50;}
	.st1{fill:#FFFFFF;}
</style>
<g>
	<path class="st0" d="M34.2,17.3l-0.1-0.4c-0.1-0.4-0.4-0.7-0.8-0.7l-20.2,3.4l0.5,2.8l1.3-0.2c0.5-0.1,0.9,0.3,1,0.9l0.9,5.4
		c0.1,0.6-0.2,1.1-0.7,1.2l-4.4,0.7c-0.5,0.1-0.9-0.3-1-0.9L10,24.1c-0.1-0.6,0.2-1.1,0.7-1.2l1.3-0.2l-0.5-2.8l-7,1.2
		c-0.4,0.1-0.6,0.5-0.5,0.9l0.1,0.7c1.3,8,6,14.5,11.6,16.4c-0.8,0.2,13.7-2.3,13-2.2c1.1-0.8,2.1-1.9,2.9-3.1
		c1.7-0.4,3.9-1.2,5.7-2.4c4.1-2.7,4.5-6,4.1-8.3C40.6,19,37.9,16.8,34.2,17.3z M33.6,29.2c0.8-2.5,1.1-5.3,1-8.2
		c3.2-0.4,3.6,1.8,3.7,2.6C38.8,26.2,36.3,28.1,33.6,29.2z"/>
</g>
<g transform="matrix(2.654321,0,0,-2.654321,-230.92593,1554.3519)">
	<path id="alpha_13_" class="st1" d="M96.7,577.8l0.7,0.1l-0.1-2.1c0-0.4,0-0.6-0.1-0.7c0.2-0.5,0.4-0.7,0.6-0.7
		c0.3,0,0.4,0.2,0.3,0.6l0.2,0c0-0.3,0-0.6,0-0.8c-0.1-0.2-0.2-0.4-0.4-0.4c-0.2,0-0.3,0-0.4,0.1c-0.1,0.1-0.2,0.3-0.4,0.7
		c-0.2-0.7-0.6-1.1-1.3-1.2c-0.5-0.1-0.9,0-1.2,0.4s-0.6,0.8-0.7,1.5c-0.1,0.7,0,1.2,0.2,1.6c0.2,0.4,0.6,0.7,1,0.7
		c0.3,0.1,0.6,0,0.8-0.2c0.2-0.2,0.5-0.5,0.7-0.9L96.7,577.8z M96.6,576c-0.2,0.4-0.4,0.8-0.6,1c-0.2,0.2-0.4,0.3-0.7,0.3
		c-0.5-0.1-0.7-0.7-0.5-2c0.2-1.2,0.5-1.7,1.1-1.6c0.4,0.1,0.7,0.6,0.7,1.7L96.6,576z"/>
</g>
<path class="st0" d="M9.6,41.1c-0.2,0.2,0,0.8,0.2,1.2c0.2,0.4,0.4,1,0.6,1.2c0.1,0.1,0.3,0.2,0.4,0.2h25.4c0.2,0,0.3-0.1,0.4-0.2
	c0.2-0.2,0.4-0.7,0.6-1.2c0.2-0.4,0.4-1,0.2-1.2c-0.1-0.1-0.2-0.2-0.4-0.2H10C9.9,40.9,9.7,40.9,9.6,41.1z"/>
<path class="st0" d="M15.7,9.9c-0.6,0.6-2.5,2.5-1.7,4.4c0.9,2.2,4.6,2.4,5.3,2.4c0,0,0.1,0,0.1,0c0.4-0.1,0.7-0.5,0.7-0.9
	c0-0.5-0.4-0.9-0.9-0.9c-1.3,0-3.4-0.5-3.7-1.2c-0.1-0.4,0.1-1.2,1.3-2.4c1.6-1.6,2.2-2.8,2-3.9c-0.2-1.3-1.3-1.9-2.4-2.5
	c-1.2-0.7-2.4-1.4-2.9-2.8c-0.2-0.5-0.7-0.7-1.1-0.6C12,1.7,11.8,2.2,12,2.7c0.8,2.1,2.5,3.1,3.8,3.8c0.6,0.4,1.4,0.8,1.5,1.1
	C17.2,7.8,17.2,8.4,15.7,9.9z"/>
<path class="st0" d="M18,12.3c0,0.5,0.4,0.9,0.9,1c0.3,0,0.6,0,1-0.1C21.7,12.9,24,11.6,24,8c0-0.5-0.4-1-0.9-1
	c-0.5,0-0.9,0.4-0.9,0.9c0,3.5-3.1,3.5-3.4,3.5C18.4,11.4,18,11.8,18,12.3z"/>
</svg>
