<?xml version="1.0" encoding="utf-8"?>
<!-- Generator: Adobe Illustrator 27.2.0, SVG Export Plug-In . SVG Version: 6.00 Build 0)  -->
<svg version="1.1" id="图层_1" xmlns="http://www.w3.org/2000/svg" xmlns:xlink="http://www.w3.org/1999/xlink" x="0px" y="0px"
	 viewBox="0 0 50 50" style="enable-background:new 0 0 50 50;" xml:space="preserve">
<style type="text/css">
	.st0{fill:#AC000E;}
	.st1{fill:#AF080D;}
	.st2{fill:#B3100D;}
	.st3{fill:#B9200C;}
	.st4{fill:#BA220C;}
	.st5{fill:#BB240C;}
	.st6{fill:#BB260B;}
	.st7{fill:#BD2B0B;}
	.st8{fill:#C1330B;}
	.st9{fill:#C74209;}
	.st10{fill:#CF5508;}
	.st11{fill:#D36107;}
	.st12{fill:#DC7606;}
	.st13{fill:#E38805;}
	.st14{fill:#E89304;}
	.st15{fill:#EFA403;}
	.st16{fill:#FFFFFF;}
</style>
<path class="st0" d="M4.9,40.1L2.3,28.9l-2.5-11.1L7,8.9L14,0h11.5h11.4L44,8.9l7.2,8.9L48.5,29L46,40.1l-10.2,5l-10.3,5l-10.3-5
	L4.9,40.1z"/>
<path class="st1" d="M36.9,0l-2.1,1.5h-7.2L25.5,0l-2.1,1.5h-7.2L14,0l-0.1,2.6L9.4,8.2L7,8.9l-0.2,2.6l-4.4,5.6l-2.5,0.7l1.9,1.7
	l1.6,7.1l-1,2.3l2,1.8l1.6,6.9l-1,2.4l2.6-0.4l6.4,3.2l1.3,2.2l2.6-0.4l6.4,3.2l1.3,2.2l1.3-2.2l6.4-3.2l2.6,0.4l1.3-2.2l6.4-3.2
	l2.5,0.4l-1-2.4l1.6-6.9l1.9-1.8l-1-2.3l1.6-7l2-1.7l-2.5-0.7l-4.4-5.6L44,9l-2.5-0.7l-4.4-5.6L36.9,0z"/>
<path class="st2" d="M44,8.9l-2.5-0.7l-1.6-0.5l-2.7-3.5l-0.1-1.6L36.9,0l-2.1,1.5l-1.4,1H29l-1.4-1L25.5,0l-2.1,1.5l-1.4,1h-4.5
	l-1.3-1L14,0l-0.1,2.6l-0.1,1.6L11,7.7L9.4,8.2L7,8.9l-0.2,2.6l-0.1,1.6l-2.8,3.5l-1.5,0.5l-2.5,0.7l1.9,1.7L3,20.7L3.9,25l-0.6,1.6
	l-1,2.3l2,1.8l1.2,1.1l0.9,4.3l-0.5,1.5l-1.1,2.4l2.6-0.4l1.6-0.2l4,1.9l0.8,1.5l1.3,2.2l2.6-0.4l1.6-0.2l4,1.9l0.8,1.5l1.3,2.2
	l1.3-2.2l0.8-1.5l4-1.9l1.6,0.2l2.6,0.4l1.3-2.2l0.7-1.5l4.1-1.9l1.6,0.2l2.5,0.4l-1-2.4l-0.6-1.5l1-4.3l1.2-1.1l1.9-1.8l-1-2.3
	l-0.5-1.6l1-4.3l1.2-1.2l2-1.7l-2.5-0.7l-1.6-0.5l-2.7-3.5l-0.1-1.6L44,8.9z"/>
<path class="st3" d="M46.1,16.3l-1.8-2.1v-1.1l-0.1-1.6L44,8.9l-2.5-0.7l-1.6-0.5L39,7.5l-1.7-2.2l-0.1-1.1l-0.1-1.6L36.9,0
	l-2.1,1.5l-1.4,1l-0.8,0.6h-2.7L29,2.4l-1.4-1L25.5,0l-2.1,1.5l-1.4,1l-0.8,0.6h-2.8l-0.9-0.6l-1.3-1L14,0l-0.1,2.6l-0.1,1.6
	l-0.1,1.1L12,7.5L11,7.7L9.4,8.2L7,8.9l-0.2,2.6l-0.1,1.6l-0.1,1.1l-1.7,2.1l-1,0.3l-1.5,0.5l-2.5,0.7l1.9,1.7L3,20.7l0.7,0.6
	l0.6,2.7L3.9,25l-0.6,1.6l-1,2.3l2,1.8l1.2,1.1l0.7,0.6l0.6,2.7l-0.4,1l-0.5,1.5l-1.1,2.4l2.6-0.4l1.6-0.2l1.1-0.2l2.5,1.3l0.4,0.8
	l0.8,1.5l1.3,2.2l2.6-0.4l1.6-0.2l1-0.1l2.5,1.2l0.5,0.8l0.8,1.5l1.3,2.2l1.3-2.2l0.8-1.5l0.4-0.8l2.5-1.2l1,0.1l1.6,0.2l2.6,0.4
	l1.3-2.2l0.7-1.5l0.5-0.8l2.5-1.3l1,0.2l1.6,0.2l2.5,0.4l-1-2.4l-0.6-1.5l-0.3-1l0.6-2.7l0.7-0.6l1.2-1.1l1.9-1.8l-1-2.3l-0.5-1.6
	l-0.4-0.9l0.6-2.7l0.7-0.6l1.2-1.2l2-1.7l-2.5-0.7l-1.6-0.5L46.1,16.3z"/>
<path class="st4" d="M48.7,17.2l-1.6-0.5l-5,1.2L43,17l3.2-0.7l-1.8-2.1v-1.1l-0.1-1.6L44,8.9l-2.5-0.7l-1.6-0.5L39,7.5l-1.7-2.2
	l-1.5,2.9L35,8.8l2.2-4.6l-0.1-1.6L36.9,0l-2.1,1.5l-1.4,1l-2.2,4.6V5.9l1.4-2.8h-2.7L29,2.4l-1.4-1L25.5,0l-2.1,1.5l-1.4,1
	l-0.8,0.6h-2.8l1.5,2.8v1.2l-2.3-4.6l-1.3-1L14,0l-0.1,2.6l-0.1,1.6L16,8.8l-0.9-0.7l-1.4-2.8L12,7.5L11,7.7L9.4,8.2L7,9l-0.2,2.6
	l-0.1,1.6l-0.1,1.1l-1.7,2.1L8,17.1l0.8,0.7l-5.1-1.2l-1.5,0.5l-2.5,0.7l1.9,1.7L3,20.7l4.9,1.1l-1,0.2l-3.2-0.7l0.6,2.7l-0.4,0.9
	l-0.6,1.6l-1,2.3l2,1.8l1.2,1.1l0.7,0.6l0.6,2.7l2.5-2l1.1-0.3l-4.1,3.3l-0.5,1.5l-1.1,2.4l2.6-0.4l1.6-0.2l4-3.2l-0.4,0.9l-2.5,2
	l2.5,1.3l0.4,0.8l0.8,1.5l1.3,2.2l2.6-0.4l1.6-0.2l1-0.1l2.5,1.2v-3.2l0.5-1.1v5.1l0.8,1.5l1.3,2.2l1.3-2.2l0.8-1.5v-5.1l0.4,1.1
	v3.2l2.5-1.2l1,0.1l1.6,0.2l2.6,0.4l1.3-2.2l0.7-1.5l0.5-0.8l2.5-1.3l-2.5-2l-0.5-0.9l4.1,3.2l1.6,0.2l2.5,0.4l-1-2.4l-0.6-1.5
	l-4-3.3l1.2,0.3l2.5,2l0.6-2.7l0.7-0.6l1.2-1.1l1.9-1.8l-1-2.3l-0.5-1.6l-0.4-0.9l0.6-2.7l-3.2,0.7L43,21.9l5-1.1l1.2-1.2l2-1.7
	L48.7,17.2z"/>
<path class="st5" d="M48.7,17.2l-8,1.8l1.5-1.2l0.8-0.7l3.2-0.7l-1.8-2.1v-1.1l-0.1-1.6L44,9l-2.5-0.7l-1.6-0.5L39,7.5l-1.7-2.2
	l-1.5,2.9L35,8.8L33.5,10l3.6-7.4L36.9,0l-2.1,1.5L31.2,9V7.1V5.9l1.4-2.8h-2.7L29,2.4l-1.4-1L25.5,0l-2.1,1.5l-1.4,1l-0.8,0.6h-2.8
	l1.5,2.8v1.2V9l-3.6-7.5L14,0l-0.1,2.6l3.6,7.4L16,8.8l-0.9-0.7l-1.4-2.8L12,7.5L11,7.7L9.4,8.2L7,9l-0.2,2.6l-0.1,1.6l-0.1,1.1
	l-1.7,2.1L8,17.1l0.8,0.7l1.5,1.2l-8-1.8l-2.5,0.7l1.9,1.7l8.1,1.9l-1.9,0.4l-1,0.2l-3.2-0.7l0.6,2.7l-0.4,0.9l-0.6,1.6l-1,2.3
	l2,1.8l1.2,1.1l0.7,0.6l0.6,2.7l2.5-2l1.1-0.3l1.8-0.3l-6.4,5l-1,2.4l2.6-0.4l6.4-5l-0.8,1.7l-0.4,0.9l-2.5,2l2.5,1.3l0.4,0.8
	l0.8,1.5l1.3,2.2l2.6-0.4l1.6-0.2l1-0.1l2.5,1.2v-3.2l0.5-1.1l0.8-1.7v8.2l1.3,2.2l1.3-2.2v-8.2l0.8,1.7l0.4,1.1v3.2l2.5-1.2l1,0.1
	l1.6,0.2l2.6,0.4l1.3-2.2l0.7-1.5l0.5-0.8l2.5-1.3l-2.5-2l-0.5-0.9l-0.7-1.7l6.4,5l2.5,0.4l-1-2.4l-6.4-5l1.8,0.3l1.2,0.3l2.5,2
	l0.6-2.7l0.7-0.6l1.2-1.1l1.9-1.8l-1-2.3l-0.5-1.6l-0.4-0.9l0.6-2.7l-3.2,0.7L43,21.9l-1.8-0.4l8-1.9l2-1.7L48.7,17.2z"/>
<path class="st6" d="M42.1,17.8l0.8-0.7l3.2-0.7l-1.8-2.1v-1.1l-0.1-1.6L44,9l-2.5-0.7l-1.6-0.5L39,7.5l-1.7-2.2l-1.5,2.9L35,8.8
	L33.5,10l-2.3,1.9V9V7.1V5.9l1.4-2.8h-2.7L29,2.4l-1.4-1L25.5,0l-2.1,1.5l-1.4,1l-0.8,0.6h-2.8l1.5,2.8v1.2V9v2.9L17.5,10L16,8.8
	l-0.9-0.7l-1.4-2.8L12,7.5L11,7.7L9.4,8.2L7,9l-0.2,2.6l-0.1,1.6l-0.1,1.1l-1.7,2.1L8,17.1l0.8,0.7l1.5,1.2l2.3,1.9l-2.8,0.6
	l-1.9,0.4l-1,0.2l-3.2-0.7l0.6,2.7l-0.4,0.9l-0.6,1.6l-1,2.3l2,1.8l1.2,1.1l0.7,0.6l0.6,2.7l2.5-2l1.1-0.3l1.8-0.3l2.8-0.7l-1.3,2.7
	l-0.8,1.7l-0.4,0.9l-2.5,2l2.5,1.3l0.4,0.8l0.8,1.5l1.3,2.2l2.6-0.4l1.6-0.2l1-0.1l2.5,1.2v-3.2l0.5-1.1l0.8-1.7l1.3-2.7l1.3,2.7
	l0.8,1.7l0.4,1.1v3.2l2.5-1.2l1,0.1l1.6,0.2l2.6,0.4l1.3-2.2l0.7-1.5l0.5-0.8l2.5-1.3l-2.5-2l-0.5-0.9l-0.7-1.7l-1.3-2.7l2.8,0.7
	l1.8,0.3l1.2,0.3l2.5,2l0.6-2.7l0.7-0.6l1.2-1.1l1.9-1.8l-1-2.3l-0.5-1.6l-0.4-0.9l0.6-2.7l-3.2,0.7L43,21.9l-1.8-0.4l-2.8-0.6
	l2.3-1.9L42.1,17.8z"/>
<path class="st7" d="M39.9,7.7L35,8.8L33.5,10l-2.3,1.9V9V7.1L29,2.4l-1.4-1L25.5,0l-2.1,1.5l-1.4,1l-2.2,4.6V9v2.9L17.5,10L16,8.8
	L11,7.7L9.4,8.2L7,9l-0.2,2.6l-0.1,1.6l2.2,4.6l1.5,1.2l2.3,1.9l-2.8,0.6l-1.9,0.4l-4,3.2l-0.6,1.6l-1,2.3l2,1.8l1.2,1.1l5.1,1.1
	l1.8-0.3l2.8-0.7l-1.3,2.7l-0.8,1.7v5l0.8,1.5l1.3,2.2l2.6-0.4l1.6-0.2l4-3.2l0.8-1.7l1.3-2.7l1.3,2.7l0.8,1.7l4,3.2l1.6,0.2
	l2.6,0.4l1.3-2.2l0.7-1.5v-5l-0.7-1.7l-1.3-2.7l2.8,0.7l1.8,0.3l5-1.1l1.2-1.1l1.9-1.8l-1-2.3L47.1,25L43,21.9l-1.8-0.4l-2.8-0.6
	l2.3-1.9l1.5-1.2l2.2-4.6l-0.1-1.6L44,8.9l-2.5-0.7L39.9,7.7z"/>
<path class="st8" d="M31.2,8.9l-3.6-7.5L25.5,0l-2.1,1.5l-3.6,7.5v2.9L17.5,10L9.4,8.2L7,8.9l-0.2,2.6l3.6,7.4l2.3,1.9l-2.8,0.6
	l-6.5,5.2l-1,2.3l2,1.8l8,1.9l2.8-0.7l-1.3,2.7v8.2l1.3,2.2l2.6-0.4l6.4-5l1.3-2.7l1.3,2.7l6.4,5l2.6,0.4l1.3-2.2v-8.2l-1.3-2.7
	l2.8,0.7l8-1.9l1.9-1.8l-1-2.3l-6.4-5.2l-2.8-0.6l2.3-1.9l3.6-7.4L44,8.9l-2.5-0.7l-8,1.8l-2.3,1.9L31.2,8.9z"/>
<path class="st9" d="M2.3,29l12.9,2.9v13.2l10.3-8.2l10.3,8.2V31.9L48.6,29l-10.2-8.1L44,9l-12.8,2.9L25.5,0l-5.7,11.9L7,9l5.7,11.9
	L2.3,29z"/>
<path class="st10" d="M25.5,0l-0.7,4.4l-3.6,7.5h-1.4l-1,1.1l-8-1.8L7,8.9l3.1,3.4l3.5,7.4l-0.8,1.2l0.3,1.4l-6.4,5l-4.2,1.7
	l4.5-0.2l8,1.8l0.3,1.4l1.3,0.6v8.2L15.2,45l2.6-3.7l6.4-5.2l1.3,0.6l1.3-0.6l6.4,5.2l2.6,3.7l-1.4-4.3v-8.2l1.4-0.6l0.3-1.4l8-1.8
	l4.4,0.2l-4.1-1.7L38,22.2l0.3-1.4l-1-1.2l3.6-7.4l3-3.4l-3.9,2.2l-8,1.8l-0.9-1.1h-1.4l-3.6-7.5L25.5,0z"/>
<path class="st11" d="M31.2,11.9h-1.4h-1l-2.2-4.6l-0.4-2.8L25.5,0l-0.7,4.4l-0.4,2.8l-2.2,4.6h-0.9h-1.4l-1,1.1l-0.5,0.7l-5.1-1.1
	l-2.4-1.4L7,9l3.1,3.4l1.9,2l2.2,4.6l-0.6,0.7l-0.8,1.2l0.3,1.4l0.2,0.8l-4,3.2l-2.6,1L2.3,29l4.5-0.2l2.8-0.2l4.9,1.1l0.2,0.9
	l0.3,1.4l1.3,0.6l0.8,0.4v5.2l-0.8,2.6l-1.3,4.3l2.6-3.7l1.6-2.3l4-3.2l0.8,0.3l1.3,0.6l1.3-0.6l0.8-0.3l4,3.2l1.6,2.3l2.6,3.7
	l-1.4-4.3l-0.7-2.6V33l0.7-0.4l1.4-0.6l0.3-1.4l0.2-0.9l4.9-1.1l2.8,0.2l4.4,0.2l-4.1-1.7l-2.6-1l-4-3.2l0.2-0.8l0.3-1.4l-1-1.2
	L36.9,19l2.2-4.6l1.9-2L44,9l-3.9,2.2l-2.5,1.4l-5,1.1L32.1,13L31.2,11.9z"/>
<path class="st12" d="M36.1,13.4L33,14.1l-0.3-0.4l-0.5-0.7l-0.9-1.1h-1.4h-1h-0.5L27,8.9l-0.3-1.7l-0.4-2.8L25.5,0l-0.7,4.4
	l-0.4,2.8L24,8.9l-1.4,2.9h-0.5h-0.9h-1.4l-1,1.1l-0.5,0.7L18,14.1l-3.2-0.7l-1.6-0.8l-2.4-1.4L7,8.9l3.1,3.4l1.9,2l1.2,1.4l1.4,2.9
	l-0.3,0.4l-0.6,0.7l-0.8,1.2l0.3,1.4l0.2,0.8l0.1,0.5l-2.5,2l-1.6,0.6l-2.6,1l-4.2,1.7l4.5-0.2l2.8-0.2l1.7-0.1l3.1,0.7l0.1,0.5
	l0.2,0.9l0.3,1.4l1.3,0.6l0.8,0.4l0.5,0.2v3.3l-0.5,1.7l-0.8,2.6L15.2,45l2.6-3.7l1.6-2.3l1-1.4l2.5-2l0.5,0.2l0.8,0.3l1.3,0.6
	l1.3-0.6l0.8-0.3l0.4-0.2l2.5,2l1,1.4l1.6,2.3l2.6,3.7l-1.4-4.3l-0.7-2.6l-0.5-1.7v-3.3l0.5-0.2l0.7-0.4l1.4-0.6l0.3-1.4l0.2-0.9
	l0.1-0.5l3-0.7l1.8,0.1l2.8,0.2l4.4,0.2l-4.1-1.7l-2.6-1l-1.6-0.6l-2.5-2l0.1-0.5l0.2-0.8l0.3-1.4l-1-1.2L36.9,19l-0.3-0.4l1.4-2.9
	l1.2-1.4l1.9-2L44,9l-3.9,2.2l-2.5,1.4L36.1,13.4z"/>
<path class="st12" d="M40.1,11.2l-2.5,1.4l-7.2,5.8l1.2-1.3l4.5-3.7L33,14.1l-0.3-0.4l-0.5-0.7l-0.9-1.1h-1.4h-1h-0.5L27,8.9v5.8
	l-0.3,1.8V7.3l-0.4-2.8L25.5,0l-0.7,4.4l-0.4,2.8v9.3L24,14.7V8.9l-1.4,2.9h-0.5h-0.9h-1.4l-1,1.1l-0.5,0.7L18,14.1l-3.2-0.7
	l4.5,3.7l1.2,1.3l-7.3-5.8l-2.4-1.4L7,8.9l3.1,3.4l1.9,2l7.2,5.8l-1.5-0.9l-4.5-3.6l1.4,2.9L14.1,19l-0.6,0.7l-0.8,1.2l0.3,1.4
	l0.2,0.8l0.1,0.5l-2.5,2l5.7-1.3l1.8-0.1l-9.1,2l-2.6,1L2.3,29l4.5-0.2l2.8-0.2l8.9-2.1l-1.6,0.7l-5.7,1.3l3.1,0.7l0.1,0.5l0.2,0.9
	l0.3,1.4l1.3,0.6l0.8,0.4l0.5,0.2v3.3l2.5-5.3l0.9-1.5l-4,8.4l-0.8,2.6L15.2,45l2.6-3.7l1.6-2.3l4-8.3l-0.5,1.7l-2.5,5.3l2.5-2
	l0.5,0.2l0.8,0.3l1.3,0.6l1.3-0.6l0.8-0.3l0.4-0.2l2.5,2L28,32.4l-0.4-1.7l4,8.3l1.6,2.3l2.6,3.7l-1.4-4.3l-0.7-2.6l-4-8.4l1,1.5
	l2.5,5.3v-3.3l0.5-0.2l0.7-0.4l1.4-0.6l0.3-1.4l0.2-0.9l0.1-0.5l3-0.7l-5.6-1.3l-1.7-0.7l9,2.1l2.8,0.2l4.4,0.2l-4.1-1.7l-2.6-1
	l-9-2l1.8,0.1l5.7,1.3l-2.5-2l0.1-0.5l0.2-0.8l0.3-1.4l-1-1.2L36.9,19l-0.3-0.4l1.4-2.9l-4.5,3.6l-1.6,0.9l7.3-5.8l1.9-2L44,9
	L40.1,11.2z"/>
<path class="st12" d="M40.1,11.2l-11.6,9.3l1.9-2.1l1.2-1.3l4.5-3.7L33,14.1l-0.3-0.4l-0.5-0.7l-0.9-1.1h-1.4h-1h-0.5L27,8.9v5.8
	l-0.3,1.8l-0.4,2.7V4.4L25.5,0l-0.7,4.4v14.8l-0.4-2.7L24,14.7V8.9l-1.4,2.9h-0.5h-0.9h-1.4l-1,1.1l-0.5,0.7L18,14.1l-3.2-0.7
	l4.5,3.7l1.2,1.3l1.9,2.1l-11.6-9.3L7,8.9l3.1,3.4l11.6,9.1l-2.5-1.4l-1.5-0.9l-4.5-3.6l1.4,2.9l-0.3,0.4l-0.6,0.7l-0.8,1.2l0.3,1.4
	l0.2,0.8l0.1,0.5l-2.5,2l5.7-1.3l1.8-0.1L21,24L6.5,27.3L2.3,29l4.5-0.2l14.4-3.4l-2.6,1l-1.6,0.7l-5.7,1.3l3.1,0.7l0.1,0.5l0.2,0.9
	l0.3,1.4l1.3,0.6l0.8,0.4l0.5,0.2v3.3l2.5-5.3l0.9-1.5l1.6-2.3l-6.4,13.4L15.2,45l2.6-3.7L24.2,28l-0.8,2.7l-0.5,1.7l-2.5,5.3l2.5-2
	l0.5,0.2l0.8,0.3l1.3,0.6l1.3-0.6l0.8-0.3l0.4-0.2l2.5,2L28,32.4l-0.4-1.7L26.8,28l6.4,13.4l2.6,3.7l-1.4-4.3L28,27.4l1.7,2.3l1,1.5
	l2.5,5.3v-3.3l0.5-0.2l0.7-0.4l1.4-0.6l0.3-1.4l0.2-0.9l0.1-0.5l3-0.7l-5.6-1.3l-1.7-0.7l-2.5-1l14.4,3.4l4.4,0.2l-4.1-1.7L30,24
	l2.7,0.2l1.8,0.1l5.7,1.3l-2.5-2l0.1-0.5l0.2-0.8l0.3-1.4l-1-1.2l-0.5-0.7l-0.3-0.4l1.4-2.9l-4.5,3.6l-1.6,0.9l-2.4,1.4L41,12.3
	l3-3.4L40.1,11.2z"/>
<path class="st13" d="M14.9,30.5l0.3,1.4l1.3,0.6l0.8,0.4l0.5,0.2v3.3l2.5-5.3l0.9-1.5l1.6-2.3l2.6-3.7l-4.2,1.7l-2.6,1l-1.6,0.7
	l-5.7,1.3l3.1,0.7l0.1,0.5L14.9,30.5z"/>
<path class="st13" d="M13.5,19.7l-0.8,1.2l0.3,1.4l0.2,0.8l0.1,0.5l-2.5,2l5.7-1.3l1.8-0.1L21,24l4.5-0.3l-3.9-2.2l-2.5-1.4
	l-1.5-0.9l-4.5-3.6l1.4,2.9L14.1,19L13.5,19.7z"/>
<path class="st13" d="M24.2,36.2l1.3,0.6l1.3-0.6l0.8-0.3l0.4-0.2l2.5,2L28,32.4l-0.4-1.7L26.8,28l-1.3-4.3L24.2,28l-0.8,2.7
	l-0.5,1.7l-2.5,5.3l2.5-2l0.5,0.2L24.2,36.2z"/>
<path class="st13" d="M21.2,11.9h-1.4l-1,1.1l-0.5,0.7L18,14.1l-3.2-0.7l4.5,3.7l1.2,1.3l1.9,2.1l3,3.3l-0.7-4.4l-0.4-2.7L24,14.7V9
	l-1.4,2.9h-0.5L21.2,11.9z"/>
<path class="st13" d="M34.4,32.5l1.4-0.6l0.3-1.4l0.2-0.9l0.1-0.5l3-0.7l-5.6-1.3l-1.7-0.7l-2.5-1l-4.2-1.7l2.5,3.7l1.7,2.3l1,1.5
	l2.5,5.3v-3.3l0.5-0.2L34.4,32.5z"/>
<path class="st13" d="M32.1,12.9l-0.9-1.1h-1.4h-1h-0.5L27,8.9v5.8l-0.3,1.8l-0.4,2.7l-0.7,4.4l3.1-3.3l1.9-2.1l1.2-1.3l4.5-3.7
	L33,14.1l-0.3-0.4L32.1,12.9z"/>
<path class="st13" d="M32.8,24.2l1.8,0.1l5.7,1.3l-2.5-2l0.1-0.5l0.2-0.8l0.3-1.4l-1-1.2l-0.5-0.7l-0.3-0.4l1.4-2.9l-4.5,3.6
	l-1.6,0.9l-2.4,1.4l-3.9,2.2L30,24L32.8,24.2z"/>
<path class="st14" d="M17.3,33l4-3.3l1.6-2.3l2.6-3.7l-4.2,1.7l-2.6,1l-4,3.3l0.2,0.9l0.3,1.4l1.3,0.6L17.3,33z"/>
<path class="st14" d="M13.2,23l5,1.2L21,24l4.5-0.3l-3.9-2.2l-2.5-1.4L14.1,19l-0.6,0.7l-0.8,1.2l0.3,1.4L13.2,23z"/>
<path class="st14" d="M27.6,35.9v-5.2L26.8,28l-1.3-4.3L24.2,28l-0.8,2.7v5.2l0.8,0.3l1.3,0.6l1.3-0.6L27.6,35.9z"/>
<path class="st14" d="M18.3,13.7l2.2,4.6l1.9,2.1l3,3.3l-0.7-4.4l-0.4-2.7l-2.2-4.6h-0.9h-1.4l-1,1.1L18.3,13.7z"/>
<path class="st14" d="M36.3,29.7l-4.1-3.3l-2.5-1l-4.2-1.7l2.5,3.7l1.7,2.3l4,3.3l0.7-0.4l1.4-0.6l0.3-1.4L36.3,29.7z"/>
<path class="st14" d="M28.9,11.9l-2.2,4.6l-0.4,2.7l-0.7,4.4l3.1-3.3l1.9-2.1l2.2-4.6L32.1,13l-0.9-1.1h-1.4L28.9,11.9z"/>
<path class="st14" d="M29.4,21.5l2.4-1.4l5.1-1.2l0.5,0.7l1,1.2L38,22.2L37.8,23l-5,1.2L30,24l-4.5-0.3L29.4,21.5z"/>
<path class="st15" d="M6.5,14.2L8,17l-3.2-0.7L6.5,14.2z"/>
<path class="st15" d="M17.1,27.2l-2.5,2l-3.2-0.7L17.1,27.2z"/>
<path class="st15" d="M13.7,5.3l1.4,2.9L12,7.5L13.7,5.3z"/>
<path class="st15" d="M17.6,19.3l-3.2-0.7l-1.4-2.9L17.6,19.3z"/>
<path class="st15" d="M16.4,24.3l-5.7,1.3l2.5-2L16.4,24.3z"/>
<path class="st15" d="M20.3,31.2l-2.5,5.3v-3.3L20.3,31.2z"/>
<path class="st15" d="M19.4,17l-4.5-3.7l3.2,0.7L19.4,17z"/>
<path class="st15" d="M21.2,3l-1.4,2.8L18.3,3H21.2z"/>
<path class="st15" d="M22.9,32.4v3.3l-2.5,2L22.9,32.4z"/>
<path class="st15" d="M28,32.4l2.5,5.3l-2.5-2V32.4z"/>
<path class="st15" d="M32.5,3l-1.4,2.8L29.8,3H32.5z"/>
<path class="st15" d="M39,7.5l-3.2,0.6l1.5-2.8L39,7.5z"/>
<path class="st15" d="M46.1,16.3L43,17l1.4-2.8L46.1,16.3z"/>
<path class="st15" d="M21.3,25.4l-6.4,5.2l0.3,1.4l1.3,0.6l6.4-5.2l2.6-3.7L21.3,25.4z"/>
<path class="st15" d="M21.6,21.5l-8.1-1.8l-0.8,1.2l0.3,1.4l8,1.8l4.5-0.3L21.6,21.5z"/>
<path class="st15" d="M24.2,28v8.2l1.3,0.6l1.3-0.6V28l-1.3-4.3L24.2,28z"/>
<path class="st15" d="M24.8,19.3l-3.6-7.4h-1.4l-1,1.1l3.6,7.5l3,3.3L24.8,19.3z"/>
<path class="st15" d="M28,27.4l6.4,5.2l1.4-0.6l0.3-1.4l-6.4-5.2l-4.2-1.7L28,27.4z"/>
<path class="st15" d="M28.5,20.4l3.6-7.5l-0.9-1.1h-1.4l-3.6,7.4l-0.7,4.4L28.5,20.4z"/>
<path class="st15" d="M38.3,20.8L38,22.2L30,24l-4.5-0.3l3.9-2.2l8-1.8L38.3,20.8z"/>
<g>
	<path class="st16" d="M4.3,24.1l2.5-2l-3.2-0.7L4.3,24.1z"/>
	<path class="st16" d="M6.9,35.3l2.5-2l-3.2-0.7L6.9,35.3z"/>
	<path class="st16" d="M4.9,16.3L8,17l-1.5-2.8L4.9,16.3z"/>
	<path class="st16" d="M12.6,40.5v-3.3l-2.5,2L12.6,40.5z"/>
	<path class="st16" d="M12,7.5l3.1,0.6l-1.4-2.8L12,7.5z"/>
	<path class="st16" d="M13.3,23.6l-2.5,2l5.7-1.3L13.3,23.6z"/>
	<path class="st16" d="M11.4,28.4l3.2,0.7l2.5-2L11.4,28.4z"/>
	<path class="st16" d="M13.1,15.7l1.4,2.9l3.2,0.7L13.1,15.7z"/>
	<path class="st16" d="M18,14.1l-3.2-0.7l4.5,3.7L18,14.1z"/>
	<path class="st16" d="M17.8,33.2v3.3l2.5-5.3L17.8,33.2z"/>
	<path class="st16" d="M22.9,45.5v-3.2l-2.5,2L22.9,45.5z"/>
	<path class="st16" d="M18.3,3l1.5,2.8L21.2,3H18.3z"/>
	<path class="st16" d="M20.3,37.7l2.5-2v-3.3L20.3,37.7z"/>
	<path class="st16" d="M24,8.9l-1.4,2.9l1.4,2.9V8.9z"/>
	<path class="st16" d="M28.3,11.9L27,9v5.8L28.3,11.9z"/>
	<path class="st16" d="M30.5,44.3l-2.5-2v3.2L30.5,44.3z"/>
	<path class="st16" d="M28,35.7l2.5,2L28,32.4V35.7z"/>
	<path class="st16" d="M33.2,36.4v-3.3l-2.5-2L33.2,36.4z"/>
	<path class="st16" d="M36.1,13.4L33,14.1L31.6,17L36.1,13.4z"/>
	<path class="st16" d="M29.8,3l1.4,2.8L32.5,3H29.8z"/>
	<path class="st16" d="M36.5,18.5l1.4-2.9l-4.5,3.6L36.5,18.5z"/>
	<path class="st16" d="M36.4,29.2l3-0.7l-5.6-1.3L36.4,29.2z"/>
	<path class="st16" d="M40.2,25.6l-2.5-2l-3.2,0.7L40.2,25.6z"/>
	<path class="st16" d="M40.9,39.3l-2.5-2v3.3L40.9,39.3z"/>
	<path class="st16" d="M37.3,5.3l-1.5,2.9L39,7.5L37.3,5.3z"/>
	<path class="st16" d="M44.8,32.5l-3.2,0.7l2.5,2L44.8,32.5z"/>
	<path class="st16" d="M44.3,14.2L43,17l3.2-0.7L44.3,14.2z"/>
	<path class="st16" d="M47.3,21.4l-3.2,0.7l2.5,2L47.3,21.4z"/>
</g>
</svg>
