<?xml version="1.0" encoding="utf-8"?>
<!-- Generator: Adobe Illustrator 27.2.0, SVG Export Plug-In . SVG Version: 6.00 Build 0)  -->
<svg version="1.1" id="图层_1" xmlns="http://www.w3.org/2000/svg" xmlns:xlink="http://www.w3.org/1999/xlink" x="0px" y="0px"
	 viewBox="0 0 24 24" style="enable-background:new 0 0 24 24;" xml:space="preserve">
<style type="text/css">
	.st0{fill:#202123;}
</style>
<path id="logo" class="st0" d="M22.2,9.8c0.5-1.6,0.4-3.4-0.5-4.9c-1.3-2.3-3.9-3.4-6.5-2.9c-1.1-1.3-2.8-2-4.5-2
	C8.1,0.1,5.8,1.8,5,4.2c-1.7,0.3-3.1,1.4-4,2.9c-1.3,2.3-1,5.1,0.7,7c-0.5,1.6-0.4,3.4,0.5,4.9c1.3,2.3,3.9,3.4,6.5,2.9
	c1.1,1.3,2.8,2,4.5,2c2.6,0,4.9-1.7,5.7-4.2c1.7-0.3,3.1-1.4,4-2.9C24.2,14.6,23.9,11.8,22.2,9.8z M13.2,22.4c-1,0-2.1-0.4-2.9-1
	c0,0,0.1-0.1,0.1-0.1l4.7-2.7c0.2-0.1,0.4-0.4,0.4-0.7v-6.7l2,1.2c0,0,0,0,0,0.1v5.5C17.7,20.4,15.7,22.3,13.2,22.4L13.2,22.4z
	 M3.7,18.3c-0.5-0.9-0.7-2-0.5-3c0,0,0.1,0.1,0.1,0.1L8,18.1c0.2,0.1,0.5,0.1,0.8,0l5.8-3.3v2.3c0,0,0,0,0,0.1l-4.8,2.8
	C7.6,21.1,4.9,20.4,3.7,18.3L3.7,18.3z M2.4,7.9c0.5-0.9,1.3-1.6,2.3-2c0,0,0,0.1,0,0.2v5.5c0,0.3,0.1,0.5,0.4,0.7l5.8,3.3l-2,1.2
	c0,0,0,0-0.1,0L4,14C1.9,12.8,1.2,10,2.4,7.9z M18.9,11.7l-5.8-3.3l2-1.2c0,0,0,0,0.1,0L20,10c2.1,1.2,2.9,4,1.6,6.1
	c-0.5,0.9-1.3,1.6-2.3,2c0,0,0-0.1,0-0.2v-5.5C19.3,12.1,19.1,11.9,18.9,11.7z M20.9,8.7c0,0-0.1-0.1-0.1-0.1L16,5.9
	c-0.2-0.1-0.5-0.1-0.8,0L9.4,9.3V6.9c0,0,0,0,0-0.1l4.8-2.8c2.1-1.2,4.9-0.5,6.1,1.6C20.9,6.7,21.1,7.7,20.9,8.7L20.9,8.7z
	 M8.3,12.9l-2-1.2c0,0,0,0,0-0.1V6.1c0-2.5,2-4.5,4.5-4.5c1,0,2.1,0.4,2.9,1c0,0-0.1,0.1-0.1,0.1L8.7,5.5C8.5,5.6,8.3,5.9,8.3,6.2
	L8.3,12.9z M9.4,10.5L12,9l2.6,1.5v3L12,15l-2.6-1.5V10.5z"/>
</svg>
