<?xml version="1.0" encoding="utf-8"?>
<!-- Generator: Adobe Illustrator 27.2.0, SVG Export Plug-In . SVG Version: 6.00 Build 0)  -->
<svg version="1.1" id="Livello_1" xmlns="http://www.w3.org/2000/svg" xmlns:xlink="http://www.w3.org/1999/xlink" x="0px" y="0px"
	 viewBox="0 0 1832 1832" style="enable-background:new 0 0 1832 1832;" xml:space="preserve">
<style type="text/css">
	.st0{fill:#0A2767;}
	.st1{fill:#0364B8;}
	.st2{fill:#0078D4;}
	.st3{fill:#28A8EA;}
	.st4{fill:#14447D;}
	.st5{fill:url(#SVGID_1_);}
	.st6{opacity:0.5;fill:#0A2767;enable-background:new    ;}
	.st7{fill:#1490DF;}
	.st8{opacity:0.1;enable-background:new    ;}
	.st9{opacity:5.000000e-02;enable-background:new    ;}
	.st10{opacity:0.2;enable-background:new    ;}
	.st11{fill:url(#SVGID_00000109027412080327583360000013495136427458100886_);}
	.st12{fill:#FFFFFF;}
	.st13{fill:#50D9FF;}
</style>
<path class="st0" d="M1831.5,958.6c0.1-14.3-7.3-27.6-19.5-35.1h-0.2l-0.8-0.4l-634.5-375.6c-2.7-1.9-5.6-3.5-8.5-5.1
	c-24.5-12.6-53.6-12.6-78.1,0c-2.9,1.5-5.8,3.2-8.5,5.1L446.9,923l-0.8,0.4c-19.4,12.1-25.3,37.6-13.3,56.9
	c3.6,5.7,8.4,10.5,14.3,13.9l634.5,375.6c2.7,1.8,5.6,3.5,8.5,5.1c24.5,12.6,53.6,12.6,78.1,0c2.9-1.5,5.8-3.2,8.5-5.1l634.5-375.6
	C1823.9,986.9,1831.7,973.3,1831.5,958.6z"/>
<path class="st1" d="M520.9,707.8h416.4v381.7H520.9V707.8z M1746.4,319.8V145.2c1-43.7-33.6-79.9-77.2-80.9H588.7
	c-43.7,1-78.2,37.3-77.2,80.9v174.6l638.8,170.3L1746.4,319.8z"/>
<path class="st2" d="M511.5,319.8h425.8v383.2H511.5V319.8z"/>
<path class="st3" d="M1363.1,319.8H937.3v383.2l425.8,383.2h383.2V703.1L1363.1,319.8z"/>
<path class="st2" d="M937.3,703.1h425.8v383.2H937.3V703.1z"/>
<path class="st1" d="M937.3,1086.3h425.8v383.2H937.3V1086.3z"/>
<path class="st4" d="M520.9,1089.5h416.4v347H520.9V1089.5z"/>
<path class="st2" d="M1363.1,1086.3h383.2v383.2h-383.2V1086.3z"/>
<linearGradient id="SVGID_1_" gradientUnits="userSpaceOnUse" x1="1128.9149" y1="333.2491" x2="1128.9149" y2="1142.335" gradientTransform="matrix(1 0 0 1 0 625.3334)">
	<stop  offset="0" style="stop-color:#35B8F1"/>
	<stop  offset="1" style="stop-color:#28A8EA"/>
</linearGradient>
<path class="st5" d="M1812,991.9l-0.8,0.4l-634.5,356.8c-2.8,1.7-5.6,3.3-8.5,4.8c-10.8,5.1-22.5,8-34.4,8.5l-34.7-20.3
	c-2.9-1.5-5.8-3.1-8.5-4.9l-643-367h-0.3l-21-11.8V1681c0.3,48.2,39.7,87,87.8,86.7h1230.9c0.7,0,1.4-0.3,2.1-0.3
	c10.2-0.7,20.2-2.7,29.8-6.2c4.1-1.8,8.1-3.8,12-6.2c2.9-1.6,7.8-5.2,7.8-5.2c21.8-16.1,34.7-41.6,34.8-68.8V958.6
	C1831.5,972.4,1824.1,985.1,1812,991.9z"/>
<path class="st6" d="M1797.5,955.7v44.3L1134,1456.8L447.2,970.6c0-0.2-0.2-0.4-0.4-0.4l0,0l-63-37.9v-31.9l26-0.4l54.9,31.5
	l1.3,0.4l4.7,3c0,0,645.6,368.3,647.3,369.2l24.7,14.5c2.1-0.9,4.3-1.7,6.8-2.6c1.3-0.9,640.9-360.7,640.9-360.7L1797.5,955.7z"/>
<path class="st7" d="M1812,991.9l-0.8,0.5l-634.5,356.8c-2.8,1.7-5.6,3.3-8.5,4.8c-24.6,12-53.5,12-78.1,0c-2.9-1.4-5.8-3-8.5-4.8
	L447.1,992.4l-0.8-0.5c-12.2-6.6-19.9-19.4-20.1-33.3V1681c0.3,48.2,39.6,87,87.8,86.7c0,0,0,0,0,0h1229.6
	c48.2,0.3,87.5-38.5,87.8-86.7c0,0,0,0,0,0V958.6C1831.5,972.4,1824.1,985.1,1812,991.9z"/>
<path class="st8" d="M1186,1344l-9.5,5.3c-2.8,1.8-5.6,3.4-8.5,4.8c-10.5,5.1-21.8,8.1-33.5,8.9l241.4,285.5l421.1,101.5
	c11.5-8.7,20.7-20.2,26.7-33.3L1186,1344z"/>
<path class="st9" d="M1229,1319.8l-52.5,29.5c-2.8,1.8-5.6,3.4-8.5,4.8c-10.5,5.1-21.8,8.1-33.5,8.9l113.1,311.8l549.5,75
	c21.6-16.3,34.4-41.7,34.4-68.8v-9.3L1229,1319.8z"/>
<path class="st3" d="M515.3,1767.7h1228.3c18.9,0.1,37.3-5.9,52.6-17l-697.1-408.3c-2.9-1.5-5.8-3.1-8.5-4.9l-643-367h-0.3l-21-11.8
	v719.9C426.2,1727.7,466.1,1767.6,515.3,1767.7C515.3,1767.7,515.3,1767.7,515.3,1767.7z"/>
<path class="st8" d="M1022.5,483.1v908.3c-0.1,31.8-19.4,60.5-49,72.4c-9.1,3.9-19,6-29,6H426.3V447.6h85.2V405h433.1
	C987.5,405.2,1022.4,440,1022.5,483.1z"/>
<path class="st10" d="M979.9,525.6v908.3c0.1,10.3-2.1,20.5-6.4,29.8c-11.8,29.1-40.1,48.3-71.5,48.4H426.3V447.6h475.7
	c12.4-0.1,24.5,3,35.3,8.9C963.4,469.7,979.9,496.4,979.9,525.6z"/>
<path class="st10" d="M979.9,525.6v823.1c-0.2,43-34.9,77.9-77.9,78.2H426.3V447.6h475.7c12.4-0.1,24.5,3,35.3,8.9
	C963.4,469.7,979.9,496.4,979.9,525.6z"/>
<path class="st10" d="M937.3,525.6v823.1c0,43.1-34.9,78-77.9,78.2H426.3V447.6h433.1C902.4,447.6,937.3,482.5,937.3,525.6
	C937.3,525.6,937.3,525.6,937.3,525.6z"/>
<linearGradient id="SVGID_00000008137376786334288740000011989606169902858369_" gradientUnits="userSpaceOnUse" x1="163.2044" y1="-238.7415" x2="774.5438" y2="820.0732" gradientTransform="matrix(1 0 0 1 0 625.3334)">
	<stop  offset="0" style="stop-color:#1784D9"/>
	<stop  offset="0.5" style="stop-color:#107AD5"/>
	<stop  offset="1" style="stop-color:#0A63C9"/>
</linearGradient>
<path style="fill:url(#SVGID_00000008137376786334288740000011989606169902858369_);" d="M78.5,447.6h780.7
	c43.1,0,78.1,34.9,78.1,78.1v780.7c0,43.1-34.9,78.1-78.1,78.1H78.5c-43.1,0-78.1-34.9-78.1-78.1V525.6
	C0.5,482.5,35.4,447.6,78.5,447.6z"/>
<path class="st12" d="M244.4,775c19.2-41,50.3-75.3,89.2-98.5c43.1-24.7,92.1-36.9,141.7-35.5c46-1,91.3,10.7,131.1,33.7
	c37.4,22.3,67.5,55,86.7,94.1c20.9,43.1,31.3,90.5,30.4,138.4c1,50-9.7,99.6-31.3,144.8c-19.7,40.5-50.7,74.4-89.4,97.4
	c-41.3,23.7-88.4,35.7-136,34.6c-46.9,1.1-93.3-10.7-134-34.1c-37.7-22.3-68.2-55.1-87.9-94.3c-21-42.5-31.6-89.4-30.7-136.7
	C213.3,869.2,223.6,820,244.4,775z M339.5,1006.2c10.3,25.9,27.7,48.4,50.2,64.8c22.9,16,50.4,24.3,78.4,23.6
	c29.8,1.2,59.1-7.4,83.6-24.4c22.2-16.4,39.2-38.9,48.7-64.8c10.7-28.9,15.9-59.6,15.5-90.4c0.3-31.1-4.6-62.1-14.6-91.6
	c-8.9-26.6-25.2-50.1-47.2-67.5c-23.9-17.8-53.2-26.8-82.9-25.5c-28.6-0.7-56.6,7.6-80.2,23.8c-22.9,16.5-40.6,39.2-51.1,65.4
	C316.6,879.6,316.5,946.1,339.5,1006.2L339.5,1006.2z"/>
<path class="st13" d="M1363.1,319.8h383.2v383.2h-383.2V319.8z"/>
</svg>
