<?xml version="1.0" encoding="utf-8"?>
<!-- Generator: Adobe Illustrator 27.2.0, SVG Export Plug-In . SVG Version: 6.00 Build 0)  -->
<svg version="1.1" id="图层_1" xmlns="http://www.w3.org/2000/svg" xmlns:xlink="http://www.w3.org/1999/xlink" x="0px" y="0px"
	 viewBox="0 0 400 400" style="enable-background:new 0 0 400 400;" xml:space="preserve">
<style type="text/css">
	.st0{fill:#46A247;}
</style>
<path class="st0" d="M62,248c0,41,23,79,60,99c37,19,81,17,115-7c34-23,52-64,47-105s-32-76-71-91c-13-5-26-8-40-7.5
	c-24,16-44,39-56,65c41-43,99-30,123,16c21,52-16,103-67,104c-54-2.7-85-55-77-100c14-86,117-135,193-154c-35,17-69,36-101,58
	c92,35,107-42,149-76c-43-17-197-25-198,68c-44,28-75,72-77,130V248z"/>
</svg>
