<?xml version="1.0" encoding="utf-8"?>
<!-- Generator: Adobe Illustrator 27.2.0, SVG Export Plug-In . SVG Version: 6.00 Build 0)  -->
<svg version="1.1" id="图层_1" xmlns="http://www.w3.org/2000/svg" xmlns:xlink="http://www.w3.org/1999/xlink" x="0px" y="0px"
	 viewBox="0 0 50 50" style="enable-background:new 0 0 50 50;" xml:space="preserve">
<style type="text/css">
	.st0{fill:#FFDC00;}
	.st1{fill:#0AC094;}
</style>
<path class="st0" d="M38.6,0C38.6,0,38.6,0,38.6,0C38.6,0,38.6,0,38.6,0z"/>
<path class="st0" d="M39.4,4.9L38.6,0c0,0-0.5,4.9-6.3,10.2c-2.7,2.4-7.4,5.1-7.4,5.1L36,34.6c0,0,1.1,3.2-0.4,6.2
	c-1.6,3.5-4.9,5.6-11.3,5.8c-5.6,0.2-9.5-3.2-10.2-7.8c-0.7-4.5,2.2-8,5.6-9.4c3.2-1.2,8.5-0.7,8.5-0.7L15.9,7.9l0.2-2.1
	c0,0,4,0.5,10.9-0.9c3.2-0.6,5.9-1.7,7.9-2.7c-3-1.3-6.4-2.1-10-2.1C11.2,0.2,0,11.3,0,25.1C0,38.8,11.1,50,24.9,50
	c13.7,0,24.9-11.1,24.9-24.9C49.7,16.8,45.7,9.4,39.4,4.9L39.4,4.9z"/>
<path class="st1" d="M38.6,0c0,0-4.6,3.5-11.6,4.9C20,6.3,16,5.8,16,5.8l-0.2,2.1l12.3,20.8c0,0-5.3-0.5-8.5,0.7
	c-3.4,1.3-6.3,4.8-5.6,9.4c0.7,4.6,4.6,7.9,10.2,7.8c6.3-0.2,9.6-2.3,11.3-5.8c1.4-3,0.4-6.2,0.4-6.2L24.8,15.4c0,0,4.7-2.7,7.4-5.1
	C38.1,4.9,38.6,0,38.6,0z"/>
</svg>
