<svg width="35" height="35" viewBox="0 0 35 35" fill="none" xmlns="http://www.w3.org/2000/svg">
<path d="M17.5 35C27.1643 35 35 27.165 35 17.5014C35.0029 7.83501 27.1672 0 17.5 0C7.83565 0 0 7.83501 0 17.4986C0 27.165 7.83565 35 17.5 35Z" fill="#499577"></path>
<path d="M22.9467 29.9064C22.3858 29.9064 21.9279 30.3614 21.9279 30.9251C21.9279 31.486 22.3829 31.9438 22.9467 31.9438C23.5076 31.9438 23.9655 31.4888 23.9655 30.9251C23.9626 30.3614 23.5076 29.9064 22.9467 29.9064Z" fill="white"></path>
<path fill-rule="evenodd" clip-rule="evenodd" d="M21.4809 4.318L21.2549 4.2207L21.4809 4.32658C21.4838 4.32658 21.4809 4.32086 21.4809 4.318Z" fill="white"></path>
<path fill-rule="evenodd" clip-rule="evenodd" d="M17.3025 11.5492C18.0609 8.8364 20.0441 5.51696 21.2289 4.25501L21.2547 4.22067C21.2718 4.19491 21.3005 4.18061 21.3262 4.18061C21.4493 4.18347 21.475 4.26645 21.4808 4.31796L21.4922 4.32369L21.4836 4.32655L21.4092 4.36089C19.7665 6.43553 18.3385 8.99379 17.6946 11.6751C18.7391 11.8582 19.3745 11.0141 19.6835 10.3387C19.6921 10.3216 19.6778 10.2929 19.6578 10.2901L19.1255 10.1556C19.0911 10.147 19.0911 10.0926 19.1255 10.084L19.7694 9.91522C20.1643 9.82651 20.6308 8.97662 20.8368 8.57027C20.8426 8.5531 20.8368 8.53021 20.8197 8.52163L20.296 8.23833C20.2645 8.22116 20.2731 8.17537 20.3103 8.17251L21.309 8.0838C21.3176 8.0838 21.3319 8.07522 21.3348 8.06663L21.9301 7.02788C21.9444 7.00499 21.9358 6.98209 21.9129 6.97351L21.3319 6.73314C21.2976 6.71597 21.3005 6.66732 21.3405 6.6616L22.139 6.59006C22.1476 6.59006 22.1619 6.58147 22.1647 6.57289L22.7342 5.59995C22.7428 5.58278 22.74 5.55989 22.7199 5.5513L22.139 5.19647C22.1075 5.1793 22.1218 5.12493 22.1619 5.13065L22.8229 5.18502C22.8373 5.18502 22.8544 5.17644 22.8573 5.15927L23.7445 2.45507C23.7502 2.43218 23.7359 2.40929 23.7101 2.41501C22.3908 2.35206 21.3548 2.69831 20.9771 2.89576C20.9628 2.90434 20.9599 2.91865 20.9599 2.9301L21.0229 3.59112C21.0286 3.63118 20.9742 3.64835 20.957 3.61401L20.7166 3.19336C20.7081 3.17905 20.6909 3.17047 20.6766 3.17619C20.0012 3.31355 19.1083 4.40667 18.7305 4.95609C18.722 4.96468 18.722 4.97899 18.7248 4.98757L19.0368 5.77451C19.0511 5.80885 19.011 5.83746 18.9795 5.81457L18.5445 5.45401C18.5302 5.44543 18.5131 5.4397 18.4987 5.45401C18.2755 5.66291 17.7261 6.73314 17.4599 7.27398C17.4542 7.28828 17.4542 7.29973 17.4656 7.30831L17.9235 7.98651C17.9464 8.01799 17.9063 8.05805 17.8749 8.03516L17.271 7.63167C17.2567 7.62309 17.2367 7.62309 17.2252 7.6374C17.0392 7.85488 16.9591 8.69332 16.9419 9.11683C16.9419 9.12542 16.9476 9.134 16.9562 9.14259L17.3683 9.53749C17.3941 9.56038 17.3769 9.6033 17.3426 9.60044L16.8818 9.56038C16.8646 9.55466 16.8475 9.56896 16.8418 9.58613C16.5928 10.7365 16.9705 11.3288 17.3025 11.5492Z" fill="white"></path>
<path d="M20.116 24.578H14.7587V25.5996H20.116V24.578Z" fill="white"></path>
<path fill-rule="evenodd" clip-rule="evenodd" d="M8.16737 12.3704V23.3417C8.16737 23.6107 8.38487 23.8282 8.65388 23.8282H26.3513C26.6204 23.8282 26.8379 23.6107 26.8379 23.3417V12.3704C26.8379 12.1015 26.6204 11.884 26.3513 11.884H8.65388C8.38487 11.884 8.16737 12.1015 8.16737 12.3704ZM12.5603 19.4986C11.6903 19.4986 10.9863 18.7947 10.9863 17.9248C10.9863 17.0548 11.6903 16.3509 12.5603 16.3509C13.4303 16.3509 14.1343 17.0548 14.1343 17.9248C14.1343 18.7918 13.4303 19.4986 12.5603 19.4986ZM22.4478 19.4986C21.5778 19.4986 20.8738 18.7947 20.8738 17.9248C20.8738 17.0548 21.5778 16.3509 22.4478 16.3509C23.3178 16.3509 24.0218 17.0548 24.0218 17.9248C24.0218 18.7918 23.3178 19.4986 22.4478 19.4986Z" fill="white"></path>
<path d="M6.03293 30.7132C6.63963 31.2397 7.28068 31.7262 7.95607 32.164V29.1307C7.40374 29.1307 6.53947 29.6315 6.03293 30.7132Z" fill="white"></path>
<path d="M8.71466 32.6306C11.2989 34.1329 14.2981 35 17.5033 35C17.9755 35 18.442 34.9771 18.9027 34.9399V29.9064H8.71466V32.6306V32.6306ZM10.1942 30.7677H10.8868H17.4232C17.6235 30.7677 17.7866 30.9308 17.7866 31.1311C17.7866 31.3314 17.6235 31.4945 17.4232 31.4945H10.1942C9.99389 31.4945 9.83077 31.3314 9.83077 31.1311C9.83077 30.928 9.99389 30.7677 10.1942 30.7677Z" fill="white"></path>
<path d="M25.8026 26.3638H9.2041C8.93509 26.3638 8.71759 26.5813 8.71759 26.8502V28.6845V29.1481H19.4265H19.6612V29.3827V34.8627C22.0537 34.5679 24.2945 33.7924 26.2891 32.6306V28.6845V26.8502C26.2891 26.5813 26.0716 26.3638 25.8026 26.3638ZM22.9465 32.6965C21.9649 32.6965 21.1722 31.9009 21.1722 30.9223C21.1722 29.9407 21.9678 29.1481 22.9465 29.1481C23.9281 29.1481 24.7209 29.9436 24.7209 30.9223C24.7209 31.9038 23.9253 32.6965 22.9465 32.6965Z" fill="white"></path>
<path d="M28.9702 30.7132C28.4636 29.6315 27.5993 29.1307 27.047 29.1307V32.1669C27.7224 31.7233 28.3634 31.2397 28.9702 30.7132Z" fill="white"></path>
</svg>