<svg width="49" height="49" xmlns="http://www.w3.org/2000/svg">

 <g>
  <title>background</title>
  <rect fill="none" id="canvas_background" height="51" width="51" y="-1" x="-1"/>
 </g>
 <g>
  <title>Layer 1</title>
  <g id="svg_1" fill-rule="evenodd" fill="none">
   <path id="svg_2" d="m12.708,38.950001l17.108,9.975l2.159,-3.774l-19.267,-11.234l0,5.033zm14.95,-18.834l4.316,2.517l-10.634,6.25l-4.316,-2.517l10.634,-6.25zm-2.002,11.284l10.635,-6.25l0,-5.033l-21.425,-12.492l-2.158,3.775l10.634,6.2l-10.634,6.25l0,5.034l21.425,12.492l2.159,-3.775l-10.635,-6.2l-0.001,-0.001zm10.634,-21.351l-17.107,-9.974l-2.16,3.775l19.268,11.235l-0.001,-5.036z" fill="hsl(337, 93.7%, 64.8%)"/>
  </g>
 </g>
</svg>