<?xml version="1.0" encoding="utf-8"?>
<!-- Generator: Adobe Illustrator 27.2.0, SVG Export Plug-In . SVG Version: 6.00 Build 0)  -->
<svg version="1.1" id="图层_1" xmlns="http://www.w3.org/2000/svg" xmlns:xlink="http://www.w3.org/1999/xlink" x="0px" y="0px"
	 viewBox="0 0 41 41" style="enable-background:new 0 0 41 41;" xml:space="preserve">
<style type="text/css">
	.st0{fill:#DD7432;}
</style>
<path class="st0" d="M35.2,13.5l0.9-0.3l-0.5-1.8l-0.9,0.3L35.2,13.5z"/>
<path class="st0" d="M34.3,10.5l0.9-0.3l-0.5-1.9l-0.9,0.3L34.3,10.5z"/>
<path class="st0" d="M35.9,15.9c0,0.1,0,0.3,0,0.4l-0.9,3.2c-0.1,0.2-0.3,0.4-0.5,0.5l-18.8,5.5c-0.4,0.1-0.8-0.1-0.9-0.5l-3.6-12.8
	c-0.1-0.4,0.1-0.8,0.5-0.9l20.3-6c0.4-0.1,0.8,0.1,0.9,0.5l0.5,1.6l0.9-0.3l-0.8-2.5c-0.1-0.4-0.5-0.6-0.9-0.5l-22.1,6.5
	c-0.4,0.1-0.6,0.5-0.5,0.9l4.1,14.7c0.1,0.4,0.5,0.6,0.9,0.5l20.2-5.9c0.2-0.1,0.4-0.3,0.5-0.5l1.1-4c0-0.1,0-0.3,0-0.4l-0.4-1.4
	l-0.9,0.3L35.9,15.9z"/>
<path class="st0" d="M37.9,5.7c-0.6,0-1.2,0.5-1.2,1.2l-2.3,0.7l-0.9,0.3L22.2,11l-6.3,5.5l-0.5-1.8l0.7-1.2l3.2-1l-0.2-0.7
	l-3.5,1.1l-1,1.7l0.9,3.3l7-6.2l11.2-3.2l0.9-0.3L37,7.5C37.2,7.8,37.5,8,37.9,8c0.6,0,1.2-0.5,1.2-1.2C39.1,6.2,38.6,5.7,37.9,5.7z
	 M37.9,7.3c-0.2,0-0.4-0.2-0.4-0.4c0-0.2,0.2-0.4,0.4-0.4s0.4,0.2,0.4,0.4C38.4,7.1,38.2,7.3,37.9,7.3z"/>
<path class="st0" d="M38.8,8.7c-0.6,0-1.1,0.5-1.2,1.1l-2.3,0.7l-0.9,0.3L23.1,14l-6.3,5.5l-0.3-1.2l-0.7,0.2l0.6,2.4l7-6.2
	l11.1-3.2l0.9-0.3l2.3-0.7c0.2,0.3,0.6,0.5,1,0.5c0.6,0,1.2-0.5,1.2-1.2C40,9.2,39.5,8.7,38.8,8.7z M38.8,10.3
	c-0.2,0-0.4-0.2-0.4-0.4c0-0.2,0.2-0.4,0.4-0.4s0.4,0.2,0.4,0.4C39.3,10.1,39.1,10.3,38.8,10.3z"/>
<path class="st0" d="M39.5,11.7c-0.6,0-1.2,0.5-1.2,1.2c0,0,0,0,0,0l-2.2,0.6l-0.9,0.3L24,17l-4.6,4l-2.5,0.6l0.2,0.7l2.7-0.6l4.6-4
	l11.2-3.2l0.9-0.3l2.2-0.6c0.2,0.3,0.6,0.5,0.9,0.5c0.6,0,1.2-0.5,1.2-1.2C40.7,12.2,40.2,11.7,39.5,11.7z M39.5,13.3
	c-0.2,0-0.4-0.2-0.4-0.4s0.2-0.4,0.4-0.4c0.2,0,0.4,0.2,0.4,0.4S39.8,13.3,39.5,13.3z"/>
<path class="st0" d="M22,21.1l-0.2-0.7l3.7-1.1l0.6-0.9L26,17.7l0.7-0.2l0.2,1L26,19.9L22,21.1z"/>
<path d="M3.4,29.7l3.2-6c0.9-1.5,1.1-2.4,2.8-3l2.1-0.4c0.5-0.2,0.8,0.4,1,0.9l0.7,3c0.1,0.4,0.1,0.7-0.3,0.9l-3.3,1.3
	c-0.1,0.1-0.2,0.2-0.2,0.4c0.1,0.2,0.2,0.2,0.4,0.2l3.2-1.3c0.5-0.2,0.9-0.5,1.3-0.9l2.1-2.1c0.4-0.4,1-0.8,1.5-1
	c1.1-0.4,2.7-0.8,3,0.4c0.6,2.1-0.8,3.3-3.9,5.4c-1.2,1.3-1.8,3.3-1.8,3.3s-2,5-4.6,5.8C8,37.2,3.4,29.7,3.4,29.7z"/>
<path d="M15.9,30.1c0.3-0.8,1.5-2.9,3.8-4c0.1-0.1,0.2,0,0.2,0.1l-0.1,1.3c0,0.2-0.1,0.4-0.2,0.6c-0.1,0.2-0.2,0.4-0.3,0.5
	c-0.5,0.6-1.8,1.8-3.2,1.8C16,30.4,15.9,30.3,15.9,30.1z"/>
<path d="M15.6,31.1l-0.4,0.8c0,0.1,0,0.1,0.1,0.1l1,0c0.2,0,0.6,0,0.8-0.1l1.1-0.6c0.2-0.1,0.3-0.3,0.4-0.4l0.3-0.9
	c0-0.1-0.1-0.2-0.2-0.1l-1.5,0.9c-0.2,0.1-0.4,0.2-0.6,0.2l-0.8,0.1C15.8,30.9,15.6,31,15.6,31.1z"/>
<path d="M14.9,32.6l-0.4,0.8c0,0.1,0,0.1,0.1,0.1l2.1-0.1c0.1,0,0.3,0,0.4-0.1c0.4-0.2,1-0.7,1.2-1.5c0-0.2-0.8,0.2-1.3,0.5
	c-0.2,0.1-0.5,0.2-0.8,0.2L14.9,32.6C14.9,32.6,14.9,32.6,14.9,32.6z"/>
<path d="M35,22.4c-0.2,1.7-0.6,3.3-1.2,4.8c-0.8,2-2.1,3.8-3.6,5.3s-3.3,2.8-5.3,3.6c-2.1,0.9-4.3,1.3-6.5,1.3s-4.5-0.4-6.5-1.3
	c-2-0.8-3.8-2.1-5.3-3.6s-2.8-3.3-3.6-5.3c-0.9-2.1-1.3-4.3-1.3-6.5s0.4-4.5,1.3-6.5c0.8-2,2.1-3.8,3.6-5.3S9.8,6,11.8,5.2
	c2.1-0.9,4.3-1.3,6.5-1.3c2,0,4,0.4,5.9,1.1l2.1-0.6c-2.4-1.2-5.1-1.8-8-1.8c-10,0-18.2,8.1-18.2,18.2c0,10,8.1,18.2,18.2,18.2
	c9.6,0,17.5-7.4,18.1-16.8L35,22.4z"/>
</svg>
