<?xml version="1.0" encoding="utf-8"?>
<!-- Generator: Adobe Illustrator 27.2.0, SVG Export Plug-In . SVG Version: 6.00 Build 0)  -->
<svg version="1.1" id="图层_1" xmlns="http://www.w3.org/2000/svg" xmlns:xlink="http://www.w3.org/1999/xlink" x="0px" y="0px"
	 viewBox="0 0 26 26" style="enable-background:new 0 0 26 26;" xml:space="preserve">
<style type="text/css">
	.st0{opacity:0.2;enable-background:new    ;}
	.st1{fill:#5A008C;}
	.st2{fill:url(#SVGID_1_);}
	.st3{fill:none;}
	
		.st4{fill:url(#SVGID_00000155833638600510363330000005684436827884448645_);stroke:#0A0A0A;stroke-width:0.651;stroke-linecap:round;stroke-linejoin:round;}
	.st5{opacity:0.579;fill:#B6B6B6;enable-background:new    ;}
	.st6{fill:#232323;stroke:#000000;stroke-width:2;stroke-linecap:round;stroke-linejoin:round;}
	.st7{opacity:0.8;fill:url(#SVGID_00000126314823787428989790000014409912483239281594_);enable-background:new    ;}
	.st8{opacity:0.579;fill:none;stroke:url(#SVGID_00000031928780334884206300000003322196866687684511_);enable-background:new    ;}
	.st9{fill:none;stroke:url(#SVGID_00000007398333857262521760000008182233084177322115_);}
	
		.st10{opacity:0.579;fill:none;stroke:url(#SVGID_00000114771832948832817890000012298325918948280230_);enable-background:new    ;}
	.st11{fill:none;stroke:url(#SVGID_00000157991044207156175810000001781399309000549255_);}
	
		.st12{opacity:0.579;fill:none;stroke:url(#SVGID_00000107569223449424666930000015320431063131869855_);enable-background:new    ;}
	.st13{fill:none;stroke:url(#SVGID_00000148641855351778861690000014658863328630412936_);}
	.st14{fill:none;stroke:#000000;stroke-width:2;stroke-linecap:round;stroke-linejoin:round;}
	
		.st15{fill:url(#SVGID_00000093170908139173204490000012014699114272994455_);stroke:#D4D4D4;stroke-width:2;stroke-linecap:round;stroke-linejoin:round;}
	
		.st16{fill:url(#SVGID_00000183944608180362822220000011253347390746145425_);stroke:#000000;stroke-width:2;stroke-linecap:round;stroke-linejoin:round;}
	.st17{fill:#ABABAB;}
	
		.st18{fill:url(#SVGID_00000122690798238446263730000000839543300504559246_);stroke:#0A0A0A;stroke-width:0.651;stroke-linecap:round;stroke-linejoin:round;}
	
		.st19{opacity:0.867;fill:#ABABAB;stroke:url(#SVGID_00000100382711325427417240000013628256354286062520_);stroke-width:1.486;stroke-linecap:round;stroke-linejoin:round;enable-background:new    ;}
	.st20{fill:url(#SVGID_00000036941462729104609910000013057416852590630545_);}
	.st21{fill:#FFFFFF;}
	.st22{fill:#FFE601;}
</style>
<path class="st0" d="M4.8,2.8c-0.8,0-1.5,0.7-1.5,1.5v18.8c0,0.8,0.7,1.5,1.5,1.5h18.8c0.8,0,1.5-0.7,1.5-1.5V4.4
	c0-0.8-0.7-1.5-1.5-1.5H4.8z"/>
<path class="st1" d="M24.2,22.5c0,0.7-0.6,1.2-1.2,1.2H4.1c-0.7,0-1.2-0.6-1.2-1.2V3.7c0-0.7,0.6-1.2,1.2-1.2h18.8
	c0.7,0,1.2,0.6,1.2,1.2V22.5L24.2,22.5z"/>
<linearGradient id="SVGID_1_" gradientUnits="userSpaceOnUse" x1="-168.7608" y1="562.4947" x2="-160.156" y2="575.889" gradientTransform="matrix(1 0 0 1 178 -556)">
	<stop  offset="0" style="stop-color:#222222"/>
	<stop  offset="1" style="stop-color:#3F43EF"/>
</linearGradient>
<path class="st2" d="M4.1,3C3.7,3,3.3,3.3,3.3,3.7v18.8c0,0.4,0.3,0.7,0.7,0.7h18.8c0.4,0,0.7-0.3,0.7-0.7V3.7
	c0-0.4-0.3-0.7-0.7-0.7L4.1,3L4.1,3z"/>
<path class="st3" d="M25.5,25.5h-25v-25h25V25.5z"/>
<g>
	
		<linearGradient id="SVGID_00000011015519967669762820000009495382344894602893_" gradientUnits="userSpaceOnUse" x1="-140.8885" y1="681.8354" x2="-139.9548" y2="681.8354" gradientTransform="matrix(1.012 0 0 1.012 149.898 -684.508)">
		<stop  offset="0" style="stop-color:#0E0E0E"/>
		<stop  offset="1" style="stop-color:#8B8B8B"/>
	</linearGradient>
	
		<path style="fill:url(#SVGID_00000011015519967669762820000009495382344894602893_);stroke:#0A0A0A;stroke-width:0.651;stroke-linecap:round;stroke-linejoin:round;" d="
		M7.3,2.9v4.4h0c0,0.2,0.1,0.4,0.2,0.5C7.8,8.1,8.1,8.2,8.2,8c0.1-0.1,0.1-0.2,0.1-0.3h0V2.9H7.3z"/>
	<path class="st5" d="M8.4,7.7C8.3,7.8,8.2,7.8,8.1,7.7S8,7.4,8,7.3c0.1-0.1,0.2-0.1,0.3,0.1C8.4,7.5,8.4,7.7,8.4,7.7z"/>
	<path class="st6" d="M3.9,7.1c-0.1-0.5-0.1-0.8,0-1.2c0.2-0.4,0.5-0.8,1-1.1C5.3,4.5,5.5,4.3,6,4.3c0.5,0.1,0.5,0.1,0.9,0.5
		C7.2,5.1,7.6,5.7,7.9,6l1.5,1.4C9,7.4,7.8,7.7,7.4,8c-0.7,0.8-0.9,1-1.2,1.7C5.4,8.8,3.9,7.4,3.9,7.1L3.9,7.1L3.9,7.1z"/>
	
		<linearGradient id="SVGID_00000049913545707454047790000008068821111891486369_" gradientUnits="userSpaceOnUse" x1="-237.3067" y1="686.566" x2="-236.2473" y2="685.6782" gradientTransform="matrix(1.132 -7.300000e-02 7.400000e-02 1.12 223.957 -779.501)">
		<stop  offset="0" style="stop-color:#0E0E0E"/>
		<stop  offset="0.765" style="stop-color:#C7C7C7"/>
		<stop  offset="1" style="stop-color:#151515"/>
	</linearGradient>
	<path style="opacity:0.8;fill:url(#SVGID_00000049913545707454047790000008068821111891486369_);enable-background:new    ;" d="
		M5.7,4.4l3.1,3C8.2,7.6,7.7,7.7,7.4,8L4.7,5c0.2-0.1,0.4-0.3,0.5-0.4c0.1-0.1,0.2-0.1,0.3-0.1C5.6,4.4,5.6,4.5,5.7,4.4L5.7,4.4
		L5.7,4.4z"/>
	
		<linearGradient id="SVGID_00000039114286694037413290000008786965052681484934_" gradientUnits="userSpaceOnUse" x1="-115.7024" y1="683.2705" x2="-112.0934" y2="683.2705" gradientTransform="matrix(1.012 0 0 1.012 121.562 -684.508)">
		<stop  offset="0" style="stop-color:#0E0E0E"/>
		<stop  offset="1" style="stop-color:#8B8B8B"/>
	</linearGradient>
	
		<path style="opacity:0.579;fill:none;stroke:url(#SVGID_00000039114286694037413290000008786965052681484934_);enable-background:new    ;" d="
		M5,8.4C5,7.5,5.4,7,5.7,6.8c0.6-0.5,1.5-0.9,2.2-0.6"/>
	
		<linearGradient id="SVGID_00000132083071458952385680000016533476231480334235_" gradientUnits="userSpaceOnUse" x1="-116.6136" y1="682.8149" x2="-113.0046" y2="682.8149" gradientTransform="matrix(1.012 0 0 1.012 122.584 -683.997)">
		<stop  offset="0" style="stop-color:#0E0E0E"/>
		<stop  offset="0.765" style="stop-color:#C7C7C7"/>
		<stop  offset="1" style="stop-color:#151515"/>
	</linearGradient>
	<path style="fill:none;stroke:url(#SVGID_00000132083071458952385680000016533476231480334235_);" d="M5.1,8.4
		c0-0.9,0.5-1.4,0.7-1.6C6.4,6.3,7.3,5.9,8,6.2"/>
	
		<linearGradient id="SVGID_00000173882135059661849360000016839599520879666862_" gradientUnits="userSpaceOnUse" x1="-117.5071" y1="681.4658" x2="-113.8981" y2="681.4658" gradientTransform="matrix(1.012 0 0 1.012 123.586 -682.484)">
		<stop  offset="0" style="stop-color:#0E0E0E"/>
		<stop  offset="1" style="stop-color:#8B8B8B"/>
	</linearGradient>
	
		<path style="opacity:0.579;fill:none;stroke:url(#SVGID_00000173882135059661849360000016839599520879666862_);enable-background:new    ;" d="
		M5.2,8.6c0-0.9,0.5-1.4,0.7-1.6c0.6-0.5,1.5-0.9,2.2-0.6"/>
	
		<linearGradient id="SVGID_00000159451140060500843000000010636734946028379020_" gradientUnits="userSpaceOnUse" x1="-118.4182" y1="681.0098" x2="-114.8092" y2="681.0098" gradientTransform="matrix(1.012 0 0 1.012 124.608 -681.973)">
		<stop  offset="0" style="stop-color:#0E0E0E"/>
		<stop  offset="0.765" style="stop-color:#C7C7C7"/>
		<stop  offset="1" style="stop-color:#151515"/>
	</linearGradient>
	<path style="fill:none;stroke:url(#SVGID_00000159451140060500843000000010636734946028379020_);" d="M5.3,8.6C5.3,7.7,5.7,7.2,6,7
		c0.6-0.5,1.5-0.9,2.2-0.6"/>
	
		<linearGradient id="SVGID_00000071519204889994692950000012338141715438891916_" gradientUnits="userSpaceOnUse" x1="-113.8977" y1="685.0752" x2="-110.2888" y2="685.0752" gradientTransform="matrix(1.012 0 0 1.012 119.538 -686.532)">
		<stop  offset="0" style="stop-color:#0E0E0E"/>
		<stop  offset="1" style="stop-color:#8B8B8B"/>
	</linearGradient>
	
		<path style="opacity:0.579;fill:none;stroke:url(#SVGID_00000071519204889994692950000012338141715438891916_);enable-background:new    ;" d="
		M4.8,8.2c0-0.9,0.5-1.4,0.7-1.6C6.1,6.1,7,5.7,7.7,5.9"/>
	
		<linearGradient id="SVGID_00000115499897250461314350000016253365562599380119_" gradientUnits="userSpaceOnUse" x1="-114.8089" y1="684.6196" x2="-111.1999" y2="684.6196" gradientTransform="matrix(1.012 0 0 1.012 120.56 -686.021)">
		<stop  offset="0" style="stop-color:#0E0E0E"/>
		<stop  offset="0.765" style="stop-color:#C7C7C7"/>
		<stop  offset="1" style="stop-color:#151515"/>
	</linearGradient>
	<path style="fill:none;stroke:url(#SVGID_00000115499897250461314350000016253365562599380119_);" d="M4.9,8.2
		c0-0.9,0.5-1.4,0.7-1.6C6.2,6.1,7.1,5.7,7.8,6"/>
	<path class="st14" d="M3.9,7.1c-0.1-0.5-0.1-0.8,0-1.2c0.2-0.4,0.5-0.8,1-1.1C5.3,4.5,5.5,4.3,6,4.3c0.5,0.1,0.5,0.1,0.9,0.5
		C7.2,5.1,7.6,5.7,7.9,6l1.5,1.4C9,7.4,7.8,7.7,7.4,8c-0.7,0.8-0.9,1-1.2,1.7C5.4,8.8,3.9,7.4,3.9,7.1L3.9,7.1L3.9,7.1z"/>
	
		<linearGradient id="SVGID_00000113353177499138906490000011703654903208388778_" gradientUnits="userSpaceOnUse" x1="-158.5486" y1="661.3672" x2="-152.8033" y2="657.2241" gradientTransform="matrix(1.012 0 0 1.052 166.542 -685.251)">
		<stop  offset="0" style="stop-color:#0E0E0E"/>
		<stop  offset="1" style="stop-color:#8B8B8B"/>
	</linearGradient>
	
		<path style="fill:url(#SVGID_00000113353177499138906490000011703654903208388778_);stroke:#D4D4D4;stroke-width:2;stroke-linecap:round;stroke-linejoin:round;" d="
		M6.3,7.5l4.6-0.9l-1.3,4.1l-4.4,1.1L6.3,7.5z"/>
	
		<linearGradient id="SVGID_00000106839136355169932450000009870272740606102961_" gradientUnits="userSpaceOnUse" x1="-159.0042" y1="660.7094" x2="-153.2589" y2="656.5662" gradientTransform="matrix(1.012 0 0 1.052 167.053 -684.484)">
		<stop  offset="0" style="stop-color:#0E0E0E"/>
		<stop  offset="1" style="stop-color:#8B8B8B"/>
	</linearGradient>
	
		<path style="fill:url(#SVGID_00000106839136355169932450000009870272740606102961_);stroke:#000000;stroke-width:2;stroke-linecap:round;stroke-linejoin:round;" d="
		M6.4,7.5L11,6.7l-1.3,4.1l-4.4,1.1L6.4,7.5L6.4,7.5L6.4,7.5z"/>
	<path class="st17" d="M9.1,7.7c0.7,0.1,0.8,1,0.3,1.8S7.8,11,7.1,10.8S6.3,9.9,6.8,9S8.4,7.6,9.1,7.7z"/>
	
		<linearGradient id="SVGID_00000176723348456173499410000015531736879888958598_" gradientUnits="userSpaceOnUse" x1="-115.6228" y1="681.8354" x2="-114.689" y2="681.8354" gradientTransform="matrix(1.012 0 0 1.012 121.562 -684.508)">
		<stop  offset="0" style="stop-color:#0E0E0E"/>
		<stop  offset="1" style="stop-color:#8B8B8B"/>
	</linearGradient>
	
		<path style="fill:url(#SVGID_00000176723348456173499410000015531736879888958598_);stroke:#0A0A0A;stroke-width:0.651;stroke-linecap:round;stroke-linejoin:round;" d="
		M4.6,2.9v4.4h0c0,0.2,0.1,0.4,0.2,0.5C5,8.1,5.3,8.2,5.4,8c0.1-0.1,0.1-0.2,0.1-0.3h0V2.9H4.6z"/>
	<path class="st5" d="M5.2,7.7C5.1,7.8,5,7.8,4.9,7.7C4.8,7.6,4.8,7.4,4.9,7.3C4.9,7.2,5,7.3,5.1,7.4C5.2,7.5,5.3,7.7,5.2,7.7z"/>
	
		<linearGradient id="SVGID_00000180327918896056314590000006752607057522361237_" gradientUnits="userSpaceOnUse" x1="-1225.8859" y1="1177.7555" x2="-1222.0282" y2="1178.7935" gradientTransform="matrix(0.73 -1.158 1.086 0.224 -377.698 -1671.485)">
		<stop  offset="0" style="stop-color:#525252"/>
		<stop  offset="1" style="stop-color:#E8E8E8"/>
	</linearGradient>
	
		<path style="opacity:0.867;fill:#ABABAB;stroke:url(#SVGID_00000180327918896056314590000006752607057522361237_);stroke-width:1.486;stroke-linecap:round;stroke-linejoin:round;enable-background:new    ;" d="
		M9.4,7.9c0.4,0.5,0.2,1.4-0.6,2.2c-0.5,0.5-1.2,0.8-1.7,0.8"/>
</g>
<linearGradient id="SVGID_00000103233562065455773710000011712166147002119859_" gradientUnits="userSpaceOnUse" x1="2177.5757" y1="2781.0273" x2="2221.0764" y2="2857.0078" gradientTransform="matrix(0.292 0 0 0.166 -630.493 -451.641)">
	<stop  offset="0" style="stop-color:#FFFF00"/>
	<stop  offset="0.1" style="stop-color:#2D8E61;stop-opacity:0.906"/>
	<stop  offset="0.229" style="stop-color:#3F1EC2;stop-opacity:0.816"/>
	<stop  offset="0.511" style="stop-color:#7F1486;stop-opacity:0.636"/>
	<stop  offset="1" style="stop-color:#FFFFFF;stop-opacity:0"/>
</linearGradient>
<path style="fill:url(#SVGID_00000103233562065455773710000011712166147002119859_);" d="M15.2,23.1c2.6,0,8.3-1.1,8.3-3.3
	c0-0.7-0.4-1.1-0.6-1.3c-2.4-2.1-9.2-7-13.9-10.4C8.4,7.7,6.8,9,6.9,9.9C7,12.1,7,16.6,7,19.7C7,22.5,12.6,23.2,15.2,23.1L15.2,23.1
	L15.2,23.1z"/>
<g>
	<path class="st21" d="M16.5,8.7c0.1,0,0.1,0,0.2,0c0.1,0,0.1-0.1,0.1-0.1c0-0.1-0.1-0.1-0.1-0.1c0,0,0,0,0,0
		c-0.2,0-0.3,0.2-0.3,0.4c0,0.1,0.1,0.2,0.2,0.2c0,0,0,0,0,0c0.1,0,0.2-0.1,0.3-0.2c0,0,0,0,0,0c0,0,0,0,0,0C16.7,9,16.6,9,16.5,9
		c-0.1,0-0.1-0.1-0.1-0.2C16.4,8.8,16.4,8.8,16.5,8.7L16.5,8.7z M16.4,8.7c0.1-0.2,0.2-0.2,0.2-0.2c0,0,0.1,0,0.1,0.1c0,0,0,0,0,0
		C16.8,8.7,16.5,8.7,16.4,8.7L16.4,8.7L16.4,8.7z"/>
	<path class="st21" d="M17.2,8.3C17.2,8.3,17.2,8.3,17.2,8.3C17.2,8.3,17.2,8.3,17.2,8.3C17.2,8.3,17.2,8.3,17.2,8.3
		c-0.1,0.1-0.1,0.1-0.1,0.1c0,0,0,0,0,0c0,0,0-0.1,0-0.1l0.1-0.2c0,0,0,0,0-0.1c0,0,0-0.1-0.1-0.1c0,0,0,0,0,0
		c-0.1,0-0.1,0.2-0.1,0.2c0,0,0,0,0,0c0,0,0,0,0,0C16.9,8,17,8,17,8c0,0,0,0,0,0c0,0,0,0.1,0,0.1L17,8.3c0,0,0,0,0,0.1
		c0,0,0,0.1,0.1,0.1c0,0,0,0,0,0C17.1,8.5,17.2,8.3,17.2,8.3z M17.2,7.8C17.2,7.8,17.2,7.7,17.2,7.8C17.1,7.7,17.1,7.7,17.2,7.8
		C17.1,7.7,17.1,7.8,17.2,7.8C17.1,7.8,17.1,7.8,17.2,7.8C17.1,7.8,17.1,7.8,17.2,7.8C17.1,7.8,17.2,7.8,17.2,7.8L17.2,7.8z"/>
	<path class="st21" d="M17.5,8.1h0.1c0,0.1,0,0.2,0,0.3c0,0,0,0.1,0,0.1c0,0,0,0,0,0c0,0,0,0,0,0c0-0.1,0-0.1,0-0.2
		c0-0.1,0-0.1,0-0.2h0.1c0,0,0,0,0.1,0c0,0,0,0,0,0c0,0,0,0,0,0L17.5,8.1c-0.1-0.1-0.2,0-0.2,0c0,0,0,0.1-0.1,0.1c0,0,0,0,0,0
		c0,0,0,0,0,0c0,0,0,0,0,0C17.3,8.1,17.4,8.1,17.5,8.1L17.5,8.1c-0.1,0.1-0.1,0.3-0.2,0.4c0,0,0,0,0,0c0,0,0,0,0,0c0,0,0,0,0,0
		c0,0,0,0,0.1-0.1c0-0.1,0-0.1,0-0.1L17.5,8.1z"/>
	<path class="st21" d="M18.7,8.7h0.4c0,0,0,0,0,0c0,0,0,0,0,0L18.7,8.7V8.3c0,0,0,0,0,0c0,0,0,0,0,0L18.7,8.7l-0.4,0c0,0,0,0,0,0
		c0,0,0,0,0,0L18.7,8.7l0,0.4c0,0,0,0,0,0c0,0,0,0,0,0L18.7,8.7L18.7,8.7z"/>
	<path class="st21" d="M19.8,8.2C19.8,8.1,19.8,8.1,19.8,8.2c-0.1,0-0.1,0.1-0.2,0.1c0,0,0,0,0,0c0,0,0,0,0,0
		C19.6,8.3,19.7,8.2,19.8,8.2l-0.1,0.8c0,0,0,0.1-0.1,0.1h0v0c0.1,0,0.1,0,0.2,0c0.1,0,0.1,0,0.2,0v0h0c-0.1,0-0.1,0-0.1-0.1
		L19.8,8.2L19.8,8.2z"/>
	<path class="st21" d="M21.3,8.6C21.3,8.6,21.4,8.6,21.3,8.6C21.4,8.5,21.3,8.5,21.3,8.6l-0.8,0c0,0,0,0,0,0c0,0,0,0,0,0H21.3
		L21.3,8.6z M21.3,8.8C21.3,8.8,21.4,8.8,21.3,8.8C21.4,8.8,21.3,8.8,21.3,8.8l-0.8,0c0,0,0,0,0,0s0,0,0,0H21.3L21.3,8.8z"/>
	<path class="st21" d="M22.3,8.6c0-0.1,0-0.2-0.1-0.3c0-0.1-0.2-0.2-0.3-0.1c0,0-0.1,0.1-0.1,0.1c0,0.1-0.1,0.2-0.1,0.3
		c0,0.1,0,0.2,0,0.3C21.9,9,22,9.1,22.2,9c0.1,0,0.1-0.1,0.1-0.1C22.3,8.8,22.4,8.7,22.3,8.6z M22.1,9C22,9,22,8.9,21.9,8.8
		c0-0.1,0-0.2,0-0.3c0-0.1,0-0.2,0-0.3c0-0.1,0.1-0.1,0.2-0.1c0.1,0,0.1,0.1,0.2,0.1c0,0.1,0,0.2,0,0.3c0,0.1,0,0.2,0,0.3
		C22.2,9,22.1,9,22.1,9L22.1,9z"/>
</g>
<g>
	<path class="st21" d="M15.2,5.8C15.2,5.8,15.2,5.8,15.2,5.8C15.2,5.8,15.2,5.8,15.2,5.8C15.2,5.8,15.2,5.8,15.2,5.8
		c-0.1,0.1-0.1,0.2-0.2,0.2c0,0,0,0,0,0c0,0,0-0.1,0-0.1l0.1-0.2c0,0,0,0,0-0.1c0-0.1,0-0.1-0.1-0.1c0,0,0,0,0,0
		c-0.1,0-0.2,0.2-0.2,0.2c0,0,0,0,0,0c0,0,0,0,0,0c0-0.1,0.1-0.2,0.1-0.2c0,0,0,0,0,0c0,0,0,0.1,0,0.1L15,5.8c0,0,0,0,0,0.1
		C15,5.9,15,6,15.1,6c0,0,0,0,0,0C15.2,6,15.2,5.8,15.2,5.8z M15.2,5.2C15.2,5.2,15.2,5.1,15.2,5.2C15.2,5.1,15.2,5.1,15.2,5.2
		c-0.1,0-0.1,0-0.1,0C15.1,5.2,15.1,5.2,15.2,5.2C15.2,5.2,15.2,5.2,15.2,5.2C15.2,5.2,15.2,5.2,15.2,5.2L15.2,5.2z"/>
	<path class="st21" d="M16.5,5.5C16.5,5.5,16.5,5.5,16.5,5.5C16.5,5.5,16.5,5.5,16.5,5.5l-0.7,0c0,0,0,0,0,0s0,0,0,0H16.5z
		 M16.5,5.8C16.5,5.8,16.5,5.8,16.5,5.8C16.5,5.7,16.5,5.7,16.5,5.8l-0.7,0c0,0,0,0,0,0s0,0,0,0H16.5z"/>
	<path class="st21" d="M17.4,6l-0.2-0.5c0,0,0,0,0,0c0,0,0,0,0,0L17,5.6c0,0,0,0,0,0c0,0,0,0,0,0c0,0,0,0,0,0c0,0,0,0,0,0
		c0,0,0,0,0,0l0.2,0.5c0,0,0,0,0,0c0,0,0,0,0,0c0,0,0,0,0,0l0.6-1.1c0,0,0,0,0,0c0,0,0,0,0,0c0,0,0,0,0,0L17.4,6z"/>
	<rect x="17.9" y="4.9" class="st21" width="1.5" height="0"/>
	<path class="st21" d="M18.7,5.7C18.7,5.7,18.8,5.7,18.7,5.7C18.8,5.6,18.7,5.6,18.7,5.7l-0.7,0c0,0,0,0,0,0s0,0,0,0H18.7z"/>
	<path class="st21" d="M19.2,5.2C19.2,5.1,19.2,5.1,19.2,5.2c-0.1,0-0.2,0.1-0.2,0v0C19,5.2,19.1,5.2,19.2,5.2l-0.1,0.7
		c0,0,0,0.1-0.1,0.1h0v0c0,0,0.2,0,0.2,0c0,0,0.2,0,0.2,0v0h0c-0.1,0-0.1,0-0.1-0.1V5.2L19.2,5.2z"/>
</g>
<g>
	<g>
		<path class="st22" d="M12.7,13.8l0.1,1.5h-0.2c0-0.2-0.1-0.4-0.1-0.5c-0.1-0.2-0.2-0.3-0.4-0.4c-0.2-0.1-0.4-0.1-0.6-0.1h-0.9V19
			c0,0.4,0,0.6,0.1,0.7c0.1,0.1,0.3,0.2,0.5,0.2h0.2V20H8.8v-0.2H9c0.3,0,0.4-0.1,0.6-0.2c0.1-0.1,0.1-0.3,0.1-0.7v-4.7H8.9
			c-0.2,0-0.4,0-0.6,0.1c-0.2,0.1-0.3,0.2-0.4,0.3c-0.1,0.2-0.2,0.4-0.2,0.7H7.5l0.1-1.5L12.7,13.8L12.7,13.8z"/>
		<path class="st22" d="M13.5,17v2.5h1.4c0.4,0,0.6-0.1,0.7-0.2c0.2-0.1,0.2-0.4,0.3-0.7H16v2.2h-0.2c0-0.2-0.1-0.4-0.1-0.6
			c-0.1-0.1-0.2-0.2-0.3-0.3c-0.2-0.1-0.4-0.1-0.6-0.1h-1.4v2c0,0.2,0,0.3,0,0.5c0,0.1,0.1,0.1,0.1,0.1c0.1,0,0.2,0.1,0.3,0.1H15
			c0.3,0,0.5,0,0.8-0.1c0.2-0.1,0.3-0.2,0.5-0.3c0.2-0.3,0.4-0.5,0.6-0.9H17l-0.5,1.6h-4.8v-0.2h0.2c0.1,0,0.3,0,0.4-0.1
			c0.1,0,0.2-0.1,0.2-0.2c0-0.2,0.1-0.4,0.1-0.6v-4c0-0.4,0-0.6-0.1-0.7c-0.1-0.1-0.3-0.2-0.5-0.2h-0.2v-0.2h4.8l0.1,1.4h-0.2
			c0-0.2-0.1-0.5-0.2-0.7c-0.1-0.1-0.2-0.2-0.3-0.3c-0.2-0.1-0.4-0.1-0.6-0.1L13.5,17L13.5,17z"/>
		<path class="st22" d="M20.8,16.6l1.3,2c0.4,0.5,0.6,0.9,0.8,1c0.2,0.2,0.4,0.2,0.7,0.2V20h-2.7v-0.2c0.1,0,0.3,0,0.4-0.1
			c0.1,0,0.1-0.1,0.2-0.1c0,0,0.1-0.1,0.1-0.2c0-0.1,0-0.1,0-0.2c-0.1-0.1-0.2-0.3-0.3-0.4l-1.1-1.6L18.9,19
			c-0.1,0.1-0.2,0.2-0.2,0.4c0,0.1,0,0.1,0,0.2c0,0.1,0,0.2,0.1,0.2c0.1,0.1,0.2,0.1,0.5,0.1V20H17v-0.2c0.1,0,0.3,0,0.4-0.1
			c0.2-0.1,0.4-0.2,0.5-0.3c0.2-0.2,0.4-0.4,0.6-0.6L20,17l-1.2-1.8c-0.3-0.5-0.6-0.8-0.8-1c-0.2-0.2-0.5-0.2-0.8-0.2v-0.2H20V14
			c-0.2,0-0.4,0-0.5,0.1c-0.1,0.1-0.1,0.1-0.1,0.2c0,0.1,0.1,0.3,0.2,0.5l1,1.4l1.1-1.4c0.1-0.1,0.2-0.2,0.2-0.3c0-0.1,0-0.1,0-0.2
			c0-0.1,0-0.1-0.1-0.2c0-0.1-0.1-0.1-0.2-0.1c-0.1,0-0.3,0-0.4,0v-0.2h2.2V14c-0.1,0-0.3,0-0.4,0.1c-0.2,0.1-0.3,0.2-0.5,0.3
			c-0.2,0.2-0.4,0.4-0.6,0.7L20.8,16.6z"/>
	</g>
</g>
</svg>
