<?xml version="1.0" encoding="utf-8"?>
<!-- Generator: Adobe Illustrator 27.2.0, SVG Export Plug-In . SVG Version: 6.00 Build 0)  -->
<svg version="1.1" id="图层_1" xmlns="http://www.w3.org/2000/svg" xmlns:xlink="http://www.w3.org/1999/xlink" x="0px" y="0px"
	 viewBox="0 0 134 134" style="enable-background:new 0 0 134 134;" xml:space="preserve">
<style type="text/css">
	.st0{opacity:0.2032;}
	.st1{fill-rule:evenodd;clip-rule:evenodd;fill:#FFFFFF;filter:url(#Adobe_OpacityMaskFilter);}
	.st2{mask:url(#mask0_00000054965486699943617610000002461510141477550215_);}
	.st3{fill-rule:evenodd;clip-rule:evenodd;fill:#CEC0AB;}
	
		.st4{fill-rule:evenodd;clip-rule:evenodd;fill:#FFFFFF;filter:url(#Adobe_OpacityMaskFilter_00000064322836882340492760000003245641545179136645_);}
	.st5{mask:url(#mask1_00000123415400882217683500000016272372567856442517_);}
	
		.st6{fill-rule:evenodd;clip-rule:evenodd;fill:#FFFFFF;filter:url(#Adobe_OpacityMaskFilter_00000018935363194710004280000011059920985146044546_);}
	.st7{mask:url(#mask2_00000137114355188835063480000017011947406698047646_);}
	.st8{fill-rule:evenodd;clip-rule:evenodd;fill:#9F393D;}
	
		.st9{fill-rule:evenodd;clip-rule:evenodd;fill:#FFFFFF;filter:url(#Adobe_OpacityMaskFilter_00000154398905501677267980000012944587032818386104_);}
	.st10{mask:url(#mask3_00000168077444302889366200000005675073981529577659_);}
</style>
<g class="st0">
	<defs>
		<filter id="Adobe_OpacityMaskFilter" filterUnits="userSpaceOnUse" x="0" y="43.6" width="18" height="46.9">
			<feColorMatrix  type="matrix" values="1 0 0 0 0  0 1 0 0 0  0 0 1 0 0  0 0 0 1 0"/>
		</filter>
	</defs>
	
		<mask maskUnits="userSpaceOnUse" x="0" y="43.6" width="18" height="46.9" id="mask0_00000054965486699943617610000002461510141477550215_">
		<path class="st1" d="M0,43.6h18v46.9H0V43.6z"/>
	</mask>
	<g class="st2">
		<path class="st3" d="M18,90c0,0.4-0.6,0.5-1.7,0.5c-3.4,0-5.9-0.5-7.7-1.6c-2.6-1.7-3.9-4.2-3.9-7.4c0-1.3,0.2-3.5,0.5-6.6
			c0.1-1.2,0.2-2,0.2-2.6c0-1.4-0.3-2.4-1-3.1c-0.6-0.7-1.9-1.2-3.6-1.5C0.2,67.6,0,67.4,0,67c0-0.4,0.4-0.7,1.1-0.8
			c1.2-0.1,2.2-0.6,3-1.5c0.8-0.8,1.1-1.8,1.1-3c0-0.6-0.1-1.5-0.2-2.7c-0.3-3.4-0.5-5.6-0.5-6.8c0-3.4,1.4-5.9,4.3-7.4
			c1.7-0.9,4.3-1.3,7.8-1.3c0.8,0,1.2,0.2,1.2,0.5c0,0.3-0.5,0.5-1.5,0.5c-1.6,0-2.7,0.4-3.3,1.2c-0.6,0.7-0.9,2.1-0.9,4
			c0,1,0,2.4,0.1,4.2c0,0.6,0.1,1.5,0.1,2.6c0,3.2-1,5.7-2.9,7.4c-1.6,1.5-3.7,2.4-6.5,2.8c-0.3,0-0.5,0.1-0.5,0.3
			c0,0.2,0.3,0.4,1,0.5c6,0.9,9,4.2,9,9.7c0,1,0,1.8-0.1,2.4c-0.1,1.8-0.2,3.3-0.2,4.4c0,2.5,0.5,4.1,1.4,4.8
			c0.6,0.5,1.7,0.7,3.4,0.7C17.7,89.5,18,89.7,18,90z"/>
	</g>
	<defs>
		
			<filter id="Adobe_OpacityMaskFilter_00000017518483288689975320000001941075444507785365_" filterUnits="userSpaceOnUse" x="116" y="43.6" width="18" height="46.9">
			<feColorMatrix  type="matrix" values="1 0 0 0 0  0 1 0 0 0  0 0 1 0 0  0 0 0 1 0"/>
		</filter>
	</defs>
	
		<mask maskUnits="userSpaceOnUse" x="116" y="43.6" width="18" height="46.9" id="mask1_00000123415400882217683500000016272372567856442517_">
		
			<path style="fill-rule:evenodd;clip-rule:evenodd;fill:#FFFFFF;filter:url(#Adobe_OpacityMaskFilter_00000017518483288689975320000001941075444507785365_);" d="
			M116,43.6h18v46.9h-18V43.6z"/>
	</mask>
	<g class="st5">
		<path class="st3" d="M134,67c0,0.4-0.4,0.7-1.1,0.8c-1.3,0.1-2.3,0.6-3,1.4c-0.7,0.8-1.1,1.8-1.1,3c0,0.6,0.1,1.5,0.2,2.7
			c0.3,3.4,0.5,5.6,0.5,6.8c0,3.4-1.4,5.8-4.3,7.4c-1.7,0.9-4.2,1.3-7.6,1.3c-1,0-1.4-0.2-1.4-0.5c0-0.3,0.5-0.5,1.5-0.5
			c1.6,0,2.7-0.4,3.3-1.2c0.6-0.8,0.9-2.1,0.9-4.1c0-0.7,0-2.1-0.1-4c-0.1-0.7-0.1-1.5-0.1-2.5c0-3.3,1-5.8,2.9-7.5
			c1.6-1.5,3.8-2.4,6.6-2.8c0.3,0,0.5-0.1,0.5-0.3c0-0.2-0.3-0.4-1-0.5c-2.9-0.4-5.1-1.5-6.6-3.2c-1.6-1.7-2.3-3.8-2.3-6.4
			c0-0.4,0-1.3,0.1-2.5c0.1-1.8,0.1-3.3,0.1-4.4c0-2.1-0.3-3.5-0.9-4.3c-0.6-0.8-1.6-1.2-3.1-1.2h-0.8c-0.6,0-0.8-0.1-0.8-0.4
			c0-0.4,0.5-0.5,1.6-0.5c3.5,0,6.1,0.5,7.8,1.6c2.6,1.6,3.9,4.1,3.9,7.5c0,1.3-0.2,3.5-0.5,6.5c-0.1,1.1-0.2,2-0.2,2.5
			c0,1.4,0.3,2.4,1,3.1c0.7,0.7,1.9,1.2,3.6,1.6C133.8,66.5,134,66.7,134,67z"/>
	</g>
</g>
<defs>
	
		<filter id="Adobe_OpacityMaskFilter_00000084506341089148728670000005722346205297632389_" filterUnits="userSpaceOnUse" x="25" y="47.9" width="32.5" height="32.1">
		<feColorMatrix  type="matrix" values="1 0 0 0 0  0 1 0 0 0  0 0 1 0 0  0 0 0 1 0"/>
	</filter>
</defs>
<mask maskUnits="userSpaceOnUse" x="25" y="47.9" width="32.5" height="32.1" id="mask2_00000137114355188835063480000017011947406698047646_">
	
		<path style="fill-rule:evenodd;clip-rule:evenodd;fill:#FFFFFF;filter:url(#Adobe_OpacityMaskFilter_00000084506341089148728670000005722346205297632389_);" d="
		M25,47.9h32.5V80H25V47.9z"/>
</mask>
<g class="st7">
	<path class="st8" d="M57.5,55.7c0,0.3-0.3,0.4-0.8,0.4c-0.2,0-0.4-0.1-0.5-0.3c-0.7-2.1-1.6-3.7-2.8-4.6c-1.2-0.9-3-1.3-5.4-1.3
		h-2.1c-0.7,0-1.3,0.1-1.5,0.4c-0.3,0.2-0.4,0.7-0.4,1.4v23.2c0,1.1,0.1,1.8,0.4,2.2c0.3,0.4,0.7,0.8,1.4,1c0.7,0.3,1.6,0.5,2.9,0.6
		c0.2,0,0.4,0.2,0.4,0.6c0,0.4-0.1,0.6-0.4,0.6c-1,0-2.2,0-3.7-0.1c-1.3-0.1-2.5-0.1-3.4-0.1c-0.9,0-2.1,0-3.4,0.1
		C36.8,80,35.6,80,34.5,80c-0.2,0-0.4-0.2-0.4-0.6c0-0.4,0.1-0.6,0.4-0.6c1.8-0.2,3.1-0.6,3.8-1c0.7-0.5,1-1.4,1-2.8V51.7
		c0-0.7-0.1-1.1-0.4-1.4c-0.3-0.2-0.8-0.4-1.6-0.4h-1.8c-2.1,0-4.1,0.5-5.8,1.6c-1.8,1.1-2.9,2.5-3.4,4.2c-0.1,0.2-0.2,0.3-0.5,0.3
		c-0.5,0-0.8-0.2-0.8-0.5c0.9-2.3,1.7-4.9,2.4-7.8c2.1,0.4,6.8,0.6,14.2,0.6c7.6,0,12.4-0.2,14.5-0.6C56.4,49.8,56.8,52.5,57.5,55.7
		z"/>
</g>
<path class="st8" d="M79,79.9c-1.2,2.7-2.2,5.2-2.9,7.6c-5.6-0.2-9.5-0.3-11.9-0.3c-2.3,0-6.3,0.1-11.9,0.3c-0.2,0-0.4-0.2-0.4-0.6
	c0-0.4,0.1-0.6,0.4-0.6c1.2-0.2,2.2-0.4,2.8-0.6c0.6-0.3,1.1-0.6,1.4-1c0.3-0.4,0.4-1.2,0.4-2.3V60.7c0-1.1-0.1-1.8-0.4-2.2
	c-0.2-0.4-0.7-0.8-1.3-1c-0.6-0.3-1.6-0.5-2.9-0.6c-0.2,0-0.4-0.2-0.4-0.6c0-0.4,0.1-0.6,0.4-0.6c3.7,0.2,7.5,0.3,11.4,0.3
	c3.9,0,7.7-0.1,11.4-0.3c0.3,2.4,0.8,4.7,1.5,7c0,0.3-0.3,0.5-0.8,0.5c-0.3,0-0.4-0.1-0.5-0.3c-1.1-3.6-3.4-5.4-7-5.4H64
	c-1.7,0-2.6,0.9-2.6,2.8v10.2H67c1.5,0,2.5-0.4,3-1.1c0.5-0.7,0.9-2,1.1-3.7c0-0.2,0.2-0.4,0.6-0.4c0.4,0,0.6,0.1,0.6,0.4
	c0,0.8,0,1.7-0.1,2.9c-0.1,1.1-0.1,2-0.1,2.7c0,0.7,0,1.6,0.1,2.8c0.1,1.2,0.1,2.2,0.1,2.9c0,0.2-0.2,0.4-0.6,0.4
	c-0.4,0-0.6-0.1-0.6-0.4c-0.2-1.9-0.6-3.2-1.2-3.9c-0.6-0.8-1.5-1.1-2.9-1.1h-5.6V83c0,1.8,0.9,2.7,2.6,2.7h4.8
	c1.8,0,3.5-0.6,5.2-1.8c1.7-1.2,3-2.7,3.8-4.5c0.1-0.1,0.2-0.2,0.4-0.2c0.2,0,0.4,0.1,0.6,0.2C78.9,79.6,79,79.7,79,79.9z"/>
<defs>
	
		<filter id="Adobe_OpacityMaskFilter_00000119086291428526166880000000060162072936990911_" filterUnits="userSpaceOnUse" x="75.4" y="48.1" width="33.4" height="31.8">
		<feColorMatrix  type="matrix" values="1 0 0 0 0  0 1 0 0 0  0 0 1 0 0  0 0 0 1 0"/>
	</filter>
</defs>
<mask maskUnits="userSpaceOnUse" x="75.4" y="48.1" width="33.4" height="31.8" id="mask3_00000168077444302889366200000005675073981529577659_">
	
		<path style="fill-rule:evenodd;clip-rule:evenodd;fill:#FFFFFF;filter:url(#Adobe_OpacityMaskFilter_00000119086291428526166880000000060162072936990911_);" d="
		M75.4,48.1h33.4v31.8H75.4V48.1z"/>
</mask>
<g class="st10">
	<path class="st8" d="M108.9,79.2c0,0.4-0.1,0.6-0.4,0.6c-0.7,0-1.7,0-3-0.1c-1.4-0.1-2.4-0.1-3.3-0.1c-0.9,0-2.1,0-3.5,0.1
		c-1.5,0.1-2.8,0.1-3.8,0.1c-0.2,0-0.3-0.2-0.3-0.6c0-0.4,0.1-0.6,0.4-0.6c2.1-0.3,3.1-0.8,3.1-1.4c0-0.5-0.4-1.3-1.1-2.4l-5.9-8.6
		l-5.9,8.6c-0.5,0.7-0.7,1.3-0.7,1.8c0,0.6,0.3,1,0.8,1.3c0.6,0.3,1.5,0.5,2.9,0.7c0.2,0,0.3,0.2,0.3,0.6c0,0.4-0.1,0.6-0.4,0.6
		c-1,0-2.2,0-3.6-0.1c-1.2-0.1-2.2-0.1-2.9-0.1c-0.7,0-1.5,0-2.5,0.1c-1.1,0.1-2.1,0.1-3,0.1c-0.2,0-0.4-0.2-0.4-0.6
		c0-0.4,0.2-0.6,0.5-0.6c1.5-0.2,2.7-0.5,3.5-1c0.8-0.5,1.8-1.5,2.9-2.9l7.6-9.8l-8-11.6c-1.1-1.6-2-2.6-2.8-3
		c-0.8-0.4-2-0.7-3.6-0.9c-0.2,0-0.4-0.2-0.4-0.6c0-0.4,0.1-0.6,0.4-0.6c0.7,0,1.7,0,3,0.1c1.4,0.1,2.5,0.1,3.3,0.1
		c0.9,0,2.1,0,3.5-0.1c1.5-0.1,2.8-0.1,3.8-0.1c0.2,0,0.4,0.2,0.4,0.6c0,0.4-0.1,0.6-0.4,0.6c-1.2,0.2-2.1,0.4-2.5,0.6
		c-0.4,0.2-0.7,0.5-0.7,0.9c0,0.5,0.4,1.3,1.1,2.4l5.5,8.1l5.5-8.1c0.5-0.9,0.8-1.5,0.8-1.9c0-0.5-0.3-1-0.9-1.3
		c-0.6-0.3-1.6-0.6-2.9-0.7c-0.2,0-0.3-0.2-0.3-0.6c0-0.4,0.1-0.6,0.4-0.6c1,0,2.1,0,3.3,0.1c1.1,0.1,2.2,0.1,3.1,0.1
		c0.7,0,1.5,0,2.5-0.1c1.2-0.1,2.3-0.2,3.3-0.2c0.2,0,0.4,0.2,0.4,0.6c0,0.2-0.1,0.3-0.2,0.4c-0.1,0.1-0.2,0.2-0.3,0.2
		c-1.6,0.2-2.9,0.5-3.7,1c-0.9,0.5-1.8,1.5-2.9,2.9l-7.2,9.3l8.3,12.1c1.1,1.6,2,2.6,2.8,3c0.8,0.4,2,0.7,3.6,0.9
		C108.8,78.6,108.9,78.8,108.9,79.2z"/>
</g>
</svg>
