<?xml version="1.0" encoding="utf-8"?>
<!-- Generator: Adobe Illustrator 27.2.0, SVG Export Plug-In . SVG Version: 6.00 Build 0)  -->
<svg version="1.1" id="Ebene_1" xmlns="http://www.w3.org/2000/svg" xmlns:xlink="http://www.w3.org/1999/xlink" x="0px" y="0px"
	 viewBox="0 0 70 70" style="enable-background:new 0 0 70 70;" xml:space="preserve">
<style type="text/css">
	.st0{fill:#00519E;}
	.st1{fill:#FFFFFF;}
</style>
<g>
	<path class="st0" d="M7.1,70.4L7.1,70.4L7.1,70.4z"/>
	<rect x="8.1" y="5.3" class="st0" width="49.5" height="64.3"/>
	<rect x="10.7" y="2.4" class="st1" width="52.1" height="64.6"/>
	<g>
		<path class="st0" d="M64.9,69H8.7V0.4h56.1V69z M12.7,65h48.1V4.4H12.7V65z"/>
	</g>
	<rect x="14.1" y="33.7" class="st0" width="11.9" height="0.5"/>
	<rect x="43.2" y="33.7" class="st0" width="15.6" height="0.5"/>
	<path class="st0" d="M25,27.5c-0.8-0.1-1.6-0.2-2.3-0.2c-0.8,0-1.6,0.1-2.3,0.2V8.3c-2.2,0-4.2,0.2-5.8,0.4
		c0.1-0.4,0.2-0.9,0.2-1.3c0-0.4-0.1-0.9-0.2-1.3h16c-0.1,0.4-0.2,0.9-0.2,1.3c0,0.5,0.1,0.9,0.2,1.3c-1.8-0.2-3.7-0.4-5.6-0.4
		L25,27.5"/>
	<path class="st0" d="M40.8,12.9c-0.1,0.4-0.2,0.9-0.2,1.3s0.1,0.9,0.2,1.3c-1.9-0.3-4-0.5-7.2-0.4v6.7h3.2c1.4,0,2.7-0.1,3.8-0.3
		c-0.1,0.4-0.2,0.9-0.2,1.3c0,0.4,0.1,0.9,0.2,1.3c-1.1-0.2-2.4-0.3-3.8-0.3h-3.2v7.9c3.2,0,5.3-0.2,7.2-0.4
		c-0.1,0.4-0.2,0.9-0.2,1.3s0.1,0.9,0.2,1.3H29V12.9H40.8"/>
	<path class="st0" d="M55.5,10.4c-1.2,1.7-2.4,3.4-3.6,5.1l0.4,0.7c2.1,3.7,4.1,7.3,6.1,11.3c-0.9-0.1-1.8-0.2-2.7-0.2
		c-0.9,0-1.8,0.1-2.7,0.2c-1.3-2.7-2.7-5.3-4.1-7.9L46,24c-0.7,1.1-1.5,2.5-1.9,3.4c-0.5,0-1-0.1-1.6-0.1s-1,0.1-1.6,0.1
		c2.4-3.4,4.6-6.6,6.7-9.8L41.3,6.1c0.9,0.1,1.8,0.2,2.8,0.2s1.8-0.1,2.8-0.2c1.2,2.5,2.6,5,3.9,7.5c1.6-2.5,3-5,4.7-7.5
		c0.5,0.1,1,0.1,1.5,0.1c0.5,0,1,0,1.6-0.1L55.5,10.4"/>
	<path class="st0" d="M15.6,38.9c0-1.7-0.1-1.8-0.8-2l-0.4-0.1c-0.1-0.1-0.1-0.5,0-0.6c0.7,0,1.5,0.1,2.2,0.1c0.7,0,1.5,0,2.2-0.1
		c0.1,0.1,0.1,0.5,0,0.6l-0.4,0.1c-0.7,0.2-0.8,0.3-0.8,2v4.3c0,2.2,0.2,4.5,2.5,4.5c1.9,0,2.5-2.1,2.5-4.6v-2.2
		c0-1.5-0.1-2.9-0.2-3.4c-0.1-0.4-0.5-0.5-0.9-0.6l-0.4-0.1c-0.1-0.1-0.1-0.5,0-0.6c0.8,0,1.4,0.1,2,0.1c0.6,0,1.1,0,1.7-0.1
		c0.1,0.1,0.1,0.5,0,0.6l-0.3,0.1c-0.4,0.1-0.7,0.2-0.8,0.6c-0.2,0.5-0.2,1.9-0.2,3.4v2.1c0,1.7-0.1,3.3-1,4.5
		c-0.7,0.9-1.8,1.3-3,1.3c-1.1,0-2.2-0.2-3-1c-0.8-0.8-1.1-2.2-1.1-4.2L15.6,38.9"/>
	<path class="st0" d="M28.6,48.7c-1.4,0-2.3-0.5-2.6-0.7c-0.3-0.4-0.5-1.7-0.5-3c0.1-0.2,0.5-0.3,0.6-0.1c0.3,1.2,1.3,2.9,2.6,2.9
		c1.1,0,1.6-0.9,1.6-1.9c0-1.5-1.1-2.4-2.1-2.9c-1.1-0.7-2.3-1.8-2.3-3.6c0-2.1,1.3-3.5,3.5-3.5c0.5,0,1.1,0.1,1.7,0.3
		c0.2,0.1,0.3,0.1,0.5,0.1c0.1,0.4,0.3,1.4,0.3,2.6c-0.1,0.2-0.5,0.2-0.6,0.1c-0.3-0.9-0.9-2.3-2-2.3c-1,0-1.5,0.8-1.5,1.7
		c0,0.8,0.6,1.6,1.4,2.1l1,0.6c0.9,0.6,2.1,1.7,2.1,3.7C32.4,47.2,30.9,48.7,28.6,48.7"/>
	<path class="st0" d="M36.7,41c0,0.5,0,0.6,0.4,0.6h1c0.8,0,1-0.1,1.1-1l0.1-0.5c0.1-0.1,0.5-0.1,0.6,0c0,0.6,0,1.3,0,2s0,1.4,0,2
		c-0.1,0.2-0.5,0.2-0.6,0l-0.1-0.5c-0.2-0.9-0.3-1-1.1-1h-1c-0.4,0-0.4,0-0.4,0.6v2.2c0,0.8,0.1,1.4,0.2,1.8
		c0.2,0.3,0.5,0.5,1.6,0.5c1.3,0,1.8-0.1,2.7-2.1c0.1-0.2,0.5-0.1,0.6,0.1c-0.1,1-0.4,2.5-0.6,3c-0.8,0-2.3-0.1-3.5-0.1h-2
		c-0.7,0-1.5,0-2.6,0.1c-0.1-0.1-0.1-0.6,0-0.6l0.7-0.1c0.7-0.1,0.8-0.2,0.8-1.9v-6.9c0-1.7-0.1-1.8-0.8-2l-0.4-0.1
		c-0.1-0.1-0.1-0.5,0-0.6c0.7,0,1.5,0.1,2.2,0.1h3.2c1,0,1.8,0,2-0.1c0,0.3,0.1,1.6,0.2,2.9c-0.1,0.2-0.4,0.2-0.6,0.1
		c-0.2-0.6-0.4-1.2-0.6-1.5c-0.3-0.4-0.7-0.6-1.5-0.6h-1.2c-0.5,0-0.5,0-0.5,0.7L36.7,41"/>
	<path class="st0" d="M43.6,39.2c0-1.8,0-2.1-0.7-2.2L42.5,37c-0.2-0.1-0.2-0.6,0-0.6c1.1-0.1,2.3-0.2,3.8-0.2c1.3,0,2.4,0.2,3,0.7
		c0.9,0.6,1.3,1.6,1.3,2.7c0,1.6-0.9,2.3-1.6,2.8c-0.2,0.1-0.2,0.2-0.1,0.4c1,2.5,1.6,3.9,2.3,4.6c0.4,0.4,0.8,0.5,1,0.5
		c0.1,0.1,0.1,0.4,0.1,0.5c-0.2,0.1-0.7,0.2-1.2,0.2c-1.4,0-2.3-0.6-2.9-1.9c-0.5-1-0.8-1.9-1.2-2.9c-0.2-0.5-0.4-0.6-0.8-0.6
		c-0.5,0-0.6,0-0.6,0.4v2.3c0,1.7,0.1,1.8,0.8,2l0.4,0.1c0.1,0.1,0.1,0.5,0,0.6c-0.8,0-1.5-0.1-2.2-0.1c-0.8,0-1.4,0-2.2,0.1
		c-0.1-0.1-0.1-0.6,0-0.6l0.4-0.1c0.7-0.1,0.8-0.3,0.8-2L43.6,39.2L43.6,39.2z M45.6,41.5c0,0.6,0,0.7,0.9,0.7
		c0.5,0,0.9-0.2,1.1-0.5c0.3-0.3,0.5-0.9,0.5-2c0-1.7-0.8-2.7-2-2.7c-0.6,0-0.6,0.1-0.7,0.9V41.5"/>
	<path class="st0" d="M55.3,48.7c-1.4,0-2.3-0.5-2.6-0.7c-0.3-0.4-0.5-1.7-0.5-3c0.1-0.2,0.5-0.3,0.6-0.1c0.3,1.2,1.3,2.9,2.6,2.9
		c1.1,0,1.6-0.9,1.6-1.9c0-1.5-1.1-2.4-2.1-2.9c-1.1-0.7-2.3-1.8-2.3-3.6c0-2.1,1.3-3.5,3.5-3.5c0.5,0,1.1,0.1,1.7,0.3
		c0.2,0.1,0.3,0.1,0.5,0.1c0.1,0.4,0.3,1.4,0.3,2.6c-0.1,0.2-0.5,0.2-0.6,0.1c-0.3-0.9-0.9-2.3-2-2.3c-1,0-1.5,0.8-1.5,1.7
		c0,0.8,0.6,1.6,1.4,2.1l1,0.6c0.9,0.6,2.1,1.7,2.1,3.7C59.1,47.2,57.6,48.7,55.3,48.7"/>
	<path class="st0" d="M23.2,60.4c0,0.8,0,1.1,0.3,1.2c0.1,0.1,0,0.4,0,0.4c-0.2,0.1-0.6,0.1-1,0.3c-0.5,0.2-1.7,0.4-2.5,0.4
		c-0.9,0-1.8-0.1-2.7-0.7c-1.6-0.9-2.7-2.9-2.7-5.6c0-2.3,0.8-4.3,2.4-5.6c0.9-0.7,2.1-1,3.2-1c1.5,0,2.3,0.4,2.7,0.4
		c0,0.6,0.1,1.8,0.2,3c-0.1,0.2-0.4,0.2-0.5,0c-0.4-1.7-1.3-2.6-2.6-2.6c-2.2,0-3.3,2.4-3.3,5.4c0,2.6,0.7,4.2,1.6,5
		c0.7,0.6,1.4,0.7,1.9,0.7c0.8,0,1-0.2,1-1.4v-1.7c0-1-0.1-1.1-0.7-1.2l-0.6-0.1c-0.2-0.1-0.2-0.5,0-0.7c1,0,1.7,0.1,2.3,0.1
		c0.7,0,1.3,0,1.8-0.1c0.1,0.1,0.1,0.5,0,0.7l-0.3,0.1c-0.4,0.1-0.5,0.3-0.5,1.3L23.2,60.4"/>
	<path class="st0" d="M25.3,53.3c0-1.8,0-2.1-0.6-2.2l-0.4-0.1c-0.1-0.1-0.1-0.6,0-0.6c1-0.1,2.1-0.2,3.4-0.2c1.2,0,2.2,0.2,2.7,0.7
		c0.8,0.6,1.2,1.6,1.2,2.7c0,1.6-0.8,2.3-1.5,2.8c-0.1,0.1-0.1,0.2-0.1,0.4c0.9,2.5,1.5,3.9,2.1,4.6c0.4,0.4,0.7,0.5,0.9,0.5
		c0.1,0.1,0.1,0.4,0.1,0.5c-0.2,0.1-0.7,0.2-1.1,0.2c-1.3,0-2.1-0.6-2.7-1.9c-0.4-1-0.8-1.9-1.1-2.9c-0.2-0.5-0.4-0.7-0.7-0.7
		c-0.5,0-0.5,0-0.5,0.4v2.3c0,1.7,0.1,1.8,0.7,2l0.4,0.1c0.1,0.1,0.1,0.5,0,0.7c-0.7,0-1.4-0.1-2-0.1c-0.7,0-1.3,0-2,0.1
		c-0.1-0.1-0.1-0.6,0-0.7l0.4-0.1c0.6-0.1,0.7-0.3,0.7-2L25.3,53.3L25.3,53.3z M27.2,55.6c0,0.7,0,0.7,0.9,0.7
		c0.5,0,0.8-0.2,1.1-0.5c0.2-0.3,0.5-0.9,0.5-2c0-1.7-0.7-2.7-1.8-2.7c-0.6,0-0.6,0.1-0.6,0.9L27.2,55.6"/>
	<path class="st0" d="M42.4,56.3c0,4-2,6.4-5,6.4c-2.8,0-4.8-2.4-4.8-6.3c0-3.7,2.1-6.5,5-6.5C40.4,50,42.4,52.6,42.4,56.3
		L42.4,56.3z M37.4,50.9c-1.7,0-2.6,2.1-2.6,5.2c0,2.3,0.6,5.9,2.9,5.9c1.8,0,2.5-2.4,2.5-5.4C40.2,53.4,39.1,50.9,37.4,50.9"/>
	<path class="st0" d="M43.3,53c0-1.7-0.1-1.8-0.7-2l-0.4-0.1c-0.1-0.1-0.1-0.5,0-0.6c0.7,0,1.4,0.1,2,0.1c0.7,0,1.4,0,2-0.1
		c0.1,0.1,0.1,0.5,0,0.6L46,51c-0.6,0.2-0.7,0.3-0.7,2v4.3c0,2.2,0.2,4.5,2.3,4.5c1.8,0,2.3-2.1,2.3-4.6v-2.2c0-1.5-0.1-2.9-0.2-3.4
		c-0.1-0.4-0.4-0.5-0.8-0.6l-0.4-0.1c-0.1-0.1-0.1-0.5,0-0.6c0.7,0,1.3,0.1,1.9,0.1c0.5,0,1,0,1.6-0.1c0.1,0.1,0.1,0.5,0,0.6
		L51.7,51c-0.4,0.1-0.6,0.2-0.7,0.6c-0.2,0.5-0.2,1.9-0.2,3.4V57c0,1.7-0.1,3.3-0.9,4.5c-0.6,0.9-1.6,1.3-2.7,1.3
		c-1.1,0-2-0.2-2.7-1c-0.7-0.8-1-2.2-1-4.2L43.3,53"/>
	<path class="st0" d="M53.3,53.3c0-1.9,0-2.1-0.6-2.2L52.2,51c-0.1-0.1-0.1-0.5,0-0.6c0.9-0.1,2-0.2,3.2-0.2c1.2,0,2,0.2,2.5,0.5
		c0.8,0.4,1.7,1.4,1.7,3.2c0,3-2.3,3.5-3,3.5c-0.2,0-0.3,0-0.4,0c-0.1-0.1-0.1-0.4,0-0.5c1.1-0.5,1.4-1.6,1.4-2.9
		c0-1.4-0.5-2.9-1.8-2.9c-0.5,0-0.5,0.2-0.5,0.9v7.8c0,1.7,0.1,1.8,0.7,2l0.4,0.1c0.2,0.1,0.2,0.5,0,0.6c-0.8,0-1.5-0.1-2.1-0.1
		s-1.3,0-2.1,0.1c-0.2-0.1-0.2-0.5,0-0.6l0.4-0.1c0.6-0.1,0.7-0.3,0.7-2V53.3"/>
</g>
</svg>
