<svg xmlns="http://www.w3.org/2000/svg" viewBox="0 0 576 576"><defs><style>.cls-1{fill:#fff;}.cls-2{fill:#104735;}.cls-3{fill:#f4792a;}</style></defs><title>emblem 2 color-rgb</title><g id="emblem_2_color" data-name="emblem 2 color"><circle class="cls-1" cx="288" cy="288" r="267.26"/><path class="cls-2" d="M288,29.09A259,259,0,0,1,388.78,526.57,259,259,0,0,1,187.22,49.43,257.28,257.28,0,0,1,288,29.09m0-11.77C138.51,17.32,17.32,138.51,17.32,288S138.51,558.68,288,558.68,558.68,437.49,558.68,288,437.49,17.32,288,17.32Z"/><path class="cls-3" d="M511.26,275.67a13.61,13.61,0,0,0-.33,3.2,8.12,8.12,0,0,0,.57,2.83l10.34-3.43v0Z"/><path class="cls-3" d="M420.06,108a13.5,13.5,0,0,0,2.26,2.28,8,8,0,0,0,2.55,1.35l3.89-10.19,0,0Z"/><path class="cls-3" d="M513.88,253.68c5.35-.94,7.32-4.52,6.61-8.54-.12-.69-.32-1.62-.48-2.26l-15.91,2.8a18.38,18.38,0,0,0,.27,2.22C505.15,252.33,508.47,254.63,513.88,253.68Z"/><path class="cls-3" d="M480.12,173.79l7.33-8.06,0,0-10.47,3a13.88,13.88,0,0,0,1.28,2.95A8.13,8.13,0,0,0,480.12,173.79Z"/><path class="cls-3" d="M256.57,71.6c3.87-.57,5.74-4,4.94-9.46-.89-6-4.14-8-7.44-7.52s-5.76,3.67-4.93,9.3S252.85,72.15,256.57,71.6Z"/><path class="cls-3" d="M497.81,364a8.18,8.18,0,0,0-.55,2.84l10.89.75v0l-8.83-6.38A13.34,13.34,0,0,0,497.81,364Z"/><path class="cls-3" d="M105.66,139.79c-.55.67-1,1.33-1.35,1.77l6.27,5.13c.58-.59,1.13-1.21,1.63-1.81,2.77-3.38,3.05-5.77.77-7.63C110.88,135.53,108.56,136.25,105.66,139.79Z"/><path class="cls-3" d="M384.14,485c-3,1.48-4.38,3.44-3.31,5.64s3.23,2.13,6.09.74a12.35,12.35,0,0,0,4.46-3.48C389.91,484.9,387.33,483.48,384.14,485Z"/><path class="cls-3" d="M288.8,37.58C150.49,37.58,38.38,149.7,38.38,288S150.49,538.42,288.8,538.42,539.22,426.3,539.22,288,427.1,37.58,288.8,37.58ZM528.27,272.77l.84,0,.44,10.93-.84,0a.9.9,0,0,0-1-1,6.05,6.05,0,0,0-1.81.57l-20.12,8.19c-1.54.64-1.75,1-1.71,2l-.84,0-.46-11.22.84,0c0,1.07.48,1.59,1.21,1.56a4,4,0,0,0,.94-.28l.64-.23a16.34,16.34,0,0,1-.36-8.83l-.73-.26a2.5,2.5,0,0,0-1-.21c-.76,0-1,.57-1,1.44l-.84,0L502,264.84l.84,0c0,1,.2,1.35,1.79,1.87l21.23,6.81a6.65,6.65,0,0,0,1.46.27A.86.86,0,0,0,528.27,272.77Zm-5.5-39.59.83-.15c.55,2,1.36,5.54,2.11,9.81,1.93,10.93-2.59,17-10.41,18.42-8.24,1.45-14.63-2.2-16.76-14.31-.62-3.53-1.16-7.46-1.29-9.28l.83-.15c.2,1.1.85,1.53,2.43,1.25l20.66-3.64A1.73,1.73,0,0,0,522.77,233.18Zm-18.7-53.51,8,17.61a6.1,6.1,0,0,0,.91,1.44L507.35,203l-.78-.87a2,2,0,0,0,.73-2.37l-2.66-5.82L488,201.47c-1.46.67-1.85,1.39-1.39,2.4l-.76.35-4.44-9.73.77-.34c.46,1,1.27,1.23,2.74.57l16.63-7.56L499,181.45a2.14,2.14,0,0,0-2.31-1.12l-.17-1.19,6.93-1.48A7.06,7.06,0,0,0,504.07,179.67Zm-37.25-15.62,21.81-4.49a6.31,6.31,0,0,0,1.41-.48.86.86,0,0,0,.32-1.31l.71-.44,5.74,9.32-.72.44a.87.87,0,0,0-1.36-.32,5.87,5.87,0,0,0-1.3,1.38l-13.52,17c-1,1.32-1,1.75-.51,2.6l-.72.44-5.88-9.57.71-.44c.57.92,1.21,1.15,1.82.77a4.23,4.23,0,0,0,.69-.71l.44-.52a15.44,15.44,0,0,1-2.86-3.47,15.66,15.66,0,0,1-1.77-4.05l-.77.14a2.63,2.63,0,0,0-.94.28c-.65.41-.63,1-.18,1.76l-.71.44-5.61-9.1.72-.44C464.88,164.17,465.18,164.38,466.82,164.05ZM441,130.8c2.51,2.46,4.17,2.64,5.16,1.63.73-.73.65-1.77-1.82-7.45-2.12-4.8-2.17-8.11.21-10.54,3.43-3.5,8.84-3.23,14.3,2.11,1.41,1.39,2.82,3.67,3.61,4.45a4.07,4.07,0,0,0,1.22.88l-4.83,6.17-1-.67a3.63,3.63,0,0,0,.25-2.38c-.28-1.13-.87-2.29-2.91-4.29-2.24-2.19-3.82-2.24-4.54-1.5s-.4,2.12,1.65,6.75c1.83,4.15,2.7,8-.43,11.23-3.54,3.61-8.33,3.95-14-1.57-1.86-1.82-3.84-5-4.75-5.88a4.25,4.25,0,0,0-1.28-.88l5-7.32,1.33.71a6,6,0,0,0-.64,2.48C437.68,126.42,438.35,128.2,441,130.8ZM319.43,451.25l1.32,5.42H256.38l1.32-5.42c6.32,0,11.74-4.22,11.74-14.76V167.58h-98.9c-10.23,0-16,4.21-18.36,10.24L145.55,176l9.64-41.25c2.41.9,7.83,1.5,16,1.5H409c4.52,0,10.84-.6,13.25-1.5L431.88,176l-6.63,1.81c-3.31-6.63-7.53-10.24-18.06-10.24H308V436.49C308,447.33,312.8,451.25,319.43,451.25ZM182.16,119.34a201.56,201.56,0,0,1,215.84,0l-1.38,2.18a199,199,0,0,0-213.08,0ZM428.57,92.93l.5-.67,8.74,6.57-.51.68a.88.88,0,0,0-1.39.19,6.35,6.35,0,0,0-.71,1.77l-6.38,20.79c-.48,1.6-.33,2,.47,2.61l-.51.67-9-6.75.5-.67c.86.64,1.54.63,2,0a4.57,4.57,0,0,0,.37-.91l.23-.65a15.4,15.4,0,0,1-3.93-2.19,15.89,15.89,0,0,1-3.12-3.12l-.67.41a2.43,2.43,0,0,0-.77.61c-.46.61-.22,1.18.48,1.7l-.51.67-8.53-6.43.5-.67c.83.62,1.18.7,2.58-.21l18.69-12.15a6,6,0,0,0,1.13-1A.85.85,0,0,0,428.57,92.93ZM390.63,69.3l10.31,5.57-.4.74a.92.92,0,0,0-1.41.36,2.51,2.51,0,0,0-.13,1l.5,6.1,0,0,5.25-2.77a2.08,2.08,0,0,0,.82-.82,1,1,0,0,0-.46-1.42l.4-.74,10.28,5.55-.4.74c-1-.53-1.76-.3-3.53.53l-11.32,5.5,1.68,12.94c.2,1.64.29,2.6,1.27,3.13l-.4.74-10.35-5.59.4-.74c.69.37,1.23.32,1.47-.12a2.4,2.4,0,0,0,.2-1.41l-.57-6.14-.08,0-5.45,2.88a2.35,2.35,0,0,0-1,1c-.28.51,0,.94.67,1.28l-.4.74-10.13-5.47.4-.74c1,.53,1.45.26,3.31-.65l11.64-5.58L391.52,73c-.25-1.79-.31-2.38-1.29-2.91ZM356.68,81.81,364.15,62a1.79,1.79,0,0,0-.84-2.45l.28-.75,16.91,6.38a17.88,17.88,0,0,0,2.29.58l-1.05,6.88-.91,0a2.41,2.41,0,0,0-1.93-2.24l-8.72-3.3-1.64,4.33,8,3c.84.32,1.41.21,1.71-.57l.89.33-2.74,7.26-.89-.33c.28-.75-.07-1.22-.92-1.53l-7.95-3-2,5.37,8.84,3.34a2.44,2.44,0,0,0,3.1-.63l.82.64-4.16,6.23a11,11,0,0,0-2.4-1.36l-16.64-6.28.3-.78C355.47,83.48,356.21,83,356.68,81.81ZM332.31,50.7a6.54,6.54,0,0,0,2,.7l18.85,4.4a7.08,7.08,0,0,0,1.7.16L354.78,63l-1.17.08a2,2,0,0,0-1.43-2L346,59.64l-4.14,17.78c-.36,1.56,0,2.31,1.06,2.56l-.19.82-10.41-2.43.19-.82c1.08.26,1.75-.25,2.11-1.81L338.71,58l-6.11-1.43a2.17,2.17,0,0,0-2.3,1.15l-1.05-.59Zm-38.87-3.58a10.93,10.93,0,0,0,2.31-.3l1.59,6.78-.9.28c-.64-1-1.09-1.4-2.21-1.38l-9.74.17.09,5.32,8.42-.15c1,0,1.48-.37,1.46-1.21h1l.13,7.8h-.91c0-.8-.64-1.13-1.54-1.12l-8.42.15.12,7.76c0,1.38.58,2,1.69,2V74l-10.72.19,0-.85c1,0,1.64-.56,1.62-2L277,50.16a1.73,1.73,0,0,0-1.68-1.89l0-.84ZM253.28,49c7.71-1.13,14.6,3.15,15.9,12,1.2,8.13-3,14.93-11.75,16.22S242.74,73.09,241.55,65C240.24,56.16,245.61,50.11,253.28,49Zm-61.9,18.76.33.78a1.31,1.31,0,0,0-.82,1.64,2.78,2.78,0,0,0,.61.78l7.55,6.92.08,0,.29-10.37a2.35,2.35,0,0,0-.16-1c-.24-.57-.84-.81-1.64-.47l-.33-.77,9.7-4.16.34.77c-.69.29-.92.69-1.12,2.73l-1.63,17.52,2.18,5.06c.62,1.44,1.27,1.7,2.29,1.26l.33.78-9.81,4.21-.33-.78c1-.44,1.29-1,.66-2.53l-2.16-5L184,74.17c-1.76-1.37-2.1-1.43-2.86-1.1l-.33-.77Zm-36,19.61,16.53-10.11a6.45,6.45,0,0,0,1.33-1.08l4.91,5.1-.77.88a2,2,0,0,0-2.44-.43l-5.46,3.34L179,100.63c.83,1.37,1.6,1.66,2.55,1.08l.44.72L172.89,108l-.44-.72c1-.58,1.07-1.41.23-2.78l-9.54-15.58-5.36,3.28a2.15,2.15,0,0,0-.83,2.43l-1.17.31-2.3-6.7A6.77,6.77,0,0,0,155.39,87.35Zm-8.84,6.33.51.67c-.78.6-1,1.4,0,2.67l12.68,16.48c1,1.24,1.76,1.4,2.64.72l.51.67-8.52,6.54-.51-.66c.85-.66,1-1.47,0-2.74L141,101.4a1.72,1.72,0,0,0-2.48-.51l-.51-.66Zm-21.9,17.2c1.44-1.36,3.78-2.66,4.6-3.43a4.22,4.22,0,0,0,.93-1.18l6,5.1-.72,1a3.59,3.59,0,0,0-2.36-.35c-1.14.24-2.33.78-4.41,2.73-2.29,2.15-2.4,3.72-1.69,4.47s2.1.49,6.81-1.36c4.22-1.66,8.16-2.35,11.21.91,3.46,3.69,3.59,8.49-2.16,13.89-1.9,1.78-5.15,3.62-6.08,4.5a3.91,3.91,0,0,0-.93,1.24L128.7,133l.77-1.29a5.76,5.76,0,0,0,2.45.74c1.69,0,3.5-.61,6.22-3.15,2.55-2.41,2.81-4.07,1.84-5.1-.7-.75-1.74-.72-7.53,1.51-4.88,1.91-8.2,1.82-10.52-.67C118.58,121.5,119.08,116.11,124.65,110.88ZM67.19,193.7,68,194c-.42.94-.49,1.68.38,2.06a4,4,0,0,0,1,.23L85,197.74l0-.07L73.33,187.21a3.59,3.59,0,0,0-.87-.6c-.8-.36-1.33.27-1.66,1l-.77-.34L74.6,177l.77.34c-.45,1-.06,1.56,1.11,2.79L91.61,196A5.21,5.21,0,0,0,93,197.12a.87.87,0,0,0,1.24-.44L95,197l-4.14,9.36-.77-.34a.87.87,0,0,0-.49-1.25,4.33,4.33,0,0,0-1.85-.28l-22.11-.57c-1.69-.07-2,0-2.5,1l-.77-.34Zm-6.77,17.78.8.25c-.29,1,0,1.73,1.52,2.2l19.85,6.15c1.49.47,2.24.14,2.56-.93l.81.25-3.17,10.24-.81-.25c.32-1-.06-1.74-1.59-2.22l-20-6.2a1.71,1.71,0,0,0-2.31,1l-.8-.25ZM51.69,246a6.46,6.46,0,0,0,2.62-.68l12.14-5.16,0-.17-10.43-2c-1.43-.27-2,.13-2.22,1.26l-.83-.16,1.83-9.69.83.16c-.21,1.1.19,1.68,1.77,2L80.81,236l-1.2,6.37a5.57,5.57,0,0,0-2.54.48l-16.35,7,0,.16,13.89,2.65c1.53.29,2.23-.08,2.44-1.17l.82.15L76,261.33l-.82-.15c.2-1.1-.26-1.73-1.84-2l-20.61-3.93a1.72,1.72,0,0,0-2.18,1.26l-.83-.15ZM48.57,291.9l-.84,0,.42-10.72.84,0c-.05,1.12.35,1.67,2,1.73l15.18.6c2.79.11,4-2,4.09-4.88.1-2.56-1.25-4.39-3.65-4.48l-15.26-.6c-1.61-.07-2,.42-2.09,1.53l-.84,0,.4-10.27.84,0c0,1.11.47,1.62,2.07,1.69l15.57.61c1.61.07,3.25,0,3.76-.35,3.31,3.48,5.06,6.52,4.84,12.22s-2.16,9.41-5.8,12.62c-.48-.39-1.81-.57-3.72-.64l-15.68-.62C49.06,290.26,48.61,290.87,48.57,291.9Zm7.5,55.82-.79.17-3.67-17.72a18,18,0,0,0-.74-2.25l6.37-2.81.44.8a2.44,2.44,0,0,0-.86,2.84l1.9,9.14,4.53-.94-1.73-8.34c-.18-.89-.58-1.31-1.41-1.14l-.19-.93,7.6-1.58.2.93c-.79.17-1,.71-.8,1.6l1.72,8.34,5.62-1.17-1.92-9.26a2.44,2.44,0,0,0-2.19-2.29l.1-1,7.49.17a10.73,10.73,0,0,0,.14,2.76l3.62,17.43-.82.17c-.23-1.09-1-1.47-2.29-1.21l-20.71,4.3A1.79,1.79,0,0,0,56.07,347.72Zm11.54,34.33-.79.29-3.63-10.11L64,372c.38,1.05,1.1,1.36,2.61.82l6.54-2.35-3.29-9.17-6.94,2.49a1.54,1.54,0,0,0-1.09,2.15l-.8.28L57.4,356.1l.79-.28c.38,1.05,1.08,1.32,2.59.78l19.45-7c1.48-.52,2-1.13,1.54-2.26l.79-.28,3.62,10.06-.79.29c-.38-1.05-1.14-1.35-2.65-.81l-7.51,2.7,3.29,9.17,7.52-2.7c1.47-.53,1.9-1.25,1.52-2.3l.8-.28L92,373.31l-.79.28c-.36-1-1.13-1.34-2.64-.8L68.7,379.91A1.6,1.6,0,0,0,67.61,382.05Zm33.93,11.48c-.52-1-1.35-1.15-2.77-.4l-16.13,8.58,3,5.53a2.15,2.15,0,0,0,2.38,1l.24,1.18-6.82,1.9a7.07,7.07,0,0,0-.79-2l-9.12-17.07a5.87,5.87,0,0,0-1-1.38l5.39-4.59.83.81a2,2,0,0,0-.58,2.42l3,5.63,16.13-8.57c1.41-.75,1.75-1.49,1.23-2.47l.74-.4,5,9.43Zm8.85-223.93L101,184.72l-.71-.45c.58-1,.28-1.76-.83-2.45l-18-11.14A1.79,1.79,0,0,0,79,171l-.68-.42,9.51-15.36a18.08,18.08,0,0,0,1-2.14l6.54,2.36-.23.87a2.42,2.42,0,0,0-2.57,1.47l-4.91,7.92,3.93,2.44L96,161c.48-.78.48-1.36-.24-1.8l.5-.81,6.6,4.09-.5.81c-.68-.43-1.2-.17-1.68.61l-4.48,7.22,4.88,3,5-8a2.43,2.43,0,0,0,0-3.16l.78-.69,5.32,5.29A10.39,10.39,0,0,0,110.39,169.6Zm4.17-7.93c.66-.8.67-1.59-.58-2.61l-16.3-13.34a1.66,1.66,0,0,0-2.53.07l-.65-.53c1.14-1.52,3.6-4.94,6.27-8.19,5.39-6.57,10.72-10.84,16.81-5.86a8.74,8.74,0,0,1,2.45,9.62,28.73,28.73,0,0,0,8.69,1.94,2.2,2.2,0,0,0,2.11-.94l.65.53-6.1,7.44a34.88,34.88,0,0,1-8.15-2.9c-.26.38-.73,1-1.23,1.62s-.94,1.09-1.34,1.51l4,3.29c1.24,1,2,.92,2.67.06l.65.53-6.8,8.29Zm5.52,212.1V209.44c0-12.14,6.6-18.36,6.6-18.36H171v6.12c-6.28,0-10.91,4.19-10.91,12.24V369.9c0,13.85,9.59,19,19.84,19,10.91,0,20.17-6.12,20.17-19V209.44c0-13,4.56-18.23,4.56-18.23,20.85,0,47-.15,47-.15v6.44c-6.61,0-10.91,4.19-10.91,10.63v192c0,5.81,4.3,10.32,10.91,10.32v6.12c-8.6,1-44.25,5.17-71.7,5.17-31.09,0-51.26-16.11-62.17-29.31C119.75,387,120.08,382.47,120.08,373.77ZM137,455.84l-4.14,9.22-2.3-10.31L120.15,453l9-4.62-2.29-10.3,7.85,7.46,9-4.62-4.13,9.22,7.84,7.45Zm73.49,38.73a2.43,2.43,0,0,0-1.83-2.33l-8.56-3.71-1.84,4.24,7.8,3.38c.84.36,1.41.28,1.75-.49l.87.38-3.08,7.12-.88-.38c.32-.74,0-1.21-.84-1.58l-7.81-3.38-2.28,5.26,8.68,3.76a2.43,2.43,0,0,0,3.13-.47l.79.67-4.46,6a11.23,11.23,0,0,0-2.33-1.47l-16.33-7.08.33-.77c1,.45,1.79,0,2.31-1.16l8.4-19.4a1.79,1.79,0,0,0-.73-2.48l.32-.73,16.6,7.19a17.78,17.78,0,0,0,2.26.69l-1.37,6.82Zm25.28,8.56-1.22-.11a3.52,3.52,0,0,0-.9-2.21c-.78-.87-1.85-1.62-4.59-2.42-3-.87-4.42-.17-4.71.82s.65,2.06,4.64,5.17c3.58,2.79,6.18,5.82,4.93,10.11-1.41,4.84-5.47,7.39-13.05,5.18-2.49-.73-5.74-2.59-7-2.94a4,4,0,0,0-1.54-.18l1-8.82h1.51a5.67,5.67,0,0,0,.61,2.49c.87,1.44,2.31,2.7,5.88,3.74,3.37,1,4.92.37,5.32-1,.29-1-.27-1.87-5.13-5.72-4.14-3.23-5.75-6.12-4.79-9.39,1.36-4.69,6.25-7,13.59-4.86,1.9.55,4.22,1.91,5.29,2.22a4.2,4.2,0,0,0,1.5.2ZM265.64,508a2,2,0,0,0-1.58-1.92l-6.33-1-2.87,18c-.25,1.59.14,2.31,1.24,2.48l-.13.83L245.4,524.7l.13-.83c1.1.17,1.74-.38,2-2l2.87-18-6.21-1a2.16,2.16,0,0,0-2.21,1.32l-1.09-.52,2.59-6.59a6.77,6.77,0,0,0,2.05.55l19.14,3a6.72,6.72,0,0,0,1.71,0l.42,7.06Zm4.46,20.35c-1.81-.14-3.34-1.29-3.19-3.2a3.2,3.2,0,0,1,3.65-2.74,3.12,3.12,0,0,1,3.1,3.26C273.51,527.53,271.91,528.44,270.1,528.3Zm28.53.09,0-.84c1-.06,1.62-.56,1.52-2.39l-.89-16.1a21.85,21.85,0,0,1-5.6,1.31l-.23-4.05c1.69-.25,6.66-1.55,7.64-4.86l5.2-.29a6.79,6.79,0,0,0-.21,2.23l1.18,21.37c.1,1.76.79,2.25,1.82,2.19l.05.84Zm31.63-3c-2.72.48-6.32.77-7.13.91a6.08,6.08,0,0,0-1.55.47l-3.12-7,.86-.38c1.41,1.37,3.53,2,7.88,1.21,4.83-.85,6.95-3.79,6.43-7.26a16.67,16.67,0,0,1-6.51,2.54c-6.87,1.21-11.34-1.57-12.19-6.39-.92-5.27,2.27-10,10.31-11.4,8.46-1.49,13.86,2.57,15.35,11C342.23,518.42,337.45,524.11,330.26,525.37Zm33.45-8.06c-8.46,2.74-14.18-.6-16.85-8.86-2.85-8.84,1.54-15.56,9-18a59.41,59.41,0,0,1,6.16-1.5,6.1,6.1,0,0,0,1.48-.65l3.95,6.32-.77.57c-1.59-1.17-2.91-1.63-7.94,0-4.48,1.45-6.21,4.43-5.34,8a15.48,15.48,0,0,1,5.91-3.36c6.61-2.14,11.56-.64,13.3,4.74C374.21,509.37,371.17,514.9,363.71,517.31Zm30-12.32c-2.49,1.21-5.86,2.47-6.61,2.83a6.54,6.54,0,0,0-1.36.87l-4.91-5.85.72-.6c1.74.94,3.94.93,7.91-1,4.41-2.14,5.65-5.54,4.18-8.74a16.52,16.52,0,0,1-5.55,4.23c-6.27,3-11.33,1.59-13.47-2.81-2.34-4.81-.56-10.21,6.78-13.78,7.72-3.75,14-1.33,17.77,6.36C403.26,495,400.23,501.81,393.66,505ZM288.77,489.38A200,200,0,0,1,171.83,452l1.5-2.1a198.88,198.88,0,0,0,229,1.34l1.47,2.12A200.17,200.17,0,0,1,288.77,489.38Zm160.85-37.13-2.14,10.35-4.28-9.16-10.38,1.91,7.74-7.57-4.29-9.16,9.07,4.47,7.73-7.57L451,445.85l9.06,4.48Zm-53.34-34c-27.45,0-61.69-1-70.29-1.93v-6.12c6.62,0,10.92-4.52,10.92-10.32v-192c0-6.44-4.3-10.63-10.92-10.63v-6.44c10.59-1,45.82-2.26,69.63-2.26,50.93,0,78.38,27.07,78.38,108.58C474,380.53,451.18,418.23,396.28,418.23Zm106.13-17.49c-.91,1.76-2.69,3.76-3.21,4.75a4,4,0,0,0-.48,1.42l-7.32-2.84.35-1.16a3.6,3.6,0,0,0,2.35-.46c1-.59,1.95-1.49,3.26-4,1.45-2.77,1-4.3.12-4.77s-2.15.23-6,3.53c-3.43,2.95-6.91,4.91-10.88,2.84-4.48-2.33-6.2-6.81-2.55-13.79,1.2-2.3,3.66-5.12,4.25-6.25a4,4,0,0,0,.47-1.48l8.47,2.7-.29,1.47a5.88,5.88,0,0,0-2.56.11c-1.59.57-3.1,1.73-4.82,5-1.63,3.11-1.32,4.76-.07,5.41.92.48,1.89.1,6.62-3.9,4-3.42,7.13-4.43,10.15-2.85C504.62,388.73,505.94,394,502.41,400.74Zm10.83-25.28-.79-.29a.89.89,0,0,0-.59-1.27,6.16,6.16,0,0,0-1.9-.16l-21.76-.05c-1.68,0-2,.28-2.36,1.21l-.79-.29,3.85-10.55.79.29c-.37,1-.16,1.65.52,1.9a4,4,0,0,0,1,.1l.68,0a16.15,16.15,0,0,1,3-8.29l-.59-.52a2.37,2.37,0,0,0-.81-.56c-.72-.26-1.19.14-1.49.95l-.79-.29,3.66-10,.79.29c-.35,1-.32,1.33.95,2.41l17.09,14.34a6.72,6.72,0,0,0,1.25.8.86.86,0,0,0,1.23-.56l.79.28ZM524,339.63l-.83-.18c.22-1-.17-1.73-1.66-2.05l-17.94-3.9L501.5,343a2.32,2.32,0,0,0,1.13,2.7l-.51.91-6.76-3.25a8.16,8.16,0,0,0,.91-2.21l3.88-17.72.82.17c-.23,1.06.21,1.74,1.7,2.07l20.63,4.48a1.67,1.67,0,0,0,2.18-1.21l.82.18Zm4.52-29.27-.84-.08c.09-1-.38-1.69-1.91-1.83l-18.27-1.7-.9,9.69a2.33,2.33,0,0,0,1.46,2.54l-.4,1-7.11-2.4a7.91,7.91,0,0,0,.64-2.3l1.66-18,.84.08c-.1,1.06.42,1.69,1.94,1.83l21,1.95a1.68,1.68,0,0,0,2-1.47l.83.08Z"/><path class="cls-3" d="M403.23,221.69c-4.63,0-24,0-26,.32V385c2,.33,21.68.33,24,.33,21.17,0,31.09-24.81,31.09-88.29C432.33,237.48,419.77,221.69,403.23,221.69Z"/><path class="cls-3" d="M326.58,503.56c-3.33.58-5.16,2.11-4.73,4.52.4,2.25,2.53,2.93,5.65,2.38a12.16,12.16,0,0,0,5.25-2.13C332.16,505,330.08,502.94,326.58,503.56Z"/><path class="cls-3" d="M359.73,505.26a11.1,11.1,0,0,0-4.69,2.68c1,3.2,3.19,5.2,6.57,4.1,3.23-1,4.66-3,4-5C364.93,504.86,362.75,504.28,359.73,505.26Z"/></g></svg>