<?xml version="1.0" encoding="utf-8"?>
<!-- Generator: Adobe Illustrator 27.2.0, SVG Export Plug-In . SVG Version: 6.00 Build 0)  -->
<svg version="1.1" id="图层_1" xmlns="http://www.w3.org/2000/svg" xmlns:xlink="http://www.w3.org/1999/xlink" x="0px" y="0px"
	 viewBox="0 0 433.7 439.37" style="enable-background:new 0 0 433.7 439.37;" xml:space="preserve">
<style type="text/css">
	.st0{fill:#115740;}
	.st1{fill:#FFFFFF;}
	.st2{fill:#002554;}
</style>
<g>
	<path class="st0" d="M216.84,4.37C97.93,4.37,1.54,100.77,1.54,219.68S97.93,435,216.84,435c118.92,0,215.32-96.41,215.32-215.32
		S335.77,4.37,216.84,4.37z"/>
	
		<ellipse transform="matrix(0.7071 -0.7071 0.7071 0.7071 -91.8326 217.6782)" class="st1" cx="216.84" cy="219.69" rx="142.94" ry="142.94"/>
	<g>
		<path class="st0" d="M179.39,341.45v-7.79l0.07-3.85l-0.34-0.27l-5.76,1.04v1.3l0.32-0.03c0.56-0.05,2.1-0.15,2.52,0.13
			c0.48,0.32,0.57,1.26,0.58,1.39v8.08c0,1.44-0.03,2.69-0.05,4.16l-3.75,0.01l-0.01,1.5h10.1l0.01-1.51l-3.65,0
			C179.41,344.12,179.39,342.89,179.39,341.45z"/>
		<path class="st0" d="M205.86,337.95c-0.11-0.11-0.31-0.27-0.34-0.42c-0.04-0.27,0.34-0.57,0.38-0.61c1.8-1.15,2.44-2.44,2.44-3.67
			c0-2.29-1.76-4.05-4.85-4.05c-2.9,0-5.19,1.76-5.19,4.55c0,1.76,0.84,3.25,2.75,4.43c0.11,0.08,0.27,0.23,0.23,0.38
			c-0.04,0.15-0.27,0.34-0.31,0.38c-2.1,1.03-3.21,2.33-3.21,4.16c0,2.64,2.1,4.16,5.54,4.16c3.48,0,5.81-1.87,5.81-4.62
			C209.11,340.59,208.08,339.21,205.86,337.95z M200.59,332.99c0-1.72,1.34-2.79,2.86-2.79c1.72,0,2.67,1.37,2.67,3.17
			c0,1.49-0.5,2.6-1.91,3.78C201.32,335.77,200.59,334.44,200.59,332.99z M203.46,346.35c-2.02,0-3.32-1.37-3.32-3.59
			c0-1.76,0.76-2.79,2.33-3.86c3.17,1.49,4.12,2.64,4.12,4.24C206.59,345.05,205.4,346.35,203.46,346.35z"/>
		<path class="st0" d="M229.2,329.2c-3.28,0-5.81,2.14-5.84,5.58c0,3.32,2.29,5.27,5.27,5.27c0.88,0,1.64-0.15,2.33-0.46
			c0.11-0.04,0.42-0.11,0.61,0c0.23,0.15,0.19,0.61,0.15,0.88l-0.04,0.15c-0.95,2.79-3.09,4.74-6.91,6.03l0.15,0.76
			c6.8-1.53,10.12-5.84,10.12-11.08C235.04,331.95,232.87,329.2,229.2,329.2z M232.29,337.23c0,0,0,0.19-0.11,0.42
			c-0.08,0.23-0.31,0.42-0.42,0.53c-0.65,0.38-1.34,0.57-2.18,0.57c-2.06,0-3.55-1.41-3.55-4.32c0-2.83,1.45-4.24,3.13-4.24
			c1.87,0,3.17,1.79,3.17,6.23C232.33,336.69,232.29,336.96,232.29,337.23z"/>
		<path class="st0" d="M256.24,337.79c2.66-0.71,3.95-2.32,3.95-4.34c0-2.49-1.9-4.25-5.2-4.25c-2.56,0-5.65,1.78-5.15,3.61
			c0.24,0.63,0.73,0.85,1.27,0.85c0.83,0,1.29-0.44,1.54-1.56l0.18-0.67l0,0c0,0,0.29-0.52,0.67-0.81c0.5-0.38,1.28-0.39,1.47-0.39
			c1.66,0.23,2.62,1.38,2.62,3.28c0,2.46-1.51,3.78-3.86,3.78h-1v1.07h1.2c2.71,0,4.1,1.42,4.1,3.95c0,2.38-1.23,3.8-3.56,3.96
			l0.04-0.01c0,0-0.72,0.01-1.3-0.22c-0.46-0.18-0.82-0.87-0.88-0.98l-0.18-0.76c-0.32-1.32-0.68-2.03-1.56-2.06
			c-0.61-0.02-1.27,0.25-1.27,1.14c0.2,2.81,2.37,3.88,5.3,3.88c3.71,0,6.13-2.12,6.13-5.05
			C260.73,339.97,259.39,338.31,256.24,337.79z"/>
	</g>
	<g>
		<g>
			<path class="st1" d="M301.96,356.81c-0.99-0.54-2.17-0.99-2.54-0.71c-0.37,0.28-0.55,0.26-0.95,0.9s-0.99,2.1-1.65,1.25
				s-1.19-2.22-1.74-2.57s-1.3-0.4-1.9-0.32c-0.6,0.07-1.15-0.03-1.18,0.38c-0.03,0.42,0.27,2.05,0.59,2.97
				c0.33,0.92,0.78,1.96,0.38,2.48s-2.42,0.69-2.68,1.03c-0.25,0.34-0.81,1-0.25,1.39c0.56,0.39,1.57,0.89,1.58,1.38
				s-0.36,1.7,0,2.24s1.38,1.01,1.89,0.08c0.51-0.93,1.38-0.83,1.28-0.05c-0.1,0.78-0.04,1.45-1.03,2.31
				c-0.99,0.87-2.6,1.25-1.53,1.91s1.9,0.95,2,1.74c0.09,0.8-0.01,1.17-0.22,1.45c-0.21,0.28-0.26,0.59,0.35,0.76
				c0.61,0.17,0.96,0,1.36-0.19c0.4-0.19,0.95-0.44,1.13,0.11c0.18,0.55,0.29,0.92,0.18,1.13c-0.04,0.09-0.91,0.67-1.41,1.79
				c-0.7,1.55-1.69,3.76-3.1,5.22c-2.34,2.44-2.47,2.84-3.21,3.08c-0.6,0.2-0.72,0.1-0.89,0.24c-0.17,0.14-0.27,0.6-0.13,0.81
				c0.14,0.21,0.76,1.8,2.16,1.73c1.41-0.07,2.94-0.53,3.79-1.75c0.86-1.22,5.26-13.02,5.89-13.8s1.76-0.87,1.85-0.48
				c0.09,0.39,0.22,1.33-0.44,2.48c-0.67,1.15-1.38,1.83-1.39,2.09c-0.01,0.26,0.49,1.05,0.77,1.84c0.26,0.72,0.15,1.07,0.56,1.57
				s0.88,0.92,0.9,1.03s-0.5,1.51-1.49,3.39s-1.24,2.22-1.71,2.65s-1.05,0.71-1.01,1.01c0.03,0.29,0.47,0.9,1.18,0.94
				c0.72,0.04,1.29-0.04,1.62-0.43c0.34-0.39,0.73-1.69,1.47-2.98c0.74-1.3,0.9-1.87,1.14-2.05c0.24-0.18,1.23-0.05,1.63,0.73
				c0.4,0.77,0.56,1.59-0.03,2.53c-0.59,0.94-1.68,1.51-1.73,1.73s0.2,1.14,1.66,1.13c1.46-0.01,1.97-0.45,2.58-0.76
				s1.36-0.19,1.8-0.63s0.86-1.99,0.16-3.42c-0.7-1.43-1.09-2.07-1.63-2.74c-0.54-0.67-1.82-2.14-1.04-2.99s1.1-1.08,1.46-1.22
				s1.2-1.06,0.95-1.71c-0.25-0.64-1.07-1.23-1.48-0.96c-0.41,0.27-0.83,1.55-1.39,2.13s-1.39,1.38-2.17,0.78
				c-0.78-0.59-1.44-1.33-1.53-1.65c-0.09-0.32,0.68-1.26,1.23-2.63c0.55-1.37,1.53-4.45,0.99-5.96c-0.54-1.52-1.27-1.67-1.64-1.53
				s-1.92,1.23-2.45,0.55c-0.53-0.68-0.49-1.46,0.15-2.93c0.65-1.47,0.84-2.56,0.84-3.03c0-0.47-0.04-0.93,0.46-1.39
				c0.51-0.46,1.64-0.98,1.25-1.94C303.28,358,302.95,357.36,301.96,356.81z M298.38,365.94c-0.16,0.45-0.4,1.14-0.96,1.29
				c-0.56,0.15-0.87-0.02-0.94-0.32c-0.08-0.32,0.08-1.34,0.88-1.83C297.97,364.71,298.54,365.49,298.38,365.94z M299.89,361.42
				c-0.07,0.28-0.22,0.61-0.64,0.77c-0.42,0.16-0.68,0.02-0.76-0.03c-0.07-0.05-0.23-0.19,0.02-0.51s0.68-0.64,0.9-0.68
				C299.62,360.93,299.96,361.15,299.89,361.42z"/>
			<path class="st1" d="M287.27,380.3c-0.05-0.07,0-0.34,0.25-0.53c0.25-0.19,0.71-1.47-0.24-2.59c-0.95-1.12-2.26-2.23-2.36-2.52
				c-0.1-0.29-0.14-0.68,0.58-1.08c0.73-0.39,1.16-0.72,1.04-1.25c-0.12-0.53-0.34-0.64-0.16-0.96c0.18-0.31,0.56-0.72,1.94-0.27
				s2.25,1.45,2.48,1.77c0.23,0.31,0.5,0.74,0.17,1.77c-0.32,1.02-1.09,2.09-0.98,2.63c0.11,0.53,0.54,0.85,0.57,1.15
				c0.03,0.29,0.08,2.01-0.38,2.57c-0.46,0.56-1.35,0.47-1.94,0.09C287.65,380.7,287.44,380.53,287.27,380.3z"/>
		</g>
		<g>
			<path class="st1" d="M153.85,361.75c0.68-1.18,0.88-1.37,0.61-2.02c-0.27-0.69-1.11-1.6-1.68-2.17
				c-0.57-0.57-1.11-0.72-1.68-0.88c-0.57-0.12-0.72,0.3-0.76,0.46c-0.04,0.19-0.19,1.48-0.91,3.71c-0.69,2.21-3.33,8.02-3.82,8.93
				c-0.46,0.92-0.65,0.96-1.08,1.23c-0.37,0.23-8.17-0.19-12.14-0.39c-3.97-0.15-5-0.37-6.45-0.76c-1.48-0.42-1.53-0.57-1.91-0.69
				c-0.35-0.07-0.65,0.65-0.65,0.65s0.08,0.27,0.3,0.84c0.27,0.53,1.3,1.45,1.57,1.98c0.3,0.54,0.72,1.31,0.92,1.41
				c0.19,0.12,0.88-0.3,2.41-0.49c1.52-0.19,3.59-0.12,4.35,0.12c0.76,0.22,0.81,0.46,0.76,0.69c-0.07,0.22-0.3,0.3-1.37,1.75
				c-1.08,1.45-1.3,3.25-1.26,3.62c0.03,0.39,0.64,0.54,0.76,0.57c0.08,0.05,0.54,0,1.45-0.22c0.89-0.27,2.19-1.38,2.61-1.57
				c0.37-0.23,1.3-0.05,1.57,0c0.26,0.04,0.61,0.19,0.57,0.42c0,0.26-0.65,1.79-1.38,2.63c-0.76,0.84-3.37,1.15-9.13,1.75
				c-5.73,0.62-9.32-1.06-9.7-1.22c-0.42-0.15-0.46-0.46-0.49-0.5c-0.08-0.04-0.32,0.08-0.5,0.23c-0.15,0.12-0.54,0.72-0.19,1.95
				c0.37,1.18,1.18,2.02,1.83,2.33c0.64,0.3,5.84,0.72,9.32,0.49c3.44-0.26,10.92-2.63,11.38-2.71c0.46-0.11,0.91-0.11,1.03-0.04
				c0.07,0.08,0.54,2.1,0.64,3.97c0.12,1.91-0.04,6.34,0,6.57c0.05,0.23,0.69,0.46,0.84,0.54c0.2,0.07,0.5,0.12,0.96-0.08
				c0.42-0.15,1.41-0.91,1.68-1.15c0.27-0.22,0.57-0.54,0.69-0.79c0.15-0.27,0.72-1.77,1.91-4.28c1.22-2.56,2.71-4.85,2.78-5.12
				c0.12-0.27-0.07-0.42-0.26-1.04c-0.2-0.61-0.2-0.95-0.32-1.25c-0.11-0.35-0.34,0.04-0.37,0.07c0,0.08,0,0.04-0.54,1.23
				c-0.54,1.18-1.99,3.51-2.37,3.93c-0.34,0.42-1.03,0.69-1.22,0.27c-0.19-0.37-0.3-2.29-0.12-4.4c0.19-2.09,1.48-6.07,1.91-7.06
				c0.42-1.03,1.11-0.69,1.5-0.65c0.42,0,1.91,0.12,2.41-0.11c0.46-0.23,0.72-0.42,0.8-1.31c0.12-0.88-0.84-0.88-1.18-0.88
				c-0.34,0.05-1.38-0.22-1.53-0.68c-0.19-0.42-0.11-0.57,1.34-3.4C151.17,365.42,153.12,362.94,153.85,361.75z M139.55,374.85
				c-0.08,0.65-1.02,1.96-1.45,2.13c-0.32,0.13-0.63,0.14-1.7-0.69c-1.05-0.83-1.33-2.13-1.1-2.33c0.23-0.2,0.58-0.39,1.44-0.35
				c0.9,0.04,1.69,0.18,2.26,0.41C139.55,374.25,139.61,374.34,139.55,374.85z M142.87,376.54c-0.49,1.19-0.95,1.99-1.22,2.2
				c-0.27,0.2-0.61-0.49-0.7-1.04c-0.08-0.5-0.26-0.94,0.02-1.91c0.29-0.97,0.74-1.55,1.11-1.74c0.37-0.2,0.97-0.02,1.11,0.25
				C143.34,374.56,143.36,375.34,142.87,376.54z"/>
			<path class="st1" d="M123.48,378.71c0.15-0.38,0.88-0.31,1.22-0.34c0.34,0,1.22-0.23,2.02-0.73c0.84-0.46,1.15-1.26,1.41-1.11
				c0.23,0.15,0.31,1.6,0.27,3.02c0,1.37-1.37,1.22-1.72,1.26c-0.38,0-3.17,0.04-3.51-0.23
				C122.83,380.28,123.37,379.09,123.48,378.71z"/>
			<path class="st1" d="M136.16,364.69c0.04-0.19,0.19-0.23,0.31-0.27c0.11-0.04,0.5,0.31,1.64,0.57c1.11,0.27,3.17,0.31,3.97,0.19
				c0.8-0.15,1.87-0.23,2.71,0.27c0.84,0.53,0.42,2.44,0.15,2.98c-0.27,0.53-1.03,0.42-2.18,0.46c-1.11,0.04-2.79,0.27-3.32,0.27
				c-0.53-0.04-1.53-0.57-2.44-1.79C136.08,366.15,136.08,364.85,136.16,364.69z"/>
			<path class="st1" d="M158.58,372.18c-0.84,2.37-3.48,2.06-4.09,2.02c-0.65-0.04-0.84-0.31-0.84-0.38c0-0.08,1.15-1.91,1.64-3.13
				c0.5-1.26,0.27-3.48,0.27-3.48s0.92,0.34,1.57,0.76C157.74,368.44,159.42,369.81,158.58,372.18z"/>
		</g>
		<g>
			<path class="st1" d="M187.99,392.54c-0.8,0.84-1.22,2.64-2.25,5.81c-1.07,3.21-1.76,7.33-2.14,8.94c-0.38,1.6-0.84,2.79-2.14,2.6
				c-1.26-0.19-2.41-2.37-2.56-3.09c-0.15-0.73,0.27-1.3,0.73-1.91c0.42-0.61,1.22-2.83,1.83-4.7c0.57-1.83,0.57-4.97,1.11-6.23
				c0.23-0.53,1.11-2.25,1.34-3.82c0.23-1.6,0.46-3.4,0.73-3.7c0.19-0.19,0.42-0.31,0.65-0.31c0.27,0,0.65,0.19,1.15,0.84
				c0.53,0.65,0.76,1.3,1.03,1.91c0.27,0.65,0.46,1.07,0.92,1.11c0.46,0.08,0.76-0.34,0.8-0.34c0.08,0,0.34,0.19,0.34,0.76
				C189.52,391.01,188.83,391.66,187.99,392.54z"/>
			<path class="st1" d="M185.7,374.4c0.15-0.31,0.57-0.95,0.95-0.88c0.42,0.11,0.99,1.53,1.45,2.83c0.53,1.45,0.69,2.98,0.23,3.93
				c-0.42,0.95-1.45,1.68-1.99,2.52c-0.53,0.88-0.57,1.3-0.99,1.53c-0.38,0.27-0.65,0.38-0.76,0.19c-0.11-0.15,0.04-3.17,0.23-4.24
				c0.27-1.26,0.8-1.91,0.8-3.25C185.62,375.69,185.58,374.7,185.7,374.4z"/>
			<path class="st1" d="M204.26,408.65c-0.53,0.08-2.18-0.88-2.67-1.03c-0.5-0.11-0.8-0.23-0.73-0.42c0.04-0.15,0.27-0.46,0.73-0.8
				c0.46-0.34,0.95-0.92,1.03-1.37c0.11-0.42-0.69-1.72-0.76-2.18c-0.04-0.46,0.15-1.18,0.19-1.26c0.04-0.11,0.11-0.19,0.5-0.15
				c0.38,0,0.76,0.31,1.45,0.92c0.73,0.65,1.03,2.02,1.57,2.94s0.73,0.8,0.69,1.49C206.17,407.43,204.79,408.58,204.26,408.65z"/>
			<path class="st1" d="M207.89,377.68c0.96-1.15,1.15-2.07,1.03-2.71c-0.11-0.65-0.57-1.23-1.25-1.65
				c-0.74-0.42-1.61,0.27-1.65,0.5c-0.12,0.34,0,0.57-0.23,1.75c-0.22,1.23-0.68,1.75-1.75,2.14c-1.11,0.42-1.79-1.6-2.1-1.91
				c-0.26-0.3-0.42,0.37-0.46,0.91c-0.07,0.57,0.12,2.9-0.3,3.02c-0.39,0.12-1.23-1.57-1.72-1.94c-0.19-0.12-0.49,0.04-0.81,0.37
				c-0.3,0.35-0.3,0.96-0.42,1.92c-0.07,0.95-0.15,1.22-1.22,2.24c-1.03,1.04-5.27,2.07-5.46,2.14c-0.08,0.05-0.15,0.12-0.15,0.2
				c0,0.12,0.07,0.42,0.57,0.99c0.49,0.57,1.33,0.99,1.94,1.1c0.65,0.12,1.08,0.2,1.34,0.84c0.26,0.69,0.04,2.49-0.05,3.33
				c-0.07,0.88-0.84,1.64-1.91,2.4c-1.08,0.77-1.5,1.77-1.5,2.49c-0.03,0.76,1.73,1.57,2.61,1.41c0.84-0.15,1.75-0.92,1.99-1.11
				c0.22-0.23,0.57-0.3,0.72-0.19c0.15,0.11,0.57,0.64,0.64,1.48c0.04,0.84-1.3,1.72-1.87,1.99c-0.57,0.27-1.18,0.12-1.53,0.04
				c-0.34-0.04-0.42,0.12-0.49,0.27c-0.04,0.15,0.15,0.61,0.49,0.88c0.32,0.3,1.65,0.12,1.83,0.27c0.15,0.12,0.5,0.57,0.42,1.5
				c-0.03,0.91-1.83,2.24-2.44,3.05c-0.64,0.76,0.46,0.81,1.08,0.57c0.64-0.27,2.09-1.15,3.13-2.26c1.06-1.06,1.75-3.4,1.75-3.4
				s0.99,0.15,2.1,0.08c1.06-0.12,2.09-0.65,3.28-1.48c1.22-0.89,2.09-1.8,2.21-2.14c0.12-0.32-0.19-0.77-1.11-1.15
				c-0.88-0.39-1.99-0.5-2.63-0.5c-0.69-0.04-0.57,0.88-0.69,1.41c-0.08,0.49-0.57,1.06-1.64,1.41c-1.08,0.34-0.74-0.84-0.42-1.23
				c0.37-0.49,1.03-1.15,2.24-2.63c1.19-1.53,1.11-2.37,0.81-2.98c-0.3-0.61-0.61-1.84-0.39-2.14c0.23-0.34,0.42-0.27,1.57-0.99
				c1.15-0.72,1.15-1.23,0.72-2.29c-0.37-1.08-2.56-1.3-2.98-1.75c-0.37-0.47-0.15-1.46,0.32-2.41
				C203.99,380.55,206.89,378.79,207.89,377.68z M196.52,385.51c0.25-0.32,0.67-0.5,1.37-0.51c0.7-0.02,1.19,0.08,1.39,0.65
				c0.21,0.57-0.07,0.89-1.15,0.96C197.06,386.68,196.28,385.83,196.52,385.51z M197.06,394.2c-1.02-0.01-1.04-0.34-1.1-0.53
				c-0.06-0.18,0.18-0.75,0.75-0.94c0.57-0.19,1.05-0.06,1.27,0.07c0.22,0.12,0.82,0.65,0.82,0.65S198.08,394.21,197.06,394.2z
				 M199.6,391.14c-0.36,0.23-1.17,0.42-1.58,0.13c-0.41-0.28-0.3-0.62-0.3-0.62c0.11-0.56,1.13-1.08,1.71-0.69
				C200,390.34,199.95,390.89,199.6,391.14z"/>
		</g>
		<path class="st1" d="M257.96,397.05c-1.55,0.34-2.51-0.38-2.6-0.8c-0.08-0.46-0.25-0.96-0.67-1.26c-0.46-0.34-1.84-0.42-2.43-0.46
			c-0.59-0.04-0.67,0.59-0.84,1.09c-0.13,0.5-2.26,4.11-3.02,4.99c-0.75,0.92-2.1,0.88-2.72,0.17c-0.63-0.67-0.21-1.59,1.26-3.23
			c1.51-1.63,2.6-3.98,2.6-4.48c0-0.5-0.21-1.21-0.34-1.26c-0.13-0.08-0.34,0-0.71,0.21c-0.42,0.17-1.47,1.05-1.89,1.55
			c-0.46,0.5-1.01,0.92-1.42,1.09c-0.46,0.17-0.92,0.13-1.22-0.13c-0.29-0.21-0.75-0.67-1.01-1.05c-0.25-0.42-0.17-0.88,0.25-1.55
			c0.38-0.63,1.34-0.59,1.51-0.59c0.21,0.04,0.71-0.04,1.93-0.54c1.17-0.46,1.55-0.71,1.8-0.96c0.21-0.21,0.59-0.75,0.88-1.76
			c0.29-0.96-0.17-2.89-0.5-3.81c-0.29-0.88-1.05-1.47-1.22-1.68c-0.17-0.17-0.08-0.38-0.08-0.96c0-0.54-0.13-1.01-0.17-1.34
			c-0.04-0.34,0.5-0.63,0.8-0.67c0.29-0.04,1.09,0.42,1.34,0.63c0.25,0.17,0.59,0.04,0.92-0.04c0.33-0.04,0.63,0.13,1.26,0.5
			c0.63,0.38,0.71,0.71,0.71,1.09c-0.04,0.38-0.8,1.89-0.75,2.26c0.08,0.42,0.59,1.89,0.8,1.93c0.25,0.04,0.29-0.46,0.59-0.75
			c0.25-0.34,1.13-0.59,2.05-0.38c0.92,0.25,1.26,0.84,1.26,1.22c0.04,0.38-0.25,0.92-1.63,2.1c-1.38,1.21-2.01,1.72-2.3,2.51
			c-0.29,0.8,0,1.26,0.59,1.68c0.63,0.38,2.51-0.04,3.27-0.21c0.8-0.21,1.89,0.21,2.85,0.96c0.96,0.75,1.13,2.14,1.09,2.56
			C260.18,396.05,259.51,396.68,257.96,397.05z"/>
	</g>
	<path class="st1" d="M367.75,299.91v-60.08c15.63-7.6,17.15-37.7,18.19-41.06c-1.38,0.84-12.57,12.95-26.51,13.1H216.84H74.26
		c-13.94-0.15-25.13-12.26-26.51-13.1c1.04,3.37,2.56,33.47,18.19,41.06v60.08H44.36l27.22,27.31h145.26H362.1l27.22-27.31H367.75z"
		/>
	<path class="st1" d="M216.85,425.87c-113.69,0-206.19-92.49-206.19-206.19S103.16,13.5,216.85,13.5s206.19,92.49,206.19,206.19
		S330.54,425.87,216.85,425.87z M216.85,19.34c-110.47,0-200.34,89.87-200.34,200.34c0,110.47,89.87,200.34,200.34,200.34
		c110.47,0,200.34-89.87,200.34-200.34C417.19,109.22,327.32,19.34,216.85,19.34z"/>
	<g>
		<g>
			<path class="st2" d="M312.06,205.95c1.45-1.7,2.91-3.54,4.25-5.35H117.39c1.34,1.81,2.8,3.65,4.28,5.35H312.06z"/>
		</g>
		<g>
			<path class="st2" d="M212.24,121.55h1.42c-1.25,2.09-2.8,9.71,0.11,16.11h0c-0.35,0-0.63,0.29-0.63,0.63v0
				c0,0.35,0.29,0.63,0.63,0.63h0.94l0,0h4.52l0,0h0.7c0.35,0,0.63-0.29,0.63-0.63v0c0-0.35-0.28-0.63-0.63-0.63h0
				c2.91-6.4,1.36-14.02,0.11-16.11h1.42c0.45,0,0.81-0.37,0.81-0.81s-0.37-0.81-0.81-0.81h-0.09v-0.18c0-1.19-0.83-2.19-1.94-2.46
				c0.35-0.32,0.58-0.79,0.58-1.31v-0.24l0-0.34c0.31-0.04,0.54-0.31,0.54-0.63c0-0.35-0.29-0.63-0.63-0.63h-0.63v-0.11
				c0-0.72-0.57-1.32-1.28-1.37h-2.32c-0.71,0.04-1.28,0.64-1.28,1.37v0.11h-0.63c-0.35,0-0.63,0.29-0.63,0.63
				c0,0.31,0.23,0.58,0.53,0.63l0.01,0.32v0.27c0,0.52,0.22,0.98,0.58,1.31c-1.11,0.27-1.94,1.27-1.94,2.46v0.18h-0.09
				c-0.45,0-0.81,0.37-0.81,0.81S211.79,121.55,212.24,121.55z"/>
		</g>
		<g>
			<g>
				<rect x="210.16" y="185.18" class="st2" width="13.44" height="4.78"/>
			</g>
			<g>
				<g>
					<g>
						<polygon class="st2" points="171.53,186.48 171.53,191.75 161.48,196.64 161.48,191.33 						"/>
					</g>
					<g>
						<polygon class="st2" points="262.18,186.48 262.18,191.75 272.22,196.64 272.22,191.33 						"/>
					</g>
				</g>
				<g>
					<g>
						<rect x="227.36" y="185.18" class="st2" width="13.44" height="4.78"/>
					</g>
					<g>
						<rect x="244.59" y="185.18" class="st2" width="13.44" height="4.78"/>
					</g>
					<g>
						<rect x="175.68" y="185.18" class="st2" width="13.44" height="4.78"/>
					</g>
					<g>
						<rect x="192.9" y="185.18" class="st2" width="13.44" height="4.78"/>
					</g>
				</g>
			</g>
		</g>
		<g>
			<g>
				<polygon class="st2" points="74.05,321.76 359.66,321.76 366.5,314.92 67.2,314.92 				"/>
			</g>
			<g>
				<polygon class="st2" points="65.32,313.07 368.38,313.07 375.19,306.25 58.51,306.25 				"/>
			</g>
			<g>
				<polygon class="st2" points="148.53,295.82 285.18,295.82 284.1,292.61 149.6,292.61 				"/>
			</g>
			<g>
				<polygon class="st2" points="146.53,301.84 287.18,301.84 286.1,298.63 147.6,298.63 				"/>
			</g>
			<g>
				<polygon class="st2" points="151.63,286.59 150.53,289.8 283.18,289.8 282.07,286.59 				"/>
			</g>
		</g>
		<g>
			<g>
				<path class="st2" d="M148.23,213.08v-3.07h-7.3v5.13C143.65,214.79,146.09,214.04,148.23,213.08z"/>
			</g>
			<g>
				<path class="st2" d="M130.26,213.72c1.67,1.07,3.65,1.54,5.87,1.65v-5.35h-7.27v2.74C129.33,213.11,129.8,213.41,130.26,213.72z
					"/>
			</g>
			<g>
				<path class="st2" d="M303.61,213.72c0.41-0.25,0.82-0.55,1.23-0.85v-2.85h-7.27v5.35C299.85,215.28,301.88,214.81,303.61,213.72
					z"/>
			</g>
			<g>
				<path class="st2" d="M292.77,215.11v-5.1h-7.27v3.02C287.61,213.99,290.06,214.76,292.77,215.11z"/>
			</g>
		</g>
		<g>
			<path class="st2" d="M72.66,233.33h288.39c8.81,0,14.17-17,14.17-17s-13.9,8.36-24.54,1.65c-10.64-6.72-22.24-27.31-22.24-27.31
				s-11.6,20.6-22.24,27.31c-10.64,6.72-24.54-1.64-24.54-1.64s1.9,6.66,5.63,11.65h-6.18c-0.82-1.65-1.87-4.36-2.53-6.14
				c-1.54-4.14-2.63-8.39-3.4-11.82h-1.67v17.97h-4.67V210h-7.21v17.98h-4.88V210h-7.21v17.98h-4.88V210h-7.21v17.98h-4.88V210
				h-7.21v17.98h-4.85V210h-7.29v17.98h-4.85V210h-7.21v17.98h-4.88V210h-7.21v17.98h-4.88V210h-7.21v17.98h-4.88V210h-7.21v17.98
				h-4.64v-17.97h-1.67c-0.77,3.43-1.87,7.68-3.4,11.82c-0.66,1.78-1.5,4.5-2.33,6.14h-6.15c3.73-4.98,5.43-11.65,5.43-11.65
				s-13.9,8.36-24.54,1.64c-10.64-6.72-22.24-27.31-22.24-27.31s-11.6,20.59-22.24,27.31c-10.64,6.72-24.54-1.65-24.54-1.65
				S63.85,233.33,72.66,233.33z"/>
		</g>
		<g>
			<path class="st2" d="M153.5,188.54l18.68-9.07h89.34l18.68,9.07c14.35-2.25,19.52-18.76,19.52-18.76
				c-9.91,10.43-32.11,6.98-28.36-3.37c3.27-8.48,1.67-14.02,1.67-14.02c-4.35,7.9-11.85,10.39-16.76,10.53
				c-5.74,0.16-10.16-3.34-10.16-3.34v-9.84l2.57-1.82v-9.09h-8.01v4.27h-9.29h-9.61v-2.12h-10.03v2.12h-9.43h-9.42v-4.27h-7.88
				v9.09l2.57,1.82v9.84c0,0-4.41,3.5-10.16,3.34c-4.9-0.14-12.41-2.63-16.76-10.53c0,0-1.6,5.53,1.67,14.02
				c3.75,10.35-18.45,13.8-28.36,3.37C133.98,169.78,139.15,186.29,153.5,188.54z"/>
		</g>
		<g>
			<g>
				<path class="st2" d="M72.94,239.03v62.83h64.85v-62.83H72.94z M95.51,261.87H85.35v-10.16h10.16V261.87z M110.45,261.87h-10.16
					v-10.16h10.16V261.87z M125.42,261.87h-10.16v-10.16h10.16V261.87z"/>
			</g>
			<g>
				<path class="st2" d="M295.91,239.03v62.83h64.85v-62.83H295.91z M318.45,261.87h-10.16v-10.16h10.16V261.87z M333.42,261.87
					h-10.16v-10.16h10.16V261.87z M348.39,261.87h-10.16v-10.16h10.16V261.87z"/>
			</g>
		</g>
		<g>
			<path class="st2" d="M221.61,238.84v-3.28l-9.55,0.04v3.25h-65.69l-0.08,44.34h141.05l0.08-44.34H221.61z M194.76,244.19h17.3
				v3.86h-17.3V244.19z M155.42,278.94h-3.78v-27.42h3.78V278.94z M183.8,278.87h-24.86v-23.95l5.12-3.36h14.97l4.77,3.36V278.87z
				 M183.8,248.04h-24.86v-3.86h24.86V248.04z M190.98,278.94h-3.78v-27.38h3.78V278.94z M190.98,248.04h-3.78v-3.86h3.78V248.04z
				 M227.64,278.94h-1.68v-17.03h-17.84v17.03h-1.68v-18.29h21.2V278.94z M239.48,278.94h-10.12V258.7h-24.83v20.24h-10.04v-24.06
				l5.08-3.32c0,0,34.18,0,34.34,0l5.58,3.32V278.94z M239.48,248.04l-17.87-0.04v-3.86l17.87,0.04V248.04z M246.74,278.87h-3.9
				v-27.31h3.9V278.87z M246.74,247.97h-3.9v-3.9h3.9V247.97z M274.96,278.87H250.1v-24.18l4.89-3.13h14.86l5.12,3.28V278.87z
				 M274.96,248.04H250.1v-3.86h24.86V248.04z M282.18,278.94h-3.86v-27.38h3.86V278.94z"/>
		</g>
	</g>
	<g>
		<path class="st1" d="M50.63,142.23l-2.33-0.79l-3.11,9.17l2.33,0.79l1.61-3.11l14.5,9.63L46,157.41l0.76-3.76l-2.34-0.79
			l-3.67,10.82l2.34,0.79l0.62-1.28c0.53-1.11,1.94-1.45,2.93-0.73l12.22,8.99l-17.22-1.3l0.69-3.43l-2.34-0.79l-3.68,10.84
			l2.34,0.79l0.5-1.04c0.57-1.2,1.81-1.93,3.13-1.85l24.14,1.39l0.74-2.17l-17-12.13l21,0.35l0.75-2.21l-21.86-14.34L50.63,142.23z"
			/>
		<path class="st1" d="M78.82,122.42l-11.55-7.08l1.36-3.12l-2.1-1.29l-5.32,8.68l2.1,1.29l1.11-1.34c0.83-1.01,2.27-1.25,3.38-0.57
			l8.7,5.33c2.94,1.8,4.72,3.51,5.44,5.2c0.66,1.57,0.45,3.16-0.69,5.01c-1.46,2.38-3.98,4.6-10.55,0.57l-2.73-1.67
			c-2.37-1.45-5.46-3.35-8.52-5.31l1.66-3.62L59,123.21l-6.19,10.1l2.11,1.29l0.58-0.74c0.81-1.03,2.26-1.3,3.39-0.63
			c2.46,1.47,4.82,2.9,6.71,4.06l3.74,2.29c2.52,1.54,4.88,2.31,7.02,2.31c3.12,0,5.78-1.63,7.76-4.86
			c1.55-2.52,1.96-5.01,1.24-7.39C84.55,127.01,82.35,124.58,78.82,122.42z"/>
		<path class="st1" d="M107.28,102.43c-2.73-2.44-5.41-4.92-7.46-6.82l-1.46-1.36c-2.06-1.92-4.75-4.42-7.36-6.93l2.12-2.91
			l-1.81-1.68l-8.04,8.66l1.81,1.68l0.99-0.84c1-0.85,2.47-0.82,3.45,0.06c1.92,1.74,3.74,3.41,5.24,4.81l-7.95,8.57
			c-2.76-2.56-4.9-4.58-6.84-6.45l2.11-2.9l-1.81-1.68l-8.04,8.66l1.81,1.68l1-0.85c1-0.85,2.47-0.82,3.45,0.06
			c2.12,1.92,4.14,3.78,5.76,5.29l1.46,1.36c1.72,1.6,3.69,3.43,5.7,5.34c0.95,0.9,1.09,2.37,0.32,3.44l-0.77,1.06l1.81,1.68
			l8.04-8.66L98.98,112l-2.74,2.33c-2.35-2.11-4.76-4.33-7.42-6.79l7.95-8.57c2.02,1.88,3.9,3.63,5.67,5.3
			c0.95,0.9,1.09,2.37,0.31,3.43l-0.77,1.06l1.81,1.68l8.04-8.66l-1.81-1.68L107.28,102.43z"/>
		<path class="st1" d="M129.86,82.42l-19.92-14.45l-2.47,1.79l7.5,23.4c0.37,1.16,0.06,2.43-0.8,3.29l-1,1l1.44,1.99l7.9-5.74
			l-1.45-1.99l-3.26,1.72l-1.89-5.84l6.79-4.92l4.99,3.66l-2.71,2.53l1.45,1.99l9.25-6.72l-1.45-1.99l-0.88,0.48
			C132.25,83.24,130.89,83.16,129.86,82.42z M120.36,80.96l-5.34,3.88L111.7,74.6L120.36,80.96z"/>
		<path class="st1" d="M151.45,48.09l-1.05-2.22l-9.26,4.37l1.05,2.23l2.02-0.65c1.09-0.35,2.28,0.16,2.77,1.2l6.05,12.83
			l-20.27-11.66l-6.02,2.84l1.05,2.23l0.48-0.12c1.51-0.38,3.08,0.37,3.75,1.78l7.39,15.68c0.48,1.02,0.14,2.23-0.79,2.85
			l-1.15,0.77l1.05,2.22l9.26-4.37l-1.05-2.23l-3.94,1.25l-7.62-16.16l22.48,12.79l1.82-0.86l-10.79-22.89L151.45,48.09z"/>
		<path class="st1" d="M225.67,36.58l1.81,0.29c1.3,0.21,2.24,1.35,2.2,2.66l-0.42,13.9l-12.78-19.59l-6.65-0.2l-0.07,2.47
			l0.48,0.11c1.52,0.35,2.58,1.72,2.53,3.28l-0.53,17.33c-0.03,1.12-0.88,2.05-2,2.18l-1.38,0.16l-0.07,2.46l10.24,0.31l0.07-2.46
			l-4.08-0.68l0.54-17.86l14.24,21.6l2.02,0.06l0.77-25.3l3.32-0.42l0.07-2.45l-10.24-0.31L225.67,36.58z"/>
		<path class="st1" d="M244.5,38.37l2.08,0.65c0.78,0.24,1.26,1.03,1.13,1.83c-0.52,3.05-1.05,6-1.52,8.55l-0.36,1.96
			c-0.46,2.48-0.99,5.33-1.57,8.25c-0.19,0.96-1.07,1.63-2.05,1.57l-1.88-0.12l-0.45,2.43l11.64,2.15l0.45-2.43l-1.8-0.56
			c-0.94-0.29-1.51-1.23-1.35-2.2c0.52-3.03,1.05-5.95,1.47-8.26l0.36-1.96c0.47-2.56,1.02-5.51,1.62-8.53
			c0.16-0.8,0.89-1.36,1.71-1.31l2.17,0.14l0.45-2.43l-11.64-2.15L244.5,38.37z"/>
		<path class="st1" d="M288.81,50.54l0.8-2.33l-9.27-3.19l-0.86,2.52l2.99,1.4l-11.17,14.87l0.13-18.7l3.47,0.86l0.87-2.52
			l-10.85-3.73l-0.8,2.34l0.96,0.46c1.12,0.54,1.83,1.67,1.85,2.91l0.27,24.98l2.18,0.75l14.79-19.66c0.74-0.99,1.99-1.47,3.21-1.24
			L288.81,50.54z"/>
		<path class="st1" d="M298.61,81.34l-6.02-3.35c1.5-2.81,3.07-5.66,4.81-8.78l3.09,1.72c0.72,0.4,1.03,1.27,0.72,2.03l-0.89,2.24
			l2.26,1.26l5.07-9.11l-2.26-1.26l-1.48,1.97c-0.49,0.65-1.39,0.85-2.1,0.45l-3.07-1.71c1.3-2.34,2.96-5.29,4.65-8.2l5.33,2.97
			c1.12,0.62,1.62,1.96,1.19,3.16l-1.01,2.85l2.67,1.48l3.66-7.2l-17.64-9.81l-1.2,2.16l1.07,0.77c1.06,0.77,1.39,2.21,0.77,3.36
			c-1.36,2.52-2.69,4.92-3.76,6.85l-0.97,1.75c-1.08,1.94-2.42,4.35-3.84,6.81c-0.65,1.14-2.05,1.62-3.26,1.12l-1.22-0.5l-1.2,2.16
			l18.32,10.18l4.19-6.91l-2.67-1.48l-1.88,2.36C301.13,81.68,299.73,81.96,298.61,81.34z"/>
		<path class="st1" d="M335.95,86.94c1.47-1.82,1.97-3.9,1.44-6.02c-0.52-2.07-2.03-4.16-4.38-6.06l-8.79-7.1l-1.55,1.92l0.92,0.94
			c0.92,0.94,0.99,2.42,0.18,3.45c-1.73,2.19-3.4,4.28-4.88,6.1l-1.26,1.55c-1.39,1.72-3.12,3.85-4.93,6.04
			c-0.84,1.02-2.31,1.26-3.43,0.55l-1.1-0.69l-1.55,1.92l9.21,7.44l1.55-1.92l-2.52-2.59c1.94-2.49,3.96-5,6.02-7.55l1.15,0.93
			c2.35,1.9,2.95,3.07,1.61,5.83l-2.89,6.03c-0.94,1.96-0.49,3.39,1.61,5.08c0.89,0.72,1.75,1.23,2.62,1.56l0.29,0.11l1.48-1.83
			l-0.94-0.97c-0.74-0.76-0.94-1.89-0.52-2.86l1.67-3.83c1.08-2.49,1.22-4.4,0.42-6.1C330.7,90.16,333.9,89.48,335.95,86.94z
			 M324.59,84.43l-2.01-1.62c2.23-2.76,4.27-5.27,6.33-7.72l2.28,1.84c1.43,1.15,2.23,2.34,2.39,3.51c0.15,1.14-0.27,2.3-1.29,3.57
			C330.22,86.56,327.41,86.72,324.59,84.43z"/>
		<path class="st1" d="M346.84,104.4l-0.56-1.56c-1.05-2.92-0.82-4.78,0.79-6.22c0.96-0.86,2.06-1.22,3.19-1.05
			c1.09,0.17,2.16,0.82,3.11,1.87c0.01,0.01,0.02,0.02,0.03,0.03c1.02,1.15,0.99,2.89,0.05,4.1l-1.69,2.15l2.12,2.37l4.6-3.76
			l-0.02-0.22c-0.18-2.42-1.11-4.59-2.77-6.45c-1.71-1.91-3.81-3.14-5.92-3.45c-2.24-0.34-4.36,0.33-6.13,1.92
			c-2.89,2.59-3.43,6.05-1.73,10.91l0.53,1.52c1.26,3.54,1.14,5.07-0.5,6.54c-1.04,0.93-2.19,1.28-3.43,1.07
			c-1.23-0.21-2.48-1-3.62-2.27c-0.31-0.34-0.57-0.67-0.79-1c-0.79-1.17-0.68-2.73,0.21-3.83l1.92-2.37l-2.13-2.37l-4.91,4.05
			l0.04,0.24c0.37,2.46,1.74,5.26,3.57,7.31c1.86,2.08,4.01,3.35,6.22,3.7c0.4,0.06,0.79,0.09,1.18,0.09c1.86,0,3.61-0.7,5.11-2.05
			C348.3,112.99,348.75,109.72,346.84,104.4z"/>
		<path class="st1" d="M358,124.09l1.64-1.14c2.14-1.48,4.61-3.18,7.17-4.89c0.68-0.45,1.59-0.34,2.13,0.28l1.44,1.63l2.03-1.4
			l-6.73-9.74l-2.03,1.4l1.01,1.92c0.38,0.72,0.17,1.62-0.5,2.09c-2.6,1.85-5.12,3.6-7.11,4.98l-1.64,1.14
			c-1.95,1.35-4.4,3.03-6.93,4.73c-0.82,0.55-1.91,0.41-2.56-0.33l-1.25-1.42l-2.03,1.4l6.73,9.74l2.03-1.4l-0.88-1.67
			c-0.46-0.87-0.2-1.95,0.6-2.51C353.63,127.12,356.07,125.43,358,124.09z"/>
		<path class="st1" d="M369.77,144.57l1.78-0.9c2.69-1.35,5.85-2.93,9.06-4.47l1.31,2.61c0.57,1.14,0.24,2.52-0.79,3.28l-2.47,1.81
			l1.37,2.73l7.09-3.94l-9.93-19.78l-7.39,3.33l1.37,2.73l2.93-0.9c1.22-0.37,2.53,0.19,3.1,1.33l1.31,2.61
			c-3.19,1.68-6.33,3.26-8.99,4.6l-1.79,0.9c-2.11,1.06-4.76,2.38-7.5,3.71c-0.89,0.43-1.96,0.13-2.49-0.7l-1.23-1.9l-2.21,1.11
			l5.66,11.27l2.21-1.11l-1.39-3.74C363.97,147.5,367.1,145.91,369.77,144.57z"/>
		<path class="st1" d="M394.56,167.49l-2.36,0.71l0.51,3.29l-11.78-1.57l9-7.73l1.42,3.23l2.36-0.71l-3.43-11.33l-2.36,0.71
			l0.25,1.4c0.2,1.11-0.19,2.24-1.03,3l-8.76,7.9c-1.08,0.97-2.38,1.7-3.77,2.12c-1.5,0.45-2.83,0.84-4.09,1.21
			c-0.79,0.23-1.63-0.17-1.96-0.93l-1.01-2.36l-2.37,0.72l3.65,12.07l2.37-0.72l-0.73-3.94c2.48-0.8,5.18-1.62,7.75-2.4l13.53,1.91
			c1.07,0.15,2,0.83,2.47,1.8l0.81,1.67l2.35-0.71L394.56,167.49z"/>
		<path class="st1" d="M199.43,51.05l-2.21-13.37l3.25-1.01l-0.4-2.43l-10.05,1.66l0.4,2.43l1.74-0.04c1.3-0.03,2.43,0.9,2.64,2.19
			l1.66,10.06c0.56,3.41,0.44,5.87-0.37,7.52c-0.75,1.53-2.1,2.41-4.24,2.76c-2.76,0.46-6.08,0-7.34-7.6L184,50.06
			c-0.45-2.74-1.04-6.32-1.57-9.92l3.83-1.11l-0.4-2.44l-11.68,1.93l0.4,2.44l0.94-0.04c1.31-0.06,2.46,0.86,2.69,2.15
			c0.5,2.82,0.96,5.54,1.32,7.73l0.71,4.32c0.48,2.91,1.45,5.2,2.85,6.82c2.05,2.36,5.02,3.3,8.75,2.68c2.92-0.48,5.07-1.8,6.4-3.9
			C199.71,58.39,200.11,55.14,199.43,51.05z"/>
	</g>
</g>
</svg>
