<svg width="24.5" height="24.5" xmlns="http://www.w3.org/2000/svg">
 <style type="text/css">.st0{fill:#16AB03;}
	.st1{fill:#5E33BF;}</style>

 <g>
  <title>background</title>
  <rect fill="none" id="canvas_background" height="26.5" width="26.5" y="-1" x="-1"/>
 </g>
 <g>
  <title>Layer 1</title>
  <g id="svg_1">
   <g id="svg_2">
    <path id="svg_3" d="m8.22899,19.2698c0.3934,1.0499 0.8711,2.0763 1.4429,3.0667c0.4108,0.7115 0.8647,1.3934 1.3545,2.0457c4.8382,-1.1875 9.1421,-3.7346 12.4819,-7.215c-0.7737,-1.8074 -1.8021,-3.4807 -3.0404,-4.9742c-3.0408,3.6674 -7.3452,6.2506 -12.2389,7.0768z" class="st0"/>
    <path id="svg_4" d="m11.01169,0c-1.1627,1.5495 -2.1025,3.2671 -2.7861,5.1156c4.8951,0.8256 9.2008,3.4091 12.2423,7.0774c1.2383,-1.4935 2.2667,-3.1668 3.0404,-4.9742c-3.3432,-3.484 -7.6524,-6.0328 -12.4966,-7.2188z" class="st1"/>
    <path id="svg_5" d="m8.22899,19.2698c-1.47144,-3.9269 -1.69175,-8.2023 -0.5846,-12.3341c0.166,-0.6195 0.3615,-1.226 0.5812,-1.8201c-1.10136,-0.1858 -2.23228,-0.2833 -3.38562,-0.2833c-0.8245,0 -1.6373,0.0507 -2.43632,0.1467c-1.34466,4.6361 -1.39725,9.6407 -0.00265,14.4276c0.79988,0.0962 1.61356,0.147 2.43897,0.147c1.15456,0 2.28664,-0.0977 3.38902,-0.2838z"/>
   </g>
   <g id="svg_6"/>
  </g>
 </g>
</svg>