<?xml version="1.0" encoding="utf-8"?>
<!-- Generator: Adobe Illustrator 27.2.0, SVG Export Plug-In . SVG Version: 6.00 Build 0)  -->
<svg version="1.1" id="_图层_1" xmlns="http://www.w3.org/2000/svg" xmlns:xlink="http://www.w3.org/1999/xlink" x="0px" y="0px"
	 viewBox="0 0 110 110" style="enable-background:new 0 0 110 110;" xml:space="preserve">
<style type="text/css">
	.st0{fill:#1552D7;}
	.st1{fill:#EB0100;}
	.st2{fill:#3EC7FA;}
</style>
<g>
	<path class="st0" d="M97.1,75.6L97.1,75.6c-1.5,5.3-4,10.1-7.2,14.3l0,0c-4.8,6-21.3,6-31.2,3.4c-10.7-2.9-18.4-9.6-19-10.1
		c4.2,3.3,9.5,5.2,15.3,5.2C68.9,88.4,80.1,77,80.1,63c0-4.2-1-8.1-2.8-11.6c-0.1-0.2,0.1-0.4,0.2-0.3
		C85.4,52.4,101.1,59.8,97.1,75.6z"/>
	<path class="st1" d="M98.6,57.9c0,0.3-0.3,0.4-0.5,0.1c-3.7-7.9-10.2-10.3-18-12.1c-5.9-1.3-9.8-3.3-11.5-4.2
		c-0.4-0.2-0.7-0.5-1.1-0.7l0,0c-12.3-7.5-12.5-20.4-12.5-20.4V1.9c0-0.2,0.3-0.3,0.4-0.2l29.1,28.6l0,0l2.2,2.1
		C93.1,39.2,97.5,48.1,98.6,57.9z"/>
	<path class="st2" d="M89.9,89.9c-8,10.5-20.6,17.4-34.8,17.4c-24.2,0-43.8-19.8-43.8-44.2c0-11.9,4.6-22.6,12.2-30.6l2.2-2.2l0,0
		l19-18.7c0.2-0.2,0.5,0,0.4,0.2c-0.3,1.3-0.8,4.3-0.5,8.3c0.4,4.7,1.9,11,6.3,18c2.7,4.4,6.6,9,12,13.8c0.6,0.6,1.3,1.1,2,1.7l0,0
		c2.4,2.5,3.8,5.8,3.8,9.5c0,7.5-6.1,13.6-13.5,13.6c-3.2,0-6.1-1.1-8.4-3c-0.2-0.2,0-0.5,0.2-0.4c0.5,0.1,1,0.2,1.5,0.2
		c2.6,0,4.8-2.1,4.8-4.8c0-1.6-0.8-3.1-2-3.9l0,0c-3.2-2.6-5.9-5.1-8.2-7.6c-3.2-3.5-5.6-6.9-7.3-10.2c-3.5,4.4-5.7,9.9-5.7,16
		c0,8.2,3.8,15.5,9.8,20.1l0,0c0.6,0.5,8.3,7.2,19,10.1C68.6,96,85.1,95.9,89.9,89.9z"/>
</g>
</svg>
