<svg width="165" height="165" xmlns="http://www.w3.org/2000/svg">

 <g>
  <title>background</title>
  <rect fill="none" id="canvas_background" height="167" width="167" y="-1" x="-1"/>
 </g>
 <g>
  <title>Layer 1</title>
  <g id="svg_1" transform="matrix(5.715038,0,0,5.715038,409.288757,277.787231) " class="style-scope yt-icon">
   <g id="svg_2" class="style-scope yt-icon">
    <path id="svg_3" fill="#FF0000" class="style-scope yt-icon" d="m-43.49286,-41.047528c-0.3292,-1.23001 -1.2959,-2.19662 -2.5259,-2.52587c-2.2271,-0.59737 -11.1618,-0.59737 -11.1618,-0.59737c0,0 -8.93458,0 -11.16177,0.59737c-1.23,0.32925 -2.19661,1.29586 -2.52586,2.52587c-0.59737,2.22718 -0.59737,6.87676 -0.59737,6.87676c0,0 0,4.6496 0.59737,6.8768c0.32925,1.23 1.29586,2.1966 2.52586,2.5258c2.22719,0.5974 11.16177,0.5974 11.16177,0.5974c0,0 8.9347,0 11.1618,-0.5974c1.23,-0.3292 2.1967,-1.2958 2.5259,-2.5258c0.5974,-2.2272 0.5974,-6.8768 0.5974,-6.8768c0,0 -0.0024,-4.64958 -0.5974,-6.87676z"/>
    <path id="svg_4" fill="white" class="style-scope yt-icon" d="m-60.04026,-29.885368l7.4224,-4.285l-7.4224,-4.28507l0,8.57007z"/>
   </g>
   <g id="svg_5" class="style-scope yt-icon"/>
  </g>
 </g>
</svg>