<?xml version="1.0" encoding="utf-8"?>
<!-- Generator: Adobe Illustrator 27.2.0, SVG Export Plug-In . SVG Version: 6.00 Build 0)  -->
<svg version="1.1" id="图层_1" xmlns="http://www.w3.org/2000/svg" xmlns:xlink="http://www.w3.org/1999/xlink" x="0px" y="0px"
	 viewBox="0 0 52 52" style="enable-background:new 0 0 52 52;" xml:space="preserve">
<style type="text/css">
	.st0{fill-rule:evenodd;clip-rule:evenodd;fill:url(#path-2_00000088096429060657565580000014853011321486381484_);}
	.st1{filter:url(#Adobe_OpacityMaskFilter);}
	.st2{fill-rule:evenodd;clip-rule:evenodd;fill:#FFFFFF;}
	.st3{mask:url(#mask-3_00000011019267930381362610000007798468146923657885_);}
	.st4{fill-rule:evenodd;clip-rule:evenodd;fill:#E5FBEF;}
	
		.st5{fill-rule:evenodd;clip-rule:evenodd;fill:url(#path-5_00000178915974823337203650000015232582324509243802_);fill-opacity:0.3;}
	.st6{fill-rule:evenodd;clip-rule:evenodd;fill:#FAFFFC;}
</style>
<g id="_x35_.品牌LOGO_x2F_APP应用图形_x2F_外网" transform="translate(0.000000, 0.000000)">
	<g id="蒙版">
		
			<linearGradient id="path-2_00000126321849936278393580000012312126882048366242_" gradientUnits="userSpaceOnUse" x1="-314.9418" y1="319.0316" x2="-315.5665" y2="318.2382" gradientTransform="matrix(52.019 0 0 -52 16428.1055 16591.3301)">
			<stop  offset="0" style="stop-color:#7BD26A"/>
			<stop  offset="1" style="stop-color:#07B26A"/>
		</linearGradient>
		
			<path id="path-2_00000087393477911033935220000006984335893936294825_" style="fill-rule:evenodd;clip-rule:evenodd;fill:url(#path-2_00000126321849936278393580000012312126882048366242_);" d="
			M12.5,0h27.1C46.4,0,52,5.6,52,12.5v27C52,46.4,46.4,52,39.5,52H12.5C5.6,52,0,46.4,0,39.5v-27C0,5.6,5.6,0,12.5,0z"/>
	</g>
	<defs>
		<filter id="Adobe_OpacityMaskFilter" filterUnits="userSpaceOnUse" x="7.5" y="10.9" width="33.8" height="30.9">
			<feColorMatrix  type="matrix" values="1 0 0 0 0  0 1 0 0 0  0 0 1 0 0  0 0 0 1 0"/>
		</filter>
	</defs>
	
		<mask maskUnits="userSpaceOnUse" x="7.5" y="10.9" width="33.8" height="30.9" id="mask-3_00000011019267930381362610000007798468146923657885_">
		<g class="st1">
			<path id="path-2_00000177443656561488207300000016983503944426730880_" class="st2" d="M12.5,0h27.1C46.4,0,52,5.6,52,12.5v27
				C52,46.4,46.4,52,39.5,52H12.5C5.6,52,0,46.4,0,39.5v-27C0,5.6,5.6,0,12.5,0z"/>
		</g>
	</mask>
	<g id="编组" class="st3">
		<g transform="translate(3.771374, 5.460000)">
			<g id="路径">
				<g>
					<path id="path-5" class="st4" d="M23.5,5.5h0.1h0.1l0,0l0.1,0l0,0l0.1,0l0,0l0.1,0l0,0l0.1,0l0,0l0.1,0l0,0l0.1,0l0,0l0.1,0
						l0,0l0.1,0l0,0l0.1,0l0,0l0.2,0l0,0l0.2,0l0,0l0.1,0l0,0l0.2,0l0,0l0.2,0l0,0l0.2,0l0,0l0.1,0l0,0l0.2,0l0,0l0.2,0l0,0l0.1,0
						l0,0l0.1,0l0,0l0.1,0l0,0l0.1,0l0,0l0.1,0l0,0l0.1,0l0,0l0.2,0l0,0l0.1,0l0,0l0.2,0l0,0l0.1,0l0,0l0.1,0l0,0l0.2,0l0,0l0.1,0
						l0,0l0.1,0l0,0l0.1,0l0,0l0.1,0l0,0l0.1,0l0,0l0.1,0l0,0l0.1,0l0,0l0.1,0l0,0l0.1,0l0,0l0.1,0l0,0c4.8,0.3,6,3.7,6.2,4.1l0,0
						l0,0l0,0l0,0l2.1,0.1l0,0c0.1,0,0.2,0.1,0.2,0.2c0,0.1,0,0.1-0.1,0.2c-2.1,1.1-2.8,3.5-2.4,5c0.1,0.5,0.3,0.9,0.5,1.4l0.1,0.3
						c0.5,1,1,2.3,1.1,4.8c0.2,5.6-4.7,10.6-10.6,10.6l-0.1,0l0,0l-0.1,0l0,0l-0.2,0l0,0l-0.2,0l0,0l-0.3,0l0,0l-0.2,0l0,0l-0.2,0
						l0,0l-0.3,0l0,0l-0.4,0l0,0l-0.4,0l0,0l-0.5,0l0,0l-0.4,0l0,0l-0.8,0l0,0l-0.9,0l0,0l-0.9,0l0,0l-0.6,0l0,0l-0.8,0l0,0l-1.1,0
						l0,0l-1.2,0l0,0l-1,0l0,0l-1.6,0l0,0l-1.1,0l0,0l-2,0l0,0l-2.2,0l0,0l-2,0l0,0l-1,0l12.5-14.1l0.1-0.1l0,0l0.1-0.1l0,0l0.1-0.1
						l0,0l0.6-0.6l0,0l0.1-0.1l0,0l0.1-0.1l0,0l0.1-0.1c0,0,0,0,0.1-0.1l0.1-0.1c0,0,0,0,0.1-0.1l0.1-0.1l0,0l0.1-0.1
						c1.2-1.4,2.3-2.8,3.1-4.4c0.9-2.4,0-4.3-0.9-5.4C22,6.7,22,6.6,21.9,6.5c-0.3-0.4-0.1-1,0.5-1c0,0,0.1,0,0.1,0l0.1,0
						c0,0,0.1,0,0.1,0l0.1,0l0,0l0.1,0l0,0l0.1,0l0,0l0.2,0l0,0l0.2,0l0,0L23.5,5.5L23.5,5.5z"/>
				</g>
				<g>
					
						<radialGradient id="path-5_00000067956454647055360690000009661578008946388666_" cx="-330.0918" cy="303.4548" r="0.5101" gradientTransform="matrix(9.9791 -25.2142 -25.2142 -9.9791 10970.3301 -5271.9272)" gradientUnits="userSpaceOnUse">
						<stop  offset="0" style="stop-color:#57CB86"/>
						<stop  offset="1" style="stop-color:#FFFFFF;stop-opacity:0.8"/>
					</radialGradient>
					
						<path id="path-5_00000049904215267169823180000003515270071399767487_" style="fill-rule:evenodd;clip-rule:evenodd;fill:url(#path-5_00000067956454647055360690000009661578008946388666_);fill-opacity:0.3;" d="
						M23.5,5.5h0.1h0.1l0,0l0.1,0l0,0l0.1,0l0,0l0.1,0l0,0l0.1,0l0,0l0.1,0l0,0l0.1,0l0,0l0.1,0l0,0l0.1,0l0,0l0.1,0l0,0l0.2,0l0,0
						l0.2,0l0,0l0.1,0l0,0l0.2,0l0,0l0.2,0l0,0l0.2,0l0,0l0.1,0l0,0l0.2,0l0,0l0.2,0l0,0l0.1,0l0,0l0.1,0l0,0l0.1,0l0,0l0.1,0l0,0
						l0.1,0l0,0l0.1,0l0,0l0.2,0l0,0l0.1,0l0,0l0.2,0l0,0l0.1,0l0,0l0.1,0l0,0l0.2,0l0,0l0.1,0l0,0l0.1,0l0,0l0.1,0l0,0l0.1,0l0,0
						l0.1,0l0,0l0.1,0l0,0l0.1,0l0,0l0.1,0l0,0l0.1,0l0,0l0.1,0l0,0c4.8,0.3,6,3.7,6.2,4.1l0,0l0,0l0,0l0,0l2.1,0.1l0,0
						c0.1,0,0.2,0.1,0.2,0.2c0,0.1,0,0.1-0.1,0.2c-2.1,1.1-2.8,3.5-2.4,5c0.1,0.5,0.3,0.9,0.5,1.4l0.1,0.3c0.5,1,1,2.3,1.1,4.8
						c0.2,5.6-4.7,10.6-10.6,10.6l-0.1,0l0,0l-0.1,0l0,0l-0.2,0l0,0l-0.2,0l0,0l-0.3,0l0,0l-0.2,0l0,0l-0.2,0l0,0l-0.3,0l0,0l-0.4,0
						l0,0l-0.4,0l0,0l-0.5,0l0,0l-0.4,0l0,0l-0.8,0l0,0l-0.9,0l0,0l-0.9,0l0,0l-0.6,0l0,0l-0.8,0l0,0l-1.1,0l0,0l-1.2,0l0,0l-1,0
						l0,0l-1.6,0l0,0l-1.1,0l0,0l-2,0l0,0l-2.2,0l0,0l-2,0l0,0l-1,0l12.5-14.1l0.1-0.1l0,0l0.1-0.1l0,0l0.1-0.1l0,0l0.6-0.6l0,0
						l0.1-0.1l0,0l0.1-0.1l0,0l0.1-0.1c0,0,0,0,0.1-0.1l0.1-0.1c0,0,0,0,0.1-0.1l0.1-0.1l0,0l0.1-0.1c1.2-1.4,2.3-2.8,3.1-4.4
						c0.9-2.4,0-4.3-0.9-5.4C22,6.7,22,6.6,21.9,6.5c-0.3-0.4-0.1-1,0.5-1c0,0,0.1,0,0.1,0l0.1,0c0,0,0.1,0,0.1,0l0.1,0l0,0l0.1,0
						l0,0l0.1,0l0,0l0.2,0l0,0l0.2,0l0,0L23.5,5.5L23.5,5.5z"/>
				</g>
			</g>
			<path id="Fill-12-Copy" class="st6" d="M18.2,18.4C12.8,24.5,6.4,31.9,4,34.6c-0.5,0.5,0,1,0.3,1.1c18.2,3.1,24-5.4,25.3-9.3
				c1.8-5.3-0.7-8-2.1-8.8C22.7,14.7,19.1,17.4,18.2,18.4z"/>
		</g>
	</g>
</g>
</svg>
