<?xml version="1.0" encoding="utf-8"?>
<!-- Generator: Adobe Illustrator 27.2.0, SVG Export Plug-In . SVG Version: 6.00 Build 0)  -->
<svg version="1.1" id="图层_1" xmlns="http://www.w3.org/2000/svg" xmlns:xlink="http://www.w3.org/1999/xlink" x="0px" y="0px"
	 viewBox="0 0 64 64" style="enable-background:new 0 0 64 64;" xml:space="preserve">
<style type="text/css">
	.st0{fill:#0F88EB;}
</style>
<path class="st0" d="M17.1,43.1l2.3,0l0.8,2.6l4.2-2.6h5V21.3H17.1C17.1,21.3,17.1,43.1,17.1,43.1z M19.5,23.7h7.3v17H24l-2.8,1.8
	l-0.5-1.7l-1.2,0L19.5,23.7L19.5,23.7z M15,31.3H9.7c0.2-2.7,0.2-5.2,0.2-7.3h5.1c0,0,0.2-2.3-0.9-2.2H5.4c0.3-1.3,0.8-2.7,1.3-4.1
	c0,0-2.4,0-3.2,2.2c-0.3,0.9-1.3,4.3-3.1,7.8c0.6-0.1,2.5-0.1,3.7-2.2c0.2-0.6,0.3-0.7,0.5-1.5h2.9c0,1-0.1,6.7-0.2,7.3H2.1
	c-1.2,0-1.6,2.4-1.6,2.4h6.6c-0.4,5-2.8,9.2-7.1,12.5c2,0.6,4.1-0.1,5.1-1c0,0,2.3-2.1,3.6-6.9l5.4,6.5c0,0,0.8-2.7-0.1-4
	c-0.8-0.9-2.8-3.3-3.7-4.2l-1.5,1.2c0.4-1.4,0.7-2.8,0.8-4.1h6.2C15.7,33.6,15.7,31.3,15,31.3L15,31.3z M56.2,31.1
	c2.1-2.6,4.5-5.9,4.5-5.9s-1.9-1.5-2.7-0.4c-0.6,0.8-3.7,4.8-3.7,4.8L56.2,31.1L56.2,31.1z M41.2,25.2c-0.9-0.8-2.6,0.2-2.6,0.2
	s4,5.5,4.1,5.7l1.9-1.4C44.6,29.8,42.1,26,41.2,25.2L41.2,25.2z M64,32.3c-2,0-13.1,0.1-13.1,0.1V22.3c0.5,0,1.2,0,2.3-0.1
	c4.1-0.2,7-0.4,8.8-0.5c0,0,1.2-2.7-0.1-3.3c-0.3-0.1-2.3,0.5-2.3,0.5s-16.5,1.6-23.2,1.8c0.2,0.9,0.8,1.7,1.6,2
	c1.3,0.3,2.3,0.2,4.9,0.1c2.5-0.2,4.4-0.2,5.7-0.2v10H35.1c0,0,0.3,2.2,2.6,2.3h10.8v7.1c0,1.4-1.1,2.2-2.4,2.1
	c-1.4,0-2.6-0.1-4.2-0.2c0.2,0.4,0.6,1.4,1.9,2.2c1,0.5,1.6,0.7,2.6,0.7c3,0,4.6-1.7,4.5-4.5v-7.3h12.2C64.1,34.7,64,32.3,64,32.3
	L64,32.3z"/>
</svg>
