<?xml version="1.0" encoding="utf-8"?>
<!-- Generator: Adobe Illustrator 27.2.0, SVG Export Plug-In . SVG Version: 6.00 Build 0)  -->
<svg version="1.1" id="图层_1" xmlns="http://www.w3.org/2000/svg" xmlns:xlink="http://www.w3.org/1999/xlink" x="0px" y="0px"
	 viewBox="0 0 58 58" style="enable-background:new 0 0 58 58;" xml:space="preserve">
<style type="text/css">
	.st0{fill:#E4E4E4;}
	.st1{opacity:0.2;fill:#FFFFFF;enable-background:new    ;}
	.st2{opacity:0.2;enable-background:new    ;}
	.st3{fill:none;stroke:#A81717;stroke-width:6;stroke-linecap:square;stroke-linejoin:round;}
</style>
<path class="st0" d="M29.2,0.7c-1.2,0-2.4,0.3-3.5,0.8L6.3,12.4c-2,1.1-3.3,3.2-3.3,5.5v21.6c0,2.3,1.3,4.4,3.3,5.5l19.4,10.8
	c2,1.1,4.6,1.1,6.6,0l19.4-10.8c2-1.1,3.3-3.2,3.3-5.5V17.9c0-2.3-1.3-4.4-3.3-5.5L32.3,1.6C31.3,1.1,30.3,0.8,29.2,0.7L29.2,0.7z"
	/>
<path class="st1" d="M29.2,0.7c-1.2,0-2.4,0.3-3.5,0.9L6.3,12.4c-2,1.1-3.3,3.2-3.3,5.5v1c0-2.3,1.3-4.4,3.3-5.5L25.7,2.6
	c1-0.6,2.2-0.9,3.5-0.9c1.1,0,2.2,0.3,3.1,0.9l19.4,10.8c2,1.1,3.3,3.2,3.3,5.5v-1c0-2.3-1.3-4.4-3.3-5.5L32.3,1.6
	C31.3,1.1,30.3,0.8,29.2,0.7z"/>
<path class="st2" d="M3,38.5C3,38.6,3,38.6,3,38.5L3,38.5L3,38.5z M3,39.5v1c0,2.3,1.3,4.4,3.3,5.5l19.4,10.8c2,1.1,4.6,1.1,6.6,0
	l19.4-10.8c2-1.1,3.3-3.2,3.3-5.5v-1c0,2.3-1.3,4.4-3.3,5.5L32.3,55.9c-2,1.1-4.6,1.1-6.6,0L6.3,45.1C4.3,43.9,3,41.8,3,39.5z"/>
<path class="st3" d="M17,14.7h24l-24,28H41"/>
</svg>
