<?xml version="1.0" encoding="utf-8"?>
<!-- Generator: Adobe Illustrator 27.2.0, SVG Export Plug-In . SVG Version: 6.00 Build 0)  -->
<svg version="1.1" id="图层_1" xmlns="http://www.w3.org/2000/svg" xmlns:xlink="http://www.w3.org/1999/xlink" x="0px" y="0px"
	 viewBox="0 0 200 200" style="enable-background:new 0 0 200 200;" xml:space="preserve">
<style type="text/css">
	.st0{fill:#33058D;}
	.st1{fill:#41B6E6;}
	.st2{fill:#FFA300;}
</style>
<path class="st0" d="M173.7,130.4H28.5c-4,0-7.2-3.2-7.2-7.2V90.3c0-4,3.2-7.2,7.2-7.2h145.2c4,0,7.2,3.2,7.2,7.2v32.9
	C180.9,127.2,177.7,130.4,173.7,130.4L173.7,130.4z M31,120.6h140.1V92.8H31V120.6L31,120.6z M61.1,172.6H40.8c-4,0-7.2-3.2-7.2-7.2
	v-34.9h9.8v32.4h15.2v-32.4h9.8v34.9C68.4,169.3,65.1,172.6,61.1,172.6z"/>
<path class="st1" d="M66.2,82.9c-2.7,0-4.9-2.2-4.9-4.9V57c0-2.7,2.2-4.9,4.9-4.9c2.7,0,4.9,2.2,4.9,4.9v21
	C71.1,80.8,68.9,82.9,66.2,82.9z M77.3,82.9c-2.7,0-4.9-2.2-4.9-4.9V57.1c0-2.7,2.2-4.9,4.9-4.9c2.7,0,4.9,2.2,4.9,4.9V78
	C82.1,80.7,80,82.9,77.3,82.9z"/>
<path class="st2" d="M102.9,83c-1.3,0-2.5-0.5-3.5-1.4L84.7,66.8c-1.9-1.9-1.9-5,0-6.9s5-1.9,6.9,0l14.8,14.8c1.9,1.9,1.9,5,0,6.9
	C105.5,82.5,104.2,83,102.9,83z M172.6,59.7h-42.5c-3.7,0-6.7-3-6.7-6.7v-0.6l6.1-24c0.4-3.3,3.2-5.9,6.6-5.9h30.4
	c3.4,0,6.3,2.6,6.6,5.9l6.1,24V53C179.3,56.7,176.3,59.7,172.6,59.7L172.6,59.7z M134.1,49.9h34.5l-4.5-17.7h-25.5L134.1,49.9
	L134.1,49.9z"/>
<path class="st0" d="M146.3,54.8h9.8v30.8h-9.8V54.8z"/>
<path class="st0" d="M173.8,130.3h-10.3c-2.7,0-4.9-2.2-4.9-4.9c0-2.7,2.2-4.9,4.9-4.9h7.8v-7.7c0-2.7,2.2-4.9,4.9-4.9
	s4.9,2.2,4.9,4.9V123C181,127.1,177.7,130.3,173.8,130.3z M38.6,130.4H28.4c-4,0-7.2-3.2-7.2-7.2v-10.3c0-2.7,2.2-4.9,4.9-4.9
	s4.9,2.2,4.9,4.9v7.8h7.7c2.7,0,4.9,2.2,4.9,4.9C43.5,128.2,41.3,130.4,38.6,130.4z"/>
<path class="st0" d="M61.1,172.5H40.8c-4,0-7.2-3.2-7.2-7.2v-39.6c0-2.7,2.2-4.9,4.9-4.9s4.9,2.2,4.9,4.9v37.1h17.8
	c2.7,0,4.9,2.2,4.9,4.9C66,170.3,63.8,172.5,61.1,172.5z"/>
<path class="st0" d="M161.2,172.6h-20.3c-4,0-7.2-3.2-7.2-7.2v-34.9h9.8v32.4h15.2v-32.4h9.8v34.9
	C168.4,169.3,165.1,172.6,161.2,172.6L161.2,172.6z"/>
<path class="st0" d="M161.2,172.6h-20.3c-2.7,0-4.9-2.2-4.9-4.9s2.2-4.9,4.9-4.9h17.8v-37.1c0-2.7,2.2-4.9,4.9-4.9s4.9,2.2,4.9,4.9
	v39.6C168.5,169.3,165.2,172.6,161.2,172.6z M173.8,92.8H27.9c-2.7,0-4.9-2.2-4.9-4.9s2.2-4.9,4.9-4.9h145.9c2.7,0,4.9,2.2,4.9,4.9
	S176.5,92.8,173.8,92.8L173.8,92.8z"/>
</svg>
