<?xml version="1.0" encoding="utf-8"?>
<!-- Generator: Adobe Illustrator 27.2.0, SVG Export Plug-In . SVG Version: 6.00 Build 0)  -->
<svg version="1.1" id="图层_1" xmlns="http://www.w3.org/2000/svg" xmlns:xlink="http://www.w3.org/1999/xlink" x="0px" y="0px"
	 viewBox="0 0 189 189" style="enable-background:new 0 0 189 189;" xml:space="preserve">
<style type="text/css">
	.st0{fill:#077DFF;}
</style>
<path class="st0" d="M183.4,59.2L20.1,63.4c-1.3,0-2.1-0.8-2.1-2.1v-4.2c0-1.3,0.8-2.1,2.1-2.1h161.2c1.3,0,2.1,0.8,2.1,2.1
	L183.4,59.2L183.4,59.2z M124,74.5h42.4v59.4H124V74.5z"/>
<path d="M111.2,155.1c-2.5,0-4.2-1.7-4.2-4.2V66c0-2.5,1.7-4.2,4.2-4.2s4.2,1.7,4.2,4.2v84.8C115.5,152.9,113.8,155.1,111.2,155.1z"
	/>
<path d="M166.4,66v17H22.2V66H166.4 M174.9,57.5H13.7v33.9h161.2L174.9,57.5L174.9,57.5L174.9,57.5z"/>
<path d="M166.4,66v17h-50.9V66H166.4 M174.9,57.5H107v33.9h67.9V57.5z M17.9,155.1c-2.5,0-4.2-1.7-4.2-4.2V66c0-2.5,1.7-4.2,4.2-4.2
	s4.2,1.7,4.2,4.2v84.8C22.2,152.9,20.5,155.1,17.9,155.1z"/>
<path d="M170.6,155.1c-2.5,0-4.2-1.7-4.2-4.2V66c0-2.5,1.7-4.2,4.2-4.2s4.2,1.7,4.2,4.2v84.8C174.9,152.9,173.2,155.1,170.6,155.1z
	 M181.2,53.3c1.3,0,2.1,0.8,2.1,2.1c0,1.3-0.8,2.1-2.1,2.1H7.3c-1.3,0-2.1-0.8-2.1-2.1c0-1.3,0.8-2.1,2.1-2.1H181.2 M181.2,49H7.3
	C3.9,49,1,52,1,55.4s3,6.4,6.4,6.4h173.9c3.4,0,6.4-3,6.4-6.4S184.6,49,181.2,49z"/>
<path d="M166.4,91.4v17h-50.9v-17H166.4 M174.9,83H107v33.9h67.9V83z"/>
<path d="M166.4,116.9v17h-50.9v-17H166.4 M174.9,108.4H107v33.9h67.9V108.4z M145.2,76.2h-8.5c-1.3,0-2.1-0.8-2.1-2.1
	c0-1.3,0.8-2.1,2.1-2.1h8.5c1.3,0,2.1,0.8,2.1,2.1C147.3,75.3,146.5,76.2,145.2,76.2z M145.2,101.6h-8.5c-1.3,0-2.1-0.8-2.1-2.1
	c0-1.3,0.8-2.1,2.1-2.1h8.5c1.3,0,2.1,0.8,2.1,2.1S146.5,101.6,145.2,101.6z"/>
<path d="M145.2,127.1h-8.5c-1.3,0-2.1-0.8-2.1-2.1c0-1.3,0.8-2.1,2.1-2.1h8.5c1.3,0,2.1,0.8,2.1,2.1S146.5,127.1,145.2,127.1z"/>
<path class="st0" d="M30.7,74.5H107v8.5H30.7V74.5z"/>
</svg>
