<?xml version="1.0" encoding="utf-8"?>
<!-- Generator: Adobe Illustrator 27.2.0, SVG Export Plug-In . SVG Version: 6.00 Build 0)  -->
<svg version="1.1" id="图层_1" xmlns="http://www.w3.org/2000/svg" xmlns:xlink="http://www.w3.org/1999/xlink" x="0px" y="0px"
	 viewBox="0 0 135 135" style="enable-background:new 0 0 135 135;" xml:space="preserve">
<style type="text/css">
	.st0{fill:#B8D3FF;}
	.st1{fill:#486DB8;}
	.st2{fill:#819FDE;}
	.st3{fill:#F98097;}
	.st4{fill:#DEEBFF;}
	.st5{fill:#FF5C5C;}
</style>
<path class="st0" d="M30.5,46.3L31,85.4c0,0,3,14.6,34.1,14.6c25,0,36.1-9.2,36.4-11.5c0.5-9.8,0.9-43.7,0.9-43.7
	S30.5,46.3,30.5,46.3z"/>
<path class="st1" d="M65,101c-13.1,0-22.9-2.5-29.3-7.5c-4.9-3.8-5.7-7.7-5.8-7.9l0-0.1v-0.1l-0.5-40l73.8-1.6l0,1
	c0,0.3-0.5,34.1-0.9,43.8v0.1c-0.2,1.7-3.6,4.8-9.5,7.4C87.7,98.3,78.7,101,65,101z M31.9,85.3c0.1,0.5,1.2,3.7,5.2,6.8
	c4.1,3.2,12.3,7,27.9,7C78.2,99,87,96.4,92,94.3c6-2.6,8.3-5.2,8.5-5.9c0.4-8.8,0.8-36.9,0.9-42.6l-69.9,1.5L31.9,85.3L31.9,85.3z"
	/>
<path class="st2" d="M130.7,48.5c0,0-8.1,3.1-10.9,4.3c-9.4,4.1-24.4,7.8-32.5,10.3c-6,1.9-17.9,6-17.9,6c-2.3,1.1-6.1,1-8.3-0.1
	c0,0-15.8-6.4-23.7-9.6c-5.7-2.3-17.5-5.1-23.2-7.4C9,49.8,3.9,47.2,3.9,47.2c-2.2-1.2-2.2-3,0.2-4.1c0,0,12.2-5.2,16.4-6.9
	c8.8-3.5,27.1-8.7,27.1-8.7l13.8-5c2.3-1.1,6.1-1,8.3,0.1c0,0,13.1,4.8,21.9,8.3c5.1,2,20.9,6.8,20.9,6.8l18.3,6.5
	C133.1,45.5,133,47.4,130.7,48.5z"/>
<path class="st1" d="M65.4,70.8c-1.7,0-3.4-0.3-4.7-1c-0.9-0.4-16-6.5-23.7-9.5c-2.8-1.1-7.2-2.4-11.5-3.7
	c-4.3-1.3-8.8-2.6-11.7-3.7c-5.2-2.1-10.3-4.7-10.4-4.7c-1.9-1-2.2-2.2-2.2-2.9c0-0.7,0.3-2,2.4-2.9l0,0c0.1-0.1,12.3-5.2,16.4-6.9
	c8.6-3.4,26.3-8.5,27.2-8.8l13.8-4.9c2.6-1.2,6.6-1.1,9.1,0.1c0.9,0.4,13.4,5,21.8,8.3c5,2,20.7,6.7,20.8,6.8l0,0l18.4,6.5l0.1,0
	c1.9,1,2.2,2.2,2.1,2.9c0,0.7-0.3,2-2.4,2.9l-0.1,0c-0.1,0-8.2,3.1-10.9,4.3c-7,3-16.8,5.8-24.8,8c-2.9,0.8-5.6,1.6-7.8,2.2
	c-5.8,1.8-17,5.7-17.8,6C68.6,70.5,67,70.8,65.4,70.8L65.4,70.8z M4.5,44.1c-0.9,0.4-1.2,0.9-1.2,1.2c0,0.4,0.4,0.8,1.1,1.1
	c0,0,5.1,2.6,10.2,4.6c2.8,1.1,7.2,2.4,11.5,3.7c4.3,1.3,8.8,2.6,11.7,3.8c7.9,3.2,23.6,9.5,23.7,9.6l0.1,0c2,1,5.4,1.1,7.5,0.1
	l0.1,0c0.1,0,11.9-4.2,17.9-6c2.2-0.7,4.9-1.4,7.8-2.3c7.9-2.2,17.7-5,24.5-8c2.7-1.2,10.3-4.1,11-4.3c0.9-0.4,1.2-0.9,1.2-1.2
	c0-0.3-0.4-0.8-1-1.1l-18.2-6.4c-0.9-0.3-15.9-4.8-21-6.8c-8.7-3.5-21.7-8.3-21.8-8.3l-0.1,0c-2-1-5.4-1.1-7.5-0.1l-0.1,0l-13.9,5
	c-0.2,0.1-18.4,5.3-27.1,8.7C16.8,38.8,5,43.9,4.5,44.1z"/>
<path class="st3" d="M31.2,72.8c0,0,22.8,10,33.9,9.6c8.1-0.3,28.5-0.9,36.7-9.1v6.2c0,0-15,8.4-37,8.5c-7.2,0-30.1-4-33.3-7.6
	C31.5,74.6,31.2,72.8,31.2,72.8z"/>
<path class="st1" d="M64.7,89c-3.8,0-11.2-1-18.2-2.5c-6.1-1.3-13.7-3.2-15.7-5.5l-0.3-0.3v-0.4c0-5.6-0.3-7.4-0.3-7.5l-0.3-1.8
	l1.6,0.7c0.2,0.1,21.9,9.6,32.8,9.6c0.2,0,0.4,0,0.6,0l0.4,0c8.3-0.3,27.9-1,35.6-8.8l1.7-1.7v9.1l-0.5,0.3
	c-0.2,0.1-3.9,2.2-10.4,4.3C85.8,86.6,76.3,88.9,64.7,89C64.8,89,64.7,89,64.7,89z M32.5,80c3.6,3,24.6,7.1,32.2,7.1h0.1
	c19.3-0.1,33.3-6.7,36-8.1v-3.4c-9.1,7-27.2,7.6-35.3,7.9l-0.4,0c-9.6,0.3-27.4-6.8-32.8-9.1C32.4,75.5,32.5,77.3,32.5,80L32.5,80z"
	/>
<path class="st4" d="M59.7,43c0,0-14.2,2.1-21.8,3.9c-4.4,1.1-17.8,3.9-17.8,3.9s-3.7,0.4-3.6,4.1c0,0.8,0.2,6.4,0.3,12.7
	c0,8.3-0.2,17.5-0.2,17.5l3.2-1.2l0.3-20.2l-0.4-7.6c0,0-0.1-2.7,2.6-2.9c1.5-0.1,14.8-2.6,24.7-5.2c7.6-2,14.3-1.9,14.3-1.9
	S59.7,43,59.7,43z"/>
<path class="st1" d="M15.6,86.5l0-1.4c0-0.1,0.2-9.3,0.2-17.5c0-3.7-0.1-7.9-0.3-12.3l0-0.4c-0.1-3.6,2.8-4.9,4.4-5.1
	c0.9-0.2,13.5-2.8,17.7-3.8c7.6-1.9,21.7-3.9,21.9-4l0.7-0.1l2.8,5.2l-1.6,0c-0.1,0-6.6,0-14,1.9c-9.9,2.5-23.2,5-24.8,5.2
	c-1.8,0.1-1.8,1.7-1.7,1.9l0.4,7.6v0l-0.3,20.9C20.8,84.6,15.6,86.5,15.6,86.5z M59.2,44.1c-2.9,0.4-14.5,2.2-21,3.8
	c-4.4,1.1-17.7,3.8-17.8,3.9l-0.1,0c-0.3,0-2.8,0.4-2.7,3.1l0,0.4c0.2,4.5,0.2,8.6,0.3,12.4c0,6.3-0.1,13.2-0.1,16.1l1.2-0.4
	l0.3-19.5l-0.4-7.6c-0.1-1.5,0.8-3.7,3.5-4c1.3-0.1,14.4-2.5,24.5-5.1c5.5-1.4,10.5-1.8,12.9-1.9C59.8,45.2,59.2,44.1,59.2,44.1z"/>
<path class="st5" d="M73.3,44.2c0,1.5-3.4,2.8-7.6,2.8S58,45.8,58,44.2s2.6-3.7,7.6-2.8C70.3,42.3,73.3,42.7,73.3,44.2z"/>
<path class="st1" d="M65.7,48c-4.1,0-8.6-1.2-8.6-3.8c0-0.9,0.5-1.7,1.3-2.4c1.7-1.4,4.4-1.9,7.5-1.3l1,0.2c2.1,0.4,3.8,0.7,5,1.1
	c0.6,0.2,2.5,0.8,2.5,2.5C74.3,46.8,69.8,48,65.7,48z M63.4,42.2c-2.3,0-3.4,0.8-3.8,1.1C59.2,43.7,59,44,59,44.2
	c0,0.5,2.3,1.8,6.6,1.8s6.6-1.3,6.6-1.8c0-0.1-0.2-0.3-1.1-0.6c-1.1-0.4-2.8-0.7-4.7-1l-1-0.2C64.7,42.3,64,42.2,63.4,42.2z"/>
<path class="st5" d="M19.7,84.8c0,0-10.9,7-8.2,16.2c2.9,10,2.3,11.9,2.3,11.9s11.7-1.5,14.9-6.7C14.7,93.3,19.7,84.8,19.7,84.8
	L19.7,84.8z"/>
<path class="st1" d="M12.2,114.1l0.7-1.5c0.1-0.3,0.3-2.7-2.3-11.4c-1.2-4.1-0.1-8.4,3.3-12.4c2.5-3,5.2-4.8,5.3-4.9l3.5-2.2
	l-2.1,3.6c0,0.1-1.1,2-0.6,5.4c0.5,3.2,2.5,8.4,9.4,14.8L30,106l-0.4,0.7c-3.4,5.6-15.2,7.1-15.6,7.2L12.2,114.1L12.2,114.1z
	 M18,87.5c-2.9,2.5-7.2,7.5-5.5,13.3c1.8,6.2,2.3,9.4,2.4,11.1c2.8-0.5,9.8-2,12.6-5.4C18.5,97.8,17.5,91.2,18,87.5z"/>
<path class="st5" d="M23,84.9c0,2.3-2.5,4.1-4.9,4.1c-2.4,0-4.5-2.4-4.5-4.8s2.1-3.7,4.5-3.7C20.5,80.5,23,82.5,23,84.9z"/>
<path class="st1" d="M18.1,90c-2.9,0-5.4-2.7-5.4-5.7c0-2.7,2.3-4.7,5.4-4.7c3,0,5.8,2.6,5.8,5.4C24,87.9,20.9,90,18.1,90z
	 M18.1,81.5c-1.7,0-3.5,0.9-3.5,2.8c0,1.9,1.7,3.8,3.5,3.8c1.8,0,3.9-1.3,3.9-3.1C22,83.1,20.1,81.5,18.1,81.5z"/>
<path class="st1" d="M68.6,23c-2.7,0.9-5.5,1.8-8.2,2.7c-0.4,0.1-0.2,0.7,0.2,0.6c2.7-0.9,5.5-1.8,8.2-2.7
	C69.1,23.5,68.9,22.9,68.6,23z M71.2,24.2c-1.1,0.2-2.1,0.6-3,1.2c-0.3,0.2,0,0.7,0.3,0.5c0.9-0.6,1.8-1,2.9-1.2
	C71.8,24.7,71.6,24.2,71.2,24.2z M73.5,24.7c-3.1,1.1-6.1,2.4-9,3.8c-0.3,0.2,0,0.7,0.3,0.5c2.9-1.4,5.9-2.7,8.9-3.8
	C74.1,25.2,73.9,24.6,73.5,24.7z M77.3,26.1c-2.2,0.8-4.5,1.6-6.7,2.4c-0.4,0.1-0.2,0.7,0.2,0.6c2.2-0.9,4.5-1.7,6.7-2.4
	C77.9,26.6,77.7,26,77.3,26.1z M81.6,27.6c-2.3,0.5-4.6,1.2-6.8,1.8c-0.4,0.1-0.2,0.7,0.2,0.6c2.3-0.7,4.5-1.3,6.8-1.8
	C82.1,28.1,81.9,27.5,81.6,27.6z M127.6,43.9c-4.4,0.9-8.6,2.3-12.7,4c-0.4,0.2,0,0.6,0.3,0.5c4.1-1.7,8.3-3.1,12.6-4
	C128.2,44.4,128,43.8,127.6,43.9L127.6,43.9z M124.1,42c-5.3,1.4-10.5,2.9-15.7,4.4c-0.4,0.1-0.2,0.7,0.2,0.6
	c5.2-1.5,10.5-2.9,15.7-4.4C124.6,42.4,124.5,41.9,124.1,42z M117.6,40c-3.3,1-6.7,2-10,3.1c-0.4,0.1-0.2,0.7,0.2,0.6
	c3.3-1.1,6.7-2.1,10-3.1C118.1,40.5,117.9,39.9,117.6,40z M112.9,39.3c-0.9,0.3-1.7,0.5-2.6,0.9c-0.4,0.1-0.2,0.7,0.2,0.6
	c0.9-0.3,1.7-0.6,2.6-0.9C113.4,39.8,113.3,39.2,112.9,39.3z M106.3,35.7c-5.5,1.3-10.9,2.8-16.3,4.7c-0.4,0.1-0.2,0.7,0.2,0.6
	c5.4-1.8,10.8-3.4,16.3-4.7C106.8,36.2,106.6,35.6,106.3,35.7z M98.8,33.9c-3,1.2-6,2.3-9.1,3.5c-0.4,0.1-0.2,0.7,0.2,0.6
	c3-1.2,6-2.3,9.1-3.5C99.3,34.3,99.2,33.8,98.8,33.9z M59.8,68.4c2.8-1.2,5.6-2.2,8.6-2.9c0.4-0.1,0.2-0.7-0.2-0.6
	c-3,0.8-5.9,1.8-8.7,3C59.2,68.1,59.5,68.6,59.8,68.4z M55.2,67.3c2.5-0.9,5-1.7,7.6-2.4c0.4-0.1,0.2-0.7-0.2-0.6
	c-2.6,0.7-5.1,1.5-7.6,2.4C54.7,66.8,54.9,67.4,55.2,67.3z M52.4,65.3c0.4-0.6,1.1-0.7,1.7-0.9c0.6-0.2,1.2-0.4,1.8-0.7
	c1.1-0.4,2.3-0.8,3.4-1.2c2.3-0.9,4.7-1.7,7-2.6c0.4-0.1,0.2-0.7-0.2-0.6c-2.7,1-5.4,2-8.1,2.9c-1.3,0.5-2.6,1-4,1.4
	c-0.8,0.3-1.7,0.5-2.2,1.3C51.7,65.3,52.2,65.6,52.4,65.3L52.4,65.3z M2.7,46.3c3.6-1.1,7.1-2.3,10.7-3.4c0.4-0.1,0.2-0.7-0.2-0.6
	c-3.6,1.1-7.1,2.3-10.7,3.4C2.1,45.8,2.3,46.4,2.7,46.3z M6.3,48c1-0.8,2.2-1.3,3.5-1.4c0.4,0,0.4-0.6,0-0.6
	c-1.4,0.2-2.7,0.7-3.9,1.6C5.6,47.9,6,48.3,6.3,48z M7.6,49.1c4.5-1.5,9-2.8,13.5-4c0.4-0.1,0.2-0.7-0.2-0.6
	c-4.6,1.2-9.1,2.5-13.5,4C7.1,48.7,7.3,49.2,7.6,49.1z M32.1,57.4c1.9-0.5,3.8-1,5.7-1.4c0.4-0.1,0.2-0.6-0.2-0.6
	c-1.9,0.4-3.8,0.9-5.7,1.4C31.6,56.9,31.7,57.5,32.1,57.4z M35.3,58.6c2-0.2,4-0.4,5.9-0.8c0.4-0.1,0.2-0.6-0.2-0.6
	c-1.9,0.4-3.8,0.6-5.8,0.8C34.9,58,34.9,58.6,35.3,58.6z M15.6,88.5c-3,2.2-4.4,5.8-4.4,9.4c0,2.2,0.5,4.3,1.2,6.3
	c0.7,2.1,2.1,4.6,1.1,6.9c-0.2,0.3,0.4,0.6,0.5,0.3c0.7-1.6,0.4-3.3-0.2-4.9c-0.7-2.1-1.5-4-1.8-6.2c-0.6-4.1,0.4-8.7,3.9-11.3
	C16.2,88.8,15.9,88.3,15.6,88.5z"/>
<path class="st1" d="M15.4,89c-0.5,1.8-1.7,3.4-2.1,5.2c-0.4,1.8-0.4,3.7-0.1,5.5c0.4,2,1.2,3.8,1.9,5.7c0.7,1.9,1.2,4.2-0.3,5.9
	c-0.3,0.3,0.2,0.7,0.4,0.4c2.7-3,0-7-1-10.1c-0.7-2.1-1-4.5-0.5-6.7c0.4-2.1,1.7-3.7,2.3-5.7C16.1,88.8,15.5,88.7,15.4,89L15.4,89z"
	/>
<path class="st1" d="M15.9,88.8c-1.4,3.3-2.2,7.7-1.1,11.2c1.2,3.6,4.6,6.7,4,10.8c-0.1,0.4,0.5,0.5,0.6,0.2
	c0.6-3.7-1.9-6.6-3.4-9.7c-1.8-3.8-1.1-8.6,0.5-12.3C16.6,88.6,16.1,88.5,15.9,88.8z"/>
<path class="st1" d="M16.3,89c-1.3,3.2-1.3,6.8,0.1,10c1.6,3.7,6.1,6.1,6.2,10.4c0,0.4,0.6,0.4,0.6,0c-0.1-4-3.6-6.2-5.5-9.4
	c-2-3.3-2.2-7.4-0.7-10.9C17,88.8,16.4,88.7,16.3,89z"/>
<path class="st1" d="M16.7,88.8c-1.1,3.1-0.5,6.7,1.2,9.5c0.9,1.5,2.2,2.8,3.4,4.1c1.4,1.5,3.4,3.5,3.2,5.8c0,0.4,0.5,0.4,0.6,0
	c0.2-1.7-0.8-3.2-1.9-4.5c-1.2-1.4-2.5-2.7-3.7-4.1c-2.4-2.9-3.7-7-2.3-10.6C17.4,88.6,16.9,88.5,16.7,88.8L16.7,88.8z M94.1,87.9
	c-2,2.4-3.8,4.9-5.5,7.6c-0.2,0.3,0.3,0.6,0.5,0.3c1.7-2.6,3.5-5.1,5.4-7.4C94.7,88,94.3,87.6,94.1,87.9L94.1,87.9z M88.8,90.9
	c-1.8,2-3.6,4-5.2,6.1c-0.2,0.3,0.2,0.7,0.4,0.4c1.7-2.1,3.4-4.1,5.2-6.1C89.4,91.1,89,90.6,88.8,90.9z M84.6,91.5
	c-1.6,1.9-3.2,3.9-4.8,5.8c-0.2,0.3,0.2,0.7,0.4,0.4c1.6-1.9,3.2-3.9,4.8-5.8C85.3,91.6,84.9,91.2,84.6,91.5z M62.1,92.3
	c-2.2,2.3-4.3,4.7-6.3,7.1c-0.2,0.3,0.2,0.7,0.4,0.4c2-2.5,4.1-4.8,6.3-7.1C62.7,92.4,62.3,92,62.1,92.3z M58,91.2
	c-2,2.5-3.9,4.9-5.9,7.4c-0.2,0.3,0.2,0.7,0.4,0.4c2-2.5,3.9-4.9,5.9-7.4C58.7,91.3,58.3,90.9,58,91.2z M52.9,93
	c-1.5,1.5-2.9,3.2-4.2,4.9c-0.2,0.3,0.3,0.6,0.5,0.3c1.2-1.7,2.6-3.3,4.1-4.8C53.6,93.2,53.1,92.8,52.9,93z M94.8,60.1
	c-2.6,2.4-4.9,5-7.1,7.8c-0.2,0.3,0.3,0.6,0.5,0.3c2.1-2.7,4.4-5.3,7-7.6C95.4,60.2,95,59.8,94.8,60.1z M89,61.8
	c-1.7,1.8-3.3,3.8-4.7,5.8c-0.2,0.3,0.3,0.6,0.5,0.3c1.4-2,2.9-3.9,4.6-5.7C89.7,61.9,89.3,61.5,89,61.8L89,61.8z M85.8,63.1
	c-2.5,1.6-4.8,3.4-6.8,5.6c-0.3,0.3,0.2,0.7,0.4,0.4c2-2.1,4.2-4,6.7-5.5C86.5,63.4,86.2,62.9,85.8,63.1L85.8,63.1z M46,62.9
	c-2.6,1.7-5.1,3.6-7.4,5.6c-0.3,0.3,0.1,0.7,0.4,0.4c2.3-2,4.7-3.9,7.3-5.6C46.6,63.2,46.3,62.7,46,62.9z M42.8,62.6
	c-3.2,1.6-6.3,3.5-9.2,5.6c-0.3,0.2,0,0.7,0.3,0.5c2.9-2.1,6-4,9.2-5.6C43.4,62.9,43.1,62.4,42.8,62.6z M40.8,60.6
	c-2.4,1.3-4.8,2.9-6.9,4.6c-0.3,0.2,0.1,0.6,0.4,0.4c2.1-1.7,4.4-3.2,6.8-4.5C41.4,61,41.1,60.5,40.8,60.6z M36.6,60.1
	c-1.4,1-2.9,2.1-4.4,3.1c-0.3,0.2,0,0.7,0.3,0.5c1.4-1,2.9-2.1,4.4-3.1C37.2,60.4,36.9,59.9,36.6,60.1z M47,64.1
	c-1.4,0.8-2.6,1.8-3.8,2.8c-0.3,0.3,0.1,0.7,0.4,0.4c1.2-1,2.4-1.9,3.7-2.7C47.6,64.5,47.3,63.9,47,64.1z"/>
</svg>
