<?xml version="1.0" encoding="utf-8"?>
<!-- Generator: Adobe Illustrator 27.2.0, SVG Export Plug-In . SVG Version: 6.00 Build 0)  -->
<svg version="1.1" id="图层_1" xmlns="http://www.w3.org/2000/svg" xmlns:xlink="http://www.w3.org/1999/xlink" x="0px" y="0px"
	 viewBox="0 0 180 180" style="enable-background:new 0 0 180 180;" xml:space="preserve">
<style type="text/css">
	.st0{fill:#5C00E9;}
</style>
<path class="st0" d="M77.3,65.4c-2-1.8-4.8-2.7-7.7-2.7H43.9c-6.3,0.1-12,4.2-12.9,10.4l-6.1,53.3c-0.1,0.4-0.1,0.7-0.1,1.1
	c0,2.9,1.3,5.5,3.3,7.2c2,1.8,4.7,2.8,7.7,2.8v0h25.1c6.2-0.1,11.8-4.2,12.8-10.4l6.9-53.3c0.1-0.4,0.1-0.8,0.1-1.2
	C80.6,69.7,79.3,67.1,77.3,65.4z M74.4,73l-6.9,53.3c-0.2,2.3-3.3,5.1-6.7,5h-25c-3.1-0.1-4.8-1.9-4.8-3.8c0-0.1,0-0.3,0-0.4
	l6.1-53.3c0.1-2.3,3.2-5,6.7-5h25.7c3.3,0.1,4.9,1.9,4.9,3.8C74.4,72.7,74.4,72.8,74.4,73z M98.6,73.8c0.1-2.2,3.2-5,6.7-5H131
	c3.3,0.1,4.9,1.9,4.9,3.8c0,0.1,0,0.3,0,0.5l-0.1,0.7l5.6-4.6c-0.6-1.5-1.5-2.8-2.7-3.8c-2-1.8-4.8-2.7-7.7-2.7h-25.6
	c-6.3,0.1-12,4.2-12.9,10.4L91,85.7l6,2.3C97,88.1,98.6,73.8,98.6,73.8z M129,126.3c-0.2,2.3-3.3,5.1-6.7,5H97.3
	c-3.2-0.1-4.8-1.9-4.8-3.8c0-0.1,0-0.3,0-0.4l2.2-18.9l-5.3-7.4l-3,25.6c0,0.4-0.1,0.8-0.1,1.1c0,2.8,1.3,5.4,3.3,7.2
	c2,1.8,4.7,2.8,7.7,2.8h25c6.2-0.1,11.9-4.2,12.8-10.4l4.6-35.8l-7.6,10.5L129,126.3L129,126.3z"/>
<path d="M177.2,131.1L177.2,131.1l-9-67.7c-0.4-3.1-1.2-6-2.5-8.7c-1.1-4.2-3.3-8-6.3-11.1c-4.1-4.1-9.7-6.7-15.9-7.2v0
	c-1.3-8.6-8.2-15.5-17-15.5c-8.8,0.1-15.6,6.9-16.9,15.4h-4.1c-1.3-8.5-8.2-15.4-16.9-15.4c-8.8,0.1-15.6,6.9-16.9,15.4h-4.1
	c-1.3-8.5-8.2-15.4-16.9-15.4c-9.2,0.1-16.3,7.6-17.1,16.8c-11.3,3.5-20.2,13.6-21.7,25.8L2.8,131v0c-0.1,1-0.2,2.1-0.2,3.1
	c0,6.9,2.7,13.3,7.2,17.8c4.5,4.5,10.9,7.3,18,7.3h124.4c7.1,0,13.4-2.8,18-7.3c4.5-4.5,7.2-10.9,7.2-17.8
	C177.4,133.1,177.3,132.1,177.2,131.1L177.2,131.1z M120.2,31.8c1.7-1.9,3.9-2.9,6.3-2.9c3.9-0.1,7.5,2.9,8.7,7.4h-17.5
	C118.3,34.5,119.1,33,120.2,31.8L120.2,31.8z M82.3,31.8c1.7-1.9,3.9-2.9,6.3-2.9c3.9-0.1,7.5,2.9,8.7,7.4H79.9
	C80.3,34.5,81.2,33,82.3,31.8z M44.3,31.8c1.7-1.9,3.9-2.9,6.3-2.9c3.9-0.1,7.5,2.9,8.7,7.4H41.9C42.3,34.5,43.2,33,44.3,31.8z
	 M157.3,63.3l-9,67.7v0c-1,10.2-10.9,19.1-21,19h-1.5v0H27.8c-9.4-0.1-16-6.8-16-15.9c0-0.7,0-1.3,0.1-2l9-67.6v-0.1
	c0.8-7.8,6.7-14.8,14-17.6c1.3,3.1,3.4,5.8,6,7.8c0.7,0.5,1.6,0.8,2.4,0.8c1.2,0,2.5-0.5,3.2-1.6c1.3-1.8,0.9-4.3-0.9-5.6
	c-0.9-0.7-1.8-1.6-2.5-2.7h29.1c1.2,3.7,3.5,6.9,6.5,9.1c0.7,0.5,1.5,0.8,2.4,0.8c1.2,0,2.5-0.5,3.2-1.6c1.3-1.8,0.9-4.3-0.9-5.6
	c-0.9-0.7-1.8-1.6-2.5-2.7h29.1c1.2,3.7,3.5,6.9,6.5,9.1c0.7,0.5,1.5,0.8,2.4,0.8c1.2,0,2.5-0.5,3.2-1.6c1.3-1.8,0.9-4.3-0.9-5.6
	c-0.9-0.7-1.8-1.6-2.5-2.7H138c7.8-0.1,15.4,5.1,19,12.1c0.3,1.2,0.4,2.5,0.5,3.8C157.4,62,157.4,62.6,157.3,63.3z"/>
<path d="M148.9,69L114.5,97c-1.3,1.1-3.8,1.5-5.4,0.8L89.3,90c-1.6-0.6-2.1,0-1.1,1.4l21.1,29.2c1,1.4,2.7,1.4,3.7,0l36.5-51
	C150.6,68.2,150.3,68,148.9,69L148.9,69z"/>
</svg>
