<?xml version="1.0" encoding="utf-8"?>
<!-- Generator: Adobe Illustrator 27.2.0, SVG Export Plug-In . SVG Version: 6.00 Build 0)  -->
<svg version="1.1" id="图层_1" xmlns="http://www.w3.org/2000/svg" xmlns:xlink="http://www.w3.org/1999/xlink" x="0px" y="0px"
	 viewBox="0 0 180 180" style="enable-background:new 0 0 180 180;" xml:space="preserve">
<style type="text/css">
	.st0{fill:#E88C1B;}
	.st1{fill:#FADE2F;}
	.st2{fill:#FBC831;}
	.st3{fill:#FE5E21;}
	.st4{fill:#263FEC;}
	.st5{fill:#2784FA;}
	.st6{fill:#3FABFB;}
	.st7{fill:#FB6F22;}
</style>
<path class="st0" d="M35.5,91.5c0,0,0.6,31.3,4.2,49.2c0.8,4.2,3.9,7.7,8.1,8.9c15.3,4.7,54.8,14.2,80-2.5c2.8-1.9,4.7-4.8,5.3-8.1
	c1.9-11.8,6.2-42.9,3.5-57.2L35.5,91.5z"/>
<path class="st1" d="M39.7,140.7c0.8,4.2,3.9,7.7,8.1,8.9c7.4,2.2,20.4,5.6,34.7,6.7c10.4-0.8,20.6-3.5,29.2-9.2
	c2.8-1.9,4.7-4.8,5.3-8.1c1.8-11.4,6-40.9,3.8-55.7l-85.3,8.1C35.5,91.5,36.2,122.8,39.7,140.7L39.7,140.7z"/>
<path class="st2" d="M118.2,131.4c1.9-13.8,4.4-35.9,2.6-48.1l-85.3,8.1c0,0,0.5,22.2,2.8,40L118.2,131.4L118.2,131.4z"/>
<path class="st3" d="M164.7,79.5h-9.9v45.6h9.9V79.5z"/>
<path class="st4" d="M6.3,66.2L88.8,24c1.6-0.8,3.5-0.8,5,0.1l73.6,42c3.5,2,3.5,7.1,0,9.1l-78.2,44.5c-1.6,0.9-3.6,0.9-5.2,0
	L6.1,75.5C2.5,73.4,2.6,68.1,6.3,66.2z"/>
<path class="st5" d="M138,66.1L75.8,30.6L6.3,66.2c-3.7,1.9-3.8,7.2-0.2,9.2l65.7,37.4L138,75.2C141.5,73.2,141.5,68.1,138,66.1z"/>
<path class="st6" d="M138,66.1L95.2,41.7L25.7,77.3c-3.7,1.9-3.8,7-0.3,9.1l46.5,26.4L138,75.2C141.5,73.2,141.5,68.1,138,66.1z"/>
<path class="st7" d="M160,120.4c-9.3,0-16.9,7.6-16.9,16.9v7.5c0,3.9,3.2,7.1,7.1,7.1h19.5c3.9,0,7.1-3.2,7.1-7.1v-7.5
	C176.9,128,169.3,120.4,160,120.4z"/>
</svg>
