<?xml version="1.0" encoding="utf-8"?>
<!-- Generator: Adobe Illustrator 27.2.0, SVG Export Plug-In . SVG Version: 6.00 Build 0)  -->
<svg version="1.1" id="图层_1" xmlns="http://www.w3.org/2000/svg" xmlns:xlink="http://www.w3.org/1999/xlink" x="0px" y="0px"
	 viewBox="0 0 200 200" style="enable-background:new 0 0 200 200;" xml:space="preserve">
<style type="text/css">
	.st0{fill:#1677FF;}
	.st1{fill:#FFFFFF;}
</style>
<path class="st0" d="M11.4,0h177.1c7.6,0,11.4,3.8,11.4,11.4v177.1c0,7.6-3.8,11.4-11.4,11.4H11.4c-7.6,0-11.4-3.8-11.4-11.4V11.4
	C-0.1,3.8,3.8,0,11.4,0z"/>
<path class="st1" d="M125.6,117.4c0,0,4.7-6.9,9.3-20.6c5-13.8,5.7-21.3,5.7-21.3l-38.1-0.3V61.6l46.1-0.3v-9.6h-46.1V30H79.9v21.3
	H36.2V61l43.1-0.3v14.4H44.9v7.6H116c0,0-0.7,6.2-3.3,13.8c-3,7.6-5.7,14.1-5.7,14.1s-33.4-12-51.1-12c-17.7,0-39,7.6-41.1,28.6
	s10,32.7,27,36.8c16.7,4.1,32.4,0,46.1-6.9c13.7-6.9,27-22.4,27-22.4l70.8,35.4c0,0,4.3-6.9,7.7-13.4c2.2-4.5,4.2-9.1,6-13.8
	L125.6,117.4L125.6,117.4z M54.5,153.2c-24,0-28.7-13.6-28.7-23.1c0-9.5,5.1-20.2,25.2-21.6C71.1,107,98.6,125,98.6,125
	S78.5,153.2,54.5,153.2z"/>
</svg>
