<?xml version="1.0" standalone="no"?><!DOCTYPE svg PUBLIC "-//W3C//DTD SVG 1.1//EN" "http://www.w3.org/Graphics/SVG/1.1/DTD/svg11.dtd"><svg t="1678320384464" class="icon" viewBox="0 0 1024 1024" version="1.1" xmlns="http://www.w3.org/2000/svg" p-id="9450" xmlns:xlink="http://www.w3.org/1999/xlink" width="200" height="200"><path d="M141.092 990.148h-15.396v-15.396h15.396v15.396z m-30.792 0h-0.99a109.86 109.86 0 0 1-15.434-1.088l2.166-15.24c4.358 0.618 8.82 0.932 13.268 0.932h0.99v15.396z m-32.582-4.654a108.868 108.868 0 0 1-15.444-5.988l6.65-13.888a92.764 92.764 0 0 0 13.244 5.136l-4.45 14.74z m-29.784-14.244a110.986 110.986 0 0 1-12.93-10.304l10.47-11.292a95.186 95.186 0 0 0 11.126 8.87l-8.666 12.726z m-24.172-22.434a110.44 110.44 0 0 1-9.292-13.672l13.346-7.672a94.528 94.528 0 0 0 7.994 11.758l-12.048 9.586z m-16.424-28.592a108.772 108.772 0 0 1-4.788-15.842l15.036-3.318a93.492 93.492 0 0 0 4.108 13.596l-14.356 5.564zM0.23 888A111.792 111.792 0 0 1 0 880.838v-8.726h15.396v8.726c0 2.07 0.068 4.128 0.2 6.164L0.23 888z m15.166-31.284H0v-15.396h15.396v15.396z m0-30.792H0v-15.396h15.396v15.396z m0-30.792H0v-15.396h15.396v15.396z m0-30.792H0v-15.396h15.396v15.396z m0-30.79H0v-15.396h15.396v15.396z m0-30.792H0v-15.396h15.396v15.396z m0-30.792H0v-15.396h15.396v15.396z m0-30.792H0v-15.396h15.396v15.396zM688.744 949.072H114.424c-40.464 0-73.386-32.922-73.386-73.386V328.412a7.698 7.698 0 0 1 7.698-7.698h868.79a7.698 7.698 0 0 1 7.698 7.698v295.96h-15.396V336.11H56.434v539.576c0 31.978 26.014 57.99 57.99 57.99h574.32v15.396z" fill="#4A555F" p-id="9451"></path><path d="M917.526 336.154H48.766a7.698 7.698 0 0 1-7.698-7.698V224.58c0-46.476 37.81-84.286 84.286-84.286h33.748a7.698 7.698 0 0 1 7.698 7.698v42.882c0 17.984 13.8 32.95 30.764 33.358 8.688 0.182 16.744-2.984 22.89-8.984a31.28 31.28 0 0 0 9.514-22.558v-44.7a7.698 7.698 0 0 1 7.698-7.698H443.86a7.698 7.698 0 0 1 7.698 7.698v42.882c0 17.984 13.802 32.95 30.766 33.358 8.702 0.182 16.74-2.984 22.888-8.984a31.28 31.28 0 0 0 9.514-22.558v-44.7a7.698 7.698 0 0 1 7.698-7.698H728.62a7.698 7.698 0 0 1 7.698 7.698v44.7c0 8.558 3.378 16.568 9.514 22.558 6.146 5.998 14.228 9.164 22.888 8.984 16.964-0.408 30.764-15.374 30.764-33.358v-42.88a7.698 7.698 0 0 1 7.698-7.698h33.748c46.478 0 84.29 37.81 84.29 84.286v103.878a7.688 7.688 0 0 1-7.694 7.696zM56.464 320.76h853.364v-96.18c0-37.986-30.904-68.89-68.894-68.89h-26.05v35.184c0 26.272-20.54 48.14-45.79 48.748-12.802 0.294-24.872-4.436-34.014-13.356-9.128-8.91-14.156-20.836-14.156-33.576v-37h-190.8v37.002c0 12.74-5.026 24.666-14.156 33.576-9.142 8.92-21.156 13.652-34.014 13.356-25.248-0.608-45.792-22.478-45.792-48.748V155.69h-190.798v37.002c0 12.74-5.026 24.662-14.156 33.574-9.142 8.924-21.166 13.654-34.016 13.358-25.248-0.608-45.79-22.478-45.79-48.748V155.69H125.354c-37.986 0-68.89 30.904-68.89 68.89v96.18z" fill="#4A555F" p-id="9452"></path><path d="M74.426 302.798V224.58c0-28.082 22.846-50.928 50.93-50.928h8.088v17.222c0 35.938 28.404 65.864 63.316 66.708l1.596 0.02c35.826 0 64.974-29.118 64.974-64.91v-19.038h154.874v17.222c0 35.938 28.404 65.864 63.32 66.708l1.594 0.02c35.824 0 64.972-29.118 64.972-64.91v-19.038h154.876v19.038c0 35.792 29.148 64.91 64.976 64.91l1.594-0.02c34.912-0.844 63.312-30.77 63.312-66.708v-17.222h8.09c28.08 0 50.928 22.846 50.928 50.93V302.8H74.426z" fill="#F58E6F" p-id="9453"></path><path d="M198.376 231.938c-21.688 0-39.268-17.582-39.268-39.268V101.834c0-21.688 17.582-39.268 39.268-39.268 21.688 0 39.268 17.582 39.268 39.268v90.836c0 21.686-17.582 39.268-39.268 39.268zM483.14 231.938c-21.688 0-39.268-17.582-39.268-39.268V101.834c0-21.688 17.582-39.268 39.268-39.268 21.688 0 39.268 17.582 39.268 39.268v90.836c0.002 21.686-17.58 39.268-39.268 39.268zM767.906 231.938c-21.688 0-39.268-17.582-39.268-39.268V101.834c0-21.688 17.582-39.268 39.268-39.268 21.688 0 39.268 17.582 39.268 39.268v90.836c0.002 21.686-17.58 39.268-39.268 39.268z" fill="#DFDFDF" p-id="9454"></path><path d="M198.376 239.634c-25.898 0-46.966-21.07-46.966-46.966V101.834c0-25.898 21.07-46.968 46.966-46.968s46.968 21.07 46.968 46.968v90.834c-0.002 25.898-21.072 46.966-46.968 46.966z m0-169.372c-17.408 0-31.572 14.164-31.572 31.572v90.834c0 17.408 14.164 31.572 31.572 31.572s31.572-14.164 31.572-31.572V101.834c-0.002-17.408-14.164-31.572-31.572-31.572zM483.142 239.634c-25.898 0-46.968-21.07-46.968-46.966V101.834c0-25.898 21.07-46.968 46.968-46.968 25.898 0 46.966 21.07 46.966 46.968v90.834c0 25.898-21.068 46.966-46.966 46.966z m0-169.372c-17.408 0-31.572 14.164-31.572 31.572v90.834c0 17.408 14.164 31.572 31.572 31.572s31.572-14.164 31.572-31.572V101.834c-0.002-17.408-14.164-31.572-31.572-31.572zM855.936 117.13h-15.396v-15.396h15.396v15.396z m-16.03-29.702a66.79 66.79 0 0 0-3.278-13.384l14.498-5.188a82.506 82.506 0 0 1 4.03 16.466l-15.25 2.106z m-9.226-25.82a68.066 68.066 0 0 0-8.36-10.984l11.242-10.52a83.438 83.438 0 0 1 10.254 13.474l-13.136 8.03z m-18.764-20.058a67.724 67.724 0 0 0-12.018-6.776l6.15-14.112a83.102 83.102 0 0 1 14.754 8.314l-8.886 12.574z m-25.152-10.948a67.786 67.786 0 0 0-13.722-1.4V13.806c5.664 0 11.328 0.578 16.844 1.722l-3.122 15.074zM767.906 239.634c-25.896 0-46.964-21.07-46.964-46.966V101.834c0-25.898 21.07-46.968 46.964-46.968 25.898 0 46.968 21.07 46.968 46.968v90.834c-0.002 25.898-21.07 46.966-46.968 46.966z m0-169.372c-17.408 0-31.568 14.164-31.568 31.572v90.834c0 17.408 14.16 31.572 31.568 31.572s31.572-14.164 31.572-31.572V101.834c-0.002-17.408-14.164-31.572-31.572-31.572z" fill="#4A555F" p-id="9455"></path><path d="M840.958 634.894v35.924c-76.876 0-139.436 62.56-139.436 139.436 0 34.588 12.728 66.766 34.178 91.502 0.308 0.36 0.616 0.668 0.924 1.026l-27.096 23.504-1.386-1.54c-26.532-30.74-42.544-70.718-42.544-114.494 0-96.84 78.52-175.358 175.36-175.358z" fill="#FFD452" p-id="9456"></path><path d="M348.298 425.51h88.146v88.146h-88.146zM532.164 425.51h88.146v88.146h-88.146zM716.032 425.51h88.146v88.146h-88.146zM164.43 590.836h88.146v88.146H164.43zM348.298 590.836h88.146v88.146h-88.146zM164.43 757.358h88.146v88.146H164.43zM348.298 757.358h88.146v88.146h-88.146zM532.164 590.836h88.146v88.146h-88.146zM531.928 757.606l88.146-0.44 0.44 88.146-88.144 0.44zM804.162 590.862v21.758c-32.844 6.108-62.918 20.22-88.116 40.236v-61.994h88.116z" fill="#F58E6F" p-id="9457"></path><path d="M758.926 1010.194l-5.944-14.204 40.284-16.864-12.506-38.45 14.64-4.762 14.702 45.192a7.7 7.7 0 0 1-4.348 9.482l-46.828 19.606zM840.95 837.488c-14.028 0-25.442-11.414-25.442-25.444 0-14.028 11.414-25.442 25.442-25.442 14.03 0 25.444 11.414 25.444 25.442 0.002 14.03-11.414 25.444-25.444 25.444z m0-35.49c-5.54 0-10.046 4.506-10.046 10.046s4.506 10.048 10.046 10.048c5.54 0 10.048-4.508 10.048-10.048s-4.506-10.046-10.048-10.046z" fill="#4A555F" p-id="9458"></path><path d="M833.252 694.034h15.396v100.266h-15.396zM774.426 860.318l49.032-41.58 9.958 11.74-49.032 41.582z" fill="#4A555F" p-id="9459"></path><path d="M887.348 987.36l-3.894-14.894c73.686-19.254 125.15-85.956 125.15-162.206 0-92.446-75.208-167.654-167.654-167.654s-167.654 75.208-167.654 167.654c0 76.248 51.466 142.95 125.152 162.206l-3.894 14.894c-80.46-21.024-136.654-93.852-136.654-177.1 0-100.932 82.116-183.05 183.05-183.05S1024 709.328 1024 810.26c0 83.25-56.194 156.076-136.652 177.1z" fill="#4A555F" p-id="9460"></path></svg>