<?xml version="1.0" encoding="utf-8"?>
<!-- Generator: Adobe Illustrator 24.0.0, SVG Export Plug-In . SVG Version: 6.00 Build 0)  -->
<svg version="1.1" id="图层_1" xmlns="http://www.w3.org/2000/svg" xmlns:xlink="http://www.w3.org/1999/xlink" x="0px" y="0px"
	 viewBox="0 0 270 130" style="enable-background:new 0 0 270 130;" xml:space="preserve">
<style type="text/css">
	.st0{fill:#FF9100;}
	.st1{fill:#0097E0;}
</style>
<g>
	<g>
		<g>
			<path class="st0" d="M5,19.9C21.3-0.4,69.5-5.6,66.3,27.5c-2.6,27.8-40.6,41.2-48.6,27.3C4.6,32.1,88.3-3,79.8,60.2H69.3
				C86.8,7.1,19,26,23.4,47c2.8,13.3,41.8,7.5,41.4-20.7C64.5,1.4,32.4,5.5,18.6,19.9H5z"/>
		</g>
		<g>
			<path class="st1" d="M99.3,60.3h-8.1l3-13.4c0.2-1.1,1.9-6.7,0.3-8c-2.3-1.8-9.9-2.3-13.6,0.6l0.6-3c1.9-1.2,6.4-3.9,14.1-3.9
				c3.1,0,5.3,0.8,6.7,2.5c1.4,1.7,1.7,4.2,0.9,7.6L99.3,60.3z"/>
		</g>
		<g>
			<path class="st1" d="M114.2,52.1c1.3-5.6,11.7-4.9,13-5l-1.8,7.8C124.5,55.4,113.3,55.6,114.2,52.1 M124.2,60.3h8l4.1-18.4
				c0.7-3.2,0.1-5.6-1.9-7.1s-5.5-2.5-10.7-2.2c-6.5,0.4-11.1,3.7-12.2,3.9l-0.7,3.2c0,0,4.4-3.5,13.1-2.7c6.1,0.5,4.6,3.8,4.2,5.3
				v0.1c-4,0.2-20.4-0.9-22.8,9.9c-1.3,5.7,4.7,7.9,7.3,7.9c4.9,0,11.5-2.7,12-3L124.2,60.3z"/>
		</g>
		<g>
			<polygon class="st1" points="146,60.3 138.3,60.3 146.6,23.4 154.3,23.4 			"/>
		</g>
		<g>
			<path class="st1" d="M203.3,36.4c2.8,0.6,5.1,2.2,5.1,2.2l0.7-2.9c0,0-4.6-3-11.1-3c-5.5,0-9.4,1.5-10.9,4.7
				c-1.9,4.2,1.3,8.1,5.5,9.1c4.6,1.1,6.7,2.9,6.3,5.1c-0.4,2.3-6,4.1-8.8,4.1s-9.7-0.2-14.4-8.5l-2,2.6c0,0,5.8,9.9,16.6,10.3
				c6.8,0.3,11.6-1,14.7-5c3.1-4.1,2-8,0.3-9.4c-4.4-4-12.6-1.5-11.8-6.5C194,37,198.9,35.4,203.3,36.4"/>
		</g>
		<g>
			<polygon class="st1" points="222.2,51 234,32.8 242.6,32.8 217.6,70.7 208.9,70.7 218.4,56.6 210.8,32.8 216.3,32.8 			"/>
		</g>
		<g>
			<path class="st1" d="M259.2,36.4c2.8,0.6,5.1,2.2,5.1,2.2l0.7-2.9c0,0-4.7-3-11.1-3c-5.5,0-9.4,1.5-10.9,4.7
				c-1.9,4.2,1.3,8.1,5.5,9.1c4.6,1.1,6.7,2.9,6.3,5.1c-0.4,2.3-6,4.1-8.8,4.1s-9.7-0.2-14.4-8.5l-2,2.6c0,0,5.8,9.9,16.6,10.3
				c6.8,0.3,11.6-1,14.7-5c3.1-4.1,2-8,0.3-9.4c-4.4-4-12.6-1.5-11.8-6.5C249.9,37,254.8,35.4,259.2,36.4"/>
		</g>
		<g>
			<polygon class="st1" points="166.3,51 178.1,32.8 186.7,32.8 161.5,70.7 152.8,70.7 162.5,56.6 154.9,32.8 160.4,32.8 			"/>
		</g>
	</g>
	<g>
		<g>
			<g>
				<path class="st1" d="M85.4,125.8c-0.1-1.7-0.4-3.6-1-5.7c4.8,0.2,7.4-1.4,7.8-4.7l1-7.2h-2.6c-2.3,4.5-5.7,8.3-10.3,11.4
					c-4.6,3.1-9.4,5.2-14.5,6.6c-1-1.2-2.1-2.6-3.3-4.2c4.3-0.9,8.5-2.5,12.6-4.8c4.1-2.3,7.3-5.3,9.5-8.9h-4.3
					c-2.4,3.1-5.4,5.6-9,7.7c-3.6,2-7.2,3.6-10.7,4.6c-0.8-1.1-1.8-2.5-3-4.3c6-1,11.3-3.6,16-8h-4.2c-3.6,2.1-7,3.6-10.3,4.7
					c-0.8-1.2-1.8-2.6-2.9-4.1c5.2-1.5,10.2-4.1,14.7-7.7h-1.4c-1.3,0-2.9,0.1-4.6,0.3c0.4-1.7,0.7-3.1,0.9-4.2l1.6-11
					c0.2-1.2,0.3-2.6,0.3-4.3c1.8,0.2,3.3,0.3,4.5,0.3H93c1.3,0,2.8-0.1,4.6-0.3c-0.4,1.8-0.7,3.2-0.9,4.3l-1.5,11
					c-0.2,1.1-0.3,2.5-0.3,4.2c-1.8-0.2-3.3-0.3-4.5-0.3H78.2c-1,1-1.9,1.9-2.9,2.5h18.8c1.5,0,3.3-0.1,5.4-0.3
					c-0.5,2.1-0.8,3.6-0.9,4.7l-1,7.1c-0.4,3.4-1.6,5.9-3.5,7.7C92.3,124.5,89.3,125.5,85.4,125.8 M71.2,96.5h18.7l0.4-2.5H71.6
					L71.2,96.5z M72.2,89.3h18.7l0.4-2.5H72.6L72.2,89.3z"/>
			</g>
			<g>
				<path class="st1" d="M109.5,90.7l0.8-5.4c1.8,0.1,3.3,0.1,4.6,0.2h10.9c0.6,0.5,1.1,1,1.6,1.6c-1.1,6.6-3.2,12.7-6.2,18.3
					c1.4,2.2,2.7,4.6,4,7.2l-4.6,4c-0.9-1.9-1.9-3.8-2.8-5.7c-2.4,3.7-5.7,6.8-9.8,9.4c-0.6-1.7-1.4-3.4-2.5-5.3
					c4.1-2.3,7.3-5.3,9.7-9c-1.9-3.1-3.8-6.5-5.9-10.1l5.1-2.6c1.4,2.2,2.7,4.6,4,7c1.2-3.4,2.1-6.7,2.8-9.9h-7.1
					C112.8,90.6,111.2,90.7,109.5,90.7 M118.8,126.3c-0.5-1.6-1.3-3.3-2.3-5.3c6.4-1.6,11.2-4.6,14.3-9.1s5.1-10.1,5.9-16.9l0.6-4.4
					c2,0.3,3.9,0.7,5.5,1c-0.6,5.8-1.9,10.9-3.9,15.5h3.5c-0.4,1.4-0.7,2.5-0.8,3.2l-1.3,9.2c-0.1,0.6,0.2,1,0.9,1.1h1.4
					c1-0.1,1.7-0.7,2-1.8c0.3-1.1,0.5-2.3,0.6-3.5c2.2,1.1,3.9,1.8,5.1,2.1c-0.5,2-1.1,4-2,5.8s-2.5,2.8-5,2.9h-4.8
					c-1.3,0-2.3-0.1-3.2-0.4s-1.2-1.1-1.1-2.2l1.4-10.1C132.7,119.5,126.9,123.9,118.8,126.3 M125.4,109.6c0.5-2.4,0.8-4,1-4.9
					l2.3-16.7c0.1-0.9,0.3-2.5,0.4-4.8c2.8,0.2,4.5,0.3,5.3,0.3h13.3c0.5,0,1,0,1.7-0.1c0.6,0,1.7-0.1,3.2-0.2
					c-0.5,2.1-0.8,3.7-0.9,4.8l-2.3,16.4c-0.1,0.9-0.3,2.5-0.4,4.8h-5.9c0.5-2.3,0.8-4,0.9-4.8l2.2-15.9H134l-2.3,16.2
					c-0.1,0.9-0.3,2.5-0.4,4.9L125.4,109.6L125.4,109.6z"/>
			</g>
		</g>
		<g>
			<path class="st1" d="M188.4,116.2c0.3-1.5,1.6-10,1.6-10h-9c-3.5,16.1-16,20-16,20s-1.5-2.6-3.2-4.6c2.3-1,4.3-2.1,5.9-3.2
				c1.8-1.3,3.2-2.6,4.1-3.7c1.1-1.4,1.9-2.9,2.6-4.3c0.6-1.3,1-2.4,1.3-4.1c-0.5,0-6.4,0-6.4,0l0.5-4.4c-0.3,0.3-0.6,0.7-1,1
				c-1.5,1.5-2.9,2.9-4.3,4.1l-4-4.1c2.6-1.7,5-3.6,7-5.7s3.8-4.2,5.2-6.3c1-1.4,1.8-2.8,2.5-4s1.3-2.5,1.9-3.7l0.2-0.5
				c0,0,4.8,1.9,5,1.9c-5.1,10.6-10.7,15.3-11.5,16.2c0.7,0.1,1.8,0.2,3.2,0.2c1.6,0.1,3.7,0.1,6.3,0.1c1.5,0,3.1,0,4.7,0
				c1.6,0,3.2,0,4.6,0l0,0c1.4,0,2.7,0,3.9,0c0.7,0,1.3,0,1.7,0c-1.5-1.6-2.9-3.2-3.9-4.8c-1-1.5-1.8-3.3-2.5-5.6
				c-0.7-2.2-1.3-4.6-1.7-7l-0.1-0.5l5.1-1l0.1,0.5c0.4,2.3,0.9,4.4,1.5,6.2c0.6,1.8,1.3,3.2,2.2,4.3c1.5,1.8,2.9,3.2,4.4,4.3
				c1.5,1,3.1,1.9,4.9,2.7l-4.5,5.5c-1.5-1.1-2.9-2.3-4.2-3.5l-2.1,12c0,0-0.5,5-2,6.8c-1.4,1.8-2.4,4.3-10.5,5.1
				c-0.1-0.7-0.3-3.1-1-5.7C187.3,120.5,188.1,117.5,188.4,116.2z"/>
			<g>
				<path class="st1" d="M256.9,96.2c-0.8,0.1-1.5,0.2-2.1,0.2l0,0c-0.6,0.1-1.2,0.1-1.9,0.1s-1.5,0.1-2.3,0.1s-1.9,0-3.2,0h-8.1
					l0.7-6.9c0.7-0.1,16.5-1.3,16.8-1.8c-1.1-1.7-2.5-5.8-2.5-5.8l-0.5,0.2c-1,0.4-2.3,0.8-3.9,1.2c-1.6,0.4-3.3,0.7-5,1
					s-3.4,0.5-5.1,0.7c-1.7,0.1-3.1,0.2-4.2,0.1h-0.5v0.6c0,0.6,0,1.3,0,1.8c0,0.6-0.1,1.3-0.1,2.2c-0.1,0.9-0.2,2.1-0.3,3.5
					s-0.4,3.2-0.6,5.6c-0.4,3.5-0.8,6.5-1.3,8.8s-1.1,4.4-1.7,6.1c-0.7,1.7-1.5,3.2-2.6,4.4c-1,1.3-2.3,2.6-3.9,3.9l-0.5,0.4
					l0.5,0.4c0.7,0.5,1.4,1,2.1,1.4c0.6,0.5,1.2,0.9,1.8,1.3l0.4,0.3l0.3-0.4c1.5-1.7,2.7-3.5,3.8-5.2s2-3.6,2.8-5.5
					s1.4-4.1,1.9-6.4c0.5-2.2,0.9-4.1,1.2-6.8h6l-1.7,15.9c-0.1,1.4-0.3,2.7-0.5,3.9c-0.2,1.1-0.4,2.4-0.7,3.6l-0.1,0.6h5.9v-0.5
					c0-1.3,0-2.5,0.1-3.6s0.2-2.4,0.3-3.9l1.7-16c0.6,0,7.1-0.1,7.1-0.1l0.6-5.5L256.9,96.2z"/>
				<path class="st1" d="M226.5,106.3c0.4,1.5,0.6,2.9,0.8,4.2l0.1,0.7l4.6-2l-0.1-0.4c-0.3-1.1-0.7-2.4-1-3.7
					c-0.3-1.3-0.7-2.8-1.1-4.4l-0.1-0.5l-4.2,1.5l0.5-4.8c1.2,0,2.4,0.1,3.3,0.1c1.1,0.1,2.1,0.1,2.9,0.2l0.5,0.1l0.6-5.6l-0.6,0.1
					c-0.9,0.1-1.8,0.2-2.9,0.3c-1,0-2.1,0.1-3.3,0.1c0,0,0.8-7.3,1.1-9.9c-0.6,0.1-5.2-0.3-5.2-0.3s0,2.6-0.1,4.2
					c-0.1,1.5-0.3,3.5-0.5,6c-1.4,0-2.7-0.1-3.9-0.1s-2.3-0.1-3.2-0.3l-0.5-0.1l-0.6,5.6l0.6-0.1c0.9-0.1,2-0.2,3.3-0.2
					c1-0.1,2.2-0.1,3.5-0.1c-0.7,1.7-1.4,3.2-2.1,4.6c-0.8,1.5-1.6,2.9-2.4,4.2c-0.8,1.3-1.7,2.4-2.6,3.5c-0.9,1-1.9,2.1-3,3
					l-0.4,0.3l0.3,0.4c0.5,0.5,0.9,1.1,1.3,1.7c0.4,0.6,0.8,1.3,1.1,2l0.3,0.6l0.5-0.5c0.9-0.9,5.8-8,6-8.3l-0.9,8.6
					c-0.1,1.2-0.3,2.7-0.6,4.2c-0.2,1.6-1,5.2-1,5.2h5.7c0,0,0-3.6,0.1-5.1s0.2-3,0.3-4.2l1.5-14.4
					C225.7,103.7,226.2,104.9,226.5,106.3z"/>
			</g>
		</g>
	</g>
</g>
</svg>
