<?xml version="1.0" encoding="utf-8"?>
<!-- Generator: Adobe Illustrator 27.2.0, SVG Export Plug-In . SVG Version: 6.00 Build 0)  -->
<svg version="1.1" id="图层_1" xmlns="http://www.w3.org/2000/svg" xmlns:xlink="http://www.w3.org/1999/xlink" x="0px" y="0px"
	 viewBox="0 0 170 170" style="enable-background:new 0 0 170 170;" xml:space="preserve">
<style type="text/css">
	.st0{fill:#FFFFFF;}
	.st1{fill:#61C3FA;}
	.st2{fill:#EC5A70;}
</style>
<path class="st0" d="M30.6,0h108.8C159.8,0,170,10.2,170,30.6v108.8c0,20.4-10.2,30.6-30.6,30.6H30.6C10.2,170,0,159.8,0,139.4V30.6
	C0,10.2,10.2,0,30.6,0z"/>
<path class="st1" d="M85,43c-11,0-20,9-20,20s9,20,20,20s20-9,20-20C105,52,96,43,85,43 M85,25c21,0,38,17,38,38s-17,38-38,38
	S47,84,47,63l0,0C47,42,64,25,85,25z"/>
<path class="st1" d="M145.6,129.9c-14.1,13.2-36.3,12.4-49.5-1.7c-3.4-3.6-3.2-9.3,0.4-12.7c3.6-3.4,9.3-3.2,12.7,0.4
	c6.4,6.9,17.2,7.2,24,0.8c6.9-6.4,7.2-17.2,0.8-24c-6.4-6.9-17.2-7.2-24-0.8c-3.6,3.4-9.3,3.2-12.7-0.4c-3.4-3.6-3.2-9.3,0.4-12.7
	c14.2-13.1,36.3-12.3,49.5,1.9C160.4,94.7,159.6,116.7,145.6,129.9z M47,87c-9.9,0-18,8.1-18,18c0,9.9,8.1,18,18,18s18-8.1,18-18
	C65,95.1,56.9,87,47,87 M47,69c19.9,0,36,16.1,36,36s-16.1,36-36,36s-36-16.1-36-36C11,85.1,27.1,69,47,69C47,69,47,69,47,69z"/>
<path class="st1" d="M70.5,132.3l-12.9-12.6l40.8-41.6l12.9,12.6L70.5,132.3z"/>
<path class="st2" d="M85,101c-21,0-38-17-38-38c0-5,4-9,9-9h0c5,0,9,4,9,9v0c0,11,9,20,20,20c11,0,20-9,20-20c0-5,4-9,9-9
	c5,0,9,4,9,9C123,84,106,101,85,101L85,101z"/>
</svg>
