<?xml version="1.0" encoding="utf-8"?>
<!-- Generator: Adobe Illustrator 27.2.0, SVG Export Plug-In . SVG Version: 6.00 Build 0)  -->
<svg version="1.1" id="图层_1" xmlns="http://www.w3.org/2000/svg" xmlns:xlink="http://www.w3.org/1999/xlink" x="0px" y="0px"
	 viewBox="0 0 110 110" style="enable-background:new 0 0 110 110;" xml:space="preserve">
<style type="text/css">
	.st0{fill:#E60012;}
</style>
<path class="st0" d="M85.2,31.8c-4.6-3-10.3-4.6-16.1-4.9l-1.3-4.8l0,0c-0.1-0.1-0.1-0.3-0.2-0.4l-0.4-1.4c-0.9-4.1,0.7-6,1.6-6.7
	c0.1-0.1,0.3-0.2,0.4-0.3c3.8-2.5,9.2,1.5,9.5,1.8c2.4,2.3,6.8,2.9,9.1,0.5c2.4-2.4,1.8-6.8-0.6-9.2c-3.7-3.7-15.1-9.7-24.9-3.2
	c-8.7,5.8-8.9,14-7.5,18.7l1.7,6.4c-2.9,0.8-5.7,2-8.3,3.6C39,37.8,34.2,47.6,35.4,59c1.2,11.6,10,20.1,20.8,20.1
	c11.5,0,20.8-9.3,20.8-20.8c-0.2-2.7-0.1-2.7-0.5-5.1c-0.4-2.4-3.9-13.6-3.9-13.6c2.2,0.5,4.2,1.3,5.9,2.4
	c19.7,12.8,11.5,33.1,11.1,34c-5.4,13-17.3,20.8-32.5,21.3c-9.9,0.3-19.4-3.4-26.8-10.4c-7.7-7.5-12.2-17.9-12.2-28.6
	c0-16.2,10.2-30.9,25.4-36.6c3.2-1.2,5.7-4.6,4-8.5c-1.4-3.1-5.1-4.1-8.3-2.9C19.4,17.8,6,37.1,6,58.3c0,14,5.8,27.7,15.9,37.4
	c9.3,9,21.3,13.9,34,13.9c0.6,0,1.2,0,1.7,0c19.9-0.7,36.1-11.5,43.4-28.7C105.5,70.4,108,46.6,85.2,31.8z M64.8,58.3
	c0,4.7-3.8,8.5-8.6,8.5c-5.2,0-8.1-4.8-8.6-9.2c-0.9-8.4,3.5-13,7.4-15.4c1.6-1,3.3-1.7,5.1-2.2c0,0,4.2,13.2,4.5,15.3
	C64.9,57.6,64.8,58.3,64.8,58.3z"/>
</svg>
