<?xml version="1.0" encoding="utf-8"?>
<!-- Generator: Adobe Illustrator 27.2.0, SVG Export Plug-In . SVG Version: 6.00 Build 0)  -->
<svg version="1.1" id="图层_1" xmlns="http://www.w3.org/2000/svg" xmlns:xlink="http://www.w3.org/1999/xlink" x="0px" y="0px"
	 viewBox="0 0 180 180" style="enable-background:new 0 0 180 180;" xml:space="preserve">
<style type="text/css">
	.st0{fill:#A0D3F8;}
	.st1{fill:#108EE9;}
</style>
<path class="st0" d="M61.5,147.5l0.3-0.9c-1.7-0.4-3.4-0.9-5.1-1.4C58.2,146.1,59.8,146.9,61.5,147.5z M150.3,70.2
	c-1.1-4-2.5-7.9-4.4-11.8c-3.1-6.3-7.1-12-11.9-17c5.4,8,9,17.2,10.7,26.8C144.6,68.2,150.3,70.2,150.3,70.2z M68,147.8l-0.7,2
	c5.8,1.8,11.8,2.8,17.7,3c2.6-1.8,5.1-3.8,7.6-6.2C84.6,148.4,76.3,148.9,68,147.8z M98.6,144.8c-2.7,2.9-5.4,5.6-8.3,7.8
	c9.7-0.5,19.3-3.2,28-7.9l-2.5-8.4C110.5,139.9,104.7,142.8,98.6,144.8z M129.9,123.4l9.7,2.8c3.7-4.9,6.6-10.4,8.7-16.2l-8.5-2.9
	C137.3,113.1,133.9,118.5,129.9,123.4L129.9,123.4z M151.1,73.8l-5.9-2.1c1.2,9.9,0.2,20.3-3.3,30.4c-0.3,0.7-0.5,1.4-0.8,2.1
	l8.3,2.9C152.9,96.2,153.4,84.7,151.1,73.8z"/>
<path class="st1" d="M164.1,152.9l-8.6-8.6l8-5.9c1-0.7,1.4-1.9,1.2-3.1c-0.2-1.2-1.1-2.1-2.2-2.5l-16.6-4.9
	c3.7-5.4,6.7-11.2,8.9-17.4c6.3-18.1,5.1-37.6-3.3-54.9c-8.1-16.7-22.1-29.3-39.4-35.8l4.6-13.3c0.6-1.6-0.3-3.4-1.9-4
	c-1.6-0.6-3.4,0.3-4,1.9L106.2,18c-16.9-4.7-34.8-3.2-50.7,4.5c-17.3,8.4-30.2,23-36.5,41.2s-5.1,37.7,3.3,54.9
	c7.8,15.9,20.9,28.1,37.1,34.9l-6.9,19.9c-0.6,1.6,0.3,3.4,1.9,4c0.3,0.1,0.7,0.2,1,0.2c1.3,0,2.5-0.8,2.9-2.1l6.8-19.8
	c7.1,2.3,14.5,3.4,21.7,3.4c11.4,0,22.7-2.8,33.1-8.2l5.6,19c0.3,1.1,1.3,2,2.5,2.2c1.2,0.2,2.4-0.3,3.1-1.2l5.9-8l8.6,8.6
	c0.6,0.6,1.4,0.9,2.2,0.9s1.6-0.3,2.2-0.9l14-14C165.3,156.1,165.3,154.2,164.1,152.9z M139.6,126.2l-9.7-2.8l-14-4.1
	c2.9-5.6,5.4-11.6,7.7-17.8l16.2,5.6l8.5,2.9C146.2,115.8,143.3,121.3,139.6,126.2L139.6,126.2z M106.5,129.5l-28.8-9.9l10.4-30.3
	l32.5,11.2C116.9,111.1,112,121,106.5,129.5z M114.6,132.2l-5.1-1.8c1.1-1.7,2.1-3.4,3.1-5.1L114.6,132.2z M83.3,84.3L50.8,73
	c3.8-10.6,8.5-20.5,14-29l29,10C93.8,54,83.3,84.3,83.3,84.3z M99.7,56l29,10c-1,10.1-3.3,20.9-6.9,31.5L89.2,86.3L99.7,56z
	 M82.3,87.2l-10.4,30.3l-28.7-9.9C44,97.5,46.3,86.7,49.8,76C49.8,76,82.3,87.2,82.3,87.2z M149.4,107.1l-8.3-2.9l-16.3-5.6
	c3.6-10.7,6-21.4,7-31.4l13.4,4.6l5.9,2.1C153.4,84.7,152.9,96.2,149.4,107.1L149.4,107.1z M134,41.5c4.8,4.9,8.8,10.6,11.9,17
	c1.9,3.8,3.3,7.8,4.4,11.8l-5.6-2l-12.6-4.4c0.7-9.3,0.3-17.9-1.3-25.5C131.9,39.3,132.9,40.4,134,41.5z M110.1,25.9
	c6.1,2.3,11.6,5.4,16.7,9.2c2.2,7.9,2.9,17.5,2.1,27.8l-28.2-9.7C100.7,53.1,110.1,25.9,110.1,25.9z M84.3,21.6
	c6.6-0.3,13.3,0.5,19.9,2.3L94.8,51l-28.3-9.8C72,33.2,78,26.5,84.3,21.6L84.3,21.6z M58.2,28.1c6.6-3.2,13.6-5.2,20.7-6.1
	c-5.4,4.9-10.6,11-15.4,18.2l-16-5.5C50.8,32.2,54.4,30,58.2,28.1z M44.6,37l17.1,5.9C56.3,51.5,51.6,61.4,47.8,72l-22.4-7.7
	C29.5,53.5,36.1,44.2,44.6,37z M24.5,67.2L46.8,75c-3.5,10.7-5.8,21.4-6.7,31.5l-17.4-6C20.4,89.5,21,78.1,24.5,67.2z M27.9,115.9
	c-1.9-3.8-3.3-7.8-4.4-11.8l16.3,5.6c-0.6,8.8-0.2,17.1,1.3,24.4C35.8,128.9,31.3,122.8,27.9,115.9z M61.8,146.7l-0.3,0.9
	c-1.7-0.7-3.3-1.5-4.8-2.3c-4.1-2.1-7.9-4.6-11.4-7.5c-2.2-7.7-2.9-17-2.3-27l27.9,9.6C70.8,120.4,61.8,146.7,61.8,146.7z M85,152.7
	c-5.9-0.2-11.9-1.2-17.7-3l0.7-2l8.8-25.3l27.9,9.6c-3.8,5.5-7.9,10.4-12.1,14.4C90.1,148.9,87.6,151,85,152.7z M90.3,152.7
	c2.8-2.3,5.6-4.9,8.3-7.8c3.2-3.5,6.3-7.4,9.2-11.7l8,2.8l0.1,0.4l2.5,8.5C109.5,149.5,100,152.2,90.3,152.7z M147.9,164.7l-8.9-8.9
	c-0.6-0.6-1.4-0.9-2.2-0.9h-0.2c-0.9,0.1-1.7,0.5-2.3,1.3l-4.4,5.9l-4.2-14.4l-0.9-2.9l-0.9-3l-1.1-3.7l-0.9-3.2l-0.7-2.5l-1.6-5.4
	l5.7,1.7l13.6,4l16,4.7l-5.9,4.4c-0.7,0.5-1.2,1.4-1.3,2.3c-0.1,0.9,0.3,1.8,0.9,2.4l8.9,8.9L147.9,164.7z"/>
</svg>
