<?xml version="1.0" encoding="utf-8"?>
<!-- Generator: Adobe Illustrator 27.2.0, SVG Export Plug-In . SVG Version: 6.00 Build 0)  -->
<svg version="1.1" id="图层_1" xmlns="http://www.w3.org/2000/svg" xmlns:xlink="http://www.w3.org/1999/xlink" x="0px" y="0px"
	 viewBox="0 0 132 132" style="enable-background:new 0 0 132 132;" xml:space="preserve">
<style type="text/css">
	.st0{fill:#FFFFFF;}
	.st1{fill:#4395F8;}
	.st2{fill:#F08E35;}
	.st3{fill:#79E345;}
</style>
<path class="st0" d="M24.4,0.5h83.2c12.9,0,23.4,10.5,23.4,23.4v83.2c0,12.9-10.5,23.4-23.4,23.4H24.4C11.4,130.5,1,120,1,107.1
	V23.9C1,10.9,11.4,0.5,24.4,0.5z"/>
<path class="st1" d="M87.9,35.2c50.9,29.3,49.2,37.1,0.3,65.3c-49,28.2-56.6,28.6-56.5-32.3C31.7,7.2,37.1,5.9,87.9,35.2z"/>
<path class="st2" d="M65.8,40.7c46.4,21.5,45.1,31.6,0.2,52.3C21.2,113.6,17,115.9,17,67.1C17.1,18.3,19.4,19.2,65.8,40.7z"/>
<path class="st3" d="M65.8,40.7c46.4,21.5,45.1,31.6,0.2,52.3c-15.6,7.2-25.2,11.7-31.8,13c0,0-2.8-4.1-2.6-38.8
	c0.2-34.7,2.8-39.5,2.8-39.5C39.5,28.7,51.7,34.1,65.8,40.7L65.8,40.7z"/>
<path class="st0" d="M63,77.7c-18.8,10.9-19.1,10-19.1-10.9c0-21-0.5-22.3,19-11.1S81.8,66.8,63,77.7z"/>
</svg>
