<?xml version="1.0" encoding="utf-8"?>
<!-- Generator: Adobe Illustrator 27.2.0, SVG Export Plug-In . SVG Version: 6.00 Build 0)  -->
<svg version="1.1" id="图层_1" xmlns="http://www.w3.org/2000/svg" xmlns:xlink="http://www.w3.org/1999/xlink" x="0px" y="0px"
	 viewBox="0 0 200 200" style="enable-background:new 0 0 200 200;" xml:space="preserve">
<style type="text/css">
	.st0{fill:#115740;}
</style>
<path class="st0" d="M144.5,193.3H46.8c-14.6,0-26.4-11.8-26.4-26.4V33.1c0-14.6,11.8-26.4,26.4-26.4v7.7
	c-10.3,0-18.7,8.4-18.7,18.7v133.8c0,10.3,8.4,18.7,18.7,18.7h97.8c10.3,0,18.7-8.4,18.7-18.7V33.1h7.7v133.8
	C170.9,181.4,159.1,193.3,144.5,193.3L144.5,193.3z"/>
<path class="st0" d="M170.9,33.1h-7.7c0-10.3-8.4-18.7-18.7-18.7H46.8V6.7h97.8C159.1,6.7,170.9,18.6,170.9,33.1z"/>
<path class="st0" d="M150.7,50.9c-2.1,0-3.8-1.7-3.8-3.8c0-10.9-3.9-16.5-11.6-16.5H25.2c-2.1,0-3.8-1.7-3.8-3.8s1.7-3.8,3.8-3.8
	h110.1c12,0,19.3,9,19.3,24.3C154.5,49.2,152.8,50.9,150.7,50.9L150.7,50.9z M172.9,102.6c-4.1,0-7.5-3.4-7.5-7.5V74.3
	c0-4.1,3.4-7.5,7.5-7.5s7.5,3.4,7.5,7.5v20.8C180.4,99.3,177,102.6,172.9,102.6L172.9,102.6z M172.9,71.9c-1.3,0-2.3,1-2.3,2.3v20.8
	c0,1.3,1,2.3,2.3,2.3c1.3,0,2.3-1,2.3-2.3V74.3C175.2,72.9,174.2,71.9,172.9,71.9z"/>
<path class="st0" d="M172.9,133.2c-4.1,0-7.5-3.4-7.5-7.5v-20.8c0-4.1,3.4-7.5,7.5-7.5s7.5,3.4,7.5,7.5v20.8
	C180.4,129.9,177,133.2,172.9,133.2z M172.9,102.6c-1.3,0-2.3,1-2.3,2.3v20.8c0,1.3,1,2.3,2.3,2.3c1.3,0,2.3-1,2.3-2.3v-20.8
	C175.2,103.6,174.2,102.6,172.9,102.6L172.9,102.6z"/>
<path class="st0" d="M172.9,163.9c-4.1,0-7.5-3.4-7.5-7.5v-20.8c0-4.1,3.4-7.5,7.5-7.5s7.5,3.4,7.5,7.5v20.8
	C180.4,160.5,177,163.9,172.9,163.9z M172.9,133.2c-1.3,0-2.3,1-2.3,2.3v20.8c0,1.3,1,2.3,2.3,2.3c1.3,0,2.3-1,2.3-2.3v-20.8
	C175.2,134.3,174.2,133.2,172.9,133.2L172.9,133.2z M164.7,52.1H36.5c-5.6,0-11.9-7.7-14.4-11c-1.3-1.7-0.9-4.1,0.8-5.4
	c1.7-1.3,4.1-0.9,5.4,0.8c2.8,3.8,6.8,7.7,8.3,7.9h128.2c2.1,0,3.8,1.7,3.8,3.8S166.8,52.1,164.7,52.1L164.7,52.1z M113.4,96.7v22.7
	c0,1.4,0.2,2.4,0.6,3.2c0.4,0.7,0.8,1.2,1.4,1.6c0.6,0.3,1.2,0.5,2.1,0.5c1.7,0,3.1-0.5,4.2-1.4s2.1-2.1,2.7-3.4
	c0.7-1.3,1.1-2.6,1.4-4c0.3-1.4,0.4-3.1,0.4-5.1c0-2.3-0.3-4.6-1-6.7c-0.7-2.1-1.6-4.2-2.8-6.2s-2.6-3.7-4.3-5.3
	c-1.7-1.6-3.5-3-5.6-4.1s-4.3-2.1-6.7-2.7c-2.4-0.7-4.9-0.9-7.5-0.9c-2.6,0-5,0.3-7.5,1c-2.3,0.7-4.6,1.6-6.7,2.8
	c-2.1,1.2-3.9,2.6-5.6,4.3c-1.7,1.7-3.2,3.5-4.3,5.6c-1.2,2.1-2.1,4.3-2.8,6.6s-1,4.9-1,7.4c0,2.6,0.3,5,1,7.5
	c0.7,2.3,1.6,4.6,2.8,6.7c1.2,2.1,2.6,3.9,4.3,5.6c1.7,1.7,3.5,3.2,5.6,4.3c2.1,1.2,4.3,2.1,6.7,2.8c2.3,0.7,4.9,1,7.5,1
	c2.6,0,5.1-0.4,7.6-1c2.4-0.7,4.8-1.7,6.8-3c0,0,3-0.7,4,1.2c1.1,2.1-0.8,4.1-0.8,4.1c-2.6,1.6-5.3,2.8-8.3,3.6
	c-3,0.8-6.1,1.3-9.3,1.3c-3.2,0-6.2-0.4-9-1.2c-2.9-0.8-5.6-2-8.2-3.5c-2.5-1.5-4.9-3.3-6.9-5.3c-2.1-2.1-3.8-4.4-5.3-6.9
	c-1.5-2.5-2.6-5.2-3.5-8.2c-0.8-2.9-1.2-6-1.2-9c0-3.1,0.4-6.2,1.2-9c0.8-2.9,2-5.6,3.5-8.1c1.5-2.5,3.3-4.9,5.3-6.9
	c2.1-2.1,4.4-3.8,6.9-5.3c2.5-1.5,5.2-2.6,8.2-3.5c2.9-0.8,6-1.2,9-1.2c3.2,0,6.3,0.4,9.1,1.2c2.9,0.8,5.7,1.9,8.2,3.3
	s4.9,3.1,6.9,5.1s3.8,4.2,5.3,6.5c1.5,2.4,2.6,4.9,3.5,7.7c0.8,2.7,1.2,5.5,1.2,8.5c0,1.6-0.2,3.1-0.5,4.7s-0.7,3.1-1.3,4.5
	c-0.6,1.4-1.3,2.8-2.1,4c-0.8,1.2-1.9,2.3-3,3.3s-2.3,1.7-3.7,2.2c-1.4,0.6-2.9,0.8-4.5,0.8c-2.1,0-3.8-0.5-5.2-1.4
	c-1.4-0.9-2.5-2.1-3.4-3.5c-1.4,1.2-3.1,2.1-4.9,2.8c-1.8,0.7-3.7,1-5.8,1c-2.4,0-4.6-0.4-6.6-1.2c-2-0.8-3.7-2-5.2-3.5
	c-1.5-1.5-2.6-3.2-3.5-5.1c-0.8-2-1.2-4-1.2-6.3c0-2.2,0.4-4.3,1.3-6.3c0.8-2,2-3.6,3.5-5.1c1.5-1.5,3.2-2.6,5.2-3.5
	c2-0.8,4.1-1.3,6.4-1.3c1.7,0,3.3,0.3,4.8,0.7c1.5,0.5,2.9,1.1,4.2,2v-2.9L113.4,96.7L113.4,96.7z M98.1,122.8c2.1,0,4-0.5,5.5-1.5
	c1.6-1,2.7-2.2,3.5-3.8v-8.7c-0.4-0.8-0.9-1.6-1.5-2.2c-0.6-0.7-1.3-1.3-2.1-1.8c-0.7-0.5-1.6-0.8-2.5-1.1c-0.9-0.3-1.9-0.4-2.9-0.4
	c-1.5,0-2.8,0.3-4,0.7c-1.2,0.6-2.3,1.2-3.2,2.1c-0.9,0.9-1.6,2-2.1,3.1c-0.5,1.2-0.7,2.4-0.7,3.7c0,1.3,0.3,2.6,0.7,3.7
	c0.5,1.2,1.1,2.2,2.1,3.1c0.8,0.8,2,1.6,3.2,2.1C95.2,122.5,96.5,122.8,98.1,122.8L98.1,122.8z"/>
</svg>
