<?xml version="1.0" encoding="utf-8"?>
<!-- Generator: Adobe Illustrator 27.2.0, SVG Export Plug-In . SVG Version: 6.00 Build 0)  -->
<svg version="1.1" id="Layer_1" xmlns="http://www.w3.org/2000/svg" xmlns:xlink="http://www.w3.org/1999/xlink" x="0px" y="0px"
	 viewBox="0 0 800 800" style="enable-background:new 0 0 800 800;" xml:space="preserve">
<style type="text/css">
	.st0{fill:none;stroke:#008C50;stroke-width:63.6667;stroke-miterlimit:333.3333;}
	.st1{fill:none;stroke:#0A8C50;stroke-width:63.6667;stroke-miterlimit:333.3333;}
</style>
<circle class="st0" cx="400" cy="400" r="95.3"/>
<path class="st0" d="M495.3,272.7v200c0,30.7,24.9,55.7,55.7,55.7l0,0c20.8,0.2,39.9-11.4,49.3-30c18.5-37.9,25.8-80.4,21-122.3
	c-14-122.4-124.6-210.2-246.9-196.2c-122.4,14-210.2,124.6-196.2,246.9S302.8,637,425.2,622.9c18.9-2.2,37.4-6.7,55.2-13.6"/>
<path class="st1" d="M177.3,50h445.3C693,50,750,107,750,177.3v445.3C750,693,693,750,622.7,750H177.3C107,750,50,693,50,622.7
	V177.3C50,107,107,50,177.3,50z"/>
</svg>
