<?xml version="1.0" encoding="utf-8"?>
<!-- Generator: Adobe Illustrator 27.2.0, SVG Export Plug-In . SVG Version: 6.00 Build 0)  -->
<svg version="1.1" id="图层_1" xmlns="http://www.w3.org/2000/svg" xmlns:xlink="http://www.w3.org/1999/xlink" x="0px" y="0px"
	 viewBox="0 0 180 180" style="enable-background:new 0 0 180 180;" xml:space="preserve">
<style type="text/css">
	.st0{fill:#CAE4FF;}
	.st1{fill:#0972E7;}
</style>
<path class="st0" d="M35.3,25.3h107.1c7,0,12.6,5.6,12.6,12.6v63c0,7-5.6,12.6-12.6,12.6H35.3c-7,0-12.6-5.6-12.6-12.6V38
	C22.7,31,28.4,25.3,35.3,25.3z"/>
<path class="st1" d="M163.8,6.2H16.3c-6.9,0-12.5,5.6-12.5,12.5v101c0,6.9,5.6,12.5,12.5,12.5h67.5v27.2H23.6
	c-3.4,0-6.3,2.7-6.4,6.1c-0.1,3.4,2.6,6.3,6.1,6.4h133.2c3.4,0,6.3-2.7,6.4-6.1c0.1-3.4-2.6-6.3-6.1-6.4H96.3v-27.2h67.5
	c6.9,0,12.5-5.6,12.5-12.5v-101C176.2,11.8,170.6,6.2,163.8,6.2L163.8,6.2z M163.8,119.6H16.3V18.7h147.5V119.6z"/>
<path class="st1" d="M42.2,33.6h-6.6c-2.3,0-4.1,1.9-4.2,4.2v6.6c0,2.3,1.9,4.1,4.2,4.2h6.6c2.3,0,4.1-1.9,4.2-4.2v-6.6
	C46.4,35.5,44.5,33.6,42.2,33.6z M61.1,33.6h-6.6c-2.3,0-4.1,1.9-4.2,4.2v6.6c0,2.3,1.9,4.1,4.2,4.2h6.6c2.3,0,4.1-1.9,4.2-4.2v-6.6
	C65.3,35.5,63.4,33.6,61.1,33.6z M80,33.6h-6.6c-2.3,0-4.1,1.9-4.2,4.2v6.6c0,2.3,1.9,4.1,4.2,4.2H80c2.3,0,4.1-1.9,4.2-4.2v-6.6
	C84.2,35.5,82.3,33.6,80,33.6z"/>
</svg>
